G75*
%MOIN*%
%OFA0B0*%
%FSLAX25Y25*%
%IPPOS*%
%LPD*%
%AMOC8*
5,1,8,0,0,1.08239X$1,22.5*
%
%ADD10C,0.00000*%
%ADD11C,0.01000*%
%ADD12C,0.00800*%
%ADD13C,0.00100*%
%ADD14C,0.00600*%
%ADD15C,0.00500*%
%ADD16R,0.08000X0.02000*%
%ADD17R,0.02000X0.02500*%
%ADD18C,0.02000*%
%ADD19R,0.05000X0.07500*%
%ADD20R,0.03000X0.07000*%
%ADD21R,0.05000X0.03000*%
%ADD22C,0.00400*%
%ADD23R,0.02000X0.10000*%
%ADD24R,0.07500X0.03000*%
D10*
X0007100Y0006700D02*
X0200801Y0006700D01*
X0185801Y0016700D02*
X0185803Y0016858D01*
X0185809Y0017016D01*
X0185819Y0017174D01*
X0185833Y0017332D01*
X0185851Y0017489D01*
X0185872Y0017646D01*
X0185898Y0017802D01*
X0185928Y0017958D01*
X0185961Y0018113D01*
X0185999Y0018266D01*
X0186040Y0018419D01*
X0186085Y0018571D01*
X0186134Y0018722D01*
X0186187Y0018871D01*
X0186243Y0019019D01*
X0186303Y0019165D01*
X0186367Y0019310D01*
X0186435Y0019453D01*
X0186506Y0019595D01*
X0186580Y0019735D01*
X0186658Y0019872D01*
X0186740Y0020008D01*
X0186824Y0020142D01*
X0186913Y0020273D01*
X0187004Y0020402D01*
X0187099Y0020529D01*
X0187196Y0020654D01*
X0187297Y0020776D01*
X0187401Y0020895D01*
X0187508Y0021012D01*
X0187618Y0021126D01*
X0187731Y0021237D01*
X0187846Y0021346D01*
X0187964Y0021451D01*
X0188085Y0021553D01*
X0188208Y0021653D01*
X0188334Y0021749D01*
X0188462Y0021842D01*
X0188592Y0021932D01*
X0188725Y0022018D01*
X0188860Y0022102D01*
X0188996Y0022181D01*
X0189135Y0022258D01*
X0189276Y0022330D01*
X0189418Y0022400D01*
X0189562Y0022465D01*
X0189708Y0022527D01*
X0189855Y0022585D01*
X0190004Y0022640D01*
X0190154Y0022691D01*
X0190305Y0022738D01*
X0190457Y0022781D01*
X0190610Y0022820D01*
X0190765Y0022856D01*
X0190920Y0022887D01*
X0191076Y0022915D01*
X0191232Y0022939D01*
X0191389Y0022959D01*
X0191547Y0022975D01*
X0191704Y0022987D01*
X0191863Y0022995D01*
X0192021Y0022999D01*
X0192179Y0022999D01*
X0192337Y0022995D01*
X0192496Y0022987D01*
X0192653Y0022975D01*
X0192811Y0022959D01*
X0192968Y0022939D01*
X0193124Y0022915D01*
X0193280Y0022887D01*
X0193435Y0022856D01*
X0193590Y0022820D01*
X0193743Y0022781D01*
X0193895Y0022738D01*
X0194046Y0022691D01*
X0194196Y0022640D01*
X0194345Y0022585D01*
X0194492Y0022527D01*
X0194638Y0022465D01*
X0194782Y0022400D01*
X0194924Y0022330D01*
X0195065Y0022258D01*
X0195204Y0022181D01*
X0195340Y0022102D01*
X0195475Y0022018D01*
X0195608Y0021932D01*
X0195738Y0021842D01*
X0195866Y0021749D01*
X0195992Y0021653D01*
X0196115Y0021553D01*
X0196236Y0021451D01*
X0196354Y0021346D01*
X0196469Y0021237D01*
X0196582Y0021126D01*
X0196692Y0021012D01*
X0196799Y0020895D01*
X0196903Y0020776D01*
X0197004Y0020654D01*
X0197101Y0020529D01*
X0197196Y0020402D01*
X0197287Y0020273D01*
X0197376Y0020142D01*
X0197460Y0020008D01*
X0197542Y0019872D01*
X0197620Y0019735D01*
X0197694Y0019595D01*
X0197765Y0019453D01*
X0197833Y0019310D01*
X0197897Y0019165D01*
X0197957Y0019019D01*
X0198013Y0018871D01*
X0198066Y0018722D01*
X0198115Y0018571D01*
X0198160Y0018419D01*
X0198201Y0018266D01*
X0198239Y0018113D01*
X0198272Y0017958D01*
X0198302Y0017802D01*
X0198328Y0017646D01*
X0198349Y0017489D01*
X0198367Y0017332D01*
X0198381Y0017174D01*
X0198391Y0017016D01*
X0198397Y0016858D01*
X0198399Y0016700D01*
X0198397Y0016542D01*
X0198391Y0016384D01*
X0198381Y0016226D01*
X0198367Y0016068D01*
X0198349Y0015911D01*
X0198328Y0015754D01*
X0198302Y0015598D01*
X0198272Y0015442D01*
X0198239Y0015287D01*
X0198201Y0015134D01*
X0198160Y0014981D01*
X0198115Y0014829D01*
X0198066Y0014678D01*
X0198013Y0014529D01*
X0197957Y0014381D01*
X0197897Y0014235D01*
X0197833Y0014090D01*
X0197765Y0013947D01*
X0197694Y0013805D01*
X0197620Y0013665D01*
X0197542Y0013528D01*
X0197460Y0013392D01*
X0197376Y0013258D01*
X0197287Y0013127D01*
X0197196Y0012998D01*
X0197101Y0012871D01*
X0197004Y0012746D01*
X0196903Y0012624D01*
X0196799Y0012505D01*
X0196692Y0012388D01*
X0196582Y0012274D01*
X0196469Y0012163D01*
X0196354Y0012054D01*
X0196236Y0011949D01*
X0196115Y0011847D01*
X0195992Y0011747D01*
X0195866Y0011651D01*
X0195738Y0011558D01*
X0195608Y0011468D01*
X0195475Y0011382D01*
X0195340Y0011298D01*
X0195204Y0011219D01*
X0195065Y0011142D01*
X0194924Y0011070D01*
X0194782Y0011000D01*
X0194638Y0010935D01*
X0194492Y0010873D01*
X0194345Y0010815D01*
X0194196Y0010760D01*
X0194046Y0010709D01*
X0193895Y0010662D01*
X0193743Y0010619D01*
X0193590Y0010580D01*
X0193435Y0010544D01*
X0193280Y0010513D01*
X0193124Y0010485D01*
X0192968Y0010461D01*
X0192811Y0010441D01*
X0192653Y0010425D01*
X0192496Y0010413D01*
X0192337Y0010405D01*
X0192179Y0010401D01*
X0192021Y0010401D01*
X0191863Y0010405D01*
X0191704Y0010413D01*
X0191547Y0010425D01*
X0191389Y0010441D01*
X0191232Y0010461D01*
X0191076Y0010485D01*
X0190920Y0010513D01*
X0190765Y0010544D01*
X0190610Y0010580D01*
X0190457Y0010619D01*
X0190305Y0010662D01*
X0190154Y0010709D01*
X0190004Y0010760D01*
X0189855Y0010815D01*
X0189708Y0010873D01*
X0189562Y0010935D01*
X0189418Y0011000D01*
X0189276Y0011070D01*
X0189135Y0011142D01*
X0188996Y0011219D01*
X0188860Y0011298D01*
X0188725Y0011382D01*
X0188592Y0011468D01*
X0188462Y0011558D01*
X0188334Y0011651D01*
X0188208Y0011747D01*
X0188085Y0011847D01*
X0187964Y0011949D01*
X0187846Y0012054D01*
X0187731Y0012163D01*
X0187618Y0012274D01*
X0187508Y0012388D01*
X0187401Y0012505D01*
X0187297Y0012624D01*
X0187196Y0012746D01*
X0187099Y0012871D01*
X0187004Y0012998D01*
X0186913Y0013127D01*
X0186824Y0013258D01*
X0186740Y0013392D01*
X0186658Y0013528D01*
X0186580Y0013665D01*
X0186506Y0013805D01*
X0186435Y0013947D01*
X0186367Y0014090D01*
X0186303Y0014235D01*
X0186243Y0014381D01*
X0186187Y0014529D01*
X0186134Y0014678D01*
X0186085Y0014829D01*
X0186040Y0014981D01*
X0185999Y0015134D01*
X0185961Y0015287D01*
X0185928Y0015442D01*
X0185898Y0015598D01*
X0185872Y0015754D01*
X0185851Y0015911D01*
X0185833Y0016068D01*
X0185819Y0016226D01*
X0185809Y0016384D01*
X0185803Y0016542D01*
X0185801Y0016700D01*
X0010801Y0016700D02*
X0010803Y0016858D01*
X0010809Y0017016D01*
X0010819Y0017174D01*
X0010833Y0017332D01*
X0010851Y0017489D01*
X0010872Y0017646D01*
X0010898Y0017802D01*
X0010928Y0017958D01*
X0010961Y0018113D01*
X0010999Y0018266D01*
X0011040Y0018419D01*
X0011085Y0018571D01*
X0011134Y0018722D01*
X0011187Y0018871D01*
X0011243Y0019019D01*
X0011303Y0019165D01*
X0011367Y0019310D01*
X0011435Y0019453D01*
X0011506Y0019595D01*
X0011580Y0019735D01*
X0011658Y0019872D01*
X0011740Y0020008D01*
X0011824Y0020142D01*
X0011913Y0020273D01*
X0012004Y0020402D01*
X0012099Y0020529D01*
X0012196Y0020654D01*
X0012297Y0020776D01*
X0012401Y0020895D01*
X0012508Y0021012D01*
X0012618Y0021126D01*
X0012731Y0021237D01*
X0012846Y0021346D01*
X0012964Y0021451D01*
X0013085Y0021553D01*
X0013208Y0021653D01*
X0013334Y0021749D01*
X0013462Y0021842D01*
X0013592Y0021932D01*
X0013725Y0022018D01*
X0013860Y0022102D01*
X0013996Y0022181D01*
X0014135Y0022258D01*
X0014276Y0022330D01*
X0014418Y0022400D01*
X0014562Y0022465D01*
X0014708Y0022527D01*
X0014855Y0022585D01*
X0015004Y0022640D01*
X0015154Y0022691D01*
X0015305Y0022738D01*
X0015457Y0022781D01*
X0015610Y0022820D01*
X0015765Y0022856D01*
X0015920Y0022887D01*
X0016076Y0022915D01*
X0016232Y0022939D01*
X0016389Y0022959D01*
X0016547Y0022975D01*
X0016704Y0022987D01*
X0016863Y0022995D01*
X0017021Y0022999D01*
X0017179Y0022999D01*
X0017337Y0022995D01*
X0017496Y0022987D01*
X0017653Y0022975D01*
X0017811Y0022959D01*
X0017968Y0022939D01*
X0018124Y0022915D01*
X0018280Y0022887D01*
X0018435Y0022856D01*
X0018590Y0022820D01*
X0018743Y0022781D01*
X0018895Y0022738D01*
X0019046Y0022691D01*
X0019196Y0022640D01*
X0019345Y0022585D01*
X0019492Y0022527D01*
X0019638Y0022465D01*
X0019782Y0022400D01*
X0019924Y0022330D01*
X0020065Y0022258D01*
X0020204Y0022181D01*
X0020340Y0022102D01*
X0020475Y0022018D01*
X0020608Y0021932D01*
X0020738Y0021842D01*
X0020866Y0021749D01*
X0020992Y0021653D01*
X0021115Y0021553D01*
X0021236Y0021451D01*
X0021354Y0021346D01*
X0021469Y0021237D01*
X0021582Y0021126D01*
X0021692Y0021012D01*
X0021799Y0020895D01*
X0021903Y0020776D01*
X0022004Y0020654D01*
X0022101Y0020529D01*
X0022196Y0020402D01*
X0022287Y0020273D01*
X0022376Y0020142D01*
X0022460Y0020008D01*
X0022542Y0019872D01*
X0022620Y0019735D01*
X0022694Y0019595D01*
X0022765Y0019453D01*
X0022833Y0019310D01*
X0022897Y0019165D01*
X0022957Y0019019D01*
X0023013Y0018871D01*
X0023066Y0018722D01*
X0023115Y0018571D01*
X0023160Y0018419D01*
X0023201Y0018266D01*
X0023239Y0018113D01*
X0023272Y0017958D01*
X0023302Y0017802D01*
X0023328Y0017646D01*
X0023349Y0017489D01*
X0023367Y0017332D01*
X0023381Y0017174D01*
X0023391Y0017016D01*
X0023397Y0016858D01*
X0023399Y0016700D01*
X0023397Y0016542D01*
X0023391Y0016384D01*
X0023381Y0016226D01*
X0023367Y0016068D01*
X0023349Y0015911D01*
X0023328Y0015754D01*
X0023302Y0015598D01*
X0023272Y0015442D01*
X0023239Y0015287D01*
X0023201Y0015134D01*
X0023160Y0014981D01*
X0023115Y0014829D01*
X0023066Y0014678D01*
X0023013Y0014529D01*
X0022957Y0014381D01*
X0022897Y0014235D01*
X0022833Y0014090D01*
X0022765Y0013947D01*
X0022694Y0013805D01*
X0022620Y0013665D01*
X0022542Y0013528D01*
X0022460Y0013392D01*
X0022376Y0013258D01*
X0022287Y0013127D01*
X0022196Y0012998D01*
X0022101Y0012871D01*
X0022004Y0012746D01*
X0021903Y0012624D01*
X0021799Y0012505D01*
X0021692Y0012388D01*
X0021582Y0012274D01*
X0021469Y0012163D01*
X0021354Y0012054D01*
X0021236Y0011949D01*
X0021115Y0011847D01*
X0020992Y0011747D01*
X0020866Y0011651D01*
X0020738Y0011558D01*
X0020608Y0011468D01*
X0020475Y0011382D01*
X0020340Y0011298D01*
X0020204Y0011219D01*
X0020065Y0011142D01*
X0019924Y0011070D01*
X0019782Y0011000D01*
X0019638Y0010935D01*
X0019492Y0010873D01*
X0019345Y0010815D01*
X0019196Y0010760D01*
X0019046Y0010709D01*
X0018895Y0010662D01*
X0018743Y0010619D01*
X0018590Y0010580D01*
X0018435Y0010544D01*
X0018280Y0010513D01*
X0018124Y0010485D01*
X0017968Y0010461D01*
X0017811Y0010441D01*
X0017653Y0010425D01*
X0017496Y0010413D01*
X0017337Y0010405D01*
X0017179Y0010401D01*
X0017021Y0010401D01*
X0016863Y0010405D01*
X0016704Y0010413D01*
X0016547Y0010425D01*
X0016389Y0010441D01*
X0016232Y0010461D01*
X0016076Y0010485D01*
X0015920Y0010513D01*
X0015765Y0010544D01*
X0015610Y0010580D01*
X0015457Y0010619D01*
X0015305Y0010662D01*
X0015154Y0010709D01*
X0015004Y0010760D01*
X0014855Y0010815D01*
X0014708Y0010873D01*
X0014562Y0010935D01*
X0014418Y0011000D01*
X0014276Y0011070D01*
X0014135Y0011142D01*
X0013996Y0011219D01*
X0013860Y0011298D01*
X0013725Y0011382D01*
X0013592Y0011468D01*
X0013462Y0011558D01*
X0013334Y0011651D01*
X0013208Y0011747D01*
X0013085Y0011847D01*
X0012964Y0011949D01*
X0012846Y0012054D01*
X0012731Y0012163D01*
X0012618Y0012274D01*
X0012508Y0012388D01*
X0012401Y0012505D01*
X0012297Y0012624D01*
X0012196Y0012746D01*
X0012099Y0012871D01*
X0012004Y0012998D01*
X0011913Y0013127D01*
X0011824Y0013258D01*
X0011740Y0013392D01*
X0011658Y0013528D01*
X0011580Y0013665D01*
X0011506Y0013805D01*
X0011435Y0013947D01*
X0011367Y0014090D01*
X0011303Y0014235D01*
X0011243Y0014381D01*
X0011187Y0014529D01*
X0011134Y0014678D01*
X0011085Y0014829D01*
X0011040Y0014981D01*
X0010999Y0015134D01*
X0010961Y0015287D01*
X0010928Y0015442D01*
X0010898Y0015598D01*
X0010872Y0015754D01*
X0010851Y0015911D01*
X0010833Y0016068D01*
X0010819Y0016226D01*
X0010809Y0016384D01*
X0010803Y0016542D01*
X0010801Y0016700D01*
X0010801Y0191700D02*
X0010803Y0191858D01*
X0010809Y0192016D01*
X0010819Y0192174D01*
X0010833Y0192332D01*
X0010851Y0192489D01*
X0010872Y0192646D01*
X0010898Y0192802D01*
X0010928Y0192958D01*
X0010961Y0193113D01*
X0010999Y0193266D01*
X0011040Y0193419D01*
X0011085Y0193571D01*
X0011134Y0193722D01*
X0011187Y0193871D01*
X0011243Y0194019D01*
X0011303Y0194165D01*
X0011367Y0194310D01*
X0011435Y0194453D01*
X0011506Y0194595D01*
X0011580Y0194735D01*
X0011658Y0194872D01*
X0011740Y0195008D01*
X0011824Y0195142D01*
X0011913Y0195273D01*
X0012004Y0195402D01*
X0012099Y0195529D01*
X0012196Y0195654D01*
X0012297Y0195776D01*
X0012401Y0195895D01*
X0012508Y0196012D01*
X0012618Y0196126D01*
X0012731Y0196237D01*
X0012846Y0196346D01*
X0012964Y0196451D01*
X0013085Y0196553D01*
X0013208Y0196653D01*
X0013334Y0196749D01*
X0013462Y0196842D01*
X0013592Y0196932D01*
X0013725Y0197018D01*
X0013860Y0197102D01*
X0013996Y0197181D01*
X0014135Y0197258D01*
X0014276Y0197330D01*
X0014418Y0197400D01*
X0014562Y0197465D01*
X0014708Y0197527D01*
X0014855Y0197585D01*
X0015004Y0197640D01*
X0015154Y0197691D01*
X0015305Y0197738D01*
X0015457Y0197781D01*
X0015610Y0197820D01*
X0015765Y0197856D01*
X0015920Y0197887D01*
X0016076Y0197915D01*
X0016232Y0197939D01*
X0016389Y0197959D01*
X0016547Y0197975D01*
X0016704Y0197987D01*
X0016863Y0197995D01*
X0017021Y0197999D01*
X0017179Y0197999D01*
X0017337Y0197995D01*
X0017496Y0197987D01*
X0017653Y0197975D01*
X0017811Y0197959D01*
X0017968Y0197939D01*
X0018124Y0197915D01*
X0018280Y0197887D01*
X0018435Y0197856D01*
X0018590Y0197820D01*
X0018743Y0197781D01*
X0018895Y0197738D01*
X0019046Y0197691D01*
X0019196Y0197640D01*
X0019345Y0197585D01*
X0019492Y0197527D01*
X0019638Y0197465D01*
X0019782Y0197400D01*
X0019924Y0197330D01*
X0020065Y0197258D01*
X0020204Y0197181D01*
X0020340Y0197102D01*
X0020475Y0197018D01*
X0020608Y0196932D01*
X0020738Y0196842D01*
X0020866Y0196749D01*
X0020992Y0196653D01*
X0021115Y0196553D01*
X0021236Y0196451D01*
X0021354Y0196346D01*
X0021469Y0196237D01*
X0021582Y0196126D01*
X0021692Y0196012D01*
X0021799Y0195895D01*
X0021903Y0195776D01*
X0022004Y0195654D01*
X0022101Y0195529D01*
X0022196Y0195402D01*
X0022287Y0195273D01*
X0022376Y0195142D01*
X0022460Y0195008D01*
X0022542Y0194872D01*
X0022620Y0194735D01*
X0022694Y0194595D01*
X0022765Y0194453D01*
X0022833Y0194310D01*
X0022897Y0194165D01*
X0022957Y0194019D01*
X0023013Y0193871D01*
X0023066Y0193722D01*
X0023115Y0193571D01*
X0023160Y0193419D01*
X0023201Y0193266D01*
X0023239Y0193113D01*
X0023272Y0192958D01*
X0023302Y0192802D01*
X0023328Y0192646D01*
X0023349Y0192489D01*
X0023367Y0192332D01*
X0023381Y0192174D01*
X0023391Y0192016D01*
X0023397Y0191858D01*
X0023399Y0191700D01*
X0023397Y0191542D01*
X0023391Y0191384D01*
X0023381Y0191226D01*
X0023367Y0191068D01*
X0023349Y0190911D01*
X0023328Y0190754D01*
X0023302Y0190598D01*
X0023272Y0190442D01*
X0023239Y0190287D01*
X0023201Y0190134D01*
X0023160Y0189981D01*
X0023115Y0189829D01*
X0023066Y0189678D01*
X0023013Y0189529D01*
X0022957Y0189381D01*
X0022897Y0189235D01*
X0022833Y0189090D01*
X0022765Y0188947D01*
X0022694Y0188805D01*
X0022620Y0188665D01*
X0022542Y0188528D01*
X0022460Y0188392D01*
X0022376Y0188258D01*
X0022287Y0188127D01*
X0022196Y0187998D01*
X0022101Y0187871D01*
X0022004Y0187746D01*
X0021903Y0187624D01*
X0021799Y0187505D01*
X0021692Y0187388D01*
X0021582Y0187274D01*
X0021469Y0187163D01*
X0021354Y0187054D01*
X0021236Y0186949D01*
X0021115Y0186847D01*
X0020992Y0186747D01*
X0020866Y0186651D01*
X0020738Y0186558D01*
X0020608Y0186468D01*
X0020475Y0186382D01*
X0020340Y0186298D01*
X0020204Y0186219D01*
X0020065Y0186142D01*
X0019924Y0186070D01*
X0019782Y0186000D01*
X0019638Y0185935D01*
X0019492Y0185873D01*
X0019345Y0185815D01*
X0019196Y0185760D01*
X0019046Y0185709D01*
X0018895Y0185662D01*
X0018743Y0185619D01*
X0018590Y0185580D01*
X0018435Y0185544D01*
X0018280Y0185513D01*
X0018124Y0185485D01*
X0017968Y0185461D01*
X0017811Y0185441D01*
X0017653Y0185425D01*
X0017496Y0185413D01*
X0017337Y0185405D01*
X0017179Y0185401D01*
X0017021Y0185401D01*
X0016863Y0185405D01*
X0016704Y0185413D01*
X0016547Y0185425D01*
X0016389Y0185441D01*
X0016232Y0185461D01*
X0016076Y0185485D01*
X0015920Y0185513D01*
X0015765Y0185544D01*
X0015610Y0185580D01*
X0015457Y0185619D01*
X0015305Y0185662D01*
X0015154Y0185709D01*
X0015004Y0185760D01*
X0014855Y0185815D01*
X0014708Y0185873D01*
X0014562Y0185935D01*
X0014418Y0186000D01*
X0014276Y0186070D01*
X0014135Y0186142D01*
X0013996Y0186219D01*
X0013860Y0186298D01*
X0013725Y0186382D01*
X0013592Y0186468D01*
X0013462Y0186558D01*
X0013334Y0186651D01*
X0013208Y0186747D01*
X0013085Y0186847D01*
X0012964Y0186949D01*
X0012846Y0187054D01*
X0012731Y0187163D01*
X0012618Y0187274D01*
X0012508Y0187388D01*
X0012401Y0187505D01*
X0012297Y0187624D01*
X0012196Y0187746D01*
X0012099Y0187871D01*
X0012004Y0187998D01*
X0011913Y0188127D01*
X0011824Y0188258D01*
X0011740Y0188392D01*
X0011658Y0188528D01*
X0011580Y0188665D01*
X0011506Y0188805D01*
X0011435Y0188947D01*
X0011367Y0189090D01*
X0011303Y0189235D01*
X0011243Y0189381D01*
X0011187Y0189529D01*
X0011134Y0189678D01*
X0011085Y0189829D01*
X0011040Y0189981D01*
X0010999Y0190134D01*
X0010961Y0190287D01*
X0010928Y0190442D01*
X0010898Y0190598D01*
X0010872Y0190754D01*
X0010851Y0190911D01*
X0010833Y0191068D01*
X0010819Y0191226D01*
X0010809Y0191384D01*
X0010803Y0191542D01*
X0010801Y0191700D01*
X0183301Y0191700D02*
X0183303Y0191858D01*
X0183309Y0192016D01*
X0183319Y0192174D01*
X0183333Y0192332D01*
X0183351Y0192489D01*
X0183372Y0192646D01*
X0183398Y0192802D01*
X0183428Y0192958D01*
X0183461Y0193113D01*
X0183499Y0193266D01*
X0183540Y0193419D01*
X0183585Y0193571D01*
X0183634Y0193722D01*
X0183687Y0193871D01*
X0183743Y0194019D01*
X0183803Y0194165D01*
X0183867Y0194310D01*
X0183935Y0194453D01*
X0184006Y0194595D01*
X0184080Y0194735D01*
X0184158Y0194872D01*
X0184240Y0195008D01*
X0184324Y0195142D01*
X0184413Y0195273D01*
X0184504Y0195402D01*
X0184599Y0195529D01*
X0184696Y0195654D01*
X0184797Y0195776D01*
X0184901Y0195895D01*
X0185008Y0196012D01*
X0185118Y0196126D01*
X0185231Y0196237D01*
X0185346Y0196346D01*
X0185464Y0196451D01*
X0185585Y0196553D01*
X0185708Y0196653D01*
X0185834Y0196749D01*
X0185962Y0196842D01*
X0186092Y0196932D01*
X0186225Y0197018D01*
X0186360Y0197102D01*
X0186496Y0197181D01*
X0186635Y0197258D01*
X0186776Y0197330D01*
X0186918Y0197400D01*
X0187062Y0197465D01*
X0187208Y0197527D01*
X0187355Y0197585D01*
X0187504Y0197640D01*
X0187654Y0197691D01*
X0187805Y0197738D01*
X0187957Y0197781D01*
X0188110Y0197820D01*
X0188265Y0197856D01*
X0188420Y0197887D01*
X0188576Y0197915D01*
X0188732Y0197939D01*
X0188889Y0197959D01*
X0189047Y0197975D01*
X0189204Y0197987D01*
X0189363Y0197995D01*
X0189521Y0197999D01*
X0189679Y0197999D01*
X0189837Y0197995D01*
X0189996Y0197987D01*
X0190153Y0197975D01*
X0190311Y0197959D01*
X0190468Y0197939D01*
X0190624Y0197915D01*
X0190780Y0197887D01*
X0190935Y0197856D01*
X0191090Y0197820D01*
X0191243Y0197781D01*
X0191395Y0197738D01*
X0191546Y0197691D01*
X0191696Y0197640D01*
X0191845Y0197585D01*
X0191992Y0197527D01*
X0192138Y0197465D01*
X0192282Y0197400D01*
X0192424Y0197330D01*
X0192565Y0197258D01*
X0192704Y0197181D01*
X0192840Y0197102D01*
X0192975Y0197018D01*
X0193108Y0196932D01*
X0193238Y0196842D01*
X0193366Y0196749D01*
X0193492Y0196653D01*
X0193615Y0196553D01*
X0193736Y0196451D01*
X0193854Y0196346D01*
X0193969Y0196237D01*
X0194082Y0196126D01*
X0194192Y0196012D01*
X0194299Y0195895D01*
X0194403Y0195776D01*
X0194504Y0195654D01*
X0194601Y0195529D01*
X0194696Y0195402D01*
X0194787Y0195273D01*
X0194876Y0195142D01*
X0194960Y0195008D01*
X0195042Y0194872D01*
X0195120Y0194735D01*
X0195194Y0194595D01*
X0195265Y0194453D01*
X0195333Y0194310D01*
X0195397Y0194165D01*
X0195457Y0194019D01*
X0195513Y0193871D01*
X0195566Y0193722D01*
X0195615Y0193571D01*
X0195660Y0193419D01*
X0195701Y0193266D01*
X0195739Y0193113D01*
X0195772Y0192958D01*
X0195802Y0192802D01*
X0195828Y0192646D01*
X0195849Y0192489D01*
X0195867Y0192332D01*
X0195881Y0192174D01*
X0195891Y0192016D01*
X0195897Y0191858D01*
X0195899Y0191700D01*
X0195897Y0191542D01*
X0195891Y0191384D01*
X0195881Y0191226D01*
X0195867Y0191068D01*
X0195849Y0190911D01*
X0195828Y0190754D01*
X0195802Y0190598D01*
X0195772Y0190442D01*
X0195739Y0190287D01*
X0195701Y0190134D01*
X0195660Y0189981D01*
X0195615Y0189829D01*
X0195566Y0189678D01*
X0195513Y0189529D01*
X0195457Y0189381D01*
X0195397Y0189235D01*
X0195333Y0189090D01*
X0195265Y0188947D01*
X0195194Y0188805D01*
X0195120Y0188665D01*
X0195042Y0188528D01*
X0194960Y0188392D01*
X0194876Y0188258D01*
X0194787Y0188127D01*
X0194696Y0187998D01*
X0194601Y0187871D01*
X0194504Y0187746D01*
X0194403Y0187624D01*
X0194299Y0187505D01*
X0194192Y0187388D01*
X0194082Y0187274D01*
X0193969Y0187163D01*
X0193854Y0187054D01*
X0193736Y0186949D01*
X0193615Y0186847D01*
X0193492Y0186747D01*
X0193366Y0186651D01*
X0193238Y0186558D01*
X0193108Y0186468D01*
X0192975Y0186382D01*
X0192840Y0186298D01*
X0192704Y0186219D01*
X0192565Y0186142D01*
X0192424Y0186070D01*
X0192282Y0186000D01*
X0192138Y0185935D01*
X0191992Y0185873D01*
X0191845Y0185815D01*
X0191696Y0185760D01*
X0191546Y0185709D01*
X0191395Y0185662D01*
X0191243Y0185619D01*
X0191090Y0185580D01*
X0190935Y0185544D01*
X0190780Y0185513D01*
X0190624Y0185485D01*
X0190468Y0185461D01*
X0190311Y0185441D01*
X0190153Y0185425D01*
X0189996Y0185413D01*
X0189837Y0185405D01*
X0189679Y0185401D01*
X0189521Y0185401D01*
X0189363Y0185405D01*
X0189204Y0185413D01*
X0189047Y0185425D01*
X0188889Y0185441D01*
X0188732Y0185461D01*
X0188576Y0185485D01*
X0188420Y0185513D01*
X0188265Y0185544D01*
X0188110Y0185580D01*
X0187957Y0185619D01*
X0187805Y0185662D01*
X0187654Y0185709D01*
X0187504Y0185760D01*
X0187355Y0185815D01*
X0187208Y0185873D01*
X0187062Y0185935D01*
X0186918Y0186000D01*
X0186776Y0186070D01*
X0186635Y0186142D01*
X0186496Y0186219D01*
X0186360Y0186298D01*
X0186225Y0186382D01*
X0186092Y0186468D01*
X0185962Y0186558D01*
X0185834Y0186651D01*
X0185708Y0186747D01*
X0185585Y0186847D01*
X0185464Y0186949D01*
X0185346Y0187054D01*
X0185231Y0187163D01*
X0185118Y0187274D01*
X0185008Y0187388D01*
X0184901Y0187505D01*
X0184797Y0187624D01*
X0184696Y0187746D01*
X0184599Y0187871D01*
X0184504Y0187998D01*
X0184413Y0188127D01*
X0184324Y0188258D01*
X0184240Y0188392D01*
X0184158Y0188528D01*
X0184080Y0188665D01*
X0184006Y0188805D01*
X0183935Y0188947D01*
X0183867Y0189090D01*
X0183803Y0189235D01*
X0183743Y0189381D01*
X0183687Y0189529D01*
X0183634Y0189678D01*
X0183585Y0189829D01*
X0183540Y0189981D01*
X0183499Y0190134D01*
X0183461Y0190287D01*
X0183428Y0190442D01*
X0183398Y0190598D01*
X0183372Y0190754D01*
X0183351Y0190911D01*
X0183333Y0191068D01*
X0183319Y0191226D01*
X0183309Y0191384D01*
X0183303Y0191542D01*
X0183301Y0191700D01*
D11*
X0007100Y0201700D02*
X0007100Y0006700D01*
X0202100Y0006700D01*
X0202100Y0201700D01*
X0007100Y0201700D01*
X0072100Y0149200D02*
X0072287Y0149443D01*
X0072479Y0149681D01*
X0072678Y0149914D01*
X0072882Y0150142D01*
X0073091Y0150365D01*
X0073306Y0150583D01*
X0073526Y0150796D01*
X0073751Y0151003D01*
X0073982Y0151205D01*
X0074217Y0151401D01*
X0074457Y0151591D01*
X0074701Y0151775D01*
X0074950Y0151953D01*
X0075204Y0152125D01*
X0075461Y0152291D01*
X0075722Y0152451D01*
X0075987Y0152604D01*
X0076256Y0152750D01*
X0076529Y0152890D01*
X0076804Y0153023D01*
X0077083Y0153149D01*
X0077365Y0153269D01*
X0077650Y0153381D01*
X0077937Y0153486D01*
X0078227Y0153585D01*
X0078519Y0153676D01*
X0078814Y0153760D01*
X0079110Y0153837D01*
X0079408Y0153907D01*
X0079708Y0153969D01*
X0080009Y0154024D01*
X0080311Y0154071D01*
X0080615Y0154111D01*
X0080919Y0154144D01*
X0081224Y0154169D01*
X0081530Y0154187D01*
X0081836Y0154197D01*
X0082142Y0154200D01*
X0082448Y0154195D01*
X0082754Y0154183D01*
X0083060Y0154163D01*
X0083364Y0154136D01*
X0083669Y0154101D01*
X0083972Y0154059D01*
X0084274Y0154010D01*
X0084575Y0153953D01*
X0084874Y0153888D01*
X0085172Y0153817D01*
X0085467Y0153738D01*
X0085761Y0153652D01*
X0086053Y0153559D01*
X0086342Y0153458D01*
X0086629Y0153351D01*
X0086913Y0153236D01*
X0087194Y0153115D01*
X0087472Y0152987D01*
X0087747Y0152852D01*
X0088018Y0152710D01*
X0088286Y0152562D01*
X0088550Y0152407D01*
X0088810Y0152246D01*
X0089066Y0152079D01*
X0089319Y0151905D01*
X0089566Y0151725D01*
X0089810Y0151539D01*
X0090048Y0151348D01*
X0090282Y0151150D01*
X0090511Y0150947D01*
X0090735Y0150738D01*
X0090954Y0150524D01*
X0091167Y0150304D01*
X0091375Y0150080D01*
X0091578Y0149850D01*
X0091774Y0149616D01*
X0091965Y0149376D01*
X0092150Y0149133D01*
X0092329Y0148884D01*
X0092502Y0148632D01*
X0092669Y0148375D01*
X0092829Y0148114D01*
X0092983Y0147849D01*
X0093130Y0147581D01*
X0093271Y0147309D01*
X0093405Y0147034D01*
X0093532Y0146755D01*
X0093653Y0146474D01*
X0093766Y0146189D01*
X0093872Y0145902D01*
X0093972Y0145613D01*
X0094064Y0145321D01*
X0094149Y0145027D01*
X0094227Y0144731D01*
X0094298Y0144433D01*
X0094361Y0144133D01*
X0094417Y0143832D01*
X0094465Y0143530D01*
X0094506Y0143227D01*
X0094540Y0142923D01*
X0094566Y0142618D01*
X0094585Y0142312D01*
X0094596Y0142006D01*
X0094600Y0141700D01*
X0094596Y0141394D01*
X0094585Y0141088D01*
X0094566Y0140782D01*
X0094540Y0140477D01*
X0094506Y0140173D01*
X0094465Y0139870D01*
X0094417Y0139568D01*
X0094361Y0139267D01*
X0094298Y0138967D01*
X0094227Y0138669D01*
X0094149Y0138373D01*
X0094064Y0138079D01*
X0093972Y0137787D01*
X0093872Y0137498D01*
X0093766Y0137211D01*
X0093653Y0136926D01*
X0093532Y0136645D01*
X0093405Y0136366D01*
X0093271Y0136091D01*
X0093130Y0135819D01*
X0092983Y0135551D01*
X0092829Y0135286D01*
X0092669Y0135025D01*
X0092502Y0134768D01*
X0092329Y0134516D01*
X0092150Y0134267D01*
X0091965Y0134024D01*
X0091774Y0133784D01*
X0091578Y0133550D01*
X0091375Y0133320D01*
X0091167Y0133096D01*
X0090954Y0132876D01*
X0090735Y0132662D01*
X0090511Y0132453D01*
X0090282Y0132250D01*
X0090048Y0132052D01*
X0089810Y0131861D01*
X0089566Y0131675D01*
X0089319Y0131495D01*
X0089066Y0131321D01*
X0088810Y0131154D01*
X0088550Y0130993D01*
X0088286Y0130838D01*
X0088018Y0130690D01*
X0087747Y0130548D01*
X0087472Y0130413D01*
X0087194Y0130285D01*
X0086913Y0130164D01*
X0086629Y0130049D01*
X0086342Y0129942D01*
X0086053Y0129841D01*
X0085761Y0129748D01*
X0085467Y0129662D01*
X0085172Y0129583D01*
X0084874Y0129512D01*
X0084575Y0129447D01*
X0084274Y0129390D01*
X0083972Y0129341D01*
X0083669Y0129299D01*
X0083364Y0129264D01*
X0083060Y0129237D01*
X0082754Y0129217D01*
X0082448Y0129205D01*
X0082142Y0129200D01*
X0081836Y0129203D01*
X0081530Y0129213D01*
X0081224Y0129231D01*
X0080919Y0129256D01*
X0080615Y0129289D01*
X0080311Y0129329D01*
X0080009Y0129376D01*
X0079708Y0129431D01*
X0079408Y0129493D01*
X0079110Y0129563D01*
X0078814Y0129640D01*
X0078519Y0129724D01*
X0078227Y0129815D01*
X0077937Y0129914D01*
X0077650Y0130019D01*
X0077365Y0130131D01*
X0077083Y0130251D01*
X0076804Y0130377D01*
X0076529Y0130510D01*
X0076256Y0130650D01*
X0075987Y0130796D01*
X0075722Y0130949D01*
X0075461Y0131109D01*
X0075204Y0131275D01*
X0074950Y0131447D01*
X0074701Y0131625D01*
X0074457Y0131809D01*
X0074217Y0131999D01*
X0073982Y0132195D01*
X0073751Y0132397D01*
X0073526Y0132604D01*
X0073306Y0132817D01*
X0073091Y0133035D01*
X0072882Y0133258D01*
X0072678Y0133486D01*
X0072479Y0133719D01*
X0072287Y0133957D01*
X0072100Y0134200D01*
X0098600Y0163700D02*
X0098600Y0166700D01*
X0098600Y0169700D01*
X0100600Y0169700D02*
X0100600Y0166700D01*
X0100600Y0163700D01*
X0100600Y0173700D02*
X0100600Y0176700D01*
X0100600Y0179700D01*
X0098600Y0179700D02*
X0098600Y0176700D01*
X0098600Y0173700D01*
X0169272Y0096700D02*
X0169274Y0096806D01*
X0169280Y0096911D01*
X0169290Y0097017D01*
X0169304Y0097121D01*
X0169321Y0097226D01*
X0169343Y0097329D01*
X0169368Y0097432D01*
X0169398Y0097534D01*
X0169431Y0097634D01*
X0169467Y0097733D01*
X0169508Y0097831D01*
X0169552Y0097927D01*
X0169600Y0098021D01*
X0169651Y0098114D01*
X0169705Y0098205D01*
X0169763Y0098293D01*
X0169825Y0098379D01*
X0169889Y0098463D01*
X0169956Y0098545D01*
X0170027Y0098624D01*
X0170100Y0098700D01*
X0170176Y0098773D01*
X0170255Y0098844D01*
X0170337Y0098911D01*
X0170421Y0098975D01*
X0170507Y0099037D01*
X0170595Y0099095D01*
X0170686Y0099149D01*
X0170779Y0099200D01*
X0170873Y0099248D01*
X0170969Y0099292D01*
X0171067Y0099333D01*
X0171166Y0099369D01*
X0171266Y0099402D01*
X0171368Y0099432D01*
X0171471Y0099457D01*
X0171574Y0099479D01*
X0171679Y0099496D01*
X0171783Y0099510D01*
X0171889Y0099520D01*
X0171994Y0099526D01*
X0172100Y0099528D01*
X0172206Y0099526D01*
X0172311Y0099520D01*
X0172417Y0099510D01*
X0172521Y0099496D01*
X0172626Y0099479D01*
X0172729Y0099457D01*
X0172832Y0099432D01*
X0172934Y0099402D01*
X0173034Y0099369D01*
X0173133Y0099333D01*
X0173231Y0099292D01*
X0173327Y0099248D01*
X0173421Y0099200D01*
X0173514Y0099149D01*
X0173605Y0099095D01*
X0173693Y0099037D01*
X0173779Y0098975D01*
X0173863Y0098911D01*
X0173945Y0098844D01*
X0174024Y0098773D01*
X0174100Y0098700D01*
X0174173Y0098624D01*
X0174244Y0098545D01*
X0174311Y0098463D01*
X0174375Y0098379D01*
X0174437Y0098293D01*
X0174495Y0098205D01*
X0174549Y0098114D01*
X0174600Y0098021D01*
X0174648Y0097927D01*
X0174692Y0097831D01*
X0174733Y0097733D01*
X0174769Y0097634D01*
X0174802Y0097534D01*
X0174832Y0097432D01*
X0174857Y0097329D01*
X0174879Y0097226D01*
X0174896Y0097121D01*
X0174910Y0097017D01*
X0174920Y0096911D01*
X0174926Y0096806D01*
X0174928Y0096700D01*
X0174926Y0096594D01*
X0174920Y0096489D01*
X0174910Y0096383D01*
X0174896Y0096279D01*
X0174879Y0096174D01*
X0174857Y0096071D01*
X0174832Y0095968D01*
X0174802Y0095866D01*
X0174769Y0095766D01*
X0174733Y0095667D01*
X0174692Y0095569D01*
X0174648Y0095473D01*
X0174600Y0095379D01*
X0174549Y0095286D01*
X0174495Y0095195D01*
X0174437Y0095107D01*
X0174375Y0095021D01*
X0174311Y0094937D01*
X0174244Y0094855D01*
X0174173Y0094776D01*
X0174100Y0094700D01*
X0174024Y0094627D01*
X0173945Y0094556D01*
X0173863Y0094489D01*
X0173779Y0094425D01*
X0173693Y0094363D01*
X0173605Y0094305D01*
X0173514Y0094251D01*
X0173421Y0094200D01*
X0173327Y0094152D01*
X0173231Y0094108D01*
X0173133Y0094067D01*
X0173034Y0094031D01*
X0172934Y0093998D01*
X0172832Y0093968D01*
X0172729Y0093943D01*
X0172626Y0093921D01*
X0172521Y0093904D01*
X0172417Y0093890D01*
X0172311Y0093880D01*
X0172206Y0093874D01*
X0172100Y0093872D01*
X0171994Y0093874D01*
X0171889Y0093880D01*
X0171783Y0093890D01*
X0171679Y0093904D01*
X0171574Y0093921D01*
X0171471Y0093943D01*
X0171368Y0093968D01*
X0171266Y0093998D01*
X0171166Y0094031D01*
X0171067Y0094067D01*
X0170969Y0094108D01*
X0170873Y0094152D01*
X0170779Y0094200D01*
X0170686Y0094251D01*
X0170595Y0094305D01*
X0170507Y0094363D01*
X0170421Y0094425D01*
X0170337Y0094489D01*
X0170255Y0094556D01*
X0170176Y0094627D01*
X0170100Y0094700D01*
X0170027Y0094776D01*
X0169956Y0094855D01*
X0169889Y0094937D01*
X0169825Y0095021D01*
X0169763Y0095107D01*
X0169705Y0095195D01*
X0169651Y0095286D01*
X0169600Y0095379D01*
X0169552Y0095473D01*
X0169508Y0095569D01*
X0169467Y0095667D01*
X0169431Y0095766D01*
X0169398Y0095866D01*
X0169368Y0095968D01*
X0169343Y0096071D01*
X0169321Y0096174D01*
X0169304Y0096279D01*
X0169290Y0096383D01*
X0169280Y0096489D01*
X0169274Y0096594D01*
X0169272Y0096700D01*
X0184100Y0128200D02*
X0187100Y0128200D01*
X0190100Y0128200D01*
X0190100Y0130200D02*
X0187100Y0130200D01*
X0184100Y0130200D01*
X0177100Y0156700D02*
X0177287Y0156457D01*
X0177479Y0156219D01*
X0177678Y0155986D01*
X0177882Y0155758D01*
X0178091Y0155535D01*
X0178306Y0155317D01*
X0178526Y0155104D01*
X0178751Y0154897D01*
X0178982Y0154695D01*
X0179217Y0154499D01*
X0179457Y0154309D01*
X0179701Y0154125D01*
X0179950Y0153947D01*
X0180204Y0153775D01*
X0180461Y0153609D01*
X0180722Y0153449D01*
X0180987Y0153296D01*
X0181256Y0153150D01*
X0181529Y0153010D01*
X0181804Y0152877D01*
X0182083Y0152751D01*
X0182365Y0152631D01*
X0182650Y0152519D01*
X0182937Y0152414D01*
X0183227Y0152315D01*
X0183519Y0152224D01*
X0183814Y0152140D01*
X0184110Y0152063D01*
X0184408Y0151993D01*
X0184708Y0151931D01*
X0185009Y0151876D01*
X0185311Y0151829D01*
X0185615Y0151789D01*
X0185919Y0151756D01*
X0186224Y0151731D01*
X0186530Y0151713D01*
X0186836Y0151703D01*
X0187142Y0151700D01*
X0187448Y0151705D01*
X0187754Y0151717D01*
X0188060Y0151737D01*
X0188364Y0151764D01*
X0188669Y0151799D01*
X0188972Y0151841D01*
X0189274Y0151890D01*
X0189575Y0151947D01*
X0189874Y0152012D01*
X0190172Y0152083D01*
X0190467Y0152162D01*
X0190761Y0152248D01*
X0191053Y0152341D01*
X0191342Y0152442D01*
X0191629Y0152549D01*
X0191913Y0152664D01*
X0192194Y0152785D01*
X0192472Y0152913D01*
X0192747Y0153048D01*
X0193018Y0153190D01*
X0193286Y0153338D01*
X0193550Y0153493D01*
X0193810Y0153654D01*
X0194066Y0153821D01*
X0194319Y0153995D01*
X0194566Y0154175D01*
X0194810Y0154361D01*
X0195048Y0154552D01*
X0195282Y0154750D01*
X0195511Y0154953D01*
X0195735Y0155162D01*
X0195954Y0155376D01*
X0196167Y0155596D01*
X0196375Y0155820D01*
X0196578Y0156050D01*
X0196774Y0156284D01*
X0196965Y0156524D01*
X0197150Y0156767D01*
X0197329Y0157016D01*
X0197502Y0157268D01*
X0197669Y0157525D01*
X0197829Y0157786D01*
X0197983Y0158051D01*
X0198130Y0158319D01*
X0198271Y0158591D01*
X0198405Y0158866D01*
X0198532Y0159145D01*
X0198653Y0159426D01*
X0198766Y0159711D01*
X0198872Y0159998D01*
X0198972Y0160287D01*
X0199064Y0160579D01*
X0199149Y0160873D01*
X0199227Y0161169D01*
X0199298Y0161467D01*
X0199361Y0161767D01*
X0199417Y0162068D01*
X0199465Y0162370D01*
X0199506Y0162673D01*
X0199540Y0162977D01*
X0199566Y0163282D01*
X0199585Y0163588D01*
X0199596Y0163894D01*
X0199600Y0164200D01*
X0199596Y0164506D01*
X0199585Y0164812D01*
X0199566Y0165118D01*
X0199540Y0165423D01*
X0199506Y0165727D01*
X0199465Y0166030D01*
X0199417Y0166332D01*
X0199361Y0166633D01*
X0199298Y0166933D01*
X0199227Y0167231D01*
X0199149Y0167527D01*
X0199064Y0167821D01*
X0198972Y0168113D01*
X0198872Y0168402D01*
X0198766Y0168689D01*
X0198653Y0168974D01*
X0198532Y0169255D01*
X0198405Y0169534D01*
X0198271Y0169809D01*
X0198130Y0170081D01*
X0197983Y0170349D01*
X0197829Y0170614D01*
X0197669Y0170875D01*
X0197502Y0171132D01*
X0197329Y0171384D01*
X0197150Y0171633D01*
X0196965Y0171876D01*
X0196774Y0172116D01*
X0196578Y0172350D01*
X0196375Y0172580D01*
X0196167Y0172804D01*
X0195954Y0173024D01*
X0195735Y0173238D01*
X0195511Y0173447D01*
X0195282Y0173650D01*
X0195048Y0173848D01*
X0194810Y0174039D01*
X0194566Y0174225D01*
X0194319Y0174405D01*
X0194066Y0174579D01*
X0193810Y0174746D01*
X0193550Y0174907D01*
X0193286Y0175062D01*
X0193018Y0175210D01*
X0192747Y0175352D01*
X0192472Y0175487D01*
X0192194Y0175615D01*
X0191913Y0175736D01*
X0191629Y0175851D01*
X0191342Y0175958D01*
X0191053Y0176059D01*
X0190761Y0176152D01*
X0190467Y0176238D01*
X0190172Y0176317D01*
X0189874Y0176388D01*
X0189575Y0176453D01*
X0189274Y0176510D01*
X0188972Y0176559D01*
X0188669Y0176601D01*
X0188364Y0176636D01*
X0188060Y0176663D01*
X0187754Y0176683D01*
X0187448Y0176695D01*
X0187142Y0176700D01*
X0186836Y0176697D01*
X0186530Y0176687D01*
X0186224Y0176669D01*
X0185919Y0176644D01*
X0185615Y0176611D01*
X0185311Y0176571D01*
X0185009Y0176524D01*
X0184708Y0176469D01*
X0184408Y0176407D01*
X0184110Y0176337D01*
X0183814Y0176260D01*
X0183519Y0176176D01*
X0183227Y0176085D01*
X0182937Y0175986D01*
X0182650Y0175881D01*
X0182365Y0175769D01*
X0182083Y0175649D01*
X0181804Y0175523D01*
X0181529Y0175390D01*
X0181256Y0175250D01*
X0180987Y0175104D01*
X0180722Y0174951D01*
X0180461Y0174791D01*
X0180204Y0174625D01*
X0179950Y0174453D01*
X0179701Y0174275D01*
X0179457Y0174091D01*
X0179217Y0173901D01*
X0178982Y0173705D01*
X0178751Y0173503D01*
X0178526Y0173296D01*
X0178306Y0173083D01*
X0178091Y0172865D01*
X0177882Y0172642D01*
X0177678Y0172414D01*
X0177479Y0172181D01*
X0177287Y0171943D01*
X0177100Y0171700D01*
X0122100Y0093200D02*
X0122100Y0091700D01*
X0127100Y0091700D01*
X0122100Y0081700D01*
X0127100Y0081700D01*
X0127100Y0076700D01*
X0122100Y0080200D02*
X0122100Y0081700D01*
X0117100Y0081700D01*
X0117100Y0086700D01*
X0117100Y0081700D02*
X0112100Y0081700D01*
X0112100Y0080200D01*
X0112100Y0081700D02*
X0107100Y0081700D01*
X0107100Y0086700D01*
X0107100Y0091700D02*
X0112100Y0091700D01*
X0117100Y0091700D01*
X0122100Y0091700D01*
X0117100Y0091700D02*
X0122100Y0081700D01*
X0117100Y0081700D02*
X0117100Y0076700D01*
X0112100Y0081700D02*
X0117100Y0091700D01*
X0112100Y0091700D02*
X0112100Y0093200D01*
X0107100Y0091700D02*
X0112100Y0081700D01*
X0111100Y0044700D02*
X0111100Y0041700D01*
X0111100Y0038700D01*
X0113100Y0038700D02*
X0113100Y0041700D01*
X0113100Y0044700D01*
X0136100Y0044700D02*
X0136100Y0041700D01*
X0136100Y0038700D01*
X0138100Y0038700D02*
X0138100Y0041700D01*
X0138100Y0044700D01*
X0181600Y0060700D02*
X0184600Y0060700D01*
X0187600Y0060700D01*
X0187600Y0062700D02*
X0184600Y0062700D01*
X0181600Y0062700D01*
X0058100Y0017200D02*
X0058100Y0014200D01*
X0058100Y0011200D01*
X0056100Y0011200D02*
X0056100Y0014200D01*
X0056100Y0017200D01*
D12*
X0054600Y0019200D02*
X0052100Y0021700D01*
X0049600Y0019200D01*
X0044600Y0019200D01*
X0042100Y0021700D01*
X0039600Y0019200D01*
X0034600Y0019200D01*
X0032100Y0021700D01*
X0032100Y0026700D01*
X0034600Y0029200D01*
X0039600Y0029200D01*
X0042100Y0026700D01*
X0044600Y0029200D01*
X0049600Y0029200D01*
X0052100Y0026700D01*
X0054600Y0029200D01*
X0059600Y0029200D01*
X0062100Y0026700D01*
X0064600Y0029200D01*
X0069600Y0029200D01*
X0072100Y0026700D01*
X0072100Y0021700D01*
X0069600Y0019200D01*
X0064600Y0019200D01*
X0062100Y0021700D01*
X0059600Y0019200D01*
X0054600Y0019200D01*
X0054600Y0031700D02*
X0052100Y0034200D01*
X0049600Y0031700D01*
X0044600Y0031700D01*
X0042100Y0034200D01*
X0039600Y0031700D01*
X0034600Y0031700D01*
X0032100Y0034200D01*
X0029600Y0031700D01*
X0024600Y0031700D01*
X0022100Y0034200D01*
X0019600Y0031700D01*
X0014600Y0031700D01*
X0012100Y0034200D01*
X0012100Y0039200D01*
X0014600Y0041700D01*
X0019600Y0041700D01*
X0022100Y0039200D01*
X0024600Y0041700D01*
X0029600Y0041700D01*
X0032100Y0039200D01*
X0034600Y0041700D01*
X0039600Y0041700D01*
X0042100Y0039200D01*
X0044600Y0041700D01*
X0049600Y0041700D01*
X0052100Y0039200D01*
X0054600Y0041700D01*
X0059600Y0041700D01*
X0062100Y0039200D01*
X0064600Y0041700D01*
X0069600Y0041700D01*
X0072100Y0039200D01*
X0074600Y0041700D01*
X0079600Y0041700D01*
X0082100Y0039200D01*
X0082100Y0034200D01*
X0079600Y0031700D01*
X0074600Y0031700D01*
X0072100Y0034200D01*
X0069600Y0031700D01*
X0064600Y0031700D01*
X0062100Y0034200D01*
X0059600Y0031700D01*
X0054600Y0031700D01*
X0054600Y0041700D02*
X0052100Y0044200D01*
X0049600Y0041700D01*
X0044600Y0041700D01*
X0042100Y0044200D01*
X0039600Y0041700D01*
X0034600Y0041700D01*
X0032100Y0044200D01*
X0029600Y0041700D01*
X0024600Y0041700D01*
X0022100Y0044200D01*
X0019600Y0041700D01*
X0014600Y0041700D01*
X0012100Y0044200D01*
X0012100Y0049200D01*
X0014600Y0051700D01*
X0019600Y0051700D01*
X0022100Y0049200D01*
X0024600Y0051700D01*
X0029600Y0051700D01*
X0032100Y0049200D01*
X0034600Y0051700D01*
X0039600Y0051700D01*
X0042100Y0049200D01*
X0044600Y0051700D01*
X0049600Y0051700D01*
X0052100Y0049200D01*
X0054600Y0051700D01*
X0059600Y0051700D01*
X0062100Y0049200D01*
X0064600Y0051700D01*
X0069600Y0051700D01*
X0072100Y0049200D01*
X0072100Y0044200D01*
X0069600Y0041700D01*
X0064600Y0041700D01*
X0062100Y0044200D01*
X0059600Y0041700D01*
X0054600Y0041700D01*
X0137100Y0081700D02*
X0137100Y0101700D01*
X0177100Y0101700D01*
X0177100Y0097700D01*
X0177100Y0095700D01*
X0177100Y0097700D02*
X0177100Y0081700D01*
X0137100Y0081700D01*
X0154600Y0036700D02*
X0159600Y0036700D01*
X0145600Y0031700D02*
X0145606Y0032228D01*
X0145626Y0032755D01*
X0145658Y0033282D01*
X0145704Y0033807D01*
X0145762Y0034332D01*
X0145833Y0034855D01*
X0145917Y0035376D01*
X0146013Y0035894D01*
X0146122Y0036411D01*
X0146244Y0036924D01*
X0146379Y0037434D01*
X0146526Y0037941D01*
X0146685Y0038444D01*
X0146857Y0038943D01*
X0147041Y0039438D01*
X0147237Y0039928D01*
X0147444Y0040413D01*
X0147664Y0040892D01*
X0147896Y0041367D01*
X0148139Y0041835D01*
X0148393Y0042297D01*
X0148659Y0042753D01*
X0148936Y0043202D01*
X0149223Y0043645D01*
X0149522Y0044080D01*
X0149831Y0044508D01*
X0150151Y0044927D01*
X0150480Y0045339D01*
X0150820Y0045743D01*
X0151170Y0046139D01*
X0151529Y0046525D01*
X0151897Y0046903D01*
X0152275Y0047271D01*
X0152661Y0047630D01*
X0153057Y0047980D01*
X0153461Y0048320D01*
X0153873Y0048649D01*
X0154292Y0048969D01*
X0154720Y0049278D01*
X0155155Y0049577D01*
X0155598Y0049864D01*
X0156047Y0050141D01*
X0156503Y0050407D01*
X0156965Y0050661D01*
X0157433Y0050904D01*
X0157908Y0051136D01*
X0158387Y0051356D01*
X0158872Y0051563D01*
X0159362Y0051759D01*
X0159857Y0051943D01*
X0160356Y0052115D01*
X0160859Y0052274D01*
X0161366Y0052421D01*
X0161876Y0052556D01*
X0162389Y0052678D01*
X0162906Y0052787D01*
X0163424Y0052883D01*
X0163945Y0052967D01*
X0164468Y0053038D01*
X0164993Y0053096D01*
X0165518Y0053142D01*
X0166045Y0053174D01*
X0166572Y0053194D01*
X0167100Y0053200D01*
X0167628Y0053194D01*
X0168155Y0053174D01*
X0168682Y0053142D01*
X0169207Y0053096D01*
X0169732Y0053038D01*
X0170255Y0052967D01*
X0170776Y0052883D01*
X0171294Y0052787D01*
X0171811Y0052678D01*
X0172324Y0052556D01*
X0172834Y0052421D01*
X0173341Y0052274D01*
X0173844Y0052115D01*
X0174343Y0051943D01*
X0174838Y0051759D01*
X0175328Y0051563D01*
X0175813Y0051356D01*
X0176292Y0051136D01*
X0176767Y0050904D01*
X0177235Y0050661D01*
X0177697Y0050407D01*
X0178153Y0050141D01*
X0178602Y0049864D01*
X0179045Y0049577D01*
X0179480Y0049278D01*
X0179908Y0048969D01*
X0180327Y0048649D01*
X0180739Y0048320D01*
X0181143Y0047980D01*
X0181539Y0047630D01*
X0181925Y0047271D01*
X0182303Y0046903D01*
X0182671Y0046525D01*
X0183030Y0046139D01*
X0183380Y0045743D01*
X0183720Y0045339D01*
X0184049Y0044927D01*
X0184369Y0044508D01*
X0184678Y0044080D01*
X0184977Y0043645D01*
X0185264Y0043202D01*
X0185541Y0042753D01*
X0185807Y0042297D01*
X0186061Y0041835D01*
X0186304Y0041367D01*
X0186536Y0040892D01*
X0186756Y0040413D01*
X0186963Y0039928D01*
X0187159Y0039438D01*
X0187343Y0038943D01*
X0187515Y0038444D01*
X0187674Y0037941D01*
X0187821Y0037434D01*
X0187956Y0036924D01*
X0188078Y0036411D01*
X0188187Y0035894D01*
X0188283Y0035376D01*
X0188367Y0034855D01*
X0188438Y0034332D01*
X0188496Y0033807D01*
X0188542Y0033282D01*
X0188574Y0032755D01*
X0188594Y0032228D01*
X0188600Y0031700D01*
X0188594Y0031172D01*
X0188574Y0030645D01*
X0188542Y0030118D01*
X0188496Y0029593D01*
X0188438Y0029068D01*
X0188367Y0028545D01*
X0188283Y0028024D01*
X0188187Y0027506D01*
X0188078Y0026989D01*
X0187956Y0026476D01*
X0187821Y0025966D01*
X0187674Y0025459D01*
X0187515Y0024956D01*
X0187343Y0024457D01*
X0187159Y0023962D01*
X0186963Y0023472D01*
X0186756Y0022987D01*
X0186536Y0022508D01*
X0186304Y0022033D01*
X0186061Y0021565D01*
X0185807Y0021103D01*
X0185541Y0020647D01*
X0185264Y0020198D01*
X0184977Y0019755D01*
X0184678Y0019320D01*
X0184369Y0018892D01*
X0184049Y0018473D01*
X0183720Y0018061D01*
X0183380Y0017657D01*
X0183030Y0017261D01*
X0182671Y0016875D01*
X0182303Y0016497D01*
X0181925Y0016129D01*
X0181539Y0015770D01*
X0181143Y0015420D01*
X0180739Y0015080D01*
X0180327Y0014751D01*
X0179908Y0014431D01*
X0179480Y0014122D01*
X0179045Y0013823D01*
X0178602Y0013536D01*
X0178153Y0013259D01*
X0177697Y0012993D01*
X0177235Y0012739D01*
X0176767Y0012496D01*
X0176292Y0012264D01*
X0175813Y0012044D01*
X0175328Y0011837D01*
X0174838Y0011641D01*
X0174343Y0011457D01*
X0173844Y0011285D01*
X0173341Y0011126D01*
X0172834Y0010979D01*
X0172324Y0010844D01*
X0171811Y0010722D01*
X0171294Y0010613D01*
X0170776Y0010517D01*
X0170255Y0010433D01*
X0169732Y0010362D01*
X0169207Y0010304D01*
X0168682Y0010258D01*
X0168155Y0010226D01*
X0167628Y0010206D01*
X0167100Y0010200D01*
X0166572Y0010206D01*
X0166045Y0010226D01*
X0165518Y0010258D01*
X0164993Y0010304D01*
X0164468Y0010362D01*
X0163945Y0010433D01*
X0163424Y0010517D01*
X0162906Y0010613D01*
X0162389Y0010722D01*
X0161876Y0010844D01*
X0161366Y0010979D01*
X0160859Y0011126D01*
X0160356Y0011285D01*
X0159857Y0011457D01*
X0159362Y0011641D01*
X0158872Y0011837D01*
X0158387Y0012044D01*
X0157908Y0012264D01*
X0157433Y0012496D01*
X0156965Y0012739D01*
X0156503Y0012993D01*
X0156047Y0013259D01*
X0155598Y0013536D01*
X0155155Y0013823D01*
X0154720Y0014122D01*
X0154292Y0014431D01*
X0153873Y0014751D01*
X0153461Y0015080D01*
X0153057Y0015420D01*
X0152661Y0015770D01*
X0152275Y0016129D01*
X0151897Y0016497D01*
X0151529Y0016875D01*
X0151170Y0017261D01*
X0150820Y0017657D01*
X0150480Y0018061D01*
X0150151Y0018473D01*
X0149831Y0018892D01*
X0149522Y0019320D01*
X0149223Y0019755D01*
X0148936Y0020198D01*
X0148659Y0020647D01*
X0148393Y0021103D01*
X0148139Y0021565D01*
X0147896Y0022033D01*
X0147664Y0022508D01*
X0147444Y0022987D01*
X0147237Y0023472D01*
X0147041Y0023962D01*
X0146857Y0024457D01*
X0146685Y0024956D01*
X0146526Y0025459D01*
X0146379Y0025966D01*
X0146244Y0026476D01*
X0146122Y0026989D01*
X0146013Y0027506D01*
X0145917Y0028024D01*
X0145833Y0028545D01*
X0145762Y0029068D01*
X0145704Y0029593D01*
X0145658Y0030118D01*
X0145626Y0030645D01*
X0145606Y0031172D01*
X0145600Y0031700D01*
X0119600Y0129200D02*
X0114600Y0129200D01*
X0112100Y0131700D01*
X0112100Y0136700D01*
X0114600Y0139200D01*
X0112100Y0141700D01*
X0112100Y0146700D01*
X0114600Y0149200D01*
X0112100Y0151700D01*
X0112100Y0156700D01*
X0114600Y0159200D01*
X0112100Y0161700D01*
X0112100Y0166700D01*
X0114600Y0169200D01*
X0119600Y0169200D01*
X0122100Y0166700D01*
X0122100Y0161700D01*
X0119600Y0159200D01*
X0122100Y0156700D01*
X0122100Y0151700D01*
X0119600Y0149200D01*
X0122100Y0146700D01*
X0122100Y0141700D01*
X0119600Y0139200D01*
X0122100Y0136700D01*
X0122100Y0131700D01*
X0119600Y0129200D01*
X0072100Y0134200D02*
X0072100Y0149200D01*
X0089600Y0186700D02*
X0087100Y0189200D01*
X0087100Y0194200D01*
X0089600Y0196700D01*
X0094600Y0196700D01*
X0097100Y0194200D01*
X0099600Y0196700D01*
X0104600Y0196700D01*
X0107100Y0194200D01*
X0109600Y0196700D01*
X0114600Y0196700D01*
X0117100Y0194200D01*
X0117100Y0189200D01*
X0114600Y0186700D01*
X0109600Y0186700D01*
X0107100Y0189200D01*
X0104600Y0186700D01*
X0099600Y0186700D01*
X0097100Y0189200D01*
X0094600Y0186700D01*
X0089600Y0186700D01*
X0019600Y0164200D02*
X0019600Y0159200D01*
X0017100Y0156700D01*
X0019600Y0154200D01*
X0019600Y0149200D01*
X0017100Y0146700D01*
X0019600Y0144200D01*
X0019600Y0139200D01*
X0017100Y0136700D01*
X0012100Y0136700D01*
X0009600Y0139200D01*
X0009600Y0144200D01*
X0012100Y0146700D01*
X0009600Y0149200D01*
X0009600Y0154200D01*
X0012100Y0156700D01*
X0009600Y0159200D01*
X0009600Y0164200D01*
X0012100Y0166700D01*
X0017100Y0166700D01*
X0019600Y0164200D01*
X0177100Y0171700D02*
X0177100Y0156700D01*
D13*
X0166124Y0044751D02*
X0166124Y0043250D01*
X0166624Y0043250D02*
X0165623Y0043250D01*
X0165151Y0043500D02*
X0164901Y0043250D01*
X0164400Y0043250D01*
X0164150Y0043500D01*
X0164150Y0044501D01*
X0164400Y0044751D01*
X0164901Y0044751D01*
X0165151Y0044501D01*
X0165623Y0044251D02*
X0166124Y0044751D01*
D14*
X0164600Y0056700D02*
X0159600Y0056700D01*
X0157100Y0059200D01*
X0154600Y0056700D01*
X0149600Y0056700D01*
X0147100Y0059200D01*
X0147100Y0064200D01*
X0149600Y0066700D01*
X0154600Y0066700D01*
X0157100Y0064200D01*
X0159600Y0066700D01*
X0164600Y0066700D01*
X0167100Y0064200D01*
X0167100Y0059200D01*
X0164600Y0056700D01*
X0157100Y0059200D02*
X0157100Y0064200D01*
X0148100Y0055200D02*
X0147100Y0055200D01*
X0146600Y0054700D01*
X0137600Y0054700D01*
X0137100Y0055200D01*
X0136100Y0055200D01*
X0136040Y0055198D01*
X0135979Y0055193D01*
X0135920Y0055184D01*
X0135861Y0055171D01*
X0135802Y0055155D01*
X0135745Y0055135D01*
X0135690Y0055112D01*
X0135635Y0055085D01*
X0135583Y0055056D01*
X0135532Y0055023D01*
X0135483Y0054987D01*
X0135437Y0054949D01*
X0135393Y0054907D01*
X0135351Y0054863D01*
X0135313Y0054817D01*
X0135277Y0054768D01*
X0135244Y0054717D01*
X0135215Y0054665D01*
X0135188Y0054610D01*
X0135165Y0054555D01*
X0135145Y0054498D01*
X0135129Y0054439D01*
X0135116Y0054380D01*
X0135107Y0054321D01*
X0135102Y0054260D01*
X0135100Y0054200D01*
X0134600Y0056700D02*
X0137100Y0059200D01*
X0137100Y0064200D01*
X0134600Y0066700D01*
X0129600Y0066700D01*
X0127100Y0064200D01*
X0124600Y0066700D01*
X0119600Y0066700D01*
X0117100Y0064200D01*
X0117100Y0059200D01*
X0119600Y0056700D01*
X0124600Y0056700D01*
X0127100Y0059200D01*
X0127100Y0064200D01*
X0127100Y0059200D02*
X0129600Y0056700D01*
X0134600Y0056700D01*
X0137100Y0059200D02*
X0139600Y0056700D01*
X0144600Y0056700D01*
X0147100Y0059200D01*
X0147100Y0064200D02*
X0144600Y0066700D01*
X0139600Y0066700D01*
X0137100Y0064200D01*
X0148100Y0055200D02*
X0148160Y0055198D01*
X0148221Y0055193D01*
X0148280Y0055184D01*
X0148339Y0055171D01*
X0148398Y0055155D01*
X0148455Y0055135D01*
X0148510Y0055112D01*
X0148565Y0055085D01*
X0148617Y0055056D01*
X0148668Y0055023D01*
X0148717Y0054987D01*
X0148763Y0054949D01*
X0148807Y0054907D01*
X0148849Y0054863D01*
X0148887Y0054817D01*
X0148923Y0054768D01*
X0148956Y0054717D01*
X0148985Y0054665D01*
X0149012Y0054610D01*
X0149035Y0054555D01*
X0149055Y0054498D01*
X0149071Y0054439D01*
X0149084Y0054380D01*
X0149093Y0054321D01*
X0149098Y0054260D01*
X0149100Y0054200D01*
X0149100Y0049200D02*
X0149098Y0049140D01*
X0149093Y0049079D01*
X0149084Y0049020D01*
X0149071Y0048961D01*
X0149055Y0048902D01*
X0149035Y0048845D01*
X0149012Y0048790D01*
X0148985Y0048735D01*
X0148956Y0048683D01*
X0148923Y0048632D01*
X0148887Y0048583D01*
X0148849Y0048537D01*
X0148807Y0048493D01*
X0148763Y0048451D01*
X0148717Y0048413D01*
X0148668Y0048377D01*
X0148617Y0048344D01*
X0148565Y0048315D01*
X0148510Y0048288D01*
X0148455Y0048265D01*
X0148398Y0048245D01*
X0148339Y0048229D01*
X0148280Y0048216D01*
X0148221Y0048207D01*
X0148160Y0048202D01*
X0148100Y0048200D01*
X0147100Y0048200D01*
X0146600Y0048700D01*
X0137600Y0048700D01*
X0137100Y0048200D01*
X0136100Y0048200D01*
X0136040Y0048202D01*
X0135979Y0048207D01*
X0135920Y0048216D01*
X0135861Y0048229D01*
X0135802Y0048245D01*
X0135745Y0048265D01*
X0135690Y0048288D01*
X0135635Y0048315D01*
X0135583Y0048344D01*
X0135532Y0048377D01*
X0135483Y0048413D01*
X0135437Y0048451D01*
X0135393Y0048493D01*
X0135351Y0048537D01*
X0135313Y0048583D01*
X0135277Y0048632D01*
X0135244Y0048683D01*
X0135215Y0048735D01*
X0135188Y0048790D01*
X0135165Y0048845D01*
X0135145Y0048902D01*
X0135129Y0048961D01*
X0135116Y0049020D01*
X0135107Y0049079D01*
X0135102Y0049140D01*
X0135100Y0049200D01*
X0128600Y0046700D02*
X0145600Y0046700D01*
X0145660Y0046698D01*
X0145721Y0046693D01*
X0145780Y0046684D01*
X0145839Y0046671D01*
X0145898Y0046655D01*
X0145955Y0046635D01*
X0146010Y0046612D01*
X0146065Y0046585D01*
X0146117Y0046556D01*
X0146168Y0046523D01*
X0146217Y0046487D01*
X0146263Y0046449D01*
X0146307Y0046407D01*
X0146349Y0046363D01*
X0146387Y0046317D01*
X0146423Y0046268D01*
X0146456Y0046217D01*
X0146485Y0046165D01*
X0146512Y0046110D01*
X0146535Y0046055D01*
X0146555Y0045998D01*
X0146571Y0045939D01*
X0146584Y0045880D01*
X0146593Y0045821D01*
X0146598Y0045760D01*
X0146600Y0045700D01*
X0146600Y0037700D01*
X0146598Y0037640D01*
X0146593Y0037579D01*
X0146584Y0037520D01*
X0146571Y0037461D01*
X0146555Y0037402D01*
X0146535Y0037345D01*
X0146512Y0037290D01*
X0146485Y0037235D01*
X0146456Y0037183D01*
X0146423Y0037132D01*
X0146387Y0037083D01*
X0146349Y0037037D01*
X0146307Y0036993D01*
X0146263Y0036951D01*
X0146217Y0036913D01*
X0146168Y0036877D01*
X0146117Y0036844D01*
X0146065Y0036815D01*
X0146010Y0036788D01*
X0145955Y0036765D01*
X0145898Y0036745D01*
X0145839Y0036729D01*
X0145780Y0036716D01*
X0145721Y0036707D01*
X0145660Y0036702D01*
X0145600Y0036700D01*
X0128600Y0036700D01*
X0128540Y0036702D01*
X0128479Y0036707D01*
X0128420Y0036716D01*
X0128361Y0036729D01*
X0128302Y0036745D01*
X0128245Y0036765D01*
X0128190Y0036788D01*
X0128135Y0036815D01*
X0128083Y0036844D01*
X0128032Y0036877D01*
X0127983Y0036913D01*
X0127937Y0036951D01*
X0127893Y0036993D01*
X0127851Y0037037D01*
X0127813Y0037083D01*
X0127777Y0037132D01*
X0127744Y0037183D01*
X0127715Y0037235D01*
X0127688Y0037290D01*
X0127665Y0037345D01*
X0127645Y0037402D01*
X0127629Y0037461D01*
X0127616Y0037520D01*
X0127607Y0037579D01*
X0127602Y0037640D01*
X0127600Y0037700D01*
X0127600Y0045700D01*
X0127602Y0045760D01*
X0127607Y0045821D01*
X0127616Y0045880D01*
X0127629Y0045939D01*
X0127645Y0045998D01*
X0127665Y0046055D01*
X0127688Y0046110D01*
X0127715Y0046165D01*
X0127744Y0046217D01*
X0127777Y0046268D01*
X0127813Y0046317D01*
X0127851Y0046363D01*
X0127893Y0046407D01*
X0127937Y0046449D01*
X0127983Y0046487D01*
X0128032Y0046523D01*
X0128083Y0046556D01*
X0128135Y0046585D01*
X0128190Y0046612D01*
X0128245Y0046635D01*
X0128302Y0046655D01*
X0128361Y0046671D01*
X0128420Y0046684D01*
X0128479Y0046693D01*
X0128540Y0046698D01*
X0128600Y0046700D01*
X0135600Y0041700D02*
X0136100Y0041700D01*
X0138100Y0041700D02*
X0138600Y0041700D01*
X0121600Y0045700D02*
X0121600Y0037700D01*
X0121598Y0037640D01*
X0121593Y0037579D01*
X0121584Y0037520D01*
X0121571Y0037461D01*
X0121555Y0037402D01*
X0121535Y0037345D01*
X0121512Y0037290D01*
X0121485Y0037235D01*
X0121456Y0037183D01*
X0121423Y0037132D01*
X0121387Y0037083D01*
X0121349Y0037037D01*
X0121307Y0036993D01*
X0121263Y0036951D01*
X0121217Y0036913D01*
X0121168Y0036877D01*
X0121117Y0036844D01*
X0121065Y0036815D01*
X0121010Y0036788D01*
X0120955Y0036765D01*
X0120898Y0036745D01*
X0120839Y0036729D01*
X0120780Y0036716D01*
X0120721Y0036707D01*
X0120660Y0036702D01*
X0120600Y0036700D01*
X0103600Y0036700D01*
X0103540Y0036702D01*
X0103479Y0036707D01*
X0103420Y0036716D01*
X0103361Y0036729D01*
X0103302Y0036745D01*
X0103245Y0036765D01*
X0103190Y0036788D01*
X0103135Y0036815D01*
X0103083Y0036844D01*
X0103032Y0036877D01*
X0102983Y0036913D01*
X0102937Y0036951D01*
X0102893Y0036993D01*
X0102851Y0037037D01*
X0102813Y0037083D01*
X0102777Y0037132D01*
X0102744Y0037183D01*
X0102715Y0037235D01*
X0102688Y0037290D01*
X0102665Y0037345D01*
X0102645Y0037402D01*
X0102629Y0037461D01*
X0102616Y0037520D01*
X0102607Y0037579D01*
X0102602Y0037640D01*
X0102600Y0037700D01*
X0102600Y0045700D01*
X0102602Y0045760D01*
X0102607Y0045821D01*
X0102616Y0045880D01*
X0102629Y0045939D01*
X0102645Y0045998D01*
X0102665Y0046055D01*
X0102688Y0046110D01*
X0102715Y0046165D01*
X0102744Y0046217D01*
X0102777Y0046268D01*
X0102813Y0046317D01*
X0102851Y0046363D01*
X0102893Y0046407D01*
X0102937Y0046449D01*
X0102983Y0046487D01*
X0103032Y0046523D01*
X0103083Y0046556D01*
X0103135Y0046585D01*
X0103190Y0046612D01*
X0103245Y0046635D01*
X0103302Y0046655D01*
X0103361Y0046671D01*
X0103420Y0046684D01*
X0103479Y0046693D01*
X0103540Y0046698D01*
X0103600Y0046700D01*
X0120600Y0046700D01*
X0120660Y0046698D01*
X0120721Y0046693D01*
X0120780Y0046684D01*
X0120839Y0046671D01*
X0120898Y0046655D01*
X0120955Y0046635D01*
X0121010Y0046612D01*
X0121065Y0046585D01*
X0121117Y0046556D01*
X0121168Y0046523D01*
X0121217Y0046487D01*
X0121263Y0046449D01*
X0121307Y0046407D01*
X0121349Y0046363D01*
X0121387Y0046317D01*
X0121423Y0046268D01*
X0121456Y0046217D01*
X0121485Y0046165D01*
X0121512Y0046110D01*
X0121535Y0046055D01*
X0121555Y0045998D01*
X0121571Y0045939D01*
X0121584Y0045880D01*
X0121593Y0045821D01*
X0121598Y0045760D01*
X0121600Y0045700D01*
X0120600Y0048200D02*
X0119600Y0048200D01*
X0119100Y0048700D01*
X0110100Y0048700D01*
X0109600Y0048200D01*
X0108600Y0048200D01*
X0108540Y0048202D01*
X0108479Y0048207D01*
X0108420Y0048216D01*
X0108361Y0048229D01*
X0108302Y0048245D01*
X0108245Y0048265D01*
X0108190Y0048288D01*
X0108135Y0048315D01*
X0108083Y0048344D01*
X0108032Y0048377D01*
X0107983Y0048413D01*
X0107937Y0048451D01*
X0107893Y0048493D01*
X0107851Y0048537D01*
X0107813Y0048583D01*
X0107777Y0048632D01*
X0107744Y0048683D01*
X0107715Y0048735D01*
X0107688Y0048790D01*
X0107665Y0048845D01*
X0107645Y0048902D01*
X0107629Y0048961D01*
X0107616Y0049020D01*
X0107607Y0049079D01*
X0107602Y0049140D01*
X0107600Y0049200D01*
X0107600Y0054200D02*
X0107602Y0054260D01*
X0107607Y0054321D01*
X0107616Y0054380D01*
X0107629Y0054439D01*
X0107645Y0054498D01*
X0107665Y0054555D01*
X0107688Y0054610D01*
X0107715Y0054665D01*
X0107744Y0054717D01*
X0107777Y0054768D01*
X0107813Y0054817D01*
X0107851Y0054863D01*
X0107893Y0054907D01*
X0107937Y0054949D01*
X0107983Y0054987D01*
X0108032Y0055023D01*
X0108083Y0055056D01*
X0108135Y0055085D01*
X0108190Y0055112D01*
X0108245Y0055135D01*
X0108302Y0055155D01*
X0108361Y0055171D01*
X0108420Y0055184D01*
X0108479Y0055193D01*
X0108540Y0055198D01*
X0108600Y0055200D01*
X0109600Y0055200D01*
X0110100Y0054700D01*
X0119100Y0054700D01*
X0119600Y0055200D01*
X0120600Y0055200D01*
X0120660Y0055198D01*
X0120721Y0055193D01*
X0120780Y0055184D01*
X0120839Y0055171D01*
X0120898Y0055155D01*
X0120955Y0055135D01*
X0121010Y0055112D01*
X0121065Y0055085D01*
X0121117Y0055056D01*
X0121168Y0055023D01*
X0121217Y0054987D01*
X0121263Y0054949D01*
X0121307Y0054907D01*
X0121349Y0054863D01*
X0121387Y0054817D01*
X0121423Y0054768D01*
X0121456Y0054717D01*
X0121485Y0054665D01*
X0121512Y0054610D01*
X0121535Y0054555D01*
X0121555Y0054498D01*
X0121571Y0054439D01*
X0121584Y0054380D01*
X0121593Y0054321D01*
X0121598Y0054260D01*
X0121600Y0054200D01*
X0117100Y0059200D02*
X0114600Y0056700D01*
X0109600Y0056700D01*
X0107100Y0059200D01*
X0104600Y0056700D01*
X0099600Y0056700D01*
X0097100Y0059200D01*
X0094600Y0056700D01*
X0089600Y0056700D01*
X0087100Y0059200D01*
X0087100Y0064200D01*
X0089600Y0066700D01*
X0094600Y0066700D01*
X0097100Y0064200D01*
X0099600Y0066700D01*
X0104600Y0066700D01*
X0107100Y0064200D01*
X0109600Y0066700D01*
X0114600Y0066700D01*
X0117100Y0064200D01*
X0107100Y0064200D02*
X0107100Y0059200D01*
X0097100Y0059200D02*
X0097100Y0064200D01*
X0087100Y0064200D02*
X0084600Y0066700D01*
X0079600Y0066700D01*
X0077100Y0064200D01*
X0074600Y0066700D01*
X0069600Y0066700D01*
X0067100Y0064200D01*
X0064600Y0066700D01*
X0059600Y0066700D01*
X0057100Y0064200D01*
X0057100Y0059200D01*
X0059600Y0056700D01*
X0064600Y0056700D01*
X0067100Y0059200D01*
X0067100Y0064200D01*
X0067100Y0059200D02*
X0069600Y0056700D01*
X0074600Y0056700D01*
X0077100Y0059200D01*
X0077100Y0064200D01*
X0077100Y0059200D02*
X0079600Y0056700D01*
X0084600Y0056700D01*
X0087100Y0059200D01*
X0082100Y0050200D02*
X0081100Y0050200D01*
X0082100Y0050200D02*
X0082600Y0049700D01*
X0091600Y0049700D01*
X0092100Y0050200D01*
X0093100Y0050200D01*
X0093160Y0050198D01*
X0093221Y0050193D01*
X0093280Y0050184D01*
X0093339Y0050171D01*
X0093398Y0050155D01*
X0093455Y0050135D01*
X0093510Y0050112D01*
X0093565Y0050085D01*
X0093617Y0050056D01*
X0093668Y0050023D01*
X0093717Y0049987D01*
X0093763Y0049949D01*
X0093807Y0049907D01*
X0093849Y0049863D01*
X0093887Y0049817D01*
X0093923Y0049768D01*
X0093956Y0049717D01*
X0093985Y0049665D01*
X0094012Y0049610D01*
X0094035Y0049555D01*
X0094055Y0049498D01*
X0094071Y0049439D01*
X0094084Y0049380D01*
X0094093Y0049321D01*
X0094098Y0049260D01*
X0094100Y0049200D01*
X0094100Y0044200D02*
X0094098Y0044140D01*
X0094093Y0044079D01*
X0094084Y0044020D01*
X0094071Y0043961D01*
X0094055Y0043902D01*
X0094035Y0043845D01*
X0094012Y0043790D01*
X0093985Y0043735D01*
X0093956Y0043683D01*
X0093923Y0043632D01*
X0093887Y0043583D01*
X0093849Y0043537D01*
X0093807Y0043493D01*
X0093763Y0043451D01*
X0093717Y0043413D01*
X0093668Y0043377D01*
X0093617Y0043344D01*
X0093565Y0043315D01*
X0093510Y0043288D01*
X0093455Y0043265D01*
X0093398Y0043245D01*
X0093339Y0043229D01*
X0093280Y0043216D01*
X0093221Y0043207D01*
X0093160Y0043202D01*
X0093100Y0043200D01*
X0092100Y0043200D01*
X0091600Y0043700D01*
X0082600Y0043700D01*
X0082100Y0043200D01*
X0081100Y0043200D01*
X0081040Y0043202D01*
X0080979Y0043207D01*
X0080920Y0043216D01*
X0080861Y0043229D01*
X0080802Y0043245D01*
X0080745Y0043265D01*
X0080690Y0043288D01*
X0080635Y0043315D01*
X0080583Y0043344D01*
X0080532Y0043377D01*
X0080483Y0043413D01*
X0080437Y0043451D01*
X0080393Y0043493D01*
X0080351Y0043537D01*
X0080313Y0043583D01*
X0080277Y0043632D01*
X0080244Y0043683D01*
X0080215Y0043735D01*
X0080188Y0043790D01*
X0080165Y0043845D01*
X0080145Y0043902D01*
X0080129Y0043961D01*
X0080116Y0044020D01*
X0080107Y0044079D01*
X0080102Y0044140D01*
X0080100Y0044200D01*
X0080100Y0049200D02*
X0080102Y0049260D01*
X0080107Y0049321D01*
X0080116Y0049380D01*
X0080129Y0049439D01*
X0080145Y0049498D01*
X0080165Y0049555D01*
X0080188Y0049610D01*
X0080215Y0049665D01*
X0080244Y0049717D01*
X0080277Y0049768D01*
X0080313Y0049817D01*
X0080351Y0049863D01*
X0080393Y0049907D01*
X0080437Y0049949D01*
X0080483Y0049987D01*
X0080532Y0050023D01*
X0080583Y0050056D01*
X0080635Y0050085D01*
X0080690Y0050112D01*
X0080745Y0050135D01*
X0080802Y0050155D01*
X0080861Y0050171D01*
X0080920Y0050184D01*
X0080979Y0050193D01*
X0081040Y0050198D01*
X0081100Y0050200D01*
X0057100Y0059200D02*
X0054600Y0056700D01*
X0049600Y0056700D01*
X0047100Y0059200D01*
X0044600Y0056700D01*
X0039600Y0056700D01*
X0037100Y0059200D01*
X0034600Y0056700D01*
X0029600Y0056700D01*
X0027100Y0059200D01*
X0024600Y0056700D01*
X0019600Y0056700D01*
X0017100Y0059200D01*
X0017100Y0064200D01*
X0019600Y0066700D01*
X0024600Y0066700D01*
X0027100Y0064200D01*
X0029600Y0066700D01*
X0034600Y0066700D01*
X0037100Y0064200D01*
X0039600Y0066700D01*
X0044600Y0066700D01*
X0047100Y0064200D01*
X0049600Y0066700D01*
X0054600Y0066700D01*
X0057100Y0064200D01*
X0047100Y0064200D02*
X0047100Y0059200D01*
X0037100Y0059200D02*
X0037100Y0064200D01*
X0027100Y0064200D02*
X0027100Y0059200D01*
X0015600Y0060700D02*
X0015600Y0061700D01*
X0015100Y0062200D01*
X0015100Y0071200D01*
X0015600Y0071700D01*
X0015600Y0072700D01*
X0015598Y0072760D01*
X0015593Y0072821D01*
X0015584Y0072880D01*
X0015571Y0072939D01*
X0015555Y0072998D01*
X0015535Y0073055D01*
X0015512Y0073110D01*
X0015485Y0073165D01*
X0015456Y0073217D01*
X0015423Y0073268D01*
X0015387Y0073317D01*
X0015349Y0073363D01*
X0015307Y0073407D01*
X0015263Y0073449D01*
X0015217Y0073487D01*
X0015168Y0073523D01*
X0015117Y0073556D01*
X0015065Y0073585D01*
X0015010Y0073612D01*
X0014955Y0073635D01*
X0014898Y0073655D01*
X0014839Y0073671D01*
X0014780Y0073684D01*
X0014721Y0073693D01*
X0014660Y0073698D01*
X0014600Y0073700D01*
X0009600Y0073700D02*
X0009540Y0073698D01*
X0009479Y0073693D01*
X0009420Y0073684D01*
X0009361Y0073671D01*
X0009302Y0073655D01*
X0009245Y0073635D01*
X0009190Y0073612D01*
X0009135Y0073585D01*
X0009083Y0073556D01*
X0009032Y0073523D01*
X0008983Y0073487D01*
X0008937Y0073449D01*
X0008893Y0073407D01*
X0008851Y0073363D01*
X0008813Y0073317D01*
X0008777Y0073268D01*
X0008744Y0073217D01*
X0008715Y0073165D01*
X0008688Y0073110D01*
X0008665Y0073055D01*
X0008645Y0072998D01*
X0008629Y0072939D01*
X0008616Y0072880D01*
X0008607Y0072821D01*
X0008602Y0072760D01*
X0008600Y0072700D01*
X0008600Y0071700D01*
X0009100Y0071200D01*
X0009100Y0062200D01*
X0008600Y0061700D01*
X0008600Y0060700D01*
X0008602Y0060640D01*
X0008607Y0060579D01*
X0008616Y0060520D01*
X0008629Y0060461D01*
X0008645Y0060402D01*
X0008665Y0060345D01*
X0008688Y0060290D01*
X0008715Y0060235D01*
X0008744Y0060183D01*
X0008777Y0060132D01*
X0008813Y0060083D01*
X0008851Y0060037D01*
X0008893Y0059993D01*
X0008937Y0059951D01*
X0008983Y0059913D01*
X0009032Y0059877D01*
X0009083Y0059844D01*
X0009135Y0059815D01*
X0009190Y0059788D01*
X0009245Y0059765D01*
X0009302Y0059745D01*
X0009361Y0059729D01*
X0009420Y0059716D01*
X0009479Y0059707D01*
X0009540Y0059702D01*
X0009600Y0059700D01*
X0014600Y0059700D02*
X0014660Y0059702D01*
X0014721Y0059707D01*
X0014780Y0059716D01*
X0014839Y0059729D01*
X0014898Y0059745D01*
X0014955Y0059765D01*
X0015010Y0059788D01*
X0015065Y0059815D01*
X0015117Y0059844D01*
X0015168Y0059877D01*
X0015217Y0059913D01*
X0015263Y0059951D01*
X0015307Y0059993D01*
X0015349Y0060037D01*
X0015387Y0060083D01*
X0015423Y0060132D01*
X0015456Y0060183D01*
X0015485Y0060235D01*
X0015512Y0060290D01*
X0015535Y0060345D01*
X0015555Y0060402D01*
X0015571Y0060461D01*
X0015584Y0060520D01*
X0015593Y0060579D01*
X0015598Y0060640D01*
X0015600Y0060700D01*
X0032100Y0080200D02*
X0032100Y0087700D01*
X0030100Y0084700D02*
X0030100Y0093700D01*
X0030600Y0094200D01*
X0030600Y0095200D01*
X0030598Y0095260D01*
X0030593Y0095321D01*
X0030584Y0095380D01*
X0030571Y0095439D01*
X0030555Y0095498D01*
X0030535Y0095555D01*
X0030512Y0095610D01*
X0030485Y0095665D01*
X0030456Y0095717D01*
X0030423Y0095768D01*
X0030387Y0095817D01*
X0030349Y0095863D01*
X0030307Y0095907D01*
X0030263Y0095949D01*
X0030217Y0095987D01*
X0030168Y0096023D01*
X0030117Y0096056D01*
X0030065Y0096085D01*
X0030010Y0096112D01*
X0029955Y0096135D01*
X0029898Y0096155D01*
X0029839Y0096171D01*
X0029780Y0096184D01*
X0029721Y0096193D01*
X0029660Y0096198D01*
X0029600Y0096200D01*
X0032100Y0095700D02*
X0032100Y0103200D01*
X0102100Y0103200D01*
X0102100Y0080200D01*
X0032100Y0080200D01*
X0030600Y0083200D02*
X0030600Y0084200D01*
X0030100Y0084700D01*
X0030600Y0083200D02*
X0030598Y0083140D01*
X0030593Y0083079D01*
X0030584Y0083020D01*
X0030571Y0082961D01*
X0030555Y0082902D01*
X0030535Y0082845D01*
X0030512Y0082790D01*
X0030485Y0082735D01*
X0030456Y0082683D01*
X0030423Y0082632D01*
X0030387Y0082583D01*
X0030349Y0082537D01*
X0030307Y0082493D01*
X0030263Y0082451D01*
X0030217Y0082413D01*
X0030168Y0082377D01*
X0030117Y0082344D01*
X0030065Y0082315D01*
X0030010Y0082288D01*
X0029955Y0082265D01*
X0029898Y0082245D01*
X0029839Y0082229D01*
X0029780Y0082216D01*
X0029721Y0082207D01*
X0029660Y0082202D01*
X0029600Y0082200D01*
X0024600Y0082200D02*
X0024540Y0082202D01*
X0024479Y0082207D01*
X0024420Y0082216D01*
X0024361Y0082229D01*
X0024302Y0082245D01*
X0024245Y0082265D01*
X0024190Y0082288D01*
X0024135Y0082315D01*
X0024083Y0082344D01*
X0024032Y0082377D01*
X0023983Y0082413D01*
X0023937Y0082451D01*
X0023893Y0082493D01*
X0023851Y0082537D01*
X0023813Y0082583D01*
X0023777Y0082632D01*
X0023744Y0082683D01*
X0023715Y0082735D01*
X0023688Y0082790D01*
X0023665Y0082845D01*
X0023645Y0082902D01*
X0023629Y0082961D01*
X0023616Y0083020D01*
X0023607Y0083079D01*
X0023602Y0083140D01*
X0023600Y0083200D01*
X0023600Y0084200D01*
X0024100Y0084700D01*
X0024100Y0093700D01*
X0023600Y0094200D01*
X0023600Y0095200D01*
X0023602Y0095260D01*
X0023607Y0095321D01*
X0023616Y0095380D01*
X0023629Y0095439D01*
X0023645Y0095498D01*
X0023665Y0095555D01*
X0023688Y0095610D01*
X0023715Y0095665D01*
X0023744Y0095717D01*
X0023777Y0095768D01*
X0023813Y0095817D01*
X0023851Y0095863D01*
X0023893Y0095907D01*
X0023937Y0095949D01*
X0023983Y0095987D01*
X0024032Y0096023D01*
X0024083Y0096056D01*
X0024135Y0096085D01*
X0024190Y0096112D01*
X0024245Y0096135D01*
X0024302Y0096155D01*
X0024361Y0096171D01*
X0024420Y0096184D01*
X0024479Y0096193D01*
X0024540Y0096198D01*
X0024600Y0096200D01*
X0018100Y0094200D02*
X0017600Y0094700D01*
X0017600Y0103700D01*
X0018100Y0104200D01*
X0018100Y0105200D01*
X0018098Y0105260D01*
X0018093Y0105321D01*
X0018084Y0105380D01*
X0018071Y0105439D01*
X0018055Y0105498D01*
X0018035Y0105555D01*
X0018012Y0105610D01*
X0017985Y0105665D01*
X0017956Y0105717D01*
X0017923Y0105768D01*
X0017887Y0105817D01*
X0017849Y0105863D01*
X0017807Y0105907D01*
X0017763Y0105949D01*
X0017717Y0105987D01*
X0017668Y0106023D01*
X0017617Y0106056D01*
X0017565Y0106085D01*
X0017510Y0106112D01*
X0017455Y0106135D01*
X0017398Y0106155D01*
X0017339Y0106171D01*
X0017280Y0106184D01*
X0017221Y0106193D01*
X0017160Y0106198D01*
X0017100Y0106200D01*
X0012100Y0106200D02*
X0012040Y0106198D01*
X0011979Y0106193D01*
X0011920Y0106184D01*
X0011861Y0106171D01*
X0011802Y0106155D01*
X0011745Y0106135D01*
X0011690Y0106112D01*
X0011635Y0106085D01*
X0011583Y0106056D01*
X0011532Y0106023D01*
X0011483Y0105987D01*
X0011437Y0105949D01*
X0011393Y0105907D01*
X0011351Y0105863D01*
X0011313Y0105817D01*
X0011277Y0105768D01*
X0011244Y0105717D01*
X0011215Y0105665D01*
X0011188Y0105610D01*
X0011165Y0105555D01*
X0011145Y0105498D01*
X0011129Y0105439D01*
X0011116Y0105380D01*
X0011107Y0105321D01*
X0011102Y0105260D01*
X0011100Y0105200D01*
X0011100Y0104200D01*
X0011600Y0103700D01*
X0011600Y0094700D01*
X0011100Y0094200D01*
X0011100Y0093200D01*
X0011102Y0093140D01*
X0011107Y0093079D01*
X0011116Y0093020D01*
X0011129Y0092961D01*
X0011145Y0092902D01*
X0011165Y0092845D01*
X0011188Y0092790D01*
X0011215Y0092735D01*
X0011244Y0092683D01*
X0011277Y0092632D01*
X0011313Y0092583D01*
X0011351Y0092537D01*
X0011393Y0092493D01*
X0011437Y0092451D01*
X0011483Y0092413D01*
X0011532Y0092377D01*
X0011583Y0092344D01*
X0011635Y0092315D01*
X0011690Y0092288D01*
X0011745Y0092265D01*
X0011802Y0092245D01*
X0011861Y0092229D01*
X0011920Y0092216D01*
X0011979Y0092207D01*
X0012040Y0092202D01*
X0012100Y0092200D01*
X0017100Y0092200D02*
X0017160Y0092202D01*
X0017221Y0092207D01*
X0017280Y0092216D01*
X0017339Y0092229D01*
X0017398Y0092245D01*
X0017455Y0092265D01*
X0017510Y0092288D01*
X0017565Y0092315D01*
X0017617Y0092344D01*
X0017668Y0092377D01*
X0017717Y0092413D01*
X0017763Y0092451D01*
X0017807Y0092493D01*
X0017849Y0092537D01*
X0017887Y0092583D01*
X0017923Y0092632D01*
X0017956Y0092683D01*
X0017985Y0092735D01*
X0018012Y0092790D01*
X0018035Y0092845D01*
X0018055Y0092902D01*
X0018071Y0092961D01*
X0018084Y0093020D01*
X0018093Y0093079D01*
X0018098Y0093140D01*
X0018100Y0093200D01*
X0018100Y0094200D01*
X0032100Y0095700D02*
X0032226Y0095698D01*
X0032351Y0095692D01*
X0032476Y0095682D01*
X0032601Y0095668D01*
X0032726Y0095651D01*
X0032850Y0095629D01*
X0032973Y0095604D01*
X0033095Y0095574D01*
X0033216Y0095541D01*
X0033336Y0095504D01*
X0033455Y0095464D01*
X0033572Y0095419D01*
X0033689Y0095371D01*
X0033803Y0095319D01*
X0033916Y0095264D01*
X0034027Y0095205D01*
X0034136Y0095143D01*
X0034243Y0095077D01*
X0034348Y0095008D01*
X0034451Y0094936D01*
X0034552Y0094861D01*
X0034650Y0094782D01*
X0034745Y0094700D01*
X0034838Y0094616D01*
X0034928Y0094528D01*
X0035016Y0094438D01*
X0035100Y0094345D01*
X0035182Y0094250D01*
X0035261Y0094152D01*
X0035336Y0094051D01*
X0035408Y0093948D01*
X0035477Y0093843D01*
X0035543Y0093736D01*
X0035605Y0093627D01*
X0035664Y0093516D01*
X0035719Y0093403D01*
X0035771Y0093289D01*
X0035819Y0093172D01*
X0035864Y0093055D01*
X0035904Y0092936D01*
X0035941Y0092816D01*
X0035974Y0092695D01*
X0036004Y0092573D01*
X0036029Y0092450D01*
X0036051Y0092326D01*
X0036068Y0092201D01*
X0036082Y0092076D01*
X0036092Y0091951D01*
X0036098Y0091826D01*
X0036100Y0091700D01*
X0036098Y0091574D01*
X0036092Y0091449D01*
X0036082Y0091324D01*
X0036068Y0091199D01*
X0036051Y0091074D01*
X0036029Y0090950D01*
X0036004Y0090827D01*
X0035974Y0090705D01*
X0035941Y0090584D01*
X0035904Y0090464D01*
X0035864Y0090345D01*
X0035819Y0090228D01*
X0035771Y0090111D01*
X0035719Y0089997D01*
X0035664Y0089884D01*
X0035605Y0089773D01*
X0035543Y0089664D01*
X0035477Y0089557D01*
X0035408Y0089452D01*
X0035336Y0089349D01*
X0035261Y0089248D01*
X0035182Y0089150D01*
X0035100Y0089055D01*
X0035016Y0088962D01*
X0034928Y0088872D01*
X0034838Y0088784D01*
X0034745Y0088700D01*
X0034650Y0088618D01*
X0034552Y0088539D01*
X0034451Y0088464D01*
X0034348Y0088392D01*
X0034243Y0088323D01*
X0034136Y0088257D01*
X0034027Y0088195D01*
X0033916Y0088136D01*
X0033803Y0088081D01*
X0033689Y0088029D01*
X0033572Y0087981D01*
X0033455Y0087936D01*
X0033336Y0087896D01*
X0033216Y0087859D01*
X0033095Y0087826D01*
X0032973Y0087796D01*
X0032850Y0087771D01*
X0032726Y0087749D01*
X0032601Y0087732D01*
X0032476Y0087718D01*
X0032351Y0087708D01*
X0032226Y0087702D01*
X0032100Y0087700D01*
X0051100Y0108200D02*
X0052100Y0108200D01*
X0052600Y0108700D01*
X0061600Y0108700D01*
X0062100Y0108200D01*
X0063100Y0108200D01*
X0063160Y0108202D01*
X0063221Y0108207D01*
X0063280Y0108216D01*
X0063339Y0108229D01*
X0063398Y0108245D01*
X0063455Y0108265D01*
X0063510Y0108288D01*
X0063565Y0108315D01*
X0063617Y0108344D01*
X0063668Y0108377D01*
X0063717Y0108413D01*
X0063763Y0108451D01*
X0063807Y0108493D01*
X0063849Y0108537D01*
X0063887Y0108583D01*
X0063923Y0108632D01*
X0063956Y0108683D01*
X0063985Y0108735D01*
X0064012Y0108790D01*
X0064035Y0108845D01*
X0064055Y0108902D01*
X0064071Y0108961D01*
X0064084Y0109020D01*
X0064093Y0109079D01*
X0064098Y0109140D01*
X0064100Y0109200D01*
X0064100Y0114200D02*
X0064098Y0114260D01*
X0064093Y0114321D01*
X0064084Y0114380D01*
X0064071Y0114439D01*
X0064055Y0114498D01*
X0064035Y0114555D01*
X0064012Y0114610D01*
X0063985Y0114665D01*
X0063956Y0114717D01*
X0063923Y0114768D01*
X0063887Y0114817D01*
X0063849Y0114863D01*
X0063807Y0114907D01*
X0063763Y0114949D01*
X0063717Y0114987D01*
X0063668Y0115023D01*
X0063617Y0115056D01*
X0063565Y0115085D01*
X0063510Y0115112D01*
X0063455Y0115135D01*
X0063398Y0115155D01*
X0063339Y0115171D01*
X0063280Y0115184D01*
X0063221Y0115193D01*
X0063160Y0115198D01*
X0063100Y0115200D01*
X0062100Y0115200D01*
X0061600Y0114700D01*
X0052600Y0114700D01*
X0052100Y0115200D01*
X0051100Y0115200D01*
X0051040Y0115198D01*
X0050979Y0115193D01*
X0050920Y0115184D01*
X0050861Y0115171D01*
X0050802Y0115155D01*
X0050745Y0115135D01*
X0050690Y0115112D01*
X0050635Y0115085D01*
X0050583Y0115056D01*
X0050532Y0115023D01*
X0050483Y0114987D01*
X0050437Y0114949D01*
X0050393Y0114907D01*
X0050351Y0114863D01*
X0050313Y0114817D01*
X0050277Y0114768D01*
X0050244Y0114717D01*
X0050215Y0114665D01*
X0050188Y0114610D01*
X0050165Y0114555D01*
X0050145Y0114498D01*
X0050129Y0114439D01*
X0050116Y0114380D01*
X0050107Y0114321D01*
X0050102Y0114260D01*
X0050100Y0114200D01*
X0049600Y0116700D02*
X0047100Y0119200D01*
X0044600Y0116700D01*
X0039600Y0116700D01*
X0037100Y0119200D01*
X0034600Y0116700D01*
X0029600Y0116700D01*
X0027100Y0119200D01*
X0024600Y0116700D01*
X0019600Y0116700D01*
X0017100Y0119200D01*
X0017100Y0124200D01*
X0019600Y0126700D01*
X0024600Y0126700D01*
X0027100Y0124200D01*
X0029600Y0126700D01*
X0034600Y0126700D01*
X0037100Y0124200D01*
X0039600Y0126700D01*
X0044600Y0126700D01*
X0047100Y0124200D01*
X0049600Y0126700D01*
X0054600Y0126700D01*
X0057100Y0124200D01*
X0059600Y0126700D01*
X0064600Y0126700D01*
X0067100Y0124200D01*
X0069600Y0126700D01*
X0074600Y0126700D01*
X0077100Y0124200D01*
X0079600Y0126700D01*
X0084600Y0126700D01*
X0087100Y0124200D01*
X0089600Y0126700D01*
X0094600Y0126700D01*
X0097100Y0124200D01*
X0099600Y0126700D01*
X0104600Y0126700D01*
X0107100Y0124200D01*
X0109600Y0126700D01*
X0114600Y0126700D01*
X0117100Y0124200D01*
X0119600Y0126700D01*
X0124600Y0126700D01*
X0127100Y0124200D01*
X0129600Y0126700D01*
X0134600Y0126700D01*
X0137100Y0124200D01*
X0139600Y0126700D01*
X0144600Y0126700D01*
X0147100Y0124200D01*
X0149600Y0126700D01*
X0154600Y0126700D01*
X0157100Y0124200D01*
X0159600Y0126700D01*
X0164600Y0126700D01*
X0167100Y0124200D01*
X0167100Y0119200D01*
X0164600Y0116700D01*
X0159600Y0116700D01*
X0157100Y0119200D01*
X0154600Y0116700D01*
X0149600Y0116700D01*
X0147100Y0119200D01*
X0147100Y0124200D01*
X0147100Y0119200D02*
X0144600Y0116700D01*
X0139600Y0116700D01*
X0137100Y0119200D01*
X0134600Y0116700D01*
X0129600Y0116700D01*
X0127100Y0119200D01*
X0124600Y0116700D01*
X0119600Y0116700D01*
X0117100Y0119200D01*
X0117100Y0124200D01*
X0117100Y0119200D02*
X0114600Y0116700D01*
X0109600Y0116700D01*
X0107100Y0119200D01*
X0104600Y0116700D01*
X0099600Y0116700D01*
X0097100Y0119200D01*
X0094600Y0116700D01*
X0089600Y0116700D01*
X0087100Y0119200D01*
X0087100Y0124200D01*
X0087100Y0119200D02*
X0084600Y0116700D01*
X0079600Y0116700D01*
X0077100Y0119200D01*
X0074600Y0116700D01*
X0069600Y0116700D01*
X0067100Y0119200D01*
X0064600Y0116700D01*
X0059600Y0116700D01*
X0057100Y0119200D01*
X0057100Y0124200D01*
X0057100Y0119200D02*
X0054600Y0116700D01*
X0049600Y0116700D01*
X0047100Y0119200D02*
X0047100Y0124200D01*
X0039100Y0131700D02*
X0039100Y0141700D01*
X0055100Y0141700D01*
X0055100Y0131700D01*
X0039100Y0131700D01*
X0044600Y0136700D02*
X0047100Y0136700D01*
X0047100Y0139200D01*
X0048100Y0139200D01*
X0047100Y0136700D02*
X0047100Y0134200D01*
X0047100Y0136700D02*
X0051100Y0139200D01*
X0051100Y0134200D01*
X0047100Y0136700D01*
X0053100Y0136700D01*
X0055100Y0141700D02*
X0055100Y0151700D01*
X0039100Y0151700D01*
X0039100Y0141700D01*
X0055100Y0141700D01*
X0049600Y0146700D02*
X0047100Y0146700D01*
X0047100Y0144200D01*
X0046100Y0144200D01*
X0047100Y0146700D02*
X0047100Y0149200D01*
X0047100Y0146700D02*
X0043100Y0144200D01*
X0043100Y0149200D01*
X0047100Y0146700D01*
X0041100Y0146700D01*
X0039100Y0151700D02*
X0039100Y0161700D01*
X0055100Y0161700D01*
X0055100Y0151700D01*
X0039100Y0151700D01*
X0044600Y0156700D02*
X0047100Y0156700D01*
X0047100Y0159200D01*
X0048100Y0159200D01*
X0047100Y0156700D02*
X0047100Y0154200D01*
X0047100Y0156700D02*
X0051100Y0159200D01*
X0051100Y0154200D01*
X0047100Y0156700D01*
X0053100Y0156700D01*
X0055100Y0161700D02*
X0055100Y0171700D01*
X0039100Y0171700D01*
X0039100Y0161700D01*
X0055100Y0161700D01*
X0049600Y0166700D02*
X0047100Y0166700D01*
X0047100Y0164200D01*
X0046100Y0164200D01*
X0047100Y0166700D02*
X0047100Y0169200D01*
X0047100Y0166700D02*
X0043100Y0164200D01*
X0043100Y0169200D01*
X0047100Y0166700D01*
X0041100Y0166700D01*
X0034600Y0186700D02*
X0029600Y0186700D01*
X0027100Y0189200D01*
X0027100Y0194200D01*
X0029600Y0196700D01*
X0034600Y0196700D01*
X0037100Y0194200D01*
X0037100Y0189200D01*
X0034600Y0186700D01*
X0047100Y0189200D02*
X0049600Y0186700D01*
X0054600Y0186700D01*
X0057100Y0189200D01*
X0057100Y0194200D01*
X0054600Y0196700D01*
X0049600Y0196700D01*
X0047100Y0194200D01*
X0047100Y0189200D01*
X0067100Y0189200D02*
X0069600Y0186700D01*
X0074600Y0186700D01*
X0077100Y0189200D01*
X0077100Y0194200D01*
X0074600Y0196700D01*
X0069600Y0196700D01*
X0067100Y0194200D01*
X0067100Y0189200D01*
X0083600Y0175200D02*
X0083600Y0174200D01*
X0084100Y0173700D01*
X0084100Y0164700D01*
X0083600Y0164200D01*
X0083600Y0163200D01*
X0083602Y0163140D01*
X0083607Y0163079D01*
X0083616Y0163020D01*
X0083629Y0162961D01*
X0083645Y0162902D01*
X0083665Y0162845D01*
X0083688Y0162790D01*
X0083715Y0162735D01*
X0083744Y0162683D01*
X0083777Y0162632D01*
X0083813Y0162583D01*
X0083851Y0162537D01*
X0083893Y0162493D01*
X0083937Y0162451D01*
X0083983Y0162413D01*
X0084032Y0162377D01*
X0084083Y0162344D01*
X0084135Y0162315D01*
X0084190Y0162288D01*
X0084245Y0162265D01*
X0084302Y0162245D01*
X0084361Y0162229D01*
X0084420Y0162216D01*
X0084479Y0162207D01*
X0084540Y0162202D01*
X0084600Y0162200D01*
X0089600Y0162200D02*
X0089660Y0162202D01*
X0089721Y0162207D01*
X0089780Y0162216D01*
X0089839Y0162229D01*
X0089898Y0162245D01*
X0089955Y0162265D01*
X0090010Y0162288D01*
X0090065Y0162315D01*
X0090117Y0162344D01*
X0090168Y0162377D01*
X0090217Y0162413D01*
X0090263Y0162451D01*
X0090307Y0162493D01*
X0090349Y0162537D01*
X0090387Y0162583D01*
X0090423Y0162632D01*
X0090456Y0162683D01*
X0090485Y0162735D01*
X0090512Y0162790D01*
X0090535Y0162845D01*
X0090555Y0162902D01*
X0090571Y0162961D01*
X0090584Y0163020D01*
X0090593Y0163079D01*
X0090598Y0163140D01*
X0090600Y0163200D01*
X0090600Y0164200D01*
X0090100Y0164700D01*
X0090100Y0173700D01*
X0090600Y0174200D01*
X0090600Y0175200D01*
X0090598Y0175260D01*
X0090593Y0175321D01*
X0090584Y0175380D01*
X0090571Y0175439D01*
X0090555Y0175498D01*
X0090535Y0175555D01*
X0090512Y0175610D01*
X0090485Y0175665D01*
X0090456Y0175717D01*
X0090423Y0175768D01*
X0090387Y0175817D01*
X0090349Y0175863D01*
X0090307Y0175907D01*
X0090263Y0175949D01*
X0090217Y0175987D01*
X0090168Y0176023D01*
X0090117Y0176056D01*
X0090065Y0176085D01*
X0090010Y0176112D01*
X0089955Y0176135D01*
X0089898Y0176155D01*
X0089839Y0176171D01*
X0089780Y0176184D01*
X0089721Y0176193D01*
X0089660Y0176198D01*
X0089600Y0176200D01*
X0090100Y0172700D02*
X0090100Y0180700D01*
X0090102Y0180760D01*
X0090107Y0180821D01*
X0090116Y0180880D01*
X0090129Y0180939D01*
X0090145Y0180998D01*
X0090165Y0181055D01*
X0090188Y0181110D01*
X0090215Y0181165D01*
X0090244Y0181217D01*
X0090277Y0181268D01*
X0090313Y0181317D01*
X0090351Y0181363D01*
X0090393Y0181407D01*
X0090437Y0181449D01*
X0090483Y0181487D01*
X0090532Y0181523D01*
X0090583Y0181556D01*
X0090635Y0181585D01*
X0090690Y0181612D01*
X0090745Y0181635D01*
X0090802Y0181655D01*
X0090861Y0181671D01*
X0090920Y0181684D01*
X0090979Y0181693D01*
X0091040Y0181698D01*
X0091100Y0181700D01*
X0108100Y0181700D01*
X0108160Y0181698D01*
X0108221Y0181693D01*
X0108280Y0181684D01*
X0108339Y0181671D01*
X0108398Y0181655D01*
X0108455Y0181635D01*
X0108510Y0181612D01*
X0108565Y0181585D01*
X0108617Y0181556D01*
X0108668Y0181523D01*
X0108717Y0181487D01*
X0108763Y0181449D01*
X0108807Y0181407D01*
X0108849Y0181363D01*
X0108887Y0181317D01*
X0108923Y0181268D01*
X0108956Y0181217D01*
X0108985Y0181165D01*
X0109012Y0181110D01*
X0109035Y0181055D01*
X0109055Y0180998D01*
X0109071Y0180939D01*
X0109084Y0180880D01*
X0109093Y0180821D01*
X0109098Y0180760D01*
X0109100Y0180700D01*
X0109100Y0172700D01*
X0109098Y0172640D01*
X0109093Y0172579D01*
X0109084Y0172520D01*
X0109071Y0172461D01*
X0109055Y0172402D01*
X0109035Y0172345D01*
X0109012Y0172290D01*
X0108985Y0172235D01*
X0108956Y0172183D01*
X0108923Y0172132D01*
X0108887Y0172083D01*
X0108849Y0172037D01*
X0108807Y0171993D01*
X0108763Y0171951D01*
X0108717Y0171913D01*
X0108668Y0171877D01*
X0108617Y0171844D01*
X0108565Y0171815D01*
X0108510Y0171788D01*
X0108455Y0171765D01*
X0108398Y0171745D01*
X0108339Y0171729D01*
X0108280Y0171716D01*
X0108221Y0171707D01*
X0108160Y0171702D01*
X0108100Y0171700D01*
X0091100Y0171700D01*
X0108100Y0171700D01*
X0108160Y0171698D01*
X0108221Y0171693D01*
X0108280Y0171684D01*
X0108339Y0171671D01*
X0108398Y0171655D01*
X0108455Y0171635D01*
X0108510Y0171612D01*
X0108565Y0171585D01*
X0108617Y0171556D01*
X0108668Y0171523D01*
X0108717Y0171487D01*
X0108763Y0171449D01*
X0108807Y0171407D01*
X0108849Y0171363D01*
X0108887Y0171317D01*
X0108923Y0171268D01*
X0108956Y0171217D01*
X0108985Y0171165D01*
X0109012Y0171110D01*
X0109035Y0171055D01*
X0109055Y0170998D01*
X0109071Y0170939D01*
X0109084Y0170880D01*
X0109093Y0170821D01*
X0109098Y0170760D01*
X0109100Y0170700D01*
X0109100Y0162700D01*
X0109098Y0162640D01*
X0109093Y0162579D01*
X0109084Y0162520D01*
X0109071Y0162461D01*
X0109055Y0162402D01*
X0109035Y0162345D01*
X0109012Y0162290D01*
X0108985Y0162235D01*
X0108956Y0162183D01*
X0108923Y0162132D01*
X0108887Y0162083D01*
X0108849Y0162037D01*
X0108807Y0161993D01*
X0108763Y0161951D01*
X0108717Y0161913D01*
X0108668Y0161877D01*
X0108617Y0161844D01*
X0108565Y0161815D01*
X0108510Y0161788D01*
X0108455Y0161765D01*
X0108398Y0161745D01*
X0108339Y0161729D01*
X0108280Y0161716D01*
X0108221Y0161707D01*
X0108160Y0161702D01*
X0108100Y0161700D01*
X0091100Y0161700D01*
X0091040Y0161702D01*
X0090979Y0161707D01*
X0090920Y0161716D01*
X0090861Y0161729D01*
X0090802Y0161745D01*
X0090745Y0161765D01*
X0090690Y0161788D01*
X0090635Y0161815D01*
X0090583Y0161844D01*
X0090532Y0161877D01*
X0090483Y0161913D01*
X0090437Y0161951D01*
X0090393Y0161993D01*
X0090351Y0162037D01*
X0090313Y0162083D01*
X0090277Y0162132D01*
X0090244Y0162183D01*
X0090215Y0162235D01*
X0090188Y0162290D01*
X0090165Y0162345D01*
X0090145Y0162402D01*
X0090129Y0162461D01*
X0090116Y0162520D01*
X0090107Y0162579D01*
X0090102Y0162640D01*
X0090100Y0162700D01*
X0090100Y0170700D01*
X0090102Y0170760D01*
X0090107Y0170821D01*
X0090116Y0170880D01*
X0090129Y0170939D01*
X0090145Y0170998D01*
X0090165Y0171055D01*
X0090188Y0171110D01*
X0090215Y0171165D01*
X0090244Y0171217D01*
X0090277Y0171268D01*
X0090313Y0171317D01*
X0090351Y0171363D01*
X0090393Y0171407D01*
X0090437Y0171449D01*
X0090483Y0171487D01*
X0090532Y0171523D01*
X0090583Y0171556D01*
X0090635Y0171585D01*
X0090690Y0171612D01*
X0090745Y0171635D01*
X0090802Y0171655D01*
X0090861Y0171671D01*
X0090920Y0171684D01*
X0090979Y0171693D01*
X0091040Y0171698D01*
X0091100Y0171700D01*
X0091040Y0171702D01*
X0090979Y0171707D01*
X0090920Y0171716D01*
X0090861Y0171729D01*
X0090802Y0171745D01*
X0090745Y0171765D01*
X0090690Y0171788D01*
X0090635Y0171815D01*
X0090583Y0171844D01*
X0090532Y0171877D01*
X0090483Y0171913D01*
X0090437Y0171951D01*
X0090393Y0171993D01*
X0090351Y0172037D01*
X0090313Y0172083D01*
X0090277Y0172132D01*
X0090244Y0172183D01*
X0090215Y0172235D01*
X0090188Y0172290D01*
X0090165Y0172345D01*
X0090145Y0172402D01*
X0090129Y0172461D01*
X0090116Y0172520D01*
X0090107Y0172579D01*
X0090102Y0172640D01*
X0090100Y0172700D01*
X0084600Y0176200D02*
X0084540Y0176198D01*
X0084479Y0176193D01*
X0084420Y0176184D01*
X0084361Y0176171D01*
X0084302Y0176155D01*
X0084245Y0176135D01*
X0084190Y0176112D01*
X0084135Y0176085D01*
X0084083Y0176056D01*
X0084032Y0176023D01*
X0083983Y0175987D01*
X0083937Y0175949D01*
X0083893Y0175907D01*
X0083851Y0175863D01*
X0083813Y0175817D01*
X0083777Y0175768D01*
X0083744Y0175717D01*
X0083715Y0175665D01*
X0083688Y0175610D01*
X0083665Y0175555D01*
X0083645Y0175498D01*
X0083629Y0175439D01*
X0083616Y0175380D01*
X0083607Y0175321D01*
X0083602Y0175260D01*
X0083600Y0175200D01*
X0098100Y0176700D02*
X0098600Y0176700D01*
X0100600Y0176700D02*
X0101100Y0176700D01*
X0101100Y0166700D02*
X0100600Y0166700D01*
X0098600Y0166700D02*
X0098100Y0166700D01*
X0097100Y0148700D02*
X0097040Y0148698D01*
X0096979Y0148693D01*
X0096920Y0148684D01*
X0096861Y0148671D01*
X0096802Y0148655D01*
X0096745Y0148635D01*
X0096690Y0148612D01*
X0096635Y0148585D01*
X0096583Y0148556D01*
X0096532Y0148523D01*
X0096483Y0148487D01*
X0096437Y0148449D01*
X0096393Y0148407D01*
X0096351Y0148363D01*
X0096313Y0148317D01*
X0096277Y0148268D01*
X0096244Y0148217D01*
X0096215Y0148165D01*
X0096188Y0148110D01*
X0096165Y0148055D01*
X0096145Y0147998D01*
X0096129Y0147939D01*
X0096116Y0147880D01*
X0096107Y0147821D01*
X0096102Y0147760D01*
X0096100Y0147700D01*
X0096100Y0146700D01*
X0096600Y0146200D01*
X0096600Y0137200D01*
X0096100Y0136700D01*
X0096100Y0135700D01*
X0096102Y0135640D01*
X0096107Y0135579D01*
X0096116Y0135520D01*
X0096129Y0135461D01*
X0096145Y0135402D01*
X0096165Y0135345D01*
X0096188Y0135290D01*
X0096215Y0135235D01*
X0096244Y0135183D01*
X0096277Y0135132D01*
X0096313Y0135083D01*
X0096351Y0135037D01*
X0096393Y0134993D01*
X0096437Y0134951D01*
X0096483Y0134913D01*
X0096532Y0134877D01*
X0096583Y0134844D01*
X0096635Y0134815D01*
X0096690Y0134788D01*
X0096745Y0134765D01*
X0096802Y0134745D01*
X0096861Y0134729D01*
X0096920Y0134716D01*
X0096979Y0134707D01*
X0097040Y0134702D01*
X0097100Y0134700D01*
X0102100Y0134700D02*
X0102160Y0134702D01*
X0102221Y0134707D01*
X0102280Y0134716D01*
X0102339Y0134729D01*
X0102398Y0134745D01*
X0102455Y0134765D01*
X0102510Y0134788D01*
X0102565Y0134815D01*
X0102617Y0134844D01*
X0102668Y0134877D01*
X0102717Y0134913D01*
X0102763Y0134951D01*
X0102807Y0134993D01*
X0102849Y0135037D01*
X0102887Y0135083D01*
X0102923Y0135132D01*
X0102956Y0135183D01*
X0102985Y0135235D01*
X0103012Y0135290D01*
X0103035Y0135345D01*
X0103055Y0135402D01*
X0103071Y0135461D01*
X0103084Y0135520D01*
X0103093Y0135579D01*
X0103098Y0135640D01*
X0103100Y0135700D01*
X0103100Y0136700D01*
X0102600Y0137200D01*
X0102600Y0146200D01*
X0103100Y0146700D01*
X0103100Y0147700D01*
X0103600Y0147700D02*
X0103600Y0146700D01*
X0104100Y0146200D01*
X0104100Y0137200D01*
X0103600Y0136700D01*
X0103600Y0135700D01*
X0103602Y0135640D01*
X0103607Y0135579D01*
X0103616Y0135520D01*
X0103629Y0135461D01*
X0103645Y0135402D01*
X0103665Y0135345D01*
X0103688Y0135290D01*
X0103715Y0135235D01*
X0103744Y0135183D01*
X0103777Y0135132D01*
X0103813Y0135083D01*
X0103851Y0135037D01*
X0103893Y0134993D01*
X0103937Y0134951D01*
X0103983Y0134913D01*
X0104032Y0134877D01*
X0104083Y0134844D01*
X0104135Y0134815D01*
X0104190Y0134788D01*
X0104245Y0134765D01*
X0104302Y0134745D01*
X0104361Y0134729D01*
X0104420Y0134716D01*
X0104479Y0134707D01*
X0104540Y0134702D01*
X0104600Y0134700D01*
X0109600Y0134700D02*
X0109660Y0134702D01*
X0109721Y0134707D01*
X0109780Y0134716D01*
X0109839Y0134729D01*
X0109898Y0134745D01*
X0109955Y0134765D01*
X0110010Y0134788D01*
X0110065Y0134815D01*
X0110117Y0134844D01*
X0110168Y0134877D01*
X0110217Y0134913D01*
X0110263Y0134951D01*
X0110307Y0134993D01*
X0110349Y0135037D01*
X0110387Y0135083D01*
X0110423Y0135132D01*
X0110456Y0135183D01*
X0110485Y0135235D01*
X0110512Y0135290D01*
X0110535Y0135345D01*
X0110555Y0135402D01*
X0110571Y0135461D01*
X0110584Y0135520D01*
X0110593Y0135579D01*
X0110598Y0135640D01*
X0110600Y0135700D01*
X0110600Y0136700D01*
X0110100Y0137200D01*
X0110100Y0146200D01*
X0110600Y0146700D01*
X0110600Y0147700D01*
X0110598Y0147760D01*
X0110593Y0147821D01*
X0110584Y0147880D01*
X0110571Y0147939D01*
X0110555Y0147998D01*
X0110535Y0148055D01*
X0110512Y0148110D01*
X0110485Y0148165D01*
X0110456Y0148217D01*
X0110423Y0148268D01*
X0110387Y0148317D01*
X0110349Y0148363D01*
X0110307Y0148407D01*
X0110263Y0148449D01*
X0110217Y0148487D01*
X0110168Y0148523D01*
X0110117Y0148556D01*
X0110065Y0148585D01*
X0110010Y0148612D01*
X0109955Y0148635D01*
X0109898Y0148655D01*
X0109839Y0148671D01*
X0109780Y0148684D01*
X0109721Y0148693D01*
X0109660Y0148698D01*
X0109600Y0148700D01*
X0104600Y0148700D02*
X0104540Y0148698D01*
X0104479Y0148693D01*
X0104420Y0148684D01*
X0104361Y0148671D01*
X0104302Y0148655D01*
X0104245Y0148635D01*
X0104190Y0148612D01*
X0104135Y0148585D01*
X0104083Y0148556D01*
X0104032Y0148523D01*
X0103983Y0148487D01*
X0103937Y0148449D01*
X0103893Y0148407D01*
X0103851Y0148363D01*
X0103813Y0148317D01*
X0103777Y0148268D01*
X0103744Y0148217D01*
X0103715Y0148165D01*
X0103688Y0148110D01*
X0103665Y0148055D01*
X0103645Y0147998D01*
X0103629Y0147939D01*
X0103616Y0147880D01*
X0103607Y0147821D01*
X0103602Y0147760D01*
X0103600Y0147700D01*
X0103100Y0147700D02*
X0103098Y0147760D01*
X0103093Y0147821D01*
X0103084Y0147880D01*
X0103071Y0147939D01*
X0103055Y0147998D01*
X0103035Y0148055D01*
X0103012Y0148110D01*
X0102985Y0148165D01*
X0102956Y0148217D01*
X0102923Y0148268D01*
X0102887Y0148317D01*
X0102849Y0148363D01*
X0102807Y0148407D01*
X0102763Y0148449D01*
X0102717Y0148487D01*
X0102668Y0148523D01*
X0102617Y0148556D01*
X0102565Y0148585D01*
X0102510Y0148612D01*
X0102455Y0148635D01*
X0102398Y0148655D01*
X0102339Y0148671D01*
X0102280Y0148684D01*
X0102221Y0148693D01*
X0102160Y0148698D01*
X0102100Y0148700D01*
X0072100Y0141700D02*
X0072103Y0141945D01*
X0072112Y0142191D01*
X0072127Y0142436D01*
X0072148Y0142680D01*
X0072175Y0142924D01*
X0072208Y0143167D01*
X0072247Y0143410D01*
X0072292Y0143651D01*
X0072343Y0143891D01*
X0072400Y0144130D01*
X0072462Y0144367D01*
X0072531Y0144603D01*
X0072605Y0144837D01*
X0072685Y0145069D01*
X0072770Y0145299D01*
X0072861Y0145527D01*
X0072958Y0145752D01*
X0073060Y0145976D01*
X0073168Y0146196D01*
X0073281Y0146414D01*
X0073399Y0146629D01*
X0073523Y0146841D01*
X0073651Y0147050D01*
X0073785Y0147256D01*
X0073924Y0147458D01*
X0074068Y0147657D01*
X0074217Y0147852D01*
X0074370Y0148044D01*
X0074528Y0148232D01*
X0074690Y0148416D01*
X0074858Y0148595D01*
X0075029Y0148771D01*
X0075205Y0148942D01*
X0075384Y0149110D01*
X0075568Y0149272D01*
X0075756Y0149430D01*
X0075948Y0149583D01*
X0076143Y0149732D01*
X0076342Y0149876D01*
X0076544Y0150015D01*
X0076750Y0150149D01*
X0076959Y0150277D01*
X0077171Y0150401D01*
X0077386Y0150519D01*
X0077604Y0150632D01*
X0077824Y0150740D01*
X0078048Y0150842D01*
X0078273Y0150939D01*
X0078501Y0151030D01*
X0078731Y0151115D01*
X0078963Y0151195D01*
X0079197Y0151269D01*
X0079433Y0151338D01*
X0079670Y0151400D01*
X0079909Y0151457D01*
X0080149Y0151508D01*
X0080390Y0151553D01*
X0080633Y0151592D01*
X0080876Y0151625D01*
X0081120Y0151652D01*
X0081364Y0151673D01*
X0081609Y0151688D01*
X0081855Y0151697D01*
X0082100Y0151700D01*
X0082345Y0151697D01*
X0082591Y0151688D01*
X0082836Y0151673D01*
X0083080Y0151652D01*
X0083324Y0151625D01*
X0083567Y0151592D01*
X0083810Y0151553D01*
X0084051Y0151508D01*
X0084291Y0151457D01*
X0084530Y0151400D01*
X0084767Y0151338D01*
X0085003Y0151269D01*
X0085237Y0151195D01*
X0085469Y0151115D01*
X0085699Y0151030D01*
X0085927Y0150939D01*
X0086152Y0150842D01*
X0086376Y0150740D01*
X0086596Y0150632D01*
X0086814Y0150519D01*
X0087029Y0150401D01*
X0087241Y0150277D01*
X0087450Y0150149D01*
X0087656Y0150015D01*
X0087858Y0149876D01*
X0088057Y0149732D01*
X0088252Y0149583D01*
X0088444Y0149430D01*
X0088632Y0149272D01*
X0088816Y0149110D01*
X0088995Y0148942D01*
X0089171Y0148771D01*
X0089342Y0148595D01*
X0089510Y0148416D01*
X0089672Y0148232D01*
X0089830Y0148044D01*
X0089983Y0147852D01*
X0090132Y0147657D01*
X0090276Y0147458D01*
X0090415Y0147256D01*
X0090549Y0147050D01*
X0090677Y0146841D01*
X0090801Y0146629D01*
X0090919Y0146414D01*
X0091032Y0146196D01*
X0091140Y0145976D01*
X0091242Y0145752D01*
X0091339Y0145527D01*
X0091430Y0145299D01*
X0091515Y0145069D01*
X0091595Y0144837D01*
X0091669Y0144603D01*
X0091738Y0144367D01*
X0091800Y0144130D01*
X0091857Y0143891D01*
X0091908Y0143651D01*
X0091953Y0143410D01*
X0091992Y0143167D01*
X0092025Y0142924D01*
X0092052Y0142680D01*
X0092073Y0142436D01*
X0092088Y0142191D01*
X0092097Y0141945D01*
X0092100Y0141700D01*
X0092097Y0141455D01*
X0092088Y0141209D01*
X0092073Y0140964D01*
X0092052Y0140720D01*
X0092025Y0140476D01*
X0091992Y0140233D01*
X0091953Y0139990D01*
X0091908Y0139749D01*
X0091857Y0139509D01*
X0091800Y0139270D01*
X0091738Y0139033D01*
X0091669Y0138797D01*
X0091595Y0138563D01*
X0091515Y0138331D01*
X0091430Y0138101D01*
X0091339Y0137873D01*
X0091242Y0137648D01*
X0091140Y0137424D01*
X0091032Y0137204D01*
X0090919Y0136986D01*
X0090801Y0136771D01*
X0090677Y0136559D01*
X0090549Y0136350D01*
X0090415Y0136144D01*
X0090276Y0135942D01*
X0090132Y0135743D01*
X0089983Y0135548D01*
X0089830Y0135356D01*
X0089672Y0135168D01*
X0089510Y0134984D01*
X0089342Y0134805D01*
X0089171Y0134629D01*
X0088995Y0134458D01*
X0088816Y0134290D01*
X0088632Y0134128D01*
X0088444Y0133970D01*
X0088252Y0133817D01*
X0088057Y0133668D01*
X0087858Y0133524D01*
X0087656Y0133385D01*
X0087450Y0133251D01*
X0087241Y0133123D01*
X0087029Y0132999D01*
X0086814Y0132881D01*
X0086596Y0132768D01*
X0086376Y0132660D01*
X0086152Y0132558D01*
X0085927Y0132461D01*
X0085699Y0132370D01*
X0085469Y0132285D01*
X0085237Y0132205D01*
X0085003Y0132131D01*
X0084767Y0132062D01*
X0084530Y0132000D01*
X0084291Y0131943D01*
X0084051Y0131892D01*
X0083810Y0131847D01*
X0083567Y0131808D01*
X0083324Y0131775D01*
X0083080Y0131748D01*
X0082836Y0131727D01*
X0082591Y0131712D01*
X0082345Y0131703D01*
X0082100Y0131700D01*
X0081855Y0131703D01*
X0081609Y0131712D01*
X0081364Y0131727D01*
X0081120Y0131748D01*
X0080876Y0131775D01*
X0080633Y0131808D01*
X0080390Y0131847D01*
X0080149Y0131892D01*
X0079909Y0131943D01*
X0079670Y0132000D01*
X0079433Y0132062D01*
X0079197Y0132131D01*
X0078963Y0132205D01*
X0078731Y0132285D01*
X0078501Y0132370D01*
X0078273Y0132461D01*
X0078048Y0132558D01*
X0077824Y0132660D01*
X0077604Y0132768D01*
X0077386Y0132881D01*
X0077171Y0132999D01*
X0076959Y0133123D01*
X0076750Y0133251D01*
X0076544Y0133385D01*
X0076342Y0133524D01*
X0076143Y0133668D01*
X0075948Y0133817D01*
X0075756Y0133970D01*
X0075568Y0134128D01*
X0075384Y0134290D01*
X0075205Y0134458D01*
X0075029Y0134629D01*
X0074858Y0134805D01*
X0074690Y0134984D01*
X0074528Y0135168D01*
X0074370Y0135356D01*
X0074217Y0135548D01*
X0074068Y0135743D01*
X0073924Y0135942D01*
X0073785Y0136144D01*
X0073651Y0136350D01*
X0073523Y0136559D01*
X0073399Y0136771D01*
X0073281Y0136986D01*
X0073168Y0137204D01*
X0073060Y0137424D01*
X0072958Y0137648D01*
X0072861Y0137873D01*
X0072770Y0138101D01*
X0072685Y0138331D01*
X0072605Y0138563D01*
X0072531Y0138797D01*
X0072462Y0139033D01*
X0072400Y0139270D01*
X0072343Y0139509D01*
X0072292Y0139749D01*
X0072247Y0139990D01*
X0072208Y0140233D01*
X0072175Y0140476D01*
X0072148Y0140720D01*
X0072127Y0140964D01*
X0072112Y0141209D01*
X0072103Y0141455D01*
X0072100Y0141700D01*
X0067100Y0124200D02*
X0067100Y0119200D01*
X0077100Y0119200D02*
X0077100Y0124200D01*
X0097100Y0124200D02*
X0097100Y0119200D01*
X0107100Y0119200D02*
X0107100Y0124200D01*
X0111100Y0115200D02*
X0112100Y0115200D01*
X0112600Y0114700D01*
X0121600Y0114700D01*
X0122100Y0115200D01*
X0123100Y0115200D01*
X0123160Y0115198D01*
X0123221Y0115193D01*
X0123280Y0115184D01*
X0123339Y0115171D01*
X0123398Y0115155D01*
X0123455Y0115135D01*
X0123510Y0115112D01*
X0123565Y0115085D01*
X0123617Y0115056D01*
X0123668Y0115023D01*
X0123717Y0114987D01*
X0123763Y0114949D01*
X0123807Y0114907D01*
X0123849Y0114863D01*
X0123887Y0114817D01*
X0123923Y0114768D01*
X0123956Y0114717D01*
X0123985Y0114665D01*
X0124012Y0114610D01*
X0124035Y0114555D01*
X0124055Y0114498D01*
X0124071Y0114439D01*
X0124084Y0114380D01*
X0124093Y0114321D01*
X0124098Y0114260D01*
X0124100Y0114200D01*
X0127100Y0119200D02*
X0127100Y0124200D01*
X0137100Y0124200D02*
X0137100Y0119200D01*
X0141600Y0131700D02*
X0157600Y0131700D01*
X0157600Y0141700D01*
X0141600Y0141700D01*
X0141600Y0131700D01*
X0145600Y0134200D02*
X0149600Y0136700D01*
X0149600Y0134200D01*
X0148600Y0134200D01*
X0145600Y0134200D02*
X0145600Y0139200D01*
X0149600Y0136700D01*
X0149600Y0139200D01*
X0149600Y0136700D02*
X0143600Y0136700D01*
X0141600Y0141700D02*
X0141600Y0151700D01*
X0157600Y0151700D01*
X0157600Y0141700D01*
X0141600Y0141700D01*
X0147100Y0146700D02*
X0149600Y0146700D01*
X0149600Y0149200D01*
X0150600Y0149200D01*
X0149600Y0146700D02*
X0153600Y0149200D01*
X0153600Y0144200D01*
X0149600Y0146700D01*
X0149600Y0144200D01*
X0149600Y0146700D02*
X0155600Y0146700D01*
X0157600Y0151700D02*
X0157600Y0161700D01*
X0141600Y0161700D01*
X0141600Y0151700D01*
X0157600Y0151700D01*
X0152100Y0156700D02*
X0149600Y0156700D01*
X0149600Y0154200D01*
X0148600Y0154200D01*
X0149600Y0156700D02*
X0149600Y0159200D01*
X0149600Y0156700D02*
X0145600Y0154200D01*
X0145600Y0159200D01*
X0149600Y0156700D01*
X0143600Y0156700D01*
X0141600Y0161700D02*
X0141600Y0171700D01*
X0157600Y0171700D01*
X0157600Y0161700D01*
X0141600Y0161700D01*
X0147100Y0166700D02*
X0149600Y0166700D01*
X0149600Y0169200D01*
X0150600Y0169200D01*
X0149600Y0166700D02*
X0149600Y0164200D01*
X0149600Y0166700D02*
X0153600Y0169200D01*
X0153600Y0164200D01*
X0149600Y0166700D01*
X0155600Y0166700D01*
X0154600Y0186700D02*
X0149600Y0186700D01*
X0147100Y0189200D01*
X0147100Y0194200D01*
X0149600Y0196700D01*
X0154600Y0196700D01*
X0157100Y0194200D01*
X0157100Y0189200D01*
X0154600Y0186700D01*
X0167100Y0189200D02*
X0169600Y0186700D01*
X0174600Y0186700D01*
X0177100Y0189200D01*
X0177100Y0194200D01*
X0174600Y0196700D01*
X0169600Y0196700D01*
X0167100Y0194200D01*
X0167100Y0189200D01*
X0177100Y0164200D02*
X0177103Y0164445D01*
X0177112Y0164691D01*
X0177127Y0164936D01*
X0177148Y0165180D01*
X0177175Y0165424D01*
X0177208Y0165667D01*
X0177247Y0165910D01*
X0177292Y0166151D01*
X0177343Y0166391D01*
X0177400Y0166630D01*
X0177462Y0166867D01*
X0177531Y0167103D01*
X0177605Y0167337D01*
X0177685Y0167569D01*
X0177770Y0167799D01*
X0177861Y0168027D01*
X0177958Y0168252D01*
X0178060Y0168476D01*
X0178168Y0168696D01*
X0178281Y0168914D01*
X0178399Y0169129D01*
X0178523Y0169341D01*
X0178651Y0169550D01*
X0178785Y0169756D01*
X0178924Y0169958D01*
X0179068Y0170157D01*
X0179217Y0170352D01*
X0179370Y0170544D01*
X0179528Y0170732D01*
X0179690Y0170916D01*
X0179858Y0171095D01*
X0180029Y0171271D01*
X0180205Y0171442D01*
X0180384Y0171610D01*
X0180568Y0171772D01*
X0180756Y0171930D01*
X0180948Y0172083D01*
X0181143Y0172232D01*
X0181342Y0172376D01*
X0181544Y0172515D01*
X0181750Y0172649D01*
X0181959Y0172777D01*
X0182171Y0172901D01*
X0182386Y0173019D01*
X0182604Y0173132D01*
X0182824Y0173240D01*
X0183048Y0173342D01*
X0183273Y0173439D01*
X0183501Y0173530D01*
X0183731Y0173615D01*
X0183963Y0173695D01*
X0184197Y0173769D01*
X0184433Y0173838D01*
X0184670Y0173900D01*
X0184909Y0173957D01*
X0185149Y0174008D01*
X0185390Y0174053D01*
X0185633Y0174092D01*
X0185876Y0174125D01*
X0186120Y0174152D01*
X0186364Y0174173D01*
X0186609Y0174188D01*
X0186855Y0174197D01*
X0187100Y0174200D01*
X0187345Y0174197D01*
X0187591Y0174188D01*
X0187836Y0174173D01*
X0188080Y0174152D01*
X0188324Y0174125D01*
X0188567Y0174092D01*
X0188810Y0174053D01*
X0189051Y0174008D01*
X0189291Y0173957D01*
X0189530Y0173900D01*
X0189767Y0173838D01*
X0190003Y0173769D01*
X0190237Y0173695D01*
X0190469Y0173615D01*
X0190699Y0173530D01*
X0190927Y0173439D01*
X0191152Y0173342D01*
X0191376Y0173240D01*
X0191596Y0173132D01*
X0191814Y0173019D01*
X0192029Y0172901D01*
X0192241Y0172777D01*
X0192450Y0172649D01*
X0192656Y0172515D01*
X0192858Y0172376D01*
X0193057Y0172232D01*
X0193252Y0172083D01*
X0193444Y0171930D01*
X0193632Y0171772D01*
X0193816Y0171610D01*
X0193995Y0171442D01*
X0194171Y0171271D01*
X0194342Y0171095D01*
X0194510Y0170916D01*
X0194672Y0170732D01*
X0194830Y0170544D01*
X0194983Y0170352D01*
X0195132Y0170157D01*
X0195276Y0169958D01*
X0195415Y0169756D01*
X0195549Y0169550D01*
X0195677Y0169341D01*
X0195801Y0169129D01*
X0195919Y0168914D01*
X0196032Y0168696D01*
X0196140Y0168476D01*
X0196242Y0168252D01*
X0196339Y0168027D01*
X0196430Y0167799D01*
X0196515Y0167569D01*
X0196595Y0167337D01*
X0196669Y0167103D01*
X0196738Y0166867D01*
X0196800Y0166630D01*
X0196857Y0166391D01*
X0196908Y0166151D01*
X0196953Y0165910D01*
X0196992Y0165667D01*
X0197025Y0165424D01*
X0197052Y0165180D01*
X0197073Y0164936D01*
X0197088Y0164691D01*
X0197097Y0164445D01*
X0197100Y0164200D01*
X0197097Y0163955D01*
X0197088Y0163709D01*
X0197073Y0163464D01*
X0197052Y0163220D01*
X0197025Y0162976D01*
X0196992Y0162733D01*
X0196953Y0162490D01*
X0196908Y0162249D01*
X0196857Y0162009D01*
X0196800Y0161770D01*
X0196738Y0161533D01*
X0196669Y0161297D01*
X0196595Y0161063D01*
X0196515Y0160831D01*
X0196430Y0160601D01*
X0196339Y0160373D01*
X0196242Y0160148D01*
X0196140Y0159924D01*
X0196032Y0159704D01*
X0195919Y0159486D01*
X0195801Y0159271D01*
X0195677Y0159059D01*
X0195549Y0158850D01*
X0195415Y0158644D01*
X0195276Y0158442D01*
X0195132Y0158243D01*
X0194983Y0158048D01*
X0194830Y0157856D01*
X0194672Y0157668D01*
X0194510Y0157484D01*
X0194342Y0157305D01*
X0194171Y0157129D01*
X0193995Y0156958D01*
X0193816Y0156790D01*
X0193632Y0156628D01*
X0193444Y0156470D01*
X0193252Y0156317D01*
X0193057Y0156168D01*
X0192858Y0156024D01*
X0192656Y0155885D01*
X0192450Y0155751D01*
X0192241Y0155623D01*
X0192029Y0155499D01*
X0191814Y0155381D01*
X0191596Y0155268D01*
X0191376Y0155160D01*
X0191152Y0155058D01*
X0190927Y0154961D01*
X0190699Y0154870D01*
X0190469Y0154785D01*
X0190237Y0154705D01*
X0190003Y0154631D01*
X0189767Y0154562D01*
X0189530Y0154500D01*
X0189291Y0154443D01*
X0189051Y0154392D01*
X0188810Y0154347D01*
X0188567Y0154308D01*
X0188324Y0154275D01*
X0188080Y0154248D01*
X0187836Y0154227D01*
X0187591Y0154212D01*
X0187345Y0154203D01*
X0187100Y0154200D01*
X0186855Y0154203D01*
X0186609Y0154212D01*
X0186364Y0154227D01*
X0186120Y0154248D01*
X0185876Y0154275D01*
X0185633Y0154308D01*
X0185390Y0154347D01*
X0185149Y0154392D01*
X0184909Y0154443D01*
X0184670Y0154500D01*
X0184433Y0154562D01*
X0184197Y0154631D01*
X0183963Y0154705D01*
X0183731Y0154785D01*
X0183501Y0154870D01*
X0183273Y0154961D01*
X0183048Y0155058D01*
X0182824Y0155160D01*
X0182604Y0155268D01*
X0182386Y0155381D01*
X0182171Y0155499D01*
X0181959Y0155623D01*
X0181750Y0155751D01*
X0181544Y0155885D01*
X0181342Y0156024D01*
X0181143Y0156168D01*
X0180948Y0156317D01*
X0180756Y0156470D01*
X0180568Y0156628D01*
X0180384Y0156790D01*
X0180205Y0156958D01*
X0180029Y0157129D01*
X0179858Y0157305D01*
X0179690Y0157484D01*
X0179528Y0157668D01*
X0179370Y0157856D01*
X0179217Y0158048D01*
X0179068Y0158243D01*
X0178924Y0158442D01*
X0178785Y0158644D01*
X0178651Y0158850D01*
X0178523Y0159059D01*
X0178399Y0159271D01*
X0178281Y0159486D01*
X0178168Y0159704D01*
X0178060Y0159924D01*
X0177958Y0160148D01*
X0177861Y0160373D01*
X0177770Y0160601D01*
X0177685Y0160831D01*
X0177605Y0161063D01*
X0177531Y0161297D01*
X0177462Y0161533D01*
X0177400Y0161770D01*
X0177343Y0162009D01*
X0177292Y0162249D01*
X0177247Y0162490D01*
X0177208Y0162733D01*
X0177175Y0162976D01*
X0177148Y0163220D01*
X0177127Y0163464D01*
X0177112Y0163709D01*
X0177103Y0163955D01*
X0177100Y0164200D01*
X0174600Y0141200D02*
X0174540Y0141198D01*
X0174479Y0141193D01*
X0174420Y0141184D01*
X0174361Y0141171D01*
X0174302Y0141155D01*
X0174245Y0141135D01*
X0174190Y0141112D01*
X0174135Y0141085D01*
X0174083Y0141056D01*
X0174032Y0141023D01*
X0173983Y0140987D01*
X0173937Y0140949D01*
X0173893Y0140907D01*
X0173851Y0140863D01*
X0173813Y0140817D01*
X0173777Y0140768D01*
X0173744Y0140717D01*
X0173715Y0140665D01*
X0173688Y0140610D01*
X0173665Y0140555D01*
X0173645Y0140498D01*
X0173629Y0140439D01*
X0173616Y0140380D01*
X0173607Y0140321D01*
X0173602Y0140260D01*
X0173600Y0140200D01*
X0173600Y0139200D01*
X0174100Y0138700D01*
X0174100Y0129700D01*
X0173600Y0129200D01*
X0173600Y0128200D01*
X0173602Y0128140D01*
X0173607Y0128079D01*
X0173616Y0128020D01*
X0173629Y0127961D01*
X0173645Y0127902D01*
X0173665Y0127845D01*
X0173688Y0127790D01*
X0173715Y0127735D01*
X0173744Y0127683D01*
X0173777Y0127632D01*
X0173813Y0127583D01*
X0173851Y0127537D01*
X0173893Y0127493D01*
X0173937Y0127451D01*
X0173983Y0127413D01*
X0174032Y0127377D01*
X0174083Y0127344D01*
X0174135Y0127315D01*
X0174190Y0127288D01*
X0174245Y0127265D01*
X0174302Y0127245D01*
X0174361Y0127229D01*
X0174420Y0127216D01*
X0174479Y0127207D01*
X0174540Y0127202D01*
X0174600Y0127200D01*
X0179600Y0127200D02*
X0179660Y0127202D01*
X0179721Y0127207D01*
X0179780Y0127216D01*
X0179839Y0127229D01*
X0179898Y0127245D01*
X0179955Y0127265D01*
X0180010Y0127288D01*
X0180065Y0127315D01*
X0180117Y0127344D01*
X0180168Y0127377D01*
X0180217Y0127413D01*
X0180263Y0127451D01*
X0180307Y0127493D01*
X0180349Y0127537D01*
X0180387Y0127583D01*
X0180423Y0127632D01*
X0180456Y0127683D01*
X0180485Y0127735D01*
X0180512Y0127790D01*
X0180535Y0127845D01*
X0180555Y0127902D01*
X0180571Y0127961D01*
X0180584Y0128020D01*
X0180593Y0128079D01*
X0180598Y0128140D01*
X0180600Y0128200D01*
X0180600Y0129200D01*
X0180100Y0129700D01*
X0180100Y0138700D01*
X0180600Y0139200D01*
X0180600Y0140200D01*
X0180598Y0140260D01*
X0180593Y0140321D01*
X0180584Y0140380D01*
X0180571Y0140439D01*
X0180555Y0140498D01*
X0180535Y0140555D01*
X0180512Y0140610D01*
X0180485Y0140665D01*
X0180456Y0140717D01*
X0180423Y0140768D01*
X0180387Y0140817D01*
X0180349Y0140863D01*
X0180307Y0140907D01*
X0180263Y0140949D01*
X0180217Y0140987D01*
X0180168Y0141023D01*
X0180117Y0141056D01*
X0180065Y0141085D01*
X0180010Y0141112D01*
X0179955Y0141135D01*
X0179898Y0141155D01*
X0179839Y0141171D01*
X0179780Y0141184D01*
X0179721Y0141193D01*
X0179660Y0141198D01*
X0179600Y0141200D01*
X0183100Y0138700D02*
X0191100Y0138700D01*
X0191160Y0138698D01*
X0191221Y0138693D01*
X0191280Y0138684D01*
X0191339Y0138671D01*
X0191398Y0138655D01*
X0191455Y0138635D01*
X0191510Y0138612D01*
X0191565Y0138585D01*
X0191617Y0138556D01*
X0191668Y0138523D01*
X0191717Y0138487D01*
X0191763Y0138449D01*
X0191807Y0138407D01*
X0191849Y0138363D01*
X0191887Y0138317D01*
X0191923Y0138268D01*
X0191956Y0138217D01*
X0191985Y0138165D01*
X0192012Y0138110D01*
X0192035Y0138055D01*
X0192055Y0137998D01*
X0192071Y0137939D01*
X0192084Y0137880D01*
X0192093Y0137821D01*
X0192098Y0137760D01*
X0192100Y0137700D01*
X0192100Y0120700D01*
X0192098Y0120640D01*
X0192093Y0120579D01*
X0192084Y0120520D01*
X0192071Y0120461D01*
X0192055Y0120402D01*
X0192035Y0120345D01*
X0192012Y0120290D01*
X0191985Y0120235D01*
X0191956Y0120183D01*
X0191923Y0120132D01*
X0191887Y0120083D01*
X0191849Y0120037D01*
X0191807Y0119993D01*
X0191763Y0119951D01*
X0191717Y0119913D01*
X0191668Y0119877D01*
X0191617Y0119844D01*
X0191565Y0119815D01*
X0191510Y0119788D01*
X0191455Y0119765D01*
X0191398Y0119745D01*
X0191339Y0119729D01*
X0191280Y0119716D01*
X0191221Y0119707D01*
X0191160Y0119702D01*
X0191100Y0119700D01*
X0183100Y0119700D01*
X0183040Y0119702D01*
X0182979Y0119707D01*
X0182920Y0119716D01*
X0182861Y0119729D01*
X0182802Y0119745D01*
X0182745Y0119765D01*
X0182690Y0119788D01*
X0182635Y0119815D01*
X0182583Y0119844D01*
X0182532Y0119877D01*
X0182483Y0119913D01*
X0182437Y0119951D01*
X0182393Y0119993D01*
X0182351Y0120037D01*
X0182313Y0120083D01*
X0182277Y0120132D01*
X0182244Y0120183D01*
X0182215Y0120235D01*
X0182188Y0120290D01*
X0182165Y0120345D01*
X0182145Y0120402D01*
X0182129Y0120461D01*
X0182116Y0120520D01*
X0182107Y0120579D01*
X0182102Y0120640D01*
X0182100Y0120700D01*
X0182100Y0137700D01*
X0182102Y0137760D01*
X0182107Y0137821D01*
X0182116Y0137880D01*
X0182129Y0137939D01*
X0182145Y0137998D01*
X0182165Y0138055D01*
X0182188Y0138110D01*
X0182215Y0138165D01*
X0182244Y0138217D01*
X0182277Y0138268D01*
X0182313Y0138317D01*
X0182351Y0138363D01*
X0182393Y0138407D01*
X0182437Y0138449D01*
X0182483Y0138487D01*
X0182532Y0138523D01*
X0182583Y0138556D01*
X0182635Y0138585D01*
X0182690Y0138612D01*
X0182745Y0138635D01*
X0182802Y0138655D01*
X0182861Y0138671D01*
X0182920Y0138684D01*
X0182979Y0138693D01*
X0183040Y0138698D01*
X0183100Y0138700D01*
X0187100Y0130700D02*
X0187100Y0130200D01*
X0187100Y0128200D02*
X0187100Y0127700D01*
X0185600Y0120200D02*
X0184600Y0120200D01*
X0184100Y0119700D01*
X0175100Y0119700D01*
X0174600Y0120200D01*
X0173600Y0120200D01*
X0173540Y0120198D01*
X0173479Y0120193D01*
X0173420Y0120184D01*
X0173361Y0120171D01*
X0173302Y0120155D01*
X0173245Y0120135D01*
X0173190Y0120112D01*
X0173135Y0120085D01*
X0173083Y0120056D01*
X0173032Y0120023D01*
X0172983Y0119987D01*
X0172937Y0119949D01*
X0172893Y0119907D01*
X0172851Y0119863D01*
X0172813Y0119817D01*
X0172777Y0119768D01*
X0172744Y0119717D01*
X0172715Y0119665D01*
X0172688Y0119610D01*
X0172665Y0119555D01*
X0172645Y0119498D01*
X0172629Y0119439D01*
X0172616Y0119380D01*
X0172607Y0119321D01*
X0172602Y0119260D01*
X0172600Y0119200D01*
X0172600Y0114200D02*
X0172602Y0114140D01*
X0172607Y0114079D01*
X0172616Y0114020D01*
X0172629Y0113961D01*
X0172645Y0113902D01*
X0172665Y0113845D01*
X0172688Y0113790D01*
X0172715Y0113735D01*
X0172744Y0113683D01*
X0172777Y0113632D01*
X0172813Y0113583D01*
X0172851Y0113537D01*
X0172893Y0113493D01*
X0172937Y0113451D01*
X0172983Y0113413D01*
X0173032Y0113377D01*
X0173083Y0113344D01*
X0173135Y0113315D01*
X0173190Y0113288D01*
X0173245Y0113265D01*
X0173302Y0113245D01*
X0173361Y0113229D01*
X0173420Y0113216D01*
X0173479Y0113207D01*
X0173540Y0113202D01*
X0173600Y0113200D01*
X0174600Y0113200D01*
X0175100Y0113700D01*
X0184100Y0113700D01*
X0184600Y0113200D01*
X0185600Y0113200D01*
X0185660Y0113202D01*
X0185721Y0113207D01*
X0185780Y0113216D01*
X0185839Y0113229D01*
X0185898Y0113245D01*
X0185955Y0113265D01*
X0186010Y0113288D01*
X0186065Y0113315D01*
X0186117Y0113344D01*
X0186168Y0113377D01*
X0186217Y0113413D01*
X0186263Y0113451D01*
X0186307Y0113493D01*
X0186349Y0113537D01*
X0186387Y0113583D01*
X0186423Y0113632D01*
X0186456Y0113683D01*
X0186485Y0113735D01*
X0186512Y0113790D01*
X0186535Y0113845D01*
X0186555Y0113902D01*
X0186571Y0113961D01*
X0186584Y0114020D01*
X0186593Y0114079D01*
X0186598Y0114140D01*
X0186600Y0114200D01*
X0186100Y0111700D02*
X0185100Y0110700D01*
X0185100Y0072700D01*
X0186100Y0071700D01*
X0197600Y0071700D01*
X0189600Y0070200D02*
X0189600Y0053200D01*
X0189598Y0053140D01*
X0189593Y0053079D01*
X0189584Y0053020D01*
X0189571Y0052961D01*
X0189555Y0052902D01*
X0189535Y0052845D01*
X0189512Y0052790D01*
X0189485Y0052735D01*
X0189456Y0052683D01*
X0189423Y0052632D01*
X0189387Y0052583D01*
X0189349Y0052537D01*
X0189307Y0052493D01*
X0189263Y0052451D01*
X0189217Y0052413D01*
X0189168Y0052377D01*
X0189117Y0052344D01*
X0189065Y0052315D01*
X0189010Y0052288D01*
X0188955Y0052265D01*
X0188898Y0052245D01*
X0188839Y0052229D01*
X0188780Y0052216D01*
X0188721Y0052207D01*
X0188660Y0052202D01*
X0188600Y0052200D01*
X0180600Y0052200D01*
X0180540Y0052202D01*
X0180479Y0052207D01*
X0180420Y0052216D01*
X0180361Y0052229D01*
X0180302Y0052245D01*
X0180245Y0052265D01*
X0180190Y0052288D01*
X0180135Y0052315D01*
X0180083Y0052344D01*
X0180032Y0052377D01*
X0179983Y0052413D01*
X0179937Y0052451D01*
X0179893Y0052493D01*
X0179851Y0052537D01*
X0179813Y0052583D01*
X0179777Y0052632D01*
X0179744Y0052683D01*
X0179715Y0052735D01*
X0179688Y0052790D01*
X0179665Y0052845D01*
X0179645Y0052902D01*
X0179629Y0052961D01*
X0179616Y0053020D01*
X0179607Y0053079D01*
X0179602Y0053140D01*
X0179600Y0053200D01*
X0179600Y0070200D01*
X0179602Y0070260D01*
X0179607Y0070321D01*
X0179616Y0070380D01*
X0179629Y0070439D01*
X0179645Y0070498D01*
X0179665Y0070555D01*
X0179688Y0070610D01*
X0179715Y0070665D01*
X0179744Y0070717D01*
X0179777Y0070768D01*
X0179813Y0070817D01*
X0179851Y0070863D01*
X0179893Y0070907D01*
X0179937Y0070949D01*
X0179983Y0070987D01*
X0180032Y0071023D01*
X0180083Y0071056D01*
X0180135Y0071085D01*
X0180190Y0071112D01*
X0180245Y0071135D01*
X0180302Y0071155D01*
X0180361Y0071171D01*
X0180420Y0071184D01*
X0180479Y0071193D01*
X0180540Y0071198D01*
X0180600Y0071200D01*
X0188600Y0071200D01*
X0188660Y0071198D01*
X0188721Y0071193D01*
X0188780Y0071184D01*
X0188839Y0071171D01*
X0188898Y0071155D01*
X0188955Y0071135D01*
X0189010Y0071112D01*
X0189065Y0071085D01*
X0189117Y0071056D01*
X0189168Y0071023D01*
X0189217Y0070987D01*
X0189263Y0070949D01*
X0189307Y0070907D01*
X0189349Y0070863D01*
X0189387Y0070817D01*
X0189423Y0070768D01*
X0189456Y0070717D01*
X0189485Y0070665D01*
X0189512Y0070610D01*
X0189535Y0070555D01*
X0189555Y0070498D01*
X0189571Y0070439D01*
X0189584Y0070380D01*
X0189593Y0070321D01*
X0189598Y0070260D01*
X0189600Y0070200D01*
X0184600Y0063200D02*
X0184600Y0062700D01*
X0184600Y0060700D02*
X0184600Y0060200D01*
X0193100Y0054700D02*
X0193100Y0038700D01*
X0193102Y0038640D01*
X0193107Y0038579D01*
X0193116Y0038520D01*
X0193129Y0038461D01*
X0193145Y0038402D01*
X0193165Y0038345D01*
X0193188Y0038290D01*
X0193215Y0038235D01*
X0193244Y0038183D01*
X0193277Y0038132D01*
X0193313Y0038083D01*
X0193351Y0038037D01*
X0193393Y0037993D01*
X0193437Y0037951D01*
X0193483Y0037913D01*
X0193532Y0037877D01*
X0193583Y0037844D01*
X0193635Y0037815D01*
X0193690Y0037788D01*
X0193745Y0037765D01*
X0193802Y0037745D01*
X0193861Y0037729D01*
X0193920Y0037716D01*
X0193979Y0037707D01*
X0194040Y0037702D01*
X0194100Y0037700D01*
X0200100Y0037700D01*
X0200160Y0037702D01*
X0200221Y0037707D01*
X0200280Y0037716D01*
X0200339Y0037729D01*
X0200398Y0037745D01*
X0200455Y0037765D01*
X0200510Y0037788D01*
X0200565Y0037815D01*
X0200617Y0037844D01*
X0200668Y0037877D01*
X0200717Y0037913D01*
X0200763Y0037951D01*
X0200807Y0037993D01*
X0200849Y0038037D01*
X0200887Y0038083D01*
X0200923Y0038132D01*
X0200956Y0038183D01*
X0200985Y0038235D01*
X0201012Y0038290D01*
X0201035Y0038345D01*
X0201055Y0038402D01*
X0201071Y0038461D01*
X0201084Y0038520D01*
X0201093Y0038579D01*
X0201098Y0038640D01*
X0201100Y0038700D01*
X0201100Y0054700D01*
X0201098Y0054760D01*
X0201093Y0054821D01*
X0201084Y0054880D01*
X0201071Y0054939D01*
X0201055Y0054998D01*
X0201035Y0055055D01*
X0201012Y0055110D01*
X0200985Y0055165D01*
X0200956Y0055217D01*
X0200923Y0055268D01*
X0200887Y0055317D01*
X0200849Y0055363D01*
X0200807Y0055407D01*
X0200763Y0055449D01*
X0200717Y0055487D01*
X0200668Y0055523D01*
X0200617Y0055556D01*
X0200565Y0055585D01*
X0200510Y0055612D01*
X0200455Y0055635D01*
X0200398Y0055655D01*
X0200339Y0055671D01*
X0200280Y0055684D01*
X0200221Y0055693D01*
X0200160Y0055698D01*
X0200100Y0055700D01*
X0194100Y0055700D01*
X0194040Y0055698D01*
X0193979Y0055693D01*
X0193920Y0055684D01*
X0193861Y0055671D01*
X0193802Y0055655D01*
X0193745Y0055635D01*
X0193690Y0055612D01*
X0193635Y0055585D01*
X0193583Y0055556D01*
X0193532Y0055523D01*
X0193483Y0055487D01*
X0193437Y0055449D01*
X0193393Y0055407D01*
X0193351Y0055363D01*
X0193313Y0055317D01*
X0193277Y0055268D01*
X0193244Y0055217D01*
X0193215Y0055165D01*
X0193188Y0055110D01*
X0193165Y0055055D01*
X0193145Y0054998D01*
X0193129Y0054939D01*
X0193116Y0054880D01*
X0193107Y0054821D01*
X0193102Y0054760D01*
X0193100Y0054700D01*
X0194600Y0050700D02*
X0197100Y0046700D01*
X0199600Y0046700D01*
X0197100Y0046700D02*
X0197100Y0044200D01*
X0197100Y0046700D02*
X0194600Y0046700D01*
X0197100Y0046700D02*
X0197100Y0052700D01*
X0194600Y0050700D02*
X0199600Y0050700D01*
X0197100Y0046700D01*
X0137100Y0019200D02*
X0137100Y0014200D01*
X0134600Y0011700D01*
X0129600Y0011700D01*
X0127100Y0014200D01*
X0127100Y0019200D01*
X0129600Y0021700D01*
X0134600Y0021700D01*
X0137100Y0019200D01*
X0117100Y0019200D02*
X0117100Y0014200D01*
X0114600Y0011700D01*
X0109600Y0011700D01*
X0107100Y0014200D01*
X0107100Y0019200D01*
X0109600Y0021700D01*
X0114600Y0021700D01*
X0117100Y0019200D01*
X0097100Y0019200D02*
X0097100Y0014200D01*
X0094600Y0011700D01*
X0089600Y0011700D01*
X0087100Y0014200D01*
X0087100Y0019200D01*
X0089600Y0021700D01*
X0094600Y0021700D01*
X0097100Y0019200D01*
X0110600Y0041700D02*
X0111100Y0041700D01*
X0113100Y0041700D02*
X0113600Y0041700D01*
X0120600Y0048200D02*
X0120660Y0048202D01*
X0120721Y0048207D01*
X0120780Y0048216D01*
X0120839Y0048229D01*
X0120898Y0048245D01*
X0120955Y0048265D01*
X0121010Y0048288D01*
X0121065Y0048315D01*
X0121117Y0048344D01*
X0121168Y0048377D01*
X0121217Y0048413D01*
X0121263Y0048451D01*
X0121307Y0048493D01*
X0121349Y0048537D01*
X0121387Y0048583D01*
X0121423Y0048632D01*
X0121456Y0048683D01*
X0121485Y0048735D01*
X0121512Y0048790D01*
X0121535Y0048845D01*
X0121555Y0048902D01*
X0121571Y0048961D01*
X0121584Y0049020D01*
X0121593Y0049079D01*
X0121598Y0049140D01*
X0121600Y0049200D01*
X0128600Y0080700D02*
X0128600Y0081700D01*
X0129100Y0082200D01*
X0129100Y0091200D01*
X0128600Y0091700D01*
X0128600Y0092700D01*
X0128602Y0092760D01*
X0128607Y0092821D01*
X0128616Y0092880D01*
X0128629Y0092939D01*
X0128645Y0092998D01*
X0128665Y0093055D01*
X0128688Y0093110D01*
X0128715Y0093165D01*
X0128744Y0093217D01*
X0128777Y0093268D01*
X0128813Y0093317D01*
X0128851Y0093363D01*
X0128893Y0093407D01*
X0128937Y0093449D01*
X0128983Y0093487D01*
X0129032Y0093523D01*
X0129083Y0093556D01*
X0129135Y0093585D01*
X0129190Y0093612D01*
X0129245Y0093635D01*
X0129302Y0093655D01*
X0129361Y0093671D01*
X0129420Y0093684D01*
X0129479Y0093693D01*
X0129540Y0093698D01*
X0129600Y0093700D01*
X0134600Y0093700D02*
X0134660Y0093698D01*
X0134721Y0093693D01*
X0134780Y0093684D01*
X0134839Y0093671D01*
X0134898Y0093655D01*
X0134955Y0093635D01*
X0135010Y0093612D01*
X0135065Y0093585D01*
X0135117Y0093556D01*
X0135168Y0093523D01*
X0135217Y0093487D01*
X0135263Y0093449D01*
X0135307Y0093407D01*
X0135349Y0093363D01*
X0135387Y0093317D01*
X0135423Y0093268D01*
X0135456Y0093217D01*
X0135485Y0093165D01*
X0135512Y0093110D01*
X0135535Y0093055D01*
X0135555Y0092998D01*
X0135571Y0092939D01*
X0135584Y0092880D01*
X0135593Y0092821D01*
X0135598Y0092760D01*
X0135600Y0092700D01*
X0135600Y0091700D01*
X0135100Y0091200D01*
X0135100Y0082200D01*
X0135600Y0081700D01*
X0135600Y0080700D01*
X0135598Y0080640D01*
X0135593Y0080579D01*
X0135584Y0080520D01*
X0135571Y0080461D01*
X0135555Y0080402D01*
X0135535Y0080345D01*
X0135512Y0080290D01*
X0135485Y0080235D01*
X0135456Y0080183D01*
X0135423Y0080132D01*
X0135387Y0080083D01*
X0135349Y0080037D01*
X0135307Y0079993D01*
X0135263Y0079951D01*
X0135217Y0079913D01*
X0135168Y0079877D01*
X0135117Y0079844D01*
X0135065Y0079815D01*
X0135010Y0079788D01*
X0134955Y0079765D01*
X0134898Y0079745D01*
X0134839Y0079729D01*
X0134780Y0079716D01*
X0134721Y0079707D01*
X0134660Y0079702D01*
X0134600Y0079700D01*
X0129600Y0079700D02*
X0129540Y0079702D01*
X0129479Y0079707D01*
X0129420Y0079716D01*
X0129361Y0079729D01*
X0129302Y0079745D01*
X0129245Y0079765D01*
X0129190Y0079788D01*
X0129135Y0079815D01*
X0129083Y0079844D01*
X0129032Y0079877D01*
X0128983Y0079913D01*
X0128937Y0079951D01*
X0128893Y0079993D01*
X0128851Y0080037D01*
X0128813Y0080083D01*
X0128777Y0080132D01*
X0128744Y0080183D01*
X0128715Y0080235D01*
X0128688Y0080290D01*
X0128665Y0080345D01*
X0128645Y0080402D01*
X0128629Y0080461D01*
X0128616Y0080520D01*
X0128607Y0080579D01*
X0128602Y0080640D01*
X0128600Y0080700D01*
X0123100Y0098200D02*
X0122100Y0098200D01*
X0121600Y0098700D01*
X0112600Y0098700D01*
X0112100Y0098200D01*
X0111100Y0098200D01*
X0111040Y0098202D01*
X0110979Y0098207D01*
X0110920Y0098216D01*
X0110861Y0098229D01*
X0110802Y0098245D01*
X0110745Y0098265D01*
X0110690Y0098288D01*
X0110635Y0098315D01*
X0110583Y0098344D01*
X0110532Y0098377D01*
X0110483Y0098413D01*
X0110437Y0098451D01*
X0110393Y0098493D01*
X0110351Y0098537D01*
X0110313Y0098583D01*
X0110277Y0098632D01*
X0110244Y0098683D01*
X0110215Y0098735D01*
X0110188Y0098790D01*
X0110165Y0098845D01*
X0110145Y0098902D01*
X0110129Y0098961D01*
X0110116Y0099020D01*
X0110107Y0099079D01*
X0110102Y0099140D01*
X0110100Y0099200D01*
X0110100Y0104200D02*
X0110102Y0104260D01*
X0110107Y0104321D01*
X0110116Y0104380D01*
X0110129Y0104439D01*
X0110145Y0104498D01*
X0110165Y0104555D01*
X0110188Y0104610D01*
X0110215Y0104665D01*
X0110244Y0104717D01*
X0110277Y0104768D01*
X0110313Y0104817D01*
X0110351Y0104863D01*
X0110393Y0104907D01*
X0110437Y0104949D01*
X0110483Y0104987D01*
X0110532Y0105023D01*
X0110583Y0105056D01*
X0110635Y0105085D01*
X0110690Y0105112D01*
X0110745Y0105135D01*
X0110802Y0105155D01*
X0110861Y0105171D01*
X0110920Y0105184D01*
X0110979Y0105193D01*
X0111040Y0105198D01*
X0111100Y0105200D01*
X0112100Y0105200D01*
X0112600Y0104700D01*
X0121600Y0104700D01*
X0122100Y0105200D01*
X0123100Y0105200D01*
X0123160Y0105198D01*
X0123221Y0105193D01*
X0123280Y0105184D01*
X0123339Y0105171D01*
X0123398Y0105155D01*
X0123455Y0105135D01*
X0123510Y0105112D01*
X0123565Y0105085D01*
X0123617Y0105056D01*
X0123668Y0105023D01*
X0123717Y0104987D01*
X0123763Y0104949D01*
X0123807Y0104907D01*
X0123849Y0104863D01*
X0123887Y0104817D01*
X0123923Y0104768D01*
X0123956Y0104717D01*
X0123985Y0104665D01*
X0124012Y0104610D01*
X0124035Y0104555D01*
X0124055Y0104498D01*
X0124071Y0104439D01*
X0124084Y0104380D01*
X0124093Y0104321D01*
X0124098Y0104260D01*
X0124100Y0104200D01*
X0123100Y0108200D02*
X0122100Y0108200D01*
X0121600Y0108700D01*
X0112600Y0108700D01*
X0112100Y0108200D01*
X0111100Y0108200D01*
X0111040Y0108202D01*
X0110979Y0108207D01*
X0110920Y0108216D01*
X0110861Y0108229D01*
X0110802Y0108245D01*
X0110745Y0108265D01*
X0110690Y0108288D01*
X0110635Y0108315D01*
X0110583Y0108344D01*
X0110532Y0108377D01*
X0110483Y0108413D01*
X0110437Y0108451D01*
X0110393Y0108493D01*
X0110351Y0108537D01*
X0110313Y0108583D01*
X0110277Y0108632D01*
X0110244Y0108683D01*
X0110215Y0108735D01*
X0110188Y0108790D01*
X0110165Y0108845D01*
X0110145Y0108902D01*
X0110129Y0108961D01*
X0110116Y0109020D01*
X0110107Y0109079D01*
X0110102Y0109140D01*
X0110100Y0109200D01*
X0110100Y0114200D02*
X0110102Y0114260D01*
X0110107Y0114321D01*
X0110116Y0114380D01*
X0110129Y0114439D01*
X0110145Y0114498D01*
X0110165Y0114555D01*
X0110188Y0114610D01*
X0110215Y0114665D01*
X0110244Y0114717D01*
X0110277Y0114768D01*
X0110313Y0114817D01*
X0110351Y0114863D01*
X0110393Y0114907D01*
X0110437Y0114949D01*
X0110483Y0114987D01*
X0110532Y0115023D01*
X0110583Y0115056D01*
X0110635Y0115085D01*
X0110690Y0115112D01*
X0110745Y0115135D01*
X0110802Y0115155D01*
X0110861Y0115171D01*
X0110920Y0115184D01*
X0110979Y0115193D01*
X0111040Y0115198D01*
X0111100Y0115200D01*
X0123100Y0108200D02*
X0123160Y0108202D01*
X0123221Y0108207D01*
X0123280Y0108216D01*
X0123339Y0108229D01*
X0123398Y0108245D01*
X0123455Y0108265D01*
X0123510Y0108288D01*
X0123565Y0108315D01*
X0123617Y0108344D01*
X0123668Y0108377D01*
X0123717Y0108413D01*
X0123763Y0108451D01*
X0123807Y0108493D01*
X0123849Y0108537D01*
X0123887Y0108583D01*
X0123923Y0108632D01*
X0123956Y0108683D01*
X0123985Y0108735D01*
X0124012Y0108790D01*
X0124035Y0108845D01*
X0124055Y0108902D01*
X0124071Y0108961D01*
X0124084Y0109020D01*
X0124093Y0109079D01*
X0124098Y0109140D01*
X0124100Y0109200D01*
X0124100Y0099200D02*
X0124098Y0099140D01*
X0124093Y0099079D01*
X0124084Y0099020D01*
X0124071Y0098961D01*
X0124055Y0098902D01*
X0124035Y0098845D01*
X0124012Y0098790D01*
X0123985Y0098735D01*
X0123956Y0098683D01*
X0123923Y0098632D01*
X0123887Y0098583D01*
X0123849Y0098537D01*
X0123807Y0098493D01*
X0123763Y0098451D01*
X0123717Y0098413D01*
X0123668Y0098377D01*
X0123617Y0098344D01*
X0123565Y0098315D01*
X0123510Y0098288D01*
X0123455Y0098265D01*
X0123398Y0098245D01*
X0123339Y0098229D01*
X0123280Y0098216D01*
X0123221Y0098207D01*
X0123160Y0098202D01*
X0123100Y0098200D01*
X0157100Y0119200D02*
X0157100Y0124200D01*
X0152100Y0136700D02*
X0149600Y0136700D01*
X0185600Y0120200D02*
X0185660Y0120198D01*
X0185721Y0120193D01*
X0185780Y0120184D01*
X0185839Y0120171D01*
X0185898Y0120155D01*
X0185955Y0120135D01*
X0186010Y0120112D01*
X0186065Y0120085D01*
X0186117Y0120056D01*
X0186168Y0120023D01*
X0186217Y0119987D01*
X0186263Y0119949D01*
X0186307Y0119907D01*
X0186349Y0119863D01*
X0186387Y0119817D01*
X0186423Y0119768D01*
X0186456Y0119717D01*
X0186485Y0119665D01*
X0186512Y0119610D01*
X0186535Y0119555D01*
X0186555Y0119498D01*
X0186571Y0119439D01*
X0186584Y0119380D01*
X0186593Y0119321D01*
X0186598Y0119260D01*
X0186600Y0119200D01*
X0193100Y0121200D02*
X0193100Y0137200D01*
X0193102Y0137260D01*
X0193107Y0137321D01*
X0193116Y0137380D01*
X0193129Y0137439D01*
X0193145Y0137498D01*
X0193165Y0137555D01*
X0193188Y0137610D01*
X0193215Y0137665D01*
X0193244Y0137717D01*
X0193277Y0137768D01*
X0193313Y0137817D01*
X0193351Y0137863D01*
X0193393Y0137907D01*
X0193437Y0137949D01*
X0193483Y0137987D01*
X0193532Y0138023D01*
X0193583Y0138056D01*
X0193635Y0138085D01*
X0193690Y0138112D01*
X0193745Y0138135D01*
X0193802Y0138155D01*
X0193861Y0138171D01*
X0193920Y0138184D01*
X0193979Y0138193D01*
X0194040Y0138198D01*
X0194100Y0138200D01*
X0200100Y0138200D01*
X0200160Y0138198D01*
X0200221Y0138193D01*
X0200280Y0138184D01*
X0200339Y0138171D01*
X0200398Y0138155D01*
X0200455Y0138135D01*
X0200510Y0138112D01*
X0200565Y0138085D01*
X0200617Y0138056D01*
X0200668Y0138023D01*
X0200717Y0137987D01*
X0200763Y0137949D01*
X0200807Y0137907D01*
X0200849Y0137863D01*
X0200887Y0137817D01*
X0200923Y0137768D01*
X0200956Y0137717D01*
X0200985Y0137665D01*
X0201012Y0137610D01*
X0201035Y0137555D01*
X0201055Y0137498D01*
X0201071Y0137439D01*
X0201084Y0137380D01*
X0201093Y0137321D01*
X0201098Y0137260D01*
X0201100Y0137200D01*
X0201100Y0121200D01*
X0201098Y0121140D01*
X0201093Y0121079D01*
X0201084Y0121020D01*
X0201071Y0120961D01*
X0201055Y0120902D01*
X0201035Y0120845D01*
X0201012Y0120790D01*
X0200985Y0120735D01*
X0200956Y0120683D01*
X0200923Y0120632D01*
X0200887Y0120583D01*
X0200849Y0120537D01*
X0200807Y0120493D01*
X0200763Y0120451D01*
X0200717Y0120413D01*
X0200668Y0120377D01*
X0200617Y0120344D01*
X0200565Y0120315D01*
X0200510Y0120288D01*
X0200455Y0120265D01*
X0200398Y0120245D01*
X0200339Y0120229D01*
X0200280Y0120216D01*
X0200221Y0120207D01*
X0200160Y0120202D01*
X0200100Y0120200D01*
X0194100Y0120200D01*
X0194040Y0120202D01*
X0193979Y0120207D01*
X0193920Y0120216D01*
X0193861Y0120229D01*
X0193802Y0120245D01*
X0193745Y0120265D01*
X0193690Y0120288D01*
X0193635Y0120315D01*
X0193583Y0120344D01*
X0193532Y0120377D01*
X0193483Y0120413D01*
X0193437Y0120451D01*
X0193393Y0120493D01*
X0193351Y0120537D01*
X0193313Y0120583D01*
X0193277Y0120632D01*
X0193244Y0120683D01*
X0193215Y0120735D01*
X0193188Y0120790D01*
X0193165Y0120845D01*
X0193145Y0120902D01*
X0193129Y0120961D01*
X0193116Y0121020D01*
X0193107Y0121079D01*
X0193102Y0121140D01*
X0193100Y0121200D01*
X0197100Y0126700D02*
X0197100Y0129200D01*
X0199600Y0129200D01*
X0197100Y0129200D02*
X0194600Y0129200D01*
X0197100Y0129200D02*
X0194600Y0133200D01*
X0199600Y0133200D01*
X0197100Y0129200D01*
X0197100Y0135200D01*
X0197600Y0111700D02*
X0186100Y0111700D01*
X0134600Y0186700D02*
X0129600Y0186700D01*
X0127100Y0189200D01*
X0127100Y0194200D01*
X0129600Y0196700D01*
X0134600Y0196700D01*
X0137100Y0194200D01*
X0137100Y0189200D01*
X0134600Y0186700D01*
X0051100Y0108200D02*
X0051040Y0108202D01*
X0050979Y0108207D01*
X0050920Y0108216D01*
X0050861Y0108229D01*
X0050802Y0108245D01*
X0050745Y0108265D01*
X0050690Y0108288D01*
X0050635Y0108315D01*
X0050583Y0108344D01*
X0050532Y0108377D01*
X0050483Y0108413D01*
X0050437Y0108451D01*
X0050393Y0108493D01*
X0050351Y0108537D01*
X0050313Y0108583D01*
X0050277Y0108632D01*
X0050244Y0108683D01*
X0050215Y0108735D01*
X0050188Y0108790D01*
X0050165Y0108845D01*
X0050145Y0108902D01*
X0050129Y0108961D01*
X0050116Y0109020D01*
X0050107Y0109079D01*
X0050102Y0109140D01*
X0050100Y0109200D01*
X0037100Y0119200D02*
X0037100Y0124200D01*
X0027100Y0124200D02*
X0027100Y0119200D01*
X0048600Y0019200D02*
X0065600Y0019200D01*
X0065660Y0019198D01*
X0065721Y0019193D01*
X0065780Y0019184D01*
X0065839Y0019171D01*
X0065898Y0019155D01*
X0065955Y0019135D01*
X0066010Y0019112D01*
X0066065Y0019085D01*
X0066117Y0019056D01*
X0066168Y0019023D01*
X0066217Y0018987D01*
X0066263Y0018949D01*
X0066307Y0018907D01*
X0066349Y0018863D01*
X0066387Y0018817D01*
X0066423Y0018768D01*
X0066456Y0018717D01*
X0066485Y0018665D01*
X0066512Y0018610D01*
X0066535Y0018555D01*
X0066555Y0018498D01*
X0066571Y0018439D01*
X0066584Y0018380D01*
X0066593Y0018321D01*
X0066598Y0018260D01*
X0066600Y0018200D01*
X0066600Y0010200D01*
X0066598Y0010140D01*
X0066593Y0010079D01*
X0066584Y0010020D01*
X0066571Y0009961D01*
X0066555Y0009902D01*
X0066535Y0009845D01*
X0066512Y0009790D01*
X0066485Y0009735D01*
X0066456Y0009683D01*
X0066423Y0009632D01*
X0066387Y0009583D01*
X0066349Y0009537D01*
X0066307Y0009493D01*
X0066263Y0009451D01*
X0066217Y0009413D01*
X0066168Y0009377D01*
X0066117Y0009344D01*
X0066065Y0009315D01*
X0066010Y0009288D01*
X0065955Y0009265D01*
X0065898Y0009245D01*
X0065839Y0009229D01*
X0065780Y0009216D01*
X0065721Y0009207D01*
X0065660Y0009202D01*
X0065600Y0009200D01*
X0048600Y0009200D01*
X0048540Y0009202D01*
X0048479Y0009207D01*
X0048420Y0009216D01*
X0048361Y0009229D01*
X0048302Y0009245D01*
X0048245Y0009265D01*
X0048190Y0009288D01*
X0048135Y0009315D01*
X0048083Y0009344D01*
X0048032Y0009377D01*
X0047983Y0009413D01*
X0047937Y0009451D01*
X0047893Y0009493D01*
X0047851Y0009537D01*
X0047813Y0009583D01*
X0047777Y0009632D01*
X0047744Y0009683D01*
X0047715Y0009735D01*
X0047688Y0009790D01*
X0047665Y0009845D01*
X0047645Y0009902D01*
X0047629Y0009961D01*
X0047616Y0010020D01*
X0047607Y0010079D01*
X0047602Y0010140D01*
X0047600Y0010200D01*
X0047600Y0018200D01*
X0047602Y0018260D01*
X0047607Y0018321D01*
X0047616Y0018380D01*
X0047629Y0018439D01*
X0047645Y0018498D01*
X0047665Y0018555D01*
X0047688Y0018610D01*
X0047715Y0018665D01*
X0047744Y0018717D01*
X0047777Y0018768D01*
X0047813Y0018817D01*
X0047851Y0018863D01*
X0047893Y0018907D01*
X0047937Y0018949D01*
X0047983Y0018987D01*
X0048032Y0019023D01*
X0048083Y0019056D01*
X0048135Y0019085D01*
X0048190Y0019112D01*
X0048245Y0019135D01*
X0048302Y0019155D01*
X0048361Y0019171D01*
X0048420Y0019184D01*
X0048479Y0019193D01*
X0048540Y0019198D01*
X0048600Y0019200D01*
X0055600Y0014200D02*
X0056100Y0014200D01*
X0058100Y0014200D02*
X0058600Y0014200D01*
D15*
X0063442Y0013001D02*
X0064193Y0012250D01*
X0064943Y0012250D01*
X0065694Y0013001D01*
X0065694Y0016754D01*
X0064943Y0016754D02*
X0066445Y0016754D01*
X0068046Y0015253D02*
X0069547Y0016754D01*
X0069547Y0012250D01*
X0068046Y0012250D02*
X0071049Y0012250D01*
X0062249Y0007954D02*
X0062249Y0007203D01*
X0059246Y0004201D01*
X0059246Y0003450D01*
X0057645Y0004201D02*
X0056894Y0003450D01*
X0055393Y0003450D01*
X0054642Y0004201D01*
X0054642Y0007203D01*
X0055393Y0007954D01*
X0056894Y0007954D01*
X0057645Y0007203D01*
X0059246Y0007954D02*
X0062249Y0007954D01*
X0074193Y0024750D02*
X0074943Y0024750D01*
X0075694Y0025501D01*
X0075694Y0029254D01*
X0074943Y0029254D02*
X0076445Y0029254D01*
X0078046Y0027002D02*
X0080298Y0027002D01*
X0081049Y0026251D01*
X0081049Y0025501D01*
X0080298Y0024750D01*
X0078797Y0024750D01*
X0078046Y0025501D01*
X0078046Y0027002D01*
X0079547Y0028503D01*
X0081049Y0029254D01*
X0087050Y0024901D02*
X0087801Y0024150D01*
X0088551Y0024150D01*
X0089302Y0024901D01*
X0089302Y0028654D01*
X0088551Y0028654D02*
X0090053Y0028654D01*
X0091654Y0028654D02*
X0093906Y0028654D01*
X0094656Y0027903D01*
X0094656Y0026402D01*
X0093906Y0025651D01*
X0091654Y0025651D01*
X0091654Y0024150D02*
X0091654Y0028654D01*
X0096258Y0027153D02*
X0097759Y0028654D01*
X0097759Y0024150D01*
X0096258Y0024150D02*
X0099260Y0024150D01*
X0100862Y0024150D02*
X0103864Y0027153D01*
X0103864Y0027903D01*
X0103114Y0028654D01*
X0101612Y0028654D01*
X0100862Y0027903D01*
X0100862Y0024150D02*
X0103864Y0024150D01*
X0107050Y0024901D02*
X0107801Y0024150D01*
X0108551Y0024150D01*
X0109302Y0024901D01*
X0109302Y0028654D01*
X0108551Y0028654D02*
X0110053Y0028654D01*
X0111654Y0028654D02*
X0113906Y0028654D01*
X0114656Y0027903D01*
X0114656Y0026402D01*
X0113906Y0025651D01*
X0111654Y0025651D01*
X0111654Y0024150D02*
X0111654Y0028654D01*
X0116258Y0027153D02*
X0117759Y0028654D01*
X0117759Y0024150D01*
X0116258Y0024150D02*
X0119260Y0024150D01*
X0120862Y0024150D02*
X0123864Y0024150D01*
X0122363Y0024150D02*
X0122363Y0028654D01*
X0120862Y0027153D01*
X0127050Y0024901D02*
X0127801Y0024150D01*
X0128551Y0024150D01*
X0129302Y0024901D01*
X0129302Y0028654D01*
X0128551Y0028654D02*
X0130053Y0028654D01*
X0131654Y0028654D02*
X0133906Y0028654D01*
X0134656Y0027903D01*
X0134656Y0026402D01*
X0133906Y0025651D01*
X0131654Y0025651D01*
X0131654Y0024150D02*
X0131654Y0028654D01*
X0134642Y0031701D02*
X0135393Y0030950D01*
X0136894Y0030950D01*
X0137645Y0031701D01*
X0139246Y0030950D02*
X0142249Y0033953D01*
X0142249Y0034703D01*
X0141498Y0035454D01*
X0139997Y0035454D01*
X0139246Y0034703D01*
X0137645Y0034703D02*
X0136894Y0035454D01*
X0135393Y0035454D01*
X0134642Y0034703D01*
X0134642Y0031701D01*
X0137759Y0028654D02*
X0136258Y0027153D01*
X0137759Y0028654D02*
X0137759Y0024150D01*
X0136258Y0024150D02*
X0139260Y0024150D01*
X0140862Y0024901D02*
X0143864Y0027903D01*
X0143864Y0024901D01*
X0143114Y0024150D01*
X0141612Y0024150D01*
X0140862Y0024901D01*
X0140862Y0027903D01*
X0141612Y0028654D01*
X0143114Y0028654D01*
X0143864Y0027903D01*
X0142249Y0030950D02*
X0139246Y0030950D01*
X0154589Y0049750D02*
X0155339Y0049750D01*
X0156090Y0050501D01*
X0156090Y0054254D01*
X0155339Y0054254D02*
X0156841Y0054254D01*
X0158442Y0054254D02*
X0160694Y0054254D01*
X0161445Y0053503D01*
X0161445Y0052002D01*
X0160694Y0051251D01*
X0158442Y0051251D01*
X0158442Y0049750D02*
X0158442Y0054254D01*
X0163046Y0052002D02*
X0166049Y0052002D01*
X0165298Y0049750D02*
X0165298Y0054254D01*
X0163046Y0052002D01*
X0154589Y0049750D02*
X0153838Y0050501D01*
X0173846Y0056201D02*
X0174597Y0055450D01*
X0177599Y0055450D01*
X0178350Y0056201D01*
X0178350Y0057702D01*
X0177599Y0058453D01*
X0176098Y0060054D02*
X0176098Y0063056D01*
X0173846Y0062306D02*
X0176098Y0060054D01*
X0174597Y0058453D02*
X0173846Y0057702D01*
X0173846Y0056201D01*
X0173846Y0062306D02*
X0178350Y0062306D01*
X0188097Y0045556D02*
X0187346Y0044806D01*
X0187346Y0043305D01*
X0188097Y0042554D01*
X0188097Y0040953D02*
X0187346Y0040202D01*
X0187346Y0037950D01*
X0191850Y0037950D01*
X0191850Y0040202D01*
X0191099Y0040953D01*
X0188097Y0040953D01*
X0191850Y0042554D02*
X0188847Y0045556D01*
X0188097Y0045556D01*
X0191850Y0045556D02*
X0191850Y0042554D01*
X0184350Y0094673D02*
X0184350Y0096174D01*
X0184350Y0095423D02*
X0179846Y0095423D01*
X0179846Y0094673D02*
X0179846Y0096174D01*
X0180597Y0097742D02*
X0183599Y0097742D01*
X0184350Y0098493D01*
X0184350Y0099994D01*
X0183599Y0100745D01*
X0183050Y0100423D02*
X0178546Y0100423D01*
X0178546Y0099673D02*
X0178546Y0101174D01*
X0179297Y0102742D02*
X0178546Y0103493D01*
X0178546Y0104994D01*
X0179297Y0105745D01*
X0179297Y0107346D02*
X0178546Y0108097D01*
X0178546Y0109598D01*
X0179297Y0110349D01*
X0180047Y0110349D01*
X0183050Y0107346D01*
X0183050Y0110349D01*
X0182299Y0105745D02*
X0183050Y0104994D01*
X0183050Y0103493D01*
X0182299Y0102742D01*
X0179297Y0102742D01*
X0179846Y0103847D02*
X0184350Y0103847D01*
X0184350Y0102346D02*
X0184350Y0105349D01*
X0181347Y0102346D02*
X0179846Y0103847D01*
X0180597Y0100745D02*
X0179846Y0099994D01*
X0179846Y0098493D01*
X0180597Y0097742D01*
X0183050Y0099673D02*
X0183050Y0101174D01*
X0166049Y0110501D02*
X0165298Y0109750D01*
X0163797Y0109750D01*
X0163046Y0110501D01*
X0164547Y0112002D02*
X0165298Y0112002D01*
X0166049Y0111251D01*
X0166049Y0110501D01*
X0165298Y0112002D02*
X0166049Y0112753D01*
X0166049Y0113503D01*
X0165298Y0114254D01*
X0163797Y0114254D01*
X0163046Y0113503D01*
X0161445Y0113503D02*
X0160694Y0114254D01*
X0158442Y0114254D01*
X0158442Y0109750D01*
X0158442Y0111251D02*
X0160694Y0111251D01*
X0161445Y0112002D01*
X0161445Y0113503D01*
X0156841Y0114254D02*
X0155339Y0114254D01*
X0156090Y0114254D02*
X0156090Y0110501D01*
X0155339Y0109750D01*
X0154589Y0109750D01*
X0153838Y0110501D01*
X0152746Y0125450D02*
X0155749Y0128453D01*
X0155749Y0129203D01*
X0154998Y0129954D01*
X0153497Y0129954D01*
X0152746Y0129203D01*
X0149643Y0129954D02*
X0149643Y0125450D01*
X0148142Y0125450D02*
X0151145Y0125450D01*
X0152746Y0125450D02*
X0155749Y0125450D01*
X0149643Y0129954D02*
X0148142Y0128453D01*
X0146541Y0129203D02*
X0145790Y0129954D01*
X0143538Y0129954D01*
X0143538Y0125450D01*
X0145790Y0125450D01*
X0146541Y0126201D01*
X0146541Y0129203D01*
X0148142Y0145450D02*
X0150394Y0145450D01*
X0151145Y0146201D01*
X0151145Y0149203D01*
X0150394Y0149954D01*
X0148142Y0149954D01*
X0148142Y0145450D01*
X0152746Y0146201D02*
X0153497Y0145450D01*
X0154998Y0145450D01*
X0155749Y0146201D01*
X0155749Y0149203D01*
X0154998Y0149954D01*
X0153497Y0149954D01*
X0152746Y0149203D01*
X0152746Y0148453D01*
X0153497Y0147702D01*
X0155749Y0147702D01*
X0153810Y0153450D02*
X0152308Y0153450D01*
X0151558Y0154201D01*
X0154560Y0157203D01*
X0154560Y0154201D01*
X0153810Y0153450D01*
X0154560Y0157203D02*
X0153810Y0157954D01*
X0152308Y0157954D01*
X0151558Y0157203D01*
X0151558Y0154201D01*
X0149956Y0153450D02*
X0146954Y0153450D01*
X0148455Y0153450D02*
X0148455Y0157954D01*
X0146954Y0156453D01*
X0145353Y0157203D02*
X0144602Y0157954D01*
X0142350Y0157954D01*
X0142350Y0153450D01*
X0144602Y0153450D01*
X0145353Y0154201D01*
X0145353Y0157203D01*
X0156434Y0157350D02*
X0159437Y0157350D01*
X0161038Y0157350D02*
X0164041Y0157350D01*
X0165642Y0157350D02*
X0167894Y0157350D01*
X0168645Y0158101D01*
X0168645Y0161103D01*
X0167894Y0161854D01*
X0165642Y0161854D01*
X0165642Y0157350D01*
X0162539Y0159602D02*
X0161038Y0159602D01*
X0161038Y0161854D02*
X0161038Y0157350D01*
X0156434Y0157350D02*
X0156434Y0161854D01*
X0161038Y0161854D02*
X0164041Y0161854D01*
X0170246Y0159602D02*
X0173249Y0159602D01*
X0172498Y0161854D02*
X0170246Y0159602D01*
X0172498Y0157350D02*
X0172498Y0161854D01*
X0149956Y0174201D02*
X0149956Y0174951D01*
X0149206Y0175702D01*
X0146954Y0175702D01*
X0146954Y0174201D01*
X0147705Y0173450D01*
X0149206Y0173450D01*
X0149956Y0174201D01*
X0148455Y0177203D02*
X0146954Y0175702D01*
X0148455Y0177203D02*
X0149956Y0177954D01*
X0145353Y0177203D02*
X0145353Y0174201D01*
X0144602Y0173450D01*
X0142350Y0173450D01*
X0142350Y0177954D01*
X0144602Y0177954D01*
X0145353Y0177203D01*
X0129050Y0168149D02*
X0129050Y0165146D01*
X0126047Y0168149D01*
X0125297Y0168149D01*
X0124546Y0167398D01*
X0124546Y0165897D01*
X0125297Y0165146D01*
X0124546Y0163545D02*
X0124546Y0162043D01*
X0124546Y0162794D02*
X0128299Y0162794D01*
X0129050Y0162043D01*
X0129050Y0161293D01*
X0128299Y0160542D01*
X0115298Y0179750D02*
X0113797Y0179750D01*
X0113046Y0180501D01*
X0114547Y0182002D02*
X0115298Y0182002D01*
X0116049Y0181251D01*
X0116049Y0180501D01*
X0115298Y0179750D01*
X0115298Y0182002D02*
X0116049Y0182753D01*
X0116049Y0183503D01*
X0115298Y0184254D01*
X0113797Y0184254D01*
X0113046Y0183503D01*
X0111445Y0184254D02*
X0109943Y0184254D01*
X0110694Y0184254D02*
X0110694Y0180501D01*
X0109943Y0179750D01*
X0109193Y0179750D01*
X0108442Y0180501D01*
X0100956Y0183701D02*
X0100956Y0184451D01*
X0100206Y0185202D01*
X0097954Y0185202D01*
X0097954Y0183701D01*
X0098705Y0182950D01*
X0100206Y0182950D01*
X0100956Y0183701D01*
X0099455Y0186703D02*
X0097954Y0185202D01*
X0099455Y0186703D02*
X0100956Y0187454D01*
X0096353Y0186703D02*
X0095602Y0187454D01*
X0094101Y0187454D01*
X0093350Y0186703D01*
X0093350Y0183701D01*
X0094101Y0182950D01*
X0095602Y0182950D01*
X0096353Y0183701D01*
X0079260Y0199150D02*
X0076258Y0199150D01*
X0079260Y0202153D01*
X0079260Y0202903D01*
X0078510Y0203654D01*
X0077008Y0203654D01*
X0076258Y0202903D01*
X0074656Y0202903D02*
X0073906Y0203654D01*
X0071654Y0203654D01*
X0071654Y0199150D01*
X0071654Y0200651D02*
X0073906Y0200651D01*
X0074656Y0201402D01*
X0074656Y0202903D01*
X0070053Y0203654D02*
X0068551Y0203654D01*
X0069302Y0203654D02*
X0069302Y0199901D01*
X0068551Y0199150D01*
X0067801Y0199150D01*
X0067050Y0199901D01*
X0059260Y0202903D02*
X0056258Y0199901D01*
X0056258Y0199150D01*
X0054656Y0201402D02*
X0053906Y0200651D01*
X0051654Y0200651D01*
X0051654Y0199150D02*
X0051654Y0203654D01*
X0053906Y0203654D01*
X0054656Y0202903D01*
X0054656Y0201402D01*
X0056258Y0203654D02*
X0059260Y0203654D01*
X0059260Y0202903D01*
X0050053Y0203654D02*
X0048551Y0203654D01*
X0049302Y0203654D02*
X0049302Y0199901D01*
X0048551Y0199150D01*
X0047801Y0199150D01*
X0047050Y0199901D01*
X0039260Y0199901D02*
X0039260Y0202903D01*
X0038510Y0203654D01*
X0037008Y0203654D01*
X0036258Y0202903D01*
X0036258Y0202153D01*
X0037008Y0201402D01*
X0039260Y0201402D01*
X0039260Y0199901D02*
X0038510Y0199150D01*
X0037008Y0199150D01*
X0036258Y0199901D01*
X0034656Y0201402D02*
X0033906Y0200651D01*
X0031654Y0200651D01*
X0031654Y0199150D02*
X0031654Y0203654D01*
X0033906Y0203654D01*
X0034656Y0202903D01*
X0034656Y0201402D01*
X0030053Y0203654D02*
X0028551Y0203654D01*
X0029302Y0203654D02*
X0029302Y0199901D01*
X0028551Y0199150D01*
X0027801Y0199150D01*
X0027050Y0199901D01*
X0039850Y0167954D02*
X0042102Y0167954D01*
X0042853Y0167203D01*
X0042853Y0164201D01*
X0042102Y0163450D01*
X0039850Y0163450D01*
X0039850Y0167954D01*
X0044454Y0165702D02*
X0047456Y0165702D01*
X0046706Y0167954D02*
X0044454Y0165702D01*
X0046706Y0163450D02*
X0046706Y0167954D01*
X0045642Y0159954D02*
X0047894Y0159954D01*
X0048645Y0159203D01*
X0048645Y0156201D01*
X0047894Y0155450D01*
X0045642Y0155450D01*
X0045642Y0159954D01*
X0050246Y0159203D02*
X0050997Y0159954D01*
X0052498Y0159954D01*
X0053249Y0159203D01*
X0053249Y0158453D01*
X0052498Y0157702D01*
X0053249Y0156951D01*
X0053249Y0156201D01*
X0052498Y0155450D01*
X0050997Y0155450D01*
X0050246Y0156201D01*
X0051747Y0157702D02*
X0052498Y0157702D01*
X0050559Y0147954D02*
X0050559Y0143450D01*
X0049058Y0143450D02*
X0052060Y0143450D01*
X0049058Y0146453D02*
X0050559Y0147954D01*
X0047456Y0143450D02*
X0044454Y0143450D01*
X0045955Y0143450D02*
X0045955Y0147954D01*
X0044454Y0146453D01*
X0042853Y0147203D02*
X0042853Y0144201D01*
X0042102Y0143450D01*
X0039850Y0143450D01*
X0039850Y0147954D01*
X0042102Y0147954D01*
X0042853Y0147203D01*
X0045642Y0139954D02*
X0047894Y0139954D01*
X0048645Y0139203D01*
X0048645Y0136201D01*
X0047894Y0135450D01*
X0045642Y0135450D01*
X0045642Y0139954D01*
X0050246Y0139954D02*
X0050246Y0137702D01*
X0051747Y0138453D01*
X0052498Y0138453D01*
X0053249Y0137702D01*
X0053249Y0136201D01*
X0052498Y0135450D01*
X0050997Y0135450D01*
X0050246Y0136201D01*
X0051434Y0134850D02*
X0054437Y0134850D01*
X0056038Y0134850D02*
X0059041Y0134850D01*
X0060642Y0134850D02*
X0062894Y0134850D01*
X0063645Y0135601D01*
X0063645Y0138603D01*
X0062894Y0139354D01*
X0060642Y0139354D01*
X0060642Y0134850D01*
X0057539Y0137102D02*
X0056038Y0137102D01*
X0056038Y0139354D02*
X0056038Y0134850D01*
X0056038Y0139354D02*
X0059041Y0139354D01*
X0065246Y0137853D02*
X0066747Y0139354D01*
X0066747Y0134850D01*
X0065246Y0134850D02*
X0068249Y0134850D01*
X0053249Y0139954D02*
X0050246Y0139954D01*
X0051434Y0139354D02*
X0051434Y0134850D01*
X0026550Y0158793D02*
X0026550Y0159543D01*
X0025799Y0160294D01*
X0022046Y0160294D01*
X0022046Y0159543D02*
X0022046Y0161045D01*
X0022046Y0162646D02*
X0024298Y0162646D01*
X0023547Y0164147D01*
X0023547Y0164898D01*
X0024298Y0165649D01*
X0025799Y0165649D01*
X0026550Y0164898D01*
X0026550Y0163397D01*
X0025799Y0162646D01*
X0022046Y0162646D02*
X0022046Y0165649D01*
X0026550Y0158793D02*
X0025799Y0158042D01*
X0026597Y0090626D02*
X0027347Y0090626D01*
X0028098Y0089875D01*
X0028849Y0090626D01*
X0029599Y0090626D01*
X0030350Y0089875D01*
X0030350Y0088374D01*
X0029599Y0087623D01*
X0029599Y0086022D02*
X0030350Y0085271D01*
X0030350Y0083770D01*
X0029599Y0083019D01*
X0026597Y0083019D01*
X0025846Y0083770D01*
X0025846Y0085271D01*
X0026597Y0086022D01*
X0026597Y0087623D02*
X0025846Y0088374D01*
X0025846Y0089875D01*
X0026597Y0090626D01*
X0028098Y0089875D02*
X0028098Y0089124D01*
X0025846Y0081451D02*
X0025846Y0079950D01*
X0025846Y0080701D02*
X0030350Y0080701D01*
X0030350Y0081451D02*
X0030350Y0079950D01*
X0064943Y0039254D02*
X0066445Y0039254D01*
X0065694Y0039254D02*
X0065694Y0035501D01*
X0064943Y0034750D01*
X0064193Y0034750D01*
X0063442Y0035501D01*
X0068046Y0037002D02*
X0071049Y0037002D01*
X0070298Y0034750D02*
X0070298Y0039254D01*
X0068046Y0037002D01*
X0073442Y0025501D02*
X0074193Y0024750D01*
X0105850Y0048701D02*
X0106601Y0047950D01*
X0108102Y0047950D01*
X0108853Y0048701D01*
X0110454Y0048701D02*
X0111205Y0047950D01*
X0112706Y0047950D01*
X0113456Y0048701D01*
X0113456Y0050202D01*
X0112706Y0050953D01*
X0111955Y0050953D01*
X0110454Y0050202D01*
X0110454Y0052454D01*
X0113456Y0052454D01*
X0108853Y0051703D02*
X0108102Y0052454D01*
X0106601Y0052454D01*
X0105850Y0051703D01*
X0105850Y0048701D01*
X0104650Y0076650D02*
X0100146Y0076650D01*
X0100146Y0078902D01*
X0100897Y0079653D01*
X0103899Y0079653D01*
X0104650Y0078902D01*
X0104650Y0076650D01*
X0104650Y0081254D02*
X0103899Y0081254D01*
X0100897Y0084256D01*
X0100146Y0084256D01*
X0100146Y0081254D01*
X0110146Y0082005D02*
X0110146Y0083506D01*
X0110897Y0084256D01*
X0111647Y0084256D01*
X0112398Y0083506D01*
X0112398Y0082005D01*
X0111647Y0081254D01*
X0110897Y0081254D01*
X0110146Y0082005D01*
X0112398Y0082005D02*
X0113149Y0081254D01*
X0113899Y0081254D01*
X0114650Y0082005D01*
X0114650Y0083506D01*
X0113899Y0084256D01*
X0113149Y0084256D01*
X0112398Y0083506D01*
X0110897Y0079653D02*
X0110146Y0078902D01*
X0110146Y0076650D01*
X0114650Y0076650D01*
X0114650Y0078902D01*
X0113899Y0079653D01*
X0110897Y0079653D01*
X0176346Y0123701D02*
X0177097Y0122950D01*
X0180099Y0122950D01*
X0180850Y0123701D01*
X0180850Y0125202D01*
X0180099Y0125953D01*
X0180099Y0127554D02*
X0180850Y0128305D01*
X0180850Y0129806D01*
X0180099Y0130556D01*
X0179349Y0130556D01*
X0178598Y0129806D01*
X0178598Y0129055D01*
X0178598Y0129806D02*
X0177847Y0130556D01*
X0177097Y0130556D01*
X0176346Y0129806D01*
X0176346Y0128305D01*
X0177097Y0127554D01*
X0177097Y0125953D02*
X0176346Y0125202D01*
X0176346Y0123701D01*
X0187346Y0122702D02*
X0187346Y0120450D01*
X0191850Y0120450D01*
X0191850Y0122702D01*
X0191099Y0123453D01*
X0188097Y0123453D01*
X0187346Y0122702D01*
X0188847Y0125054D02*
X0187346Y0126555D01*
X0191850Y0126555D01*
X0191850Y0125054D02*
X0191850Y0128056D01*
X0179260Y0199150D02*
X0176258Y0199150D01*
X0177759Y0199150D02*
X0177759Y0203654D01*
X0176258Y0202153D01*
X0174656Y0202903D02*
X0173906Y0203654D01*
X0171654Y0203654D01*
X0171654Y0199150D01*
X0171654Y0200651D02*
X0173906Y0200651D01*
X0174656Y0201402D01*
X0174656Y0202903D01*
X0170053Y0203654D02*
X0168551Y0203654D01*
X0169302Y0203654D02*
X0169302Y0199901D01*
X0168551Y0199150D01*
X0167801Y0199150D01*
X0167050Y0199901D01*
X0163864Y0199901D02*
X0163114Y0199150D01*
X0161612Y0199150D01*
X0160862Y0199901D01*
X0160862Y0201402D02*
X0162363Y0202153D01*
X0163114Y0202153D01*
X0163864Y0201402D01*
X0163864Y0199901D01*
X0160862Y0201402D02*
X0160862Y0203654D01*
X0163864Y0203654D01*
X0159260Y0199150D02*
X0156258Y0199150D01*
X0157759Y0199150D02*
X0157759Y0203654D01*
X0156258Y0202153D01*
X0154656Y0202903D02*
X0153906Y0203654D01*
X0151654Y0203654D01*
X0151654Y0199150D01*
X0151654Y0200651D02*
X0153906Y0200651D01*
X0154656Y0201402D01*
X0154656Y0202903D01*
X0150053Y0203654D02*
X0148551Y0203654D01*
X0149302Y0203654D02*
X0149302Y0199901D01*
X0148551Y0199150D01*
X0147801Y0199150D01*
X0147050Y0199901D01*
X0139260Y0199901D02*
X0138510Y0199150D01*
X0137008Y0199150D01*
X0136258Y0199901D01*
X0136258Y0200651D01*
X0137008Y0201402D01*
X0138510Y0201402D01*
X0139260Y0200651D01*
X0139260Y0199901D01*
X0138510Y0201402D02*
X0139260Y0202153D01*
X0139260Y0202903D01*
X0138510Y0203654D01*
X0137008Y0203654D01*
X0136258Y0202903D01*
X0136258Y0202153D01*
X0137008Y0201402D01*
X0134656Y0201402D02*
X0133906Y0200651D01*
X0131654Y0200651D01*
X0131654Y0199150D02*
X0131654Y0203654D01*
X0133906Y0203654D01*
X0134656Y0202903D01*
X0134656Y0201402D01*
X0130053Y0203654D02*
X0128551Y0203654D01*
X0129302Y0203654D02*
X0129302Y0199901D01*
X0128551Y0199150D01*
X0127801Y0199150D01*
X0127050Y0199901D01*
X0103998Y0160454D02*
X0102497Y0160454D01*
X0101746Y0159703D01*
X0101746Y0158953D01*
X0102497Y0158202D01*
X0104749Y0158202D01*
X0104749Y0156701D02*
X0104749Y0159703D01*
X0103998Y0160454D01*
X0104749Y0156701D02*
X0103998Y0155950D01*
X0102497Y0155950D01*
X0101746Y0156701D01*
X0100145Y0156701D02*
X0099394Y0155950D01*
X0097893Y0155950D01*
X0097142Y0156701D01*
X0097142Y0159703D01*
X0097893Y0160454D01*
X0099394Y0160454D01*
X0100145Y0159703D01*
D16*
X0197100Y0122700D03*
X0197100Y0040200D03*
D17*
X0197100Y0036450D03*
X0197100Y0056950D03*
X0197100Y0118950D03*
X0197100Y0139450D03*
D18*
X0187500Y0109900D03*
D19*
X0199600Y0108950D03*
X0199600Y0074450D03*
D20*
X0200600Y0081700D03*
X0200600Y0091700D03*
X0200600Y0101700D03*
D21*
X0199600Y0096700D03*
X0199600Y0086700D03*
D22*
X0180834Y0121500D02*
X0179666Y0121500D01*
X0179082Y0122084D01*
X0177826Y0121500D02*
X0175491Y0121500D01*
X0176659Y0121500D02*
X0176659Y0125003D01*
X0175491Y0123835D01*
X0174235Y0124419D02*
X0174235Y0123251D01*
X0173651Y0122668D01*
X0171900Y0122668D01*
X0173068Y0122668D02*
X0174235Y0121500D01*
X0171900Y0121500D02*
X0171900Y0125003D01*
X0173651Y0125003D01*
X0174235Y0124419D01*
X0179082Y0124419D02*
X0179666Y0125003D01*
X0180834Y0125003D01*
X0181417Y0124419D01*
X0181417Y0123835D01*
X0180834Y0123251D01*
X0181417Y0122668D01*
X0181417Y0122084D01*
X0180834Y0121500D01*
X0180834Y0123251D02*
X0180250Y0123251D01*
X0181897Y0131527D02*
X0181897Y0133278D01*
X0182481Y0133862D01*
X0183649Y0133862D01*
X0184232Y0133278D01*
X0184232Y0131527D01*
X0184232Y0132694D02*
X0185400Y0133862D01*
X0185400Y0135118D02*
X0185400Y0137453D01*
X0185400Y0136286D02*
X0181897Y0136286D01*
X0183065Y0135118D01*
X0183649Y0138709D02*
X0181897Y0138709D01*
X0181897Y0141044D01*
X0183065Y0140460D02*
X0183649Y0141044D01*
X0184816Y0141044D01*
X0185400Y0140460D01*
X0185400Y0139293D01*
X0184816Y0138709D01*
X0183649Y0138709D02*
X0183065Y0139877D01*
X0183065Y0140460D01*
X0181897Y0131527D02*
X0185400Y0131527D01*
X0140400Y0092960D02*
X0140400Y0091793D01*
X0139816Y0091209D01*
X0137481Y0093544D01*
X0139816Y0093544D01*
X0140400Y0092960D01*
X0139816Y0091209D02*
X0137481Y0091209D01*
X0136897Y0091793D01*
X0136897Y0092960D01*
X0137481Y0093544D01*
X0140400Y0089953D02*
X0140400Y0087618D01*
X0140400Y0088786D02*
X0136897Y0088786D01*
X0138065Y0087618D01*
X0138649Y0086362D02*
X0139232Y0085778D01*
X0139232Y0084027D01*
X0139232Y0085194D02*
X0140400Y0086362D01*
X0138649Y0086362D02*
X0137481Y0086362D01*
X0136897Y0085778D01*
X0136897Y0084027D01*
X0140400Y0084027D01*
X0123360Y0093400D02*
X0123360Y0096903D01*
X0121609Y0095151D01*
X0123944Y0095151D01*
X0120353Y0095151D02*
X0120353Y0096319D01*
X0119769Y0096903D01*
X0118018Y0096903D01*
X0118018Y0093400D01*
X0118018Y0094568D02*
X0119769Y0094568D01*
X0120353Y0095151D01*
X0119186Y0094568D02*
X0120353Y0093400D01*
X0120353Y0103400D02*
X0119186Y0104568D01*
X0119769Y0104568D02*
X0118018Y0104568D01*
X0118018Y0103400D02*
X0118018Y0106903D01*
X0119769Y0106903D01*
X0120353Y0106319D01*
X0120353Y0105151D01*
X0119769Y0104568D01*
X0121609Y0105151D02*
X0121609Y0106903D01*
X0123944Y0106903D01*
X0123360Y0105735D02*
X0123944Y0105151D01*
X0123944Y0103984D01*
X0123360Y0103400D01*
X0122193Y0103400D01*
X0121609Y0103984D01*
X0121609Y0105151D02*
X0122777Y0105735D01*
X0123360Y0105735D01*
X0102300Y0134000D02*
X0098797Y0134000D01*
X0098797Y0135751D01*
X0099381Y0136335D01*
X0100549Y0136335D01*
X0101132Y0135751D01*
X0101132Y0134000D01*
X0101132Y0135168D02*
X0102300Y0136335D01*
X0102300Y0137591D02*
X0102300Y0139926D01*
X0102300Y0138759D02*
X0098797Y0138759D01*
X0099965Y0137591D01*
X0094800Y0138175D02*
X0094800Y0139343D01*
X0094216Y0139926D01*
X0091881Y0139926D01*
X0091297Y0139343D01*
X0091297Y0138175D01*
X0091881Y0137591D01*
X0092465Y0137591D01*
X0093049Y0138175D01*
X0093049Y0139926D01*
X0094800Y0138175D02*
X0094216Y0137591D01*
X0094800Y0136335D02*
X0093632Y0135168D01*
X0093632Y0135751D02*
X0093632Y0134000D01*
X0094800Y0134000D02*
X0091297Y0134000D01*
X0091297Y0135751D01*
X0091881Y0136335D01*
X0093049Y0136335D01*
X0093632Y0135751D01*
X0062777Y0106903D02*
X0062777Y0103400D01*
X0063944Y0103400D02*
X0061609Y0103400D01*
X0060353Y0103400D02*
X0058018Y0103400D01*
X0059186Y0103400D02*
X0059186Y0106903D01*
X0058018Y0105735D01*
X0056762Y0105151D02*
X0056178Y0104568D01*
X0054427Y0104568D01*
X0055594Y0104568D02*
X0056762Y0103400D01*
X0056762Y0105151D02*
X0056762Y0106319D01*
X0056178Y0106903D01*
X0054427Y0106903D01*
X0054427Y0103400D01*
X0061609Y0105735D02*
X0062777Y0106903D01*
X0035400Y0096044D02*
X0035400Y0093709D01*
X0033065Y0096044D01*
X0032481Y0096044D01*
X0031897Y0095460D01*
X0031897Y0094293D01*
X0032481Y0093709D01*
X0031897Y0091286D02*
X0035400Y0091286D01*
X0035400Y0092453D02*
X0035400Y0090118D01*
X0035400Y0088862D02*
X0034232Y0087694D01*
X0034232Y0088278D02*
X0034232Y0086527D01*
X0035400Y0086527D02*
X0031897Y0086527D01*
X0031897Y0088278D01*
X0032481Y0088862D01*
X0033649Y0088862D01*
X0034232Y0088278D01*
X0033065Y0090118D02*
X0031897Y0091286D01*
X0020400Y0073544D02*
X0020400Y0071209D01*
X0018065Y0073544D01*
X0017481Y0073544D01*
X0016897Y0072960D01*
X0016897Y0071793D01*
X0017481Y0071209D01*
X0017481Y0069953D02*
X0018649Y0069953D01*
X0019232Y0069369D01*
X0019232Y0067618D01*
X0019232Y0068786D02*
X0020400Y0069953D01*
X0020400Y0067618D02*
X0016897Y0067618D01*
X0016897Y0069369D01*
X0017481Y0069953D01*
X0009800Y0091500D02*
X0006297Y0091500D01*
X0006297Y0093251D01*
X0006881Y0093835D01*
X0008049Y0093835D01*
X0008632Y0093251D01*
X0008632Y0091500D01*
X0008632Y0092668D02*
X0009800Y0093835D01*
X0009800Y0095091D02*
X0009800Y0097426D01*
X0009800Y0096259D02*
X0006297Y0096259D01*
X0007465Y0095091D01*
X0008049Y0098682D02*
X0008049Y0101017D01*
X0009800Y0100434D02*
X0006297Y0100434D01*
X0008049Y0098682D01*
X0088018Y0041903D02*
X0088018Y0038400D01*
X0088018Y0039568D02*
X0089769Y0039568D01*
X0090353Y0040151D01*
X0090353Y0041319D01*
X0089769Y0041903D01*
X0088018Y0041903D01*
X0089186Y0039568D02*
X0090353Y0038400D01*
X0091609Y0038984D02*
X0092193Y0038400D01*
X0093360Y0038400D01*
X0093944Y0038984D01*
X0093944Y0039568D01*
X0093360Y0040151D01*
X0092777Y0040151D01*
X0093360Y0040151D02*
X0093944Y0040735D01*
X0093944Y0041319D01*
X0093360Y0041903D01*
X0092193Y0041903D01*
X0091609Y0041319D01*
X0106900Y0056500D02*
X0106900Y0060003D01*
X0108651Y0060003D01*
X0109235Y0059419D01*
X0109235Y0058251D01*
X0108651Y0057668D01*
X0106900Y0057668D01*
X0108068Y0057668D02*
X0109235Y0056500D01*
X0110491Y0057084D02*
X0110491Y0058251D01*
X0112243Y0058251D01*
X0112826Y0057668D01*
X0112826Y0057084D01*
X0112243Y0056500D01*
X0111075Y0056500D01*
X0110491Y0057084D01*
X0110491Y0058251D02*
X0111659Y0059419D01*
X0112826Y0060003D01*
X0134400Y0060003D02*
X0134400Y0056500D01*
X0134400Y0057668D02*
X0136151Y0057668D01*
X0136735Y0058251D01*
X0136735Y0059419D01*
X0136151Y0060003D01*
X0134400Y0060003D01*
X0135568Y0057668D02*
X0136735Y0056500D01*
X0137991Y0056500D02*
X0137991Y0057084D01*
X0140326Y0059419D01*
X0140326Y0060003D01*
X0137991Y0060003D01*
X0095400Y0170118D02*
X0091897Y0170118D01*
X0091897Y0171869D01*
X0092481Y0172453D01*
X0093649Y0172453D01*
X0094232Y0171869D01*
X0094232Y0170118D01*
X0094232Y0171286D02*
X0095400Y0172453D01*
X0094816Y0173709D02*
X0094232Y0173709D01*
X0093649Y0174293D01*
X0093649Y0175460D01*
X0094232Y0176044D01*
X0094816Y0176044D01*
X0095400Y0175460D01*
X0095400Y0174293D01*
X0094816Y0173709D01*
X0093649Y0174293D02*
X0093065Y0173709D01*
X0092481Y0173709D01*
X0091897Y0174293D01*
X0091897Y0175460D01*
X0092481Y0176044D01*
X0093065Y0176044D01*
X0093649Y0175460D01*
D23*
X0052600Y0166700D03*
X0041600Y0156700D03*
X0052600Y0146700D03*
X0041600Y0136700D03*
X0144100Y0146700D03*
X0155100Y0156700D03*
X0144100Y0166700D03*
X0155100Y0136700D03*
D24*
X0161350Y0136700D03*
X0161350Y0146700D03*
X0161350Y0156700D03*
X0161350Y0166700D03*
X0137850Y0166700D03*
X0137850Y0156700D03*
X0137850Y0146700D03*
X0137850Y0136700D03*
X0058850Y0136700D03*
X0058850Y0146700D03*
X0058850Y0156700D03*
X0058850Y0166700D03*
X0035350Y0166700D03*
X0035350Y0156700D03*
X0035350Y0146700D03*
X0035350Y0136700D03*
M02*
