G75*
%MOIN*%
%OFA0B0*%
%FSLAX25Y25*%
%IPPOS*%
%LPD*%
%AMOC8*
5,1,8,0,0,1.08239X$1,22.5*
%
%ADD10C,0.00000*%
%ADD11C,0.01000*%
%ADD12C,0.07600*%
%ADD13R,0.07600X0.07600*%
%ADD14OC8,0.06300*%
%ADD15C,0.05600*%
%ADD16OC8,0.05600*%
%ADD17OC8,0.06800*%
%ADD18C,0.06400*%
%ADD19OC8,0.10000*%
%ADD20C,0.06800*%
%ADD21R,0.07400X0.07400*%
%ADD22C,0.07400*%
%ADD23C,0.02400*%
%ADD24C,0.05000*%
%ADD25C,0.01600*%
D10*
X0007100Y0006700D02*
X0200801Y0006700D01*
X0185801Y0016700D02*
X0185803Y0016858D01*
X0185809Y0017016D01*
X0185819Y0017174D01*
X0185833Y0017332D01*
X0185851Y0017489D01*
X0185872Y0017646D01*
X0185898Y0017802D01*
X0185928Y0017958D01*
X0185961Y0018113D01*
X0185999Y0018266D01*
X0186040Y0018419D01*
X0186085Y0018571D01*
X0186134Y0018722D01*
X0186187Y0018871D01*
X0186243Y0019019D01*
X0186303Y0019165D01*
X0186367Y0019310D01*
X0186435Y0019453D01*
X0186506Y0019595D01*
X0186580Y0019735D01*
X0186658Y0019872D01*
X0186740Y0020008D01*
X0186824Y0020142D01*
X0186913Y0020273D01*
X0187004Y0020402D01*
X0187099Y0020529D01*
X0187196Y0020654D01*
X0187297Y0020776D01*
X0187401Y0020895D01*
X0187508Y0021012D01*
X0187618Y0021126D01*
X0187731Y0021237D01*
X0187846Y0021346D01*
X0187964Y0021451D01*
X0188085Y0021553D01*
X0188208Y0021653D01*
X0188334Y0021749D01*
X0188462Y0021842D01*
X0188592Y0021932D01*
X0188725Y0022018D01*
X0188860Y0022102D01*
X0188996Y0022181D01*
X0189135Y0022258D01*
X0189276Y0022330D01*
X0189418Y0022400D01*
X0189562Y0022465D01*
X0189708Y0022527D01*
X0189855Y0022585D01*
X0190004Y0022640D01*
X0190154Y0022691D01*
X0190305Y0022738D01*
X0190457Y0022781D01*
X0190610Y0022820D01*
X0190765Y0022856D01*
X0190920Y0022887D01*
X0191076Y0022915D01*
X0191232Y0022939D01*
X0191389Y0022959D01*
X0191547Y0022975D01*
X0191704Y0022987D01*
X0191863Y0022995D01*
X0192021Y0022999D01*
X0192179Y0022999D01*
X0192337Y0022995D01*
X0192496Y0022987D01*
X0192653Y0022975D01*
X0192811Y0022959D01*
X0192968Y0022939D01*
X0193124Y0022915D01*
X0193280Y0022887D01*
X0193435Y0022856D01*
X0193590Y0022820D01*
X0193743Y0022781D01*
X0193895Y0022738D01*
X0194046Y0022691D01*
X0194196Y0022640D01*
X0194345Y0022585D01*
X0194492Y0022527D01*
X0194638Y0022465D01*
X0194782Y0022400D01*
X0194924Y0022330D01*
X0195065Y0022258D01*
X0195204Y0022181D01*
X0195340Y0022102D01*
X0195475Y0022018D01*
X0195608Y0021932D01*
X0195738Y0021842D01*
X0195866Y0021749D01*
X0195992Y0021653D01*
X0196115Y0021553D01*
X0196236Y0021451D01*
X0196354Y0021346D01*
X0196469Y0021237D01*
X0196582Y0021126D01*
X0196692Y0021012D01*
X0196799Y0020895D01*
X0196903Y0020776D01*
X0197004Y0020654D01*
X0197101Y0020529D01*
X0197196Y0020402D01*
X0197287Y0020273D01*
X0197376Y0020142D01*
X0197460Y0020008D01*
X0197542Y0019872D01*
X0197620Y0019735D01*
X0197694Y0019595D01*
X0197765Y0019453D01*
X0197833Y0019310D01*
X0197897Y0019165D01*
X0197957Y0019019D01*
X0198013Y0018871D01*
X0198066Y0018722D01*
X0198115Y0018571D01*
X0198160Y0018419D01*
X0198201Y0018266D01*
X0198239Y0018113D01*
X0198272Y0017958D01*
X0198302Y0017802D01*
X0198328Y0017646D01*
X0198349Y0017489D01*
X0198367Y0017332D01*
X0198381Y0017174D01*
X0198391Y0017016D01*
X0198397Y0016858D01*
X0198399Y0016700D01*
X0198397Y0016542D01*
X0198391Y0016384D01*
X0198381Y0016226D01*
X0198367Y0016068D01*
X0198349Y0015911D01*
X0198328Y0015754D01*
X0198302Y0015598D01*
X0198272Y0015442D01*
X0198239Y0015287D01*
X0198201Y0015134D01*
X0198160Y0014981D01*
X0198115Y0014829D01*
X0198066Y0014678D01*
X0198013Y0014529D01*
X0197957Y0014381D01*
X0197897Y0014235D01*
X0197833Y0014090D01*
X0197765Y0013947D01*
X0197694Y0013805D01*
X0197620Y0013665D01*
X0197542Y0013528D01*
X0197460Y0013392D01*
X0197376Y0013258D01*
X0197287Y0013127D01*
X0197196Y0012998D01*
X0197101Y0012871D01*
X0197004Y0012746D01*
X0196903Y0012624D01*
X0196799Y0012505D01*
X0196692Y0012388D01*
X0196582Y0012274D01*
X0196469Y0012163D01*
X0196354Y0012054D01*
X0196236Y0011949D01*
X0196115Y0011847D01*
X0195992Y0011747D01*
X0195866Y0011651D01*
X0195738Y0011558D01*
X0195608Y0011468D01*
X0195475Y0011382D01*
X0195340Y0011298D01*
X0195204Y0011219D01*
X0195065Y0011142D01*
X0194924Y0011070D01*
X0194782Y0011000D01*
X0194638Y0010935D01*
X0194492Y0010873D01*
X0194345Y0010815D01*
X0194196Y0010760D01*
X0194046Y0010709D01*
X0193895Y0010662D01*
X0193743Y0010619D01*
X0193590Y0010580D01*
X0193435Y0010544D01*
X0193280Y0010513D01*
X0193124Y0010485D01*
X0192968Y0010461D01*
X0192811Y0010441D01*
X0192653Y0010425D01*
X0192496Y0010413D01*
X0192337Y0010405D01*
X0192179Y0010401D01*
X0192021Y0010401D01*
X0191863Y0010405D01*
X0191704Y0010413D01*
X0191547Y0010425D01*
X0191389Y0010441D01*
X0191232Y0010461D01*
X0191076Y0010485D01*
X0190920Y0010513D01*
X0190765Y0010544D01*
X0190610Y0010580D01*
X0190457Y0010619D01*
X0190305Y0010662D01*
X0190154Y0010709D01*
X0190004Y0010760D01*
X0189855Y0010815D01*
X0189708Y0010873D01*
X0189562Y0010935D01*
X0189418Y0011000D01*
X0189276Y0011070D01*
X0189135Y0011142D01*
X0188996Y0011219D01*
X0188860Y0011298D01*
X0188725Y0011382D01*
X0188592Y0011468D01*
X0188462Y0011558D01*
X0188334Y0011651D01*
X0188208Y0011747D01*
X0188085Y0011847D01*
X0187964Y0011949D01*
X0187846Y0012054D01*
X0187731Y0012163D01*
X0187618Y0012274D01*
X0187508Y0012388D01*
X0187401Y0012505D01*
X0187297Y0012624D01*
X0187196Y0012746D01*
X0187099Y0012871D01*
X0187004Y0012998D01*
X0186913Y0013127D01*
X0186824Y0013258D01*
X0186740Y0013392D01*
X0186658Y0013528D01*
X0186580Y0013665D01*
X0186506Y0013805D01*
X0186435Y0013947D01*
X0186367Y0014090D01*
X0186303Y0014235D01*
X0186243Y0014381D01*
X0186187Y0014529D01*
X0186134Y0014678D01*
X0186085Y0014829D01*
X0186040Y0014981D01*
X0185999Y0015134D01*
X0185961Y0015287D01*
X0185928Y0015442D01*
X0185898Y0015598D01*
X0185872Y0015754D01*
X0185851Y0015911D01*
X0185833Y0016068D01*
X0185819Y0016226D01*
X0185809Y0016384D01*
X0185803Y0016542D01*
X0185801Y0016700D01*
X0010801Y0016700D02*
X0010803Y0016858D01*
X0010809Y0017016D01*
X0010819Y0017174D01*
X0010833Y0017332D01*
X0010851Y0017489D01*
X0010872Y0017646D01*
X0010898Y0017802D01*
X0010928Y0017958D01*
X0010961Y0018113D01*
X0010999Y0018266D01*
X0011040Y0018419D01*
X0011085Y0018571D01*
X0011134Y0018722D01*
X0011187Y0018871D01*
X0011243Y0019019D01*
X0011303Y0019165D01*
X0011367Y0019310D01*
X0011435Y0019453D01*
X0011506Y0019595D01*
X0011580Y0019735D01*
X0011658Y0019872D01*
X0011740Y0020008D01*
X0011824Y0020142D01*
X0011913Y0020273D01*
X0012004Y0020402D01*
X0012099Y0020529D01*
X0012196Y0020654D01*
X0012297Y0020776D01*
X0012401Y0020895D01*
X0012508Y0021012D01*
X0012618Y0021126D01*
X0012731Y0021237D01*
X0012846Y0021346D01*
X0012964Y0021451D01*
X0013085Y0021553D01*
X0013208Y0021653D01*
X0013334Y0021749D01*
X0013462Y0021842D01*
X0013592Y0021932D01*
X0013725Y0022018D01*
X0013860Y0022102D01*
X0013996Y0022181D01*
X0014135Y0022258D01*
X0014276Y0022330D01*
X0014418Y0022400D01*
X0014562Y0022465D01*
X0014708Y0022527D01*
X0014855Y0022585D01*
X0015004Y0022640D01*
X0015154Y0022691D01*
X0015305Y0022738D01*
X0015457Y0022781D01*
X0015610Y0022820D01*
X0015765Y0022856D01*
X0015920Y0022887D01*
X0016076Y0022915D01*
X0016232Y0022939D01*
X0016389Y0022959D01*
X0016547Y0022975D01*
X0016704Y0022987D01*
X0016863Y0022995D01*
X0017021Y0022999D01*
X0017179Y0022999D01*
X0017337Y0022995D01*
X0017496Y0022987D01*
X0017653Y0022975D01*
X0017811Y0022959D01*
X0017968Y0022939D01*
X0018124Y0022915D01*
X0018280Y0022887D01*
X0018435Y0022856D01*
X0018590Y0022820D01*
X0018743Y0022781D01*
X0018895Y0022738D01*
X0019046Y0022691D01*
X0019196Y0022640D01*
X0019345Y0022585D01*
X0019492Y0022527D01*
X0019638Y0022465D01*
X0019782Y0022400D01*
X0019924Y0022330D01*
X0020065Y0022258D01*
X0020204Y0022181D01*
X0020340Y0022102D01*
X0020475Y0022018D01*
X0020608Y0021932D01*
X0020738Y0021842D01*
X0020866Y0021749D01*
X0020992Y0021653D01*
X0021115Y0021553D01*
X0021236Y0021451D01*
X0021354Y0021346D01*
X0021469Y0021237D01*
X0021582Y0021126D01*
X0021692Y0021012D01*
X0021799Y0020895D01*
X0021903Y0020776D01*
X0022004Y0020654D01*
X0022101Y0020529D01*
X0022196Y0020402D01*
X0022287Y0020273D01*
X0022376Y0020142D01*
X0022460Y0020008D01*
X0022542Y0019872D01*
X0022620Y0019735D01*
X0022694Y0019595D01*
X0022765Y0019453D01*
X0022833Y0019310D01*
X0022897Y0019165D01*
X0022957Y0019019D01*
X0023013Y0018871D01*
X0023066Y0018722D01*
X0023115Y0018571D01*
X0023160Y0018419D01*
X0023201Y0018266D01*
X0023239Y0018113D01*
X0023272Y0017958D01*
X0023302Y0017802D01*
X0023328Y0017646D01*
X0023349Y0017489D01*
X0023367Y0017332D01*
X0023381Y0017174D01*
X0023391Y0017016D01*
X0023397Y0016858D01*
X0023399Y0016700D01*
X0023397Y0016542D01*
X0023391Y0016384D01*
X0023381Y0016226D01*
X0023367Y0016068D01*
X0023349Y0015911D01*
X0023328Y0015754D01*
X0023302Y0015598D01*
X0023272Y0015442D01*
X0023239Y0015287D01*
X0023201Y0015134D01*
X0023160Y0014981D01*
X0023115Y0014829D01*
X0023066Y0014678D01*
X0023013Y0014529D01*
X0022957Y0014381D01*
X0022897Y0014235D01*
X0022833Y0014090D01*
X0022765Y0013947D01*
X0022694Y0013805D01*
X0022620Y0013665D01*
X0022542Y0013528D01*
X0022460Y0013392D01*
X0022376Y0013258D01*
X0022287Y0013127D01*
X0022196Y0012998D01*
X0022101Y0012871D01*
X0022004Y0012746D01*
X0021903Y0012624D01*
X0021799Y0012505D01*
X0021692Y0012388D01*
X0021582Y0012274D01*
X0021469Y0012163D01*
X0021354Y0012054D01*
X0021236Y0011949D01*
X0021115Y0011847D01*
X0020992Y0011747D01*
X0020866Y0011651D01*
X0020738Y0011558D01*
X0020608Y0011468D01*
X0020475Y0011382D01*
X0020340Y0011298D01*
X0020204Y0011219D01*
X0020065Y0011142D01*
X0019924Y0011070D01*
X0019782Y0011000D01*
X0019638Y0010935D01*
X0019492Y0010873D01*
X0019345Y0010815D01*
X0019196Y0010760D01*
X0019046Y0010709D01*
X0018895Y0010662D01*
X0018743Y0010619D01*
X0018590Y0010580D01*
X0018435Y0010544D01*
X0018280Y0010513D01*
X0018124Y0010485D01*
X0017968Y0010461D01*
X0017811Y0010441D01*
X0017653Y0010425D01*
X0017496Y0010413D01*
X0017337Y0010405D01*
X0017179Y0010401D01*
X0017021Y0010401D01*
X0016863Y0010405D01*
X0016704Y0010413D01*
X0016547Y0010425D01*
X0016389Y0010441D01*
X0016232Y0010461D01*
X0016076Y0010485D01*
X0015920Y0010513D01*
X0015765Y0010544D01*
X0015610Y0010580D01*
X0015457Y0010619D01*
X0015305Y0010662D01*
X0015154Y0010709D01*
X0015004Y0010760D01*
X0014855Y0010815D01*
X0014708Y0010873D01*
X0014562Y0010935D01*
X0014418Y0011000D01*
X0014276Y0011070D01*
X0014135Y0011142D01*
X0013996Y0011219D01*
X0013860Y0011298D01*
X0013725Y0011382D01*
X0013592Y0011468D01*
X0013462Y0011558D01*
X0013334Y0011651D01*
X0013208Y0011747D01*
X0013085Y0011847D01*
X0012964Y0011949D01*
X0012846Y0012054D01*
X0012731Y0012163D01*
X0012618Y0012274D01*
X0012508Y0012388D01*
X0012401Y0012505D01*
X0012297Y0012624D01*
X0012196Y0012746D01*
X0012099Y0012871D01*
X0012004Y0012998D01*
X0011913Y0013127D01*
X0011824Y0013258D01*
X0011740Y0013392D01*
X0011658Y0013528D01*
X0011580Y0013665D01*
X0011506Y0013805D01*
X0011435Y0013947D01*
X0011367Y0014090D01*
X0011303Y0014235D01*
X0011243Y0014381D01*
X0011187Y0014529D01*
X0011134Y0014678D01*
X0011085Y0014829D01*
X0011040Y0014981D01*
X0010999Y0015134D01*
X0010961Y0015287D01*
X0010928Y0015442D01*
X0010898Y0015598D01*
X0010872Y0015754D01*
X0010851Y0015911D01*
X0010833Y0016068D01*
X0010819Y0016226D01*
X0010809Y0016384D01*
X0010803Y0016542D01*
X0010801Y0016700D01*
X0010801Y0191700D02*
X0010803Y0191858D01*
X0010809Y0192016D01*
X0010819Y0192174D01*
X0010833Y0192332D01*
X0010851Y0192489D01*
X0010872Y0192646D01*
X0010898Y0192802D01*
X0010928Y0192958D01*
X0010961Y0193113D01*
X0010999Y0193266D01*
X0011040Y0193419D01*
X0011085Y0193571D01*
X0011134Y0193722D01*
X0011187Y0193871D01*
X0011243Y0194019D01*
X0011303Y0194165D01*
X0011367Y0194310D01*
X0011435Y0194453D01*
X0011506Y0194595D01*
X0011580Y0194735D01*
X0011658Y0194872D01*
X0011740Y0195008D01*
X0011824Y0195142D01*
X0011913Y0195273D01*
X0012004Y0195402D01*
X0012099Y0195529D01*
X0012196Y0195654D01*
X0012297Y0195776D01*
X0012401Y0195895D01*
X0012508Y0196012D01*
X0012618Y0196126D01*
X0012731Y0196237D01*
X0012846Y0196346D01*
X0012964Y0196451D01*
X0013085Y0196553D01*
X0013208Y0196653D01*
X0013334Y0196749D01*
X0013462Y0196842D01*
X0013592Y0196932D01*
X0013725Y0197018D01*
X0013860Y0197102D01*
X0013996Y0197181D01*
X0014135Y0197258D01*
X0014276Y0197330D01*
X0014418Y0197400D01*
X0014562Y0197465D01*
X0014708Y0197527D01*
X0014855Y0197585D01*
X0015004Y0197640D01*
X0015154Y0197691D01*
X0015305Y0197738D01*
X0015457Y0197781D01*
X0015610Y0197820D01*
X0015765Y0197856D01*
X0015920Y0197887D01*
X0016076Y0197915D01*
X0016232Y0197939D01*
X0016389Y0197959D01*
X0016547Y0197975D01*
X0016704Y0197987D01*
X0016863Y0197995D01*
X0017021Y0197999D01*
X0017179Y0197999D01*
X0017337Y0197995D01*
X0017496Y0197987D01*
X0017653Y0197975D01*
X0017811Y0197959D01*
X0017968Y0197939D01*
X0018124Y0197915D01*
X0018280Y0197887D01*
X0018435Y0197856D01*
X0018590Y0197820D01*
X0018743Y0197781D01*
X0018895Y0197738D01*
X0019046Y0197691D01*
X0019196Y0197640D01*
X0019345Y0197585D01*
X0019492Y0197527D01*
X0019638Y0197465D01*
X0019782Y0197400D01*
X0019924Y0197330D01*
X0020065Y0197258D01*
X0020204Y0197181D01*
X0020340Y0197102D01*
X0020475Y0197018D01*
X0020608Y0196932D01*
X0020738Y0196842D01*
X0020866Y0196749D01*
X0020992Y0196653D01*
X0021115Y0196553D01*
X0021236Y0196451D01*
X0021354Y0196346D01*
X0021469Y0196237D01*
X0021582Y0196126D01*
X0021692Y0196012D01*
X0021799Y0195895D01*
X0021903Y0195776D01*
X0022004Y0195654D01*
X0022101Y0195529D01*
X0022196Y0195402D01*
X0022287Y0195273D01*
X0022376Y0195142D01*
X0022460Y0195008D01*
X0022542Y0194872D01*
X0022620Y0194735D01*
X0022694Y0194595D01*
X0022765Y0194453D01*
X0022833Y0194310D01*
X0022897Y0194165D01*
X0022957Y0194019D01*
X0023013Y0193871D01*
X0023066Y0193722D01*
X0023115Y0193571D01*
X0023160Y0193419D01*
X0023201Y0193266D01*
X0023239Y0193113D01*
X0023272Y0192958D01*
X0023302Y0192802D01*
X0023328Y0192646D01*
X0023349Y0192489D01*
X0023367Y0192332D01*
X0023381Y0192174D01*
X0023391Y0192016D01*
X0023397Y0191858D01*
X0023399Y0191700D01*
X0023397Y0191542D01*
X0023391Y0191384D01*
X0023381Y0191226D01*
X0023367Y0191068D01*
X0023349Y0190911D01*
X0023328Y0190754D01*
X0023302Y0190598D01*
X0023272Y0190442D01*
X0023239Y0190287D01*
X0023201Y0190134D01*
X0023160Y0189981D01*
X0023115Y0189829D01*
X0023066Y0189678D01*
X0023013Y0189529D01*
X0022957Y0189381D01*
X0022897Y0189235D01*
X0022833Y0189090D01*
X0022765Y0188947D01*
X0022694Y0188805D01*
X0022620Y0188665D01*
X0022542Y0188528D01*
X0022460Y0188392D01*
X0022376Y0188258D01*
X0022287Y0188127D01*
X0022196Y0187998D01*
X0022101Y0187871D01*
X0022004Y0187746D01*
X0021903Y0187624D01*
X0021799Y0187505D01*
X0021692Y0187388D01*
X0021582Y0187274D01*
X0021469Y0187163D01*
X0021354Y0187054D01*
X0021236Y0186949D01*
X0021115Y0186847D01*
X0020992Y0186747D01*
X0020866Y0186651D01*
X0020738Y0186558D01*
X0020608Y0186468D01*
X0020475Y0186382D01*
X0020340Y0186298D01*
X0020204Y0186219D01*
X0020065Y0186142D01*
X0019924Y0186070D01*
X0019782Y0186000D01*
X0019638Y0185935D01*
X0019492Y0185873D01*
X0019345Y0185815D01*
X0019196Y0185760D01*
X0019046Y0185709D01*
X0018895Y0185662D01*
X0018743Y0185619D01*
X0018590Y0185580D01*
X0018435Y0185544D01*
X0018280Y0185513D01*
X0018124Y0185485D01*
X0017968Y0185461D01*
X0017811Y0185441D01*
X0017653Y0185425D01*
X0017496Y0185413D01*
X0017337Y0185405D01*
X0017179Y0185401D01*
X0017021Y0185401D01*
X0016863Y0185405D01*
X0016704Y0185413D01*
X0016547Y0185425D01*
X0016389Y0185441D01*
X0016232Y0185461D01*
X0016076Y0185485D01*
X0015920Y0185513D01*
X0015765Y0185544D01*
X0015610Y0185580D01*
X0015457Y0185619D01*
X0015305Y0185662D01*
X0015154Y0185709D01*
X0015004Y0185760D01*
X0014855Y0185815D01*
X0014708Y0185873D01*
X0014562Y0185935D01*
X0014418Y0186000D01*
X0014276Y0186070D01*
X0014135Y0186142D01*
X0013996Y0186219D01*
X0013860Y0186298D01*
X0013725Y0186382D01*
X0013592Y0186468D01*
X0013462Y0186558D01*
X0013334Y0186651D01*
X0013208Y0186747D01*
X0013085Y0186847D01*
X0012964Y0186949D01*
X0012846Y0187054D01*
X0012731Y0187163D01*
X0012618Y0187274D01*
X0012508Y0187388D01*
X0012401Y0187505D01*
X0012297Y0187624D01*
X0012196Y0187746D01*
X0012099Y0187871D01*
X0012004Y0187998D01*
X0011913Y0188127D01*
X0011824Y0188258D01*
X0011740Y0188392D01*
X0011658Y0188528D01*
X0011580Y0188665D01*
X0011506Y0188805D01*
X0011435Y0188947D01*
X0011367Y0189090D01*
X0011303Y0189235D01*
X0011243Y0189381D01*
X0011187Y0189529D01*
X0011134Y0189678D01*
X0011085Y0189829D01*
X0011040Y0189981D01*
X0010999Y0190134D01*
X0010961Y0190287D01*
X0010928Y0190442D01*
X0010898Y0190598D01*
X0010872Y0190754D01*
X0010851Y0190911D01*
X0010833Y0191068D01*
X0010819Y0191226D01*
X0010809Y0191384D01*
X0010803Y0191542D01*
X0010801Y0191700D01*
X0183301Y0191700D02*
X0183303Y0191858D01*
X0183309Y0192016D01*
X0183319Y0192174D01*
X0183333Y0192332D01*
X0183351Y0192489D01*
X0183372Y0192646D01*
X0183398Y0192802D01*
X0183428Y0192958D01*
X0183461Y0193113D01*
X0183499Y0193266D01*
X0183540Y0193419D01*
X0183585Y0193571D01*
X0183634Y0193722D01*
X0183687Y0193871D01*
X0183743Y0194019D01*
X0183803Y0194165D01*
X0183867Y0194310D01*
X0183935Y0194453D01*
X0184006Y0194595D01*
X0184080Y0194735D01*
X0184158Y0194872D01*
X0184240Y0195008D01*
X0184324Y0195142D01*
X0184413Y0195273D01*
X0184504Y0195402D01*
X0184599Y0195529D01*
X0184696Y0195654D01*
X0184797Y0195776D01*
X0184901Y0195895D01*
X0185008Y0196012D01*
X0185118Y0196126D01*
X0185231Y0196237D01*
X0185346Y0196346D01*
X0185464Y0196451D01*
X0185585Y0196553D01*
X0185708Y0196653D01*
X0185834Y0196749D01*
X0185962Y0196842D01*
X0186092Y0196932D01*
X0186225Y0197018D01*
X0186360Y0197102D01*
X0186496Y0197181D01*
X0186635Y0197258D01*
X0186776Y0197330D01*
X0186918Y0197400D01*
X0187062Y0197465D01*
X0187208Y0197527D01*
X0187355Y0197585D01*
X0187504Y0197640D01*
X0187654Y0197691D01*
X0187805Y0197738D01*
X0187957Y0197781D01*
X0188110Y0197820D01*
X0188265Y0197856D01*
X0188420Y0197887D01*
X0188576Y0197915D01*
X0188732Y0197939D01*
X0188889Y0197959D01*
X0189047Y0197975D01*
X0189204Y0197987D01*
X0189363Y0197995D01*
X0189521Y0197999D01*
X0189679Y0197999D01*
X0189837Y0197995D01*
X0189996Y0197987D01*
X0190153Y0197975D01*
X0190311Y0197959D01*
X0190468Y0197939D01*
X0190624Y0197915D01*
X0190780Y0197887D01*
X0190935Y0197856D01*
X0191090Y0197820D01*
X0191243Y0197781D01*
X0191395Y0197738D01*
X0191546Y0197691D01*
X0191696Y0197640D01*
X0191845Y0197585D01*
X0191992Y0197527D01*
X0192138Y0197465D01*
X0192282Y0197400D01*
X0192424Y0197330D01*
X0192565Y0197258D01*
X0192704Y0197181D01*
X0192840Y0197102D01*
X0192975Y0197018D01*
X0193108Y0196932D01*
X0193238Y0196842D01*
X0193366Y0196749D01*
X0193492Y0196653D01*
X0193615Y0196553D01*
X0193736Y0196451D01*
X0193854Y0196346D01*
X0193969Y0196237D01*
X0194082Y0196126D01*
X0194192Y0196012D01*
X0194299Y0195895D01*
X0194403Y0195776D01*
X0194504Y0195654D01*
X0194601Y0195529D01*
X0194696Y0195402D01*
X0194787Y0195273D01*
X0194876Y0195142D01*
X0194960Y0195008D01*
X0195042Y0194872D01*
X0195120Y0194735D01*
X0195194Y0194595D01*
X0195265Y0194453D01*
X0195333Y0194310D01*
X0195397Y0194165D01*
X0195457Y0194019D01*
X0195513Y0193871D01*
X0195566Y0193722D01*
X0195615Y0193571D01*
X0195660Y0193419D01*
X0195701Y0193266D01*
X0195739Y0193113D01*
X0195772Y0192958D01*
X0195802Y0192802D01*
X0195828Y0192646D01*
X0195849Y0192489D01*
X0195867Y0192332D01*
X0195881Y0192174D01*
X0195891Y0192016D01*
X0195897Y0191858D01*
X0195899Y0191700D01*
X0195897Y0191542D01*
X0195891Y0191384D01*
X0195881Y0191226D01*
X0195867Y0191068D01*
X0195849Y0190911D01*
X0195828Y0190754D01*
X0195802Y0190598D01*
X0195772Y0190442D01*
X0195739Y0190287D01*
X0195701Y0190134D01*
X0195660Y0189981D01*
X0195615Y0189829D01*
X0195566Y0189678D01*
X0195513Y0189529D01*
X0195457Y0189381D01*
X0195397Y0189235D01*
X0195333Y0189090D01*
X0195265Y0188947D01*
X0195194Y0188805D01*
X0195120Y0188665D01*
X0195042Y0188528D01*
X0194960Y0188392D01*
X0194876Y0188258D01*
X0194787Y0188127D01*
X0194696Y0187998D01*
X0194601Y0187871D01*
X0194504Y0187746D01*
X0194403Y0187624D01*
X0194299Y0187505D01*
X0194192Y0187388D01*
X0194082Y0187274D01*
X0193969Y0187163D01*
X0193854Y0187054D01*
X0193736Y0186949D01*
X0193615Y0186847D01*
X0193492Y0186747D01*
X0193366Y0186651D01*
X0193238Y0186558D01*
X0193108Y0186468D01*
X0192975Y0186382D01*
X0192840Y0186298D01*
X0192704Y0186219D01*
X0192565Y0186142D01*
X0192424Y0186070D01*
X0192282Y0186000D01*
X0192138Y0185935D01*
X0191992Y0185873D01*
X0191845Y0185815D01*
X0191696Y0185760D01*
X0191546Y0185709D01*
X0191395Y0185662D01*
X0191243Y0185619D01*
X0191090Y0185580D01*
X0190935Y0185544D01*
X0190780Y0185513D01*
X0190624Y0185485D01*
X0190468Y0185461D01*
X0190311Y0185441D01*
X0190153Y0185425D01*
X0189996Y0185413D01*
X0189837Y0185405D01*
X0189679Y0185401D01*
X0189521Y0185401D01*
X0189363Y0185405D01*
X0189204Y0185413D01*
X0189047Y0185425D01*
X0188889Y0185441D01*
X0188732Y0185461D01*
X0188576Y0185485D01*
X0188420Y0185513D01*
X0188265Y0185544D01*
X0188110Y0185580D01*
X0187957Y0185619D01*
X0187805Y0185662D01*
X0187654Y0185709D01*
X0187504Y0185760D01*
X0187355Y0185815D01*
X0187208Y0185873D01*
X0187062Y0185935D01*
X0186918Y0186000D01*
X0186776Y0186070D01*
X0186635Y0186142D01*
X0186496Y0186219D01*
X0186360Y0186298D01*
X0186225Y0186382D01*
X0186092Y0186468D01*
X0185962Y0186558D01*
X0185834Y0186651D01*
X0185708Y0186747D01*
X0185585Y0186847D01*
X0185464Y0186949D01*
X0185346Y0187054D01*
X0185231Y0187163D01*
X0185118Y0187274D01*
X0185008Y0187388D01*
X0184901Y0187505D01*
X0184797Y0187624D01*
X0184696Y0187746D01*
X0184599Y0187871D01*
X0184504Y0187998D01*
X0184413Y0188127D01*
X0184324Y0188258D01*
X0184240Y0188392D01*
X0184158Y0188528D01*
X0184080Y0188665D01*
X0184006Y0188805D01*
X0183935Y0188947D01*
X0183867Y0189090D01*
X0183803Y0189235D01*
X0183743Y0189381D01*
X0183687Y0189529D01*
X0183634Y0189678D01*
X0183585Y0189829D01*
X0183540Y0189981D01*
X0183499Y0190134D01*
X0183461Y0190287D01*
X0183428Y0190442D01*
X0183398Y0190598D01*
X0183372Y0190754D01*
X0183351Y0190911D01*
X0183333Y0191068D01*
X0183319Y0191226D01*
X0183309Y0191384D01*
X0183303Y0191542D01*
X0183301Y0191700D01*
D11*
X0007100Y0201700D02*
X0007100Y0006700D01*
X0202100Y0006700D01*
X0202100Y0201700D01*
X0007100Y0201700D01*
X0021183Y0199100D02*
X0051940Y0199100D01*
X0052750Y0198200D01*
X0052600Y0198200D01*
X0052600Y0192200D01*
X0058150Y0192200D01*
X0072100Y0176700D01*
X0072100Y0161700D01*
X0070945Y0160634D01*
X0070215Y0161363D01*
X0068595Y0162034D01*
X0068981Y0162159D01*
X0069668Y0162509D01*
X0070292Y0162962D01*
X0070838Y0163508D01*
X0071291Y0164132D01*
X0071641Y0164819D01*
X0071879Y0165553D01*
X0071982Y0166200D01*
X0067600Y0166200D01*
X0067600Y0167200D01*
X0071982Y0167200D01*
X0071879Y0167847D01*
X0071641Y0168581D01*
X0071291Y0169268D01*
X0070838Y0169892D01*
X0070292Y0170438D01*
X0069668Y0170891D01*
X0068981Y0171241D01*
X0068247Y0171479D01*
X0067600Y0171582D01*
X0067600Y0167200D01*
X0066600Y0167200D01*
X0066600Y0171582D01*
X0065953Y0171479D01*
X0065219Y0171241D01*
X0064532Y0170891D01*
X0063908Y0170438D01*
X0063362Y0169892D01*
X0062909Y0169268D01*
X0062559Y0168581D01*
X0062321Y0167847D01*
X0062218Y0167200D01*
X0066600Y0167200D01*
X0066600Y0166200D01*
X0062218Y0166200D01*
X0062321Y0165553D01*
X0062559Y0164819D01*
X0062909Y0164132D01*
X0063362Y0163508D01*
X0063908Y0162962D01*
X0064532Y0162509D01*
X0065219Y0162159D01*
X0065605Y0162034D01*
X0063984Y0161363D01*
X0062437Y0159815D01*
X0061600Y0157794D01*
X0061600Y0155606D01*
X0062437Y0153584D01*
X0062500Y0153522D01*
X0062500Y0152838D01*
X0042417Y0134300D01*
X0032059Y0134300D01*
X0032600Y0135606D01*
X0032600Y0137794D01*
X0031763Y0139815D01*
X0031700Y0139878D01*
X0031700Y0143522D01*
X0031763Y0143584D01*
X0032600Y0145606D01*
X0032600Y0147794D01*
X0031763Y0149815D01*
X0030215Y0151363D01*
X0029401Y0151700D01*
X0030215Y0152037D01*
X0031763Y0153584D01*
X0032600Y0155606D01*
X0032600Y0157794D01*
X0031763Y0159815D01*
X0031700Y0159878D01*
X0031700Y0163522D01*
X0031763Y0163584D01*
X0032600Y0165606D01*
X0032600Y0167794D01*
X0031763Y0169815D01*
X0030215Y0171363D01*
X0028194Y0172200D01*
X0026006Y0172200D01*
X0023984Y0171363D01*
X0022437Y0169815D01*
X0021600Y0167794D01*
X0021600Y0165606D01*
X0022437Y0163584D01*
X0022500Y0163522D01*
X0022500Y0159878D01*
X0022437Y0159815D01*
X0021600Y0157794D01*
X0021600Y0155606D01*
X0022437Y0153584D01*
X0023984Y0152037D01*
X0024799Y0151700D01*
X0023984Y0151363D01*
X0022437Y0149815D01*
X0021600Y0147794D01*
X0021600Y0145606D01*
X0022437Y0143584D01*
X0022500Y0143522D01*
X0022500Y0139878D01*
X0022437Y0139815D01*
X0021600Y0137794D01*
X0021600Y0135606D01*
X0022141Y0134300D01*
X0017200Y0134300D01*
X0017200Y0136499D01*
X0017885Y0136783D01*
X0019517Y0138415D01*
X0020400Y0140546D01*
X0020400Y0142854D01*
X0019517Y0144985D01*
X0017885Y0146617D01*
X0016888Y0147030D01*
X0017325Y0147253D01*
X0017988Y0147734D01*
X0018566Y0148312D01*
X0019047Y0148975D01*
X0019419Y0149704D01*
X0019672Y0150482D01*
X0019786Y0151200D01*
X0015100Y0151200D01*
X0015100Y0152200D01*
X0019786Y0152200D01*
X0019672Y0152918D01*
X0019419Y0153696D01*
X0019047Y0154425D01*
X0018566Y0155088D01*
X0017988Y0155666D01*
X0017325Y0156147D01*
X0016888Y0156370D01*
X0017885Y0156783D01*
X0019517Y0158415D01*
X0020400Y0160546D01*
X0020400Y0162854D01*
X0019517Y0164985D01*
X0017885Y0166617D01*
X0015754Y0167500D01*
X0013446Y0167500D01*
X0012200Y0166984D01*
X0012200Y0168123D01*
X0028918Y0184841D01*
X0029159Y0184600D01*
X0035041Y0184600D01*
X0039200Y0188759D01*
X0039200Y0194641D01*
X0035041Y0198800D01*
X0029159Y0198800D01*
X0025000Y0194641D01*
X0025000Y0194576D01*
X0024220Y0196458D01*
X0021858Y0198820D01*
X0021183Y0199100D01*
X0022264Y0198414D02*
X0028773Y0198414D01*
X0027775Y0197416D02*
X0023263Y0197416D01*
X0024237Y0196417D02*
X0026776Y0196417D01*
X0025778Y0195419D02*
X0024651Y0195419D01*
X0032100Y0191700D02*
X0009600Y0169200D01*
X0009600Y0081700D01*
X0012100Y0079200D01*
X0012100Y0076700D01*
X0014574Y0080590D02*
X0019900Y0080590D01*
X0019900Y0081588D02*
X0012823Y0081588D01*
X0013211Y0081200D02*
X0011800Y0082611D01*
X0011800Y0085919D01*
X0012819Y0084900D01*
X0014300Y0084900D01*
X0014300Y0088900D01*
X0014900Y0088900D01*
X0014900Y0089500D01*
X0014300Y0089500D01*
X0014300Y0093500D01*
X0012819Y0093500D01*
X0011800Y0092481D01*
X0011800Y0102500D01*
X0014183Y0104700D01*
X0016464Y0104700D01*
X0019100Y0107336D01*
X0019100Y0109239D01*
X0024436Y0114164D01*
X0024876Y0114346D01*
X0026254Y0115724D01*
X0026333Y0115915D01*
X0027443Y0116939D01*
X0027946Y0115724D01*
X0029324Y0114346D01*
X0031125Y0113600D01*
X0033075Y0113600D01*
X0034876Y0114346D01*
X0036254Y0115724D01*
X0037000Y0117525D01*
X0037000Y0125762D01*
X0037248Y0125991D01*
X0037200Y0125875D01*
X0037200Y0117525D01*
X0037946Y0115724D01*
X0039324Y0114346D01*
X0041125Y0113600D01*
X0042636Y0113600D01*
X0042600Y0113564D01*
X0042600Y0104311D01*
X0041600Y0105311D01*
X0041600Y0110395D01*
X0040915Y0112049D01*
X0039649Y0113315D01*
X0037995Y0114000D01*
X0036205Y0114000D01*
X0034551Y0113315D01*
X0033285Y0112049D01*
X0032600Y0110395D01*
X0032600Y0103005D01*
X0033285Y0101351D01*
X0034551Y0100085D01*
X0036205Y0099400D01*
X0037995Y0099400D01*
X0039649Y0100085D01*
X0040126Y0100562D01*
X0051189Y0089500D01*
X0073689Y0089500D01*
X0077400Y0085789D01*
X0079900Y0083289D01*
X0079900Y0083064D01*
X0079649Y0083315D01*
X0077995Y0084000D01*
X0076205Y0084000D01*
X0074551Y0083315D01*
X0074074Y0082838D01*
X0068011Y0088900D01*
X0048011Y0088900D01*
X0044300Y0092611D01*
X0044300Y0092611D01*
X0043011Y0093900D01*
X0038011Y0093900D01*
X0031600Y0100311D01*
X0031600Y0101064D01*
X0028964Y0103700D01*
X0025236Y0103700D01*
X0022600Y0101064D01*
X0022600Y0097336D01*
X0024900Y0095036D01*
X0024900Y0092611D01*
X0019900Y0087611D01*
X0019900Y0077611D01*
X0009900Y0067611D01*
X0009900Y0060864D01*
X0009300Y0060264D01*
X0009300Y0073136D01*
X0010236Y0072200D01*
X0013964Y0072200D01*
X0016600Y0074836D01*
X0016600Y0078564D01*
X0013964Y0081200D01*
X0013211Y0081200D01*
X0011824Y0082587D02*
X0019900Y0082587D01*
X0019900Y0083585D02*
X0011800Y0083585D01*
X0011800Y0084584D02*
X0019900Y0084584D01*
X0019900Y0085582D02*
X0017063Y0085582D01*
X0016381Y0084900D02*
X0018900Y0087419D01*
X0018900Y0088900D01*
X0014900Y0088900D01*
X0014900Y0084900D01*
X0016381Y0084900D01*
X0014900Y0085582D02*
X0014300Y0085582D01*
X0014300Y0086581D02*
X0014900Y0086581D01*
X0014900Y0087579D02*
X0014300Y0087579D01*
X0014300Y0088578D02*
X0014900Y0088578D01*
X0014900Y0089500D02*
X0018900Y0089500D01*
X0018900Y0090981D01*
X0016381Y0093500D01*
X0014900Y0093500D01*
X0014900Y0089500D01*
X0014900Y0089576D02*
X0014300Y0089576D01*
X0014300Y0090575D02*
X0014900Y0090575D01*
X0014900Y0091573D02*
X0014300Y0091573D01*
X0014300Y0092572D02*
X0014900Y0092572D01*
X0017309Y0092572D02*
X0024861Y0092572D01*
X0024900Y0093570D02*
X0011800Y0093570D01*
X0011800Y0092572D02*
X0011891Y0092572D01*
X0011800Y0094569D02*
X0024900Y0094569D01*
X0024369Y0095568D02*
X0011800Y0095568D01*
X0011800Y0096566D02*
X0023370Y0096566D01*
X0022600Y0097565D02*
X0011800Y0097565D01*
X0011800Y0098563D02*
X0022600Y0098563D01*
X0022600Y0099562D02*
X0011800Y0099562D01*
X0011800Y0100560D02*
X0022600Y0100560D01*
X0023095Y0101559D02*
X0011800Y0101559D01*
X0011862Y0102557D02*
X0024093Y0102557D01*
X0025092Y0103556D02*
X0012943Y0103556D01*
X0014025Y0104554D02*
X0032600Y0104554D01*
X0032600Y0103556D02*
X0029108Y0103556D01*
X0030107Y0102557D02*
X0032785Y0102557D01*
X0033199Y0101559D02*
X0031105Y0101559D01*
X0031600Y0100560D02*
X0034076Y0100560D01*
X0032350Y0099562D02*
X0035815Y0099562D01*
X0034347Y0097565D02*
X0043124Y0097565D01*
X0042126Y0098563D02*
X0033348Y0098563D01*
X0035345Y0096566D02*
X0044123Y0096566D01*
X0045121Y0095568D02*
X0036344Y0095568D01*
X0037342Y0094569D02*
X0046120Y0094569D01*
X0047118Y0093570D02*
X0043341Y0093570D01*
X0044339Y0092572D02*
X0048117Y0092572D01*
X0049115Y0091573D02*
X0045338Y0091573D01*
X0046336Y0090575D02*
X0050114Y0090575D01*
X0051112Y0089576D02*
X0047335Y0089576D01*
X0047100Y0086700D02*
X0067100Y0086700D01*
X0077100Y0076700D01*
X0075204Y0083585D02*
X0073326Y0083585D01*
X0072327Y0084584D02*
X0078605Y0084584D01*
X0078996Y0083585D02*
X0079603Y0083585D01*
X0082100Y0084200D02*
X0079600Y0086700D01*
X0074600Y0091700D01*
X0052100Y0091700D01*
X0037100Y0106700D01*
X0041600Y0106551D02*
X0042600Y0106551D01*
X0042600Y0105553D02*
X0041600Y0105553D01*
X0042357Y0104554D02*
X0042600Y0104554D01*
X0042600Y0107550D02*
X0041600Y0107550D01*
X0041600Y0108548D02*
X0042600Y0108548D01*
X0042600Y0109547D02*
X0041600Y0109547D01*
X0041538Y0110545D02*
X0042600Y0110545D01*
X0042600Y0111544D02*
X0041124Y0111544D01*
X0040422Y0112542D02*
X0042600Y0112542D01*
X0042600Y0113541D02*
X0039104Y0113541D01*
X0039131Y0114539D02*
X0035069Y0114539D01*
X0035096Y0113541D02*
X0023761Y0113541D01*
X0022679Y0112542D02*
X0033778Y0112542D01*
X0033076Y0111544D02*
X0021597Y0111544D01*
X0020515Y0110545D02*
X0032662Y0110545D01*
X0032600Y0109547D02*
X0019434Y0109547D01*
X0019100Y0108548D02*
X0032600Y0108548D01*
X0032600Y0107550D02*
X0019100Y0107550D01*
X0018315Y0106551D02*
X0032600Y0106551D01*
X0032600Y0105553D02*
X0017317Y0105553D01*
X0014600Y0109200D02*
X0014600Y0131700D01*
X0047100Y0131700D01*
X0052100Y0126700D01*
X0052100Y0121700D01*
X0056590Y0116536D02*
X0057610Y0116536D01*
X0057946Y0115724D02*
X0057200Y0117525D01*
X0057200Y0125875D01*
X0057946Y0127676D01*
X0059324Y0129054D01*
X0061125Y0129800D01*
X0063075Y0129800D01*
X0064145Y0129357D01*
X0067600Y0132811D01*
X0067600Y0136200D01*
X0066600Y0136200D01*
X0066600Y0131818D01*
X0065953Y0131921D01*
X0065219Y0132159D01*
X0064532Y0132509D01*
X0063908Y0132962D01*
X0063362Y0133508D01*
X0062909Y0134132D01*
X0062559Y0134819D01*
X0062321Y0135553D01*
X0062218Y0136200D01*
X0066600Y0136200D01*
X0066600Y0137200D01*
X0066600Y0141582D01*
X0065953Y0141479D01*
X0065219Y0141241D01*
X0064532Y0140891D01*
X0063908Y0140438D01*
X0063362Y0139892D01*
X0062909Y0139268D01*
X0062559Y0138581D01*
X0062321Y0137847D01*
X0062218Y0137200D01*
X0066600Y0137200D01*
X0067600Y0137200D01*
X0067600Y0141582D01*
X0068247Y0141479D01*
X0068981Y0141241D01*
X0069668Y0140891D01*
X0069900Y0140722D01*
X0069900Y0142340D01*
X0068114Y0141600D01*
X0066086Y0141600D01*
X0064211Y0142376D01*
X0062776Y0143811D01*
X0062000Y0145686D01*
X0062000Y0147714D01*
X0062754Y0149534D01*
X0045817Y0133900D01*
X0048011Y0133900D01*
X0049300Y0132611D01*
X0052111Y0129800D01*
X0053075Y0129800D01*
X0054876Y0129054D01*
X0056254Y0127676D01*
X0057000Y0125875D01*
X0057000Y0117525D01*
X0056254Y0115724D01*
X0054876Y0114346D01*
X0053075Y0113600D01*
X0051564Y0113600D01*
X0051600Y0113564D01*
X0051600Y0103005D01*
X0050915Y0101351D01*
X0050738Y0101174D01*
X0053011Y0098900D01*
X0076189Y0098900D01*
X0076689Y0099400D01*
X0076205Y0099400D01*
X0074551Y0100085D01*
X0073285Y0101351D01*
X0072600Y0103005D01*
X0072600Y0109500D01*
X0071600Y0109500D01*
X0071600Y0103005D01*
X0070915Y0101351D01*
X0069649Y0100085D01*
X0067995Y0099400D01*
X0066205Y0099400D01*
X0064551Y0100085D01*
X0063285Y0101351D01*
X0062600Y0103005D01*
X0062600Y0113564D01*
X0062636Y0113600D01*
X0061125Y0113600D01*
X0059324Y0114346D01*
X0057946Y0115724D01*
X0058133Y0115538D02*
X0056067Y0115538D01*
X0055069Y0114539D02*
X0059131Y0114539D01*
X0058751Y0113485D02*
X0058107Y0113694D01*
X0057438Y0113800D01*
X0057400Y0113800D01*
X0057400Y0107000D01*
X0061400Y0107000D01*
X0061400Y0109838D01*
X0061294Y0110507D01*
X0061085Y0111151D01*
X0060778Y0111754D01*
X0060380Y0112301D01*
X0059901Y0112780D01*
X0059354Y0113178D01*
X0058751Y0113485D01*
X0058579Y0113541D02*
X0062600Y0113541D01*
X0062600Y0112542D02*
X0060139Y0112542D01*
X0060885Y0111544D02*
X0062600Y0111544D01*
X0062600Y0110545D02*
X0061282Y0110545D01*
X0061400Y0109547D02*
X0062600Y0109547D01*
X0062600Y0108548D02*
X0061400Y0108548D01*
X0061400Y0107550D02*
X0062600Y0107550D01*
X0062600Y0106551D02*
X0057400Y0106551D01*
X0057400Y0106400D02*
X0057400Y0107000D01*
X0056800Y0107000D01*
X0056800Y0113800D01*
X0056762Y0113800D01*
X0056093Y0113694D01*
X0055449Y0113485D01*
X0054846Y0113178D01*
X0054299Y0112780D01*
X0053820Y0112301D01*
X0053422Y0111754D01*
X0053115Y0111151D01*
X0052906Y0110507D01*
X0052800Y0109838D01*
X0052800Y0107000D01*
X0056800Y0107000D01*
X0056800Y0106400D01*
X0057400Y0106400D01*
X0061400Y0106400D01*
X0061400Y0103562D01*
X0061294Y0102893D01*
X0061085Y0102249D01*
X0060778Y0101646D01*
X0060380Y0101099D01*
X0059901Y0100620D01*
X0059354Y0100222D01*
X0058751Y0099915D01*
X0058107Y0099706D01*
X0057438Y0099600D01*
X0057400Y0099600D01*
X0057400Y0106400D01*
X0057100Y0106700D02*
X0057100Y0126700D01*
X0067100Y0136700D01*
X0066600Y0136506D02*
X0048640Y0136506D01*
X0047558Y0135508D02*
X0062335Y0135508D01*
X0062717Y0134509D02*
X0046477Y0134509D01*
X0048400Y0133511D02*
X0063360Y0133511D01*
X0064527Y0132512D02*
X0049399Y0132512D01*
X0050397Y0131514D02*
X0066303Y0131514D01*
X0066600Y0132512D02*
X0067301Y0132512D01*
X0067600Y0133511D02*
X0066600Y0133511D01*
X0066600Y0134509D02*
X0067600Y0134509D01*
X0067600Y0135508D02*
X0066600Y0135508D01*
X0066600Y0137505D02*
X0067600Y0137505D01*
X0067600Y0138503D02*
X0066600Y0138503D01*
X0066600Y0139502D02*
X0067600Y0139502D01*
X0067600Y0140501D02*
X0066600Y0140501D01*
X0066600Y0141499D02*
X0067600Y0141499D01*
X0068123Y0141499D02*
X0069900Y0141499D01*
X0072100Y0144200D02*
X0074600Y0146700D01*
X0077100Y0146700D01*
X0079600Y0149200D01*
X0079600Y0156700D01*
X0082100Y0159200D01*
X0082100Y0161700D01*
X0084600Y0164200D01*
X0089600Y0164200D01*
X0097100Y0156700D01*
X0094600Y0154200D01*
X0094600Y0149200D01*
X0087100Y0141700D01*
X0079900Y0138419D02*
X0079900Y0132611D01*
X0076189Y0128900D01*
X0075609Y0128320D01*
X0074876Y0129054D01*
X0073075Y0129800D01*
X0071125Y0129800D01*
X0070589Y0129578D01*
X0073011Y0132000D01*
X0074300Y0133289D01*
X0074300Y0138419D01*
X0075319Y0137400D01*
X0076800Y0137400D01*
X0076800Y0141400D01*
X0077400Y0141400D01*
X0077400Y0137400D01*
X0078881Y0137400D01*
X0079900Y0138419D01*
X0079900Y0137505D02*
X0078986Y0137505D01*
X0079900Y0136506D02*
X0074300Y0136506D01*
X0074300Y0135508D02*
X0079900Y0135508D01*
X0079900Y0134509D02*
X0074300Y0134509D01*
X0074300Y0133511D02*
X0079900Y0133511D01*
X0079801Y0132512D02*
X0073524Y0132512D01*
X0072525Y0131514D02*
X0078803Y0131514D01*
X0077804Y0130515D02*
X0071527Y0130515D01*
X0072100Y0134200D02*
X0072100Y0144200D01*
X0072200Y0147411D02*
X0072200Y0147714D01*
X0071424Y0149589D01*
X0071300Y0149712D01*
X0071300Y0153688D01*
X0071424Y0153811D01*
X0072200Y0155686D01*
X0072200Y0157714D01*
X0072038Y0158105D01*
X0073523Y0159475D01*
X0073573Y0159496D01*
X0073902Y0159825D01*
X0074244Y0160140D01*
X0074266Y0160189D01*
X0074304Y0160227D01*
X0074482Y0160657D01*
X0074677Y0161079D01*
X0074679Y0161133D01*
X0074700Y0161183D01*
X0074700Y0161648D01*
X0074719Y0162113D01*
X0074700Y0162163D01*
X0074700Y0176632D01*
X0074724Y0177080D01*
X0074700Y0177146D01*
X0074700Y0177217D01*
X0074528Y0177632D01*
X0074379Y0178055D01*
X0074331Y0178107D01*
X0074304Y0178173D01*
X0073987Y0178490D01*
X0055078Y0199500D01*
X0083123Y0199500D01*
X0083127Y0199496D01*
X0084956Y0197667D01*
X0084900Y0197611D01*
X0084900Y0183364D01*
X0082600Y0181064D01*
X0082600Y0177336D01*
X0084900Y0175036D01*
X0084900Y0173289D01*
X0087400Y0170789D01*
X0088689Y0169500D01*
X0090824Y0169500D01*
X0089950Y0168626D01*
X0089950Y0167000D01*
X0094300Y0167000D01*
X0094300Y0166400D01*
X0094900Y0166400D01*
X0094900Y0167000D01*
X0098689Y0167000D01*
X0099750Y0165939D01*
X0099750Y0164691D01*
X0102591Y0161850D01*
X0106609Y0161850D01*
X0107400Y0162641D01*
X0107400Y0162611D01*
X0103689Y0158900D01*
X0098011Y0158900D01*
X0094300Y0162611D01*
X0094300Y0166400D01*
X0090511Y0166400D01*
X0083689Y0166400D01*
X0082400Y0165111D01*
X0079900Y0162611D01*
X0079900Y0160111D01*
X0077400Y0157611D01*
X0077400Y0150111D01*
X0076189Y0148900D01*
X0073689Y0148900D01*
X0072400Y0147611D01*
X0072200Y0147411D01*
X0072200Y0147490D02*
X0072279Y0147490D01*
X0071879Y0148489D02*
X0073277Y0148489D01*
X0071466Y0149487D02*
X0076776Y0149487D01*
X0077400Y0150486D02*
X0071300Y0150486D01*
X0071300Y0151484D02*
X0077400Y0151484D01*
X0077400Y0152483D02*
X0071300Y0152483D01*
X0071300Y0153481D02*
X0077400Y0153481D01*
X0077400Y0154480D02*
X0071701Y0154480D01*
X0072114Y0155478D02*
X0077400Y0155478D01*
X0077400Y0156477D02*
X0072200Y0156477D01*
X0072200Y0157475D02*
X0077400Y0157475D01*
X0078262Y0158474D02*
X0072438Y0158474D01*
X0073520Y0159472D02*
X0079261Y0159472D01*
X0079900Y0160471D02*
X0074405Y0160471D01*
X0074700Y0161469D02*
X0079900Y0161469D01*
X0079900Y0162468D02*
X0074700Y0162468D01*
X0074700Y0163466D02*
X0080755Y0163466D01*
X0081754Y0164465D02*
X0074700Y0164465D01*
X0074700Y0165463D02*
X0082752Y0165463D01*
X0087733Y0170456D02*
X0074700Y0170456D01*
X0074700Y0171454D02*
X0086734Y0171454D01*
X0085736Y0172453D02*
X0074700Y0172453D01*
X0074700Y0173451D02*
X0084900Y0173451D01*
X0084900Y0174450D02*
X0074700Y0174450D01*
X0074700Y0175448D02*
X0084488Y0175448D01*
X0083489Y0176447D02*
X0074700Y0176447D01*
X0074605Y0177445D02*
X0082600Y0177445D01*
X0082600Y0178444D02*
X0074033Y0178444D01*
X0073130Y0179442D02*
X0082600Y0179442D01*
X0082600Y0180441D02*
X0072231Y0180441D01*
X0071332Y0181439D02*
X0082976Y0181439D01*
X0083974Y0182438D02*
X0070434Y0182438D01*
X0069535Y0183437D02*
X0084900Y0183437D01*
X0084900Y0184435D02*
X0068636Y0184435D01*
X0069408Y0185200D02*
X0071600Y0185200D01*
X0071600Y0191200D01*
X0072600Y0191200D01*
X0072600Y0192200D01*
X0078600Y0192200D01*
X0078600Y0194392D01*
X0074792Y0198200D01*
X0072600Y0198200D01*
X0072600Y0192200D01*
X0071600Y0192200D01*
X0071600Y0198200D01*
X0069408Y0198200D01*
X0065600Y0194392D01*
X0065600Y0192200D01*
X0071600Y0192200D01*
X0071600Y0191200D01*
X0065600Y0191200D01*
X0065600Y0189008D01*
X0069408Y0185200D01*
X0069174Y0185434D02*
X0067738Y0185434D01*
X0068176Y0186432D02*
X0066839Y0186432D01*
X0067177Y0187431D02*
X0065940Y0187431D01*
X0066179Y0188429D02*
X0065042Y0188429D01*
X0065600Y0189428D02*
X0064143Y0189428D01*
X0063244Y0190426D02*
X0065600Y0190426D01*
X0065600Y0192423D02*
X0061447Y0192423D01*
X0062346Y0191425D02*
X0071600Y0191425D01*
X0071600Y0192423D02*
X0072600Y0192423D01*
X0072600Y0191425D02*
X0084900Y0191425D01*
X0084900Y0192423D02*
X0078600Y0192423D01*
X0078600Y0193422D02*
X0084900Y0193422D01*
X0084900Y0194420D02*
X0078572Y0194420D01*
X0077574Y0195419D02*
X0084900Y0195419D01*
X0084900Y0196417D02*
X0076575Y0196417D01*
X0075577Y0197416D02*
X0084900Y0197416D01*
X0084209Y0198414D02*
X0056055Y0198414D01*
X0056954Y0197416D02*
X0068623Y0197416D01*
X0067625Y0196417D02*
X0057852Y0196417D01*
X0058751Y0195419D02*
X0066626Y0195419D01*
X0065628Y0194420D02*
X0059650Y0194420D01*
X0060548Y0193422D02*
X0065600Y0193422D01*
X0071600Y0193422D02*
X0072600Y0193422D01*
X0072600Y0194420D02*
X0071600Y0194420D01*
X0071600Y0195419D02*
X0072600Y0195419D01*
X0072600Y0196417D02*
X0071600Y0196417D01*
X0071600Y0197416D02*
X0072600Y0197416D01*
X0072600Y0191200D02*
X0078600Y0191200D01*
X0078600Y0189008D01*
X0074792Y0185200D01*
X0072600Y0185200D01*
X0072600Y0191200D01*
X0072600Y0190426D02*
X0071600Y0190426D01*
X0071600Y0189428D02*
X0072600Y0189428D01*
X0072600Y0188429D02*
X0071600Y0188429D01*
X0071600Y0187431D02*
X0072600Y0187431D01*
X0072600Y0186432D02*
X0071600Y0186432D01*
X0071600Y0185434D02*
X0072600Y0185434D01*
X0075026Y0185434D02*
X0084900Y0185434D01*
X0084900Y0186432D02*
X0076024Y0186432D01*
X0077023Y0187431D02*
X0084900Y0187431D01*
X0084900Y0188429D02*
X0078021Y0188429D01*
X0078600Y0189428D02*
X0084900Y0189428D01*
X0084900Y0190426D02*
X0078600Y0190426D01*
X0087100Y0196700D02*
X0089600Y0199200D01*
X0144600Y0199200D01*
X0152100Y0191700D01*
X0157424Y0196417D02*
X0167625Y0196417D01*
X0168623Y0197416D02*
X0156425Y0197416D01*
X0155427Y0198414D02*
X0184436Y0198414D01*
X0184842Y0198820D02*
X0182479Y0196458D01*
X0181201Y0193371D01*
X0181201Y0190029D01*
X0182479Y0186942D01*
X0184842Y0184579D01*
X0187929Y0183301D01*
X0191271Y0183301D01*
X0194358Y0184579D01*
X0196720Y0186942D01*
X0197999Y0190029D01*
X0197999Y0193371D01*
X0196720Y0196458D01*
X0194358Y0198820D01*
X0193683Y0199100D01*
X0199500Y0199100D01*
X0199500Y0150571D01*
X0199354Y0150678D01*
X0198751Y0150985D01*
X0198107Y0151194D01*
X0197438Y0151300D01*
X0197400Y0151300D01*
X0197400Y0144500D01*
X0196800Y0144500D01*
X0196800Y0151300D01*
X0196762Y0151300D01*
X0196093Y0151194D01*
X0195449Y0150985D01*
X0194846Y0150678D01*
X0194299Y0150280D01*
X0193820Y0149801D01*
X0193422Y0149254D01*
X0193115Y0148651D01*
X0192906Y0148007D01*
X0192800Y0147338D01*
X0192800Y0144500D01*
X0196800Y0144500D01*
X0196800Y0143900D01*
X0197400Y0143900D01*
X0197400Y0137100D01*
X0197438Y0137100D01*
X0198107Y0137206D01*
X0198751Y0137415D01*
X0199354Y0137722D01*
X0199500Y0137829D01*
X0199500Y0136700D01*
X0192025Y0136700D01*
X0189275Y0139450D01*
X0188951Y0139450D01*
X0189558Y0140057D01*
X0190000Y0141123D01*
X0190000Y0157999D01*
X0191301Y0159300D01*
X0194130Y0159300D01*
X0197000Y0162170D01*
X0197000Y0166230D01*
X0194130Y0169100D01*
X0190070Y0169100D01*
X0187200Y0166230D01*
X0187200Y0163401D01*
X0187000Y0163201D01*
X0187000Y0166230D01*
X0184130Y0169100D01*
X0181301Y0169100D01*
X0173743Y0176658D01*
X0172677Y0177100D01*
X0171934Y0177100D01*
X0159200Y0189126D01*
X0159200Y0194641D01*
X0155041Y0198800D01*
X0149159Y0198800D01*
X0149061Y0198702D01*
X0148640Y0199100D01*
X0185517Y0199100D01*
X0184842Y0198820D01*
X0183437Y0197416D02*
X0175577Y0197416D01*
X0174792Y0198200D02*
X0172600Y0198200D01*
X0172600Y0192200D01*
X0178600Y0192200D01*
X0178600Y0194392D01*
X0174792Y0198200D01*
X0172600Y0197416D02*
X0171600Y0197416D01*
X0171600Y0198200D02*
X0169408Y0198200D01*
X0165600Y0194392D01*
X0165600Y0192200D01*
X0171600Y0192200D01*
X0171600Y0198200D01*
X0171600Y0196417D02*
X0172600Y0196417D01*
X0172600Y0195419D02*
X0171600Y0195419D01*
X0171600Y0194420D02*
X0172600Y0194420D01*
X0172600Y0193422D02*
X0171600Y0193422D01*
X0171600Y0192423D02*
X0172600Y0192423D01*
X0172600Y0192200D02*
X0171600Y0192200D01*
X0171600Y0191200D01*
X0172600Y0191200D01*
X0172600Y0192200D01*
X0172600Y0191425D02*
X0181201Y0191425D01*
X0181201Y0192423D02*
X0178600Y0192423D01*
X0178600Y0193422D02*
X0181222Y0193422D01*
X0181635Y0194420D02*
X0178572Y0194420D01*
X0177574Y0195419D02*
X0182049Y0195419D01*
X0182463Y0196417D02*
X0176575Y0196417D01*
X0178600Y0191200D02*
X0172600Y0191200D01*
X0172600Y0185200D01*
X0174792Y0185200D01*
X0178600Y0189008D01*
X0178600Y0191200D01*
X0178600Y0190426D02*
X0181201Y0190426D01*
X0181450Y0189428D02*
X0178600Y0189428D01*
X0178021Y0188429D02*
X0181864Y0188429D01*
X0182277Y0187431D02*
X0177023Y0187431D01*
X0176024Y0186432D02*
X0182990Y0186432D01*
X0183988Y0185434D02*
X0175026Y0185434D01*
X0172600Y0185434D02*
X0171600Y0185434D01*
X0171600Y0185200D02*
X0171600Y0191200D01*
X0165600Y0191200D01*
X0165600Y0189008D01*
X0169408Y0185200D01*
X0171600Y0185200D01*
X0171600Y0186432D02*
X0172600Y0186432D01*
X0172600Y0187431D02*
X0171600Y0187431D01*
X0171600Y0188429D02*
X0172600Y0188429D01*
X0172600Y0189428D02*
X0171600Y0189428D01*
X0171600Y0190426D02*
X0172600Y0190426D01*
X0171600Y0191425D02*
X0159200Y0191425D01*
X0159200Y0192423D02*
X0165600Y0192423D01*
X0165600Y0193422D02*
X0159200Y0193422D01*
X0159200Y0194420D02*
X0165628Y0194420D01*
X0166626Y0195419D02*
X0158422Y0195419D01*
X0159200Y0190426D02*
X0165600Y0190426D01*
X0165600Y0189428D02*
X0159200Y0189428D01*
X0159938Y0188429D02*
X0166179Y0188429D01*
X0167177Y0187431D02*
X0160995Y0187431D01*
X0162053Y0186432D02*
X0168176Y0186432D01*
X0169174Y0185434D02*
X0163110Y0185434D01*
X0164167Y0184435D02*
X0185191Y0184435D01*
X0187602Y0183437D02*
X0165224Y0183437D01*
X0166282Y0182438D02*
X0199500Y0182438D01*
X0199500Y0183437D02*
X0191598Y0183437D01*
X0194009Y0184435D02*
X0199500Y0184435D01*
X0199500Y0185434D02*
X0195212Y0185434D01*
X0196210Y0186432D02*
X0199500Y0186432D01*
X0199500Y0187431D02*
X0196923Y0187431D01*
X0197336Y0188429D02*
X0199500Y0188429D01*
X0199500Y0189428D02*
X0197750Y0189428D01*
X0197999Y0190426D02*
X0199500Y0190426D01*
X0199500Y0191425D02*
X0197999Y0191425D01*
X0197999Y0192423D02*
X0199500Y0192423D01*
X0199500Y0193422D02*
X0197978Y0193422D01*
X0197565Y0194420D02*
X0199500Y0194420D01*
X0199500Y0195419D02*
X0197151Y0195419D01*
X0196737Y0196417D02*
X0199500Y0196417D01*
X0199500Y0197416D02*
X0195763Y0197416D01*
X0194764Y0198414D02*
X0199500Y0198414D01*
X0199500Y0181439D02*
X0167339Y0181439D01*
X0168396Y0180441D02*
X0199500Y0180441D01*
X0199500Y0179442D02*
X0169453Y0179442D01*
X0170511Y0178444D02*
X0199500Y0178444D01*
X0199500Y0177445D02*
X0171568Y0177445D01*
X0173954Y0176447D02*
X0199500Y0176447D01*
X0199500Y0175448D02*
X0174953Y0175448D01*
X0175951Y0174450D02*
X0199500Y0174450D01*
X0199500Y0173451D02*
X0176950Y0173451D01*
X0177948Y0172453D02*
X0199500Y0172453D01*
X0199500Y0171454D02*
X0178947Y0171454D01*
X0179945Y0170456D02*
X0199500Y0170456D01*
X0199500Y0169457D02*
X0180944Y0169457D01*
X0184771Y0168459D02*
X0189429Y0168459D01*
X0188431Y0167460D02*
X0185769Y0167460D01*
X0186768Y0166462D02*
X0187432Y0166462D01*
X0187200Y0165463D02*
X0187000Y0165463D01*
X0187000Y0164465D02*
X0187200Y0164465D01*
X0187200Y0163466D02*
X0187000Y0163466D01*
X0190475Y0158474D02*
X0199500Y0158474D01*
X0199500Y0159472D02*
X0194302Y0159472D01*
X0195300Y0160471D02*
X0199500Y0160471D01*
X0199500Y0161469D02*
X0196299Y0161469D01*
X0197000Y0162468D02*
X0199500Y0162468D01*
X0199500Y0163466D02*
X0197000Y0163466D01*
X0197000Y0164465D02*
X0199500Y0164465D01*
X0199500Y0165463D02*
X0197000Y0165463D01*
X0196768Y0166462D02*
X0199500Y0166462D01*
X0199500Y0167460D02*
X0195769Y0167460D01*
X0194771Y0168459D02*
X0199500Y0168459D01*
X0199500Y0157475D02*
X0190000Y0157475D01*
X0190000Y0156477D02*
X0199500Y0156477D01*
X0199500Y0155478D02*
X0190000Y0155478D01*
X0190000Y0154480D02*
X0199500Y0154480D01*
X0199500Y0153481D02*
X0190000Y0153481D01*
X0190000Y0152483D02*
X0199500Y0152483D01*
X0199500Y0151484D02*
X0190000Y0151484D01*
X0190000Y0150486D02*
X0194582Y0150486D01*
X0193592Y0149487D02*
X0190000Y0149487D01*
X0190000Y0148489D02*
X0193062Y0148489D01*
X0192824Y0147490D02*
X0190000Y0147490D01*
X0190000Y0146492D02*
X0192800Y0146492D01*
X0192800Y0145493D02*
X0190000Y0145493D01*
X0190000Y0144495D02*
X0196800Y0144495D01*
X0196800Y0143900D02*
X0192800Y0143900D01*
X0192800Y0141062D01*
X0192906Y0140393D01*
X0193115Y0139749D01*
X0193422Y0139146D01*
X0193820Y0138599D01*
X0194299Y0138120D01*
X0194846Y0137722D01*
X0195449Y0137415D01*
X0196093Y0137206D01*
X0196762Y0137100D01*
X0196800Y0137100D01*
X0196800Y0143900D01*
X0196800Y0143496D02*
X0197400Y0143496D01*
X0197400Y0142498D02*
X0196800Y0142498D01*
X0196800Y0141499D02*
X0197400Y0141499D01*
X0197400Y0140501D02*
X0196800Y0140501D01*
X0196800Y0139502D02*
X0197400Y0139502D01*
X0197400Y0138503D02*
X0196800Y0138503D01*
X0196800Y0137505D02*
X0197400Y0137505D01*
X0198927Y0137505D02*
X0199500Y0137505D01*
X0195273Y0137505D02*
X0191220Y0137505D01*
X0190221Y0138503D02*
X0193915Y0138503D01*
X0193241Y0139502D02*
X0189003Y0139502D01*
X0189742Y0140501D02*
X0192889Y0140501D01*
X0192800Y0141499D02*
X0190000Y0141499D01*
X0190000Y0142498D02*
X0192800Y0142498D01*
X0192800Y0143496D02*
X0190000Y0143496D01*
X0196800Y0145493D02*
X0197400Y0145493D01*
X0197400Y0146492D02*
X0196800Y0146492D01*
X0196800Y0147490D02*
X0197400Y0147490D01*
X0197400Y0148489D02*
X0196800Y0148489D01*
X0196800Y0149487D02*
X0197400Y0149487D01*
X0197400Y0150486D02*
X0196800Y0150486D01*
X0198700Y0133300D02*
X0193150Y0133300D01*
X0193150Y0131694D01*
X0189666Y0128210D01*
X0191750Y0126126D01*
X0191750Y0124500D01*
X0187400Y0124500D01*
X0187400Y0123900D01*
X0191750Y0123900D01*
X0191750Y0122274D01*
X0190476Y0121000D01*
X0191381Y0121000D01*
X0193323Y0119058D01*
X0193422Y0119254D01*
X0193820Y0119801D01*
X0194299Y0120280D01*
X0194846Y0120678D01*
X0195449Y0120985D01*
X0196093Y0121194D01*
X0196762Y0121300D01*
X0196800Y0121300D01*
X0196800Y0114500D01*
X0197400Y0114500D01*
X0197400Y0121300D01*
X0197438Y0121300D01*
X0198107Y0121194D01*
X0198700Y0121001D01*
X0198700Y0133300D01*
X0198700Y0132512D02*
X0193150Y0132512D01*
X0192970Y0131514D02*
X0198700Y0131514D01*
X0198700Y0130515D02*
X0191971Y0130515D01*
X0190973Y0129517D02*
X0198700Y0129517D01*
X0198700Y0128518D02*
X0189974Y0128518D01*
X0190356Y0127520D02*
X0198700Y0127520D01*
X0198700Y0126521D02*
X0191355Y0126521D01*
X0191750Y0125523D02*
X0198700Y0125523D01*
X0198700Y0124524D02*
X0191750Y0124524D01*
X0191750Y0123526D02*
X0198700Y0123526D01*
X0198700Y0122527D02*
X0191750Y0122527D01*
X0191005Y0121529D02*
X0198700Y0121529D01*
X0197400Y0120530D02*
X0196800Y0120530D01*
X0196800Y0119532D02*
X0197400Y0119532D01*
X0197400Y0118533D02*
X0196800Y0118533D01*
X0196800Y0117535D02*
X0197400Y0117535D01*
X0197400Y0116536D02*
X0196800Y0116536D01*
X0196800Y0115538D02*
X0197400Y0115538D01*
X0197400Y0114539D02*
X0196800Y0114539D01*
X0196800Y0113900D02*
X0197400Y0113900D01*
X0197400Y0107100D01*
X0197438Y0107100D01*
X0198107Y0107206D01*
X0198700Y0107399D01*
X0198700Y0104947D01*
X0198362Y0105285D01*
X0197763Y0105720D01*
X0197104Y0106056D01*
X0196401Y0106284D01*
X0195670Y0106400D01*
X0192600Y0106400D01*
X0192600Y0102200D01*
X0191600Y0102200D01*
X0191600Y0106400D01*
X0188530Y0106400D01*
X0187799Y0106284D01*
X0187096Y0106056D01*
X0186437Y0105720D01*
X0185838Y0105285D01*
X0185500Y0104947D01*
X0185500Y0107376D01*
X0184982Y0108626D01*
X0184026Y0109582D01*
X0179026Y0114582D01*
X0177776Y0115100D01*
X0175300Y0115100D01*
X0175300Y0119061D01*
X0173300Y0121061D01*
X0173300Y0121919D01*
X0175319Y0119900D01*
X0176800Y0119900D01*
X0176800Y0123900D01*
X0177400Y0123900D01*
X0177400Y0124500D01*
X0181400Y0124500D01*
X0181400Y0125981D01*
X0179007Y0128374D01*
X0181688Y0131056D01*
X0184534Y0128210D01*
X0182450Y0126126D01*
X0182450Y0124500D01*
X0186800Y0124500D01*
X0186800Y0123900D01*
X0182450Y0123900D01*
X0182450Y0122274D01*
X0185174Y0119550D01*
X0186369Y0119550D01*
X0185300Y0118481D01*
X0185300Y0117000D01*
X0189300Y0117000D01*
X0189300Y0116400D01*
X0189900Y0116400D01*
X0189900Y0112400D01*
X0191381Y0112400D01*
X0192800Y0113819D01*
X0192800Y0111062D01*
X0192906Y0110393D01*
X0193115Y0109749D01*
X0193422Y0109146D01*
X0193820Y0108599D01*
X0194299Y0108120D01*
X0194846Y0107722D01*
X0195449Y0107415D01*
X0196093Y0107206D01*
X0196762Y0107100D01*
X0196800Y0107100D01*
X0196800Y0113900D01*
X0196800Y0113541D02*
X0197400Y0113541D01*
X0197400Y0112542D02*
X0196800Y0112542D01*
X0196800Y0111544D02*
X0197400Y0111544D01*
X0197400Y0110545D02*
X0196800Y0110545D01*
X0196800Y0109547D02*
X0197400Y0109547D01*
X0197400Y0108548D02*
X0196800Y0108548D01*
X0196800Y0107550D02*
X0197400Y0107550D01*
X0198700Y0106551D02*
X0185500Y0106551D01*
X0185500Y0105553D02*
X0186207Y0105553D01*
X0185428Y0107550D02*
X0195185Y0107550D01*
X0193871Y0108548D02*
X0185015Y0108548D01*
X0184062Y0109547D02*
X0193218Y0109547D01*
X0192882Y0110545D02*
X0183063Y0110545D01*
X0182065Y0111544D02*
X0192800Y0111544D01*
X0192800Y0112542D02*
X0191523Y0112542D01*
X0192522Y0113541D02*
X0192800Y0113541D01*
X0189900Y0113541D02*
X0189300Y0113541D01*
X0189300Y0114539D02*
X0189900Y0114539D01*
X0189900Y0115538D02*
X0189300Y0115538D01*
X0189300Y0116400D02*
X0189300Y0112400D01*
X0187819Y0112400D01*
X0185300Y0114919D01*
X0185300Y0116400D01*
X0189300Y0116400D01*
X0189300Y0116536D02*
X0175300Y0116536D01*
X0175300Y0115538D02*
X0185300Y0115538D01*
X0185680Y0114539D02*
X0179069Y0114539D01*
X0180068Y0113541D02*
X0186678Y0113541D01*
X0187677Y0112542D02*
X0181066Y0112542D01*
X0177100Y0111700D02*
X0182100Y0106700D01*
X0182100Y0091700D01*
X0192100Y0081700D01*
X0192600Y0081588D02*
X0198700Y0081588D01*
X0198700Y0081200D02*
X0192600Y0081200D01*
X0192600Y0082200D01*
X0198700Y0082200D01*
X0198700Y0081200D01*
X0198700Y0078453D02*
X0198700Y0068501D01*
X0198107Y0068694D01*
X0197438Y0068800D01*
X0197400Y0068800D01*
X0197400Y0062000D01*
X0196800Y0062000D01*
X0196800Y0068800D01*
X0196762Y0068800D01*
X0196093Y0068694D01*
X0195449Y0068485D01*
X0194846Y0068178D01*
X0194299Y0067780D01*
X0193820Y0067301D01*
X0193422Y0066754D01*
X0193115Y0066151D01*
X0192906Y0065507D01*
X0192800Y0064838D01*
X0192800Y0062000D01*
X0196800Y0062000D01*
X0196800Y0061400D01*
X0197400Y0061400D01*
X0197400Y0054600D01*
X0197438Y0054600D01*
X0198107Y0054706D01*
X0198700Y0054899D01*
X0198700Y0046700D01*
X0182100Y0046700D01*
X0177100Y0051700D01*
X0177100Y0064660D01*
X0177500Y0065626D01*
X0177500Y0073190D01*
X0178400Y0074090D01*
X0178400Y0079310D01*
X0177100Y0080610D01*
X0177100Y0084200D01*
X0184907Y0084200D01*
X0184880Y0084163D01*
X0184544Y0083504D01*
X0184316Y0082801D01*
X0184221Y0082200D01*
X0191600Y0082200D01*
X0191600Y0081200D01*
X0192600Y0081200D01*
X0192600Y0077000D01*
X0195670Y0077000D01*
X0196401Y0077116D01*
X0197104Y0077344D01*
X0197763Y0077680D01*
X0198362Y0078115D01*
X0198700Y0078453D01*
X0198700Y0077594D02*
X0197595Y0077594D01*
X0198700Y0076596D02*
X0178400Y0076596D01*
X0178400Y0077594D02*
X0186605Y0077594D01*
X0186437Y0077680D02*
X0187096Y0077344D01*
X0187799Y0077116D01*
X0188530Y0077000D01*
X0191600Y0077000D01*
X0191600Y0081200D01*
X0184221Y0081200D01*
X0184316Y0080599D01*
X0184544Y0079896D01*
X0184880Y0079237D01*
X0185315Y0078638D01*
X0185838Y0078115D01*
X0186437Y0077680D01*
X0185360Y0078593D02*
X0178400Y0078593D01*
X0178118Y0079591D02*
X0184699Y0079591D01*
X0184319Y0080590D02*
X0177120Y0080590D01*
X0177100Y0081588D02*
X0191600Y0081588D01*
X0191600Y0080590D02*
X0192600Y0080590D01*
X0192600Y0079591D02*
X0191600Y0079591D01*
X0191600Y0078593D02*
X0192600Y0078593D01*
X0192600Y0077594D02*
X0191600Y0077594D01*
X0187106Y0072750D02*
X0182094Y0072750D01*
X0178550Y0069206D01*
X0178550Y0064194D01*
X0182034Y0060710D01*
X0179950Y0058626D01*
X0179950Y0057000D01*
X0184300Y0057000D01*
X0184300Y0056400D01*
X0179950Y0056400D01*
X0179950Y0054774D01*
X0182674Y0052050D01*
X0184300Y0052050D01*
X0184300Y0056400D01*
X0184900Y0056400D01*
X0184900Y0057000D01*
X0189250Y0057000D01*
X0189250Y0058626D01*
X0187166Y0060710D01*
X0190650Y0064194D01*
X0190650Y0069206D01*
X0187106Y0072750D01*
X0187254Y0072602D02*
X0198700Y0072602D01*
X0198700Y0073600D02*
X0177910Y0073600D01*
X0177500Y0072602D02*
X0181946Y0072602D01*
X0180947Y0071603D02*
X0177500Y0071603D01*
X0177500Y0070605D02*
X0179949Y0070605D01*
X0178950Y0069606D02*
X0177500Y0069606D01*
X0177500Y0068608D02*
X0178550Y0068608D01*
X0178550Y0067609D02*
X0177500Y0067609D01*
X0177500Y0066611D02*
X0178550Y0066611D01*
X0178550Y0065612D02*
X0177494Y0065612D01*
X0177100Y0064614D02*
X0178550Y0064614D01*
X0179129Y0063615D02*
X0177100Y0063615D01*
X0177100Y0062617D02*
X0180127Y0062617D01*
X0181126Y0061618D02*
X0177100Y0061618D01*
X0177100Y0060620D02*
X0181944Y0060620D01*
X0180945Y0059621D02*
X0177100Y0059621D01*
X0177100Y0058623D02*
X0179950Y0058623D01*
X0179950Y0057624D02*
X0177100Y0057624D01*
X0177100Y0056626D02*
X0184300Y0056626D01*
X0184900Y0056626D02*
X0193437Y0056626D01*
X0193422Y0056646D02*
X0193820Y0056099D01*
X0194299Y0055620D01*
X0194846Y0055222D01*
X0195449Y0054915D01*
X0196093Y0054706D01*
X0196762Y0054600D01*
X0196800Y0054600D01*
X0196800Y0061400D01*
X0192800Y0061400D01*
X0192800Y0058562D01*
X0192906Y0057893D01*
X0193115Y0057249D01*
X0193422Y0056646D01*
X0192993Y0057624D02*
X0189250Y0057624D01*
X0189250Y0058623D02*
X0192800Y0058623D01*
X0192800Y0059621D02*
X0188255Y0059621D01*
X0187256Y0060620D02*
X0192800Y0060620D01*
X0192800Y0062617D02*
X0189073Y0062617D01*
X0190071Y0063615D02*
X0192800Y0063615D01*
X0192800Y0064614D02*
X0190650Y0064614D01*
X0190650Y0065612D02*
X0192940Y0065612D01*
X0193349Y0066611D02*
X0190650Y0066611D01*
X0190650Y0067609D02*
X0194128Y0067609D01*
X0195827Y0068608D02*
X0190650Y0068608D01*
X0190250Y0069606D02*
X0198700Y0069606D01*
X0198700Y0068608D02*
X0198373Y0068608D01*
X0197400Y0068608D02*
X0196800Y0068608D01*
X0196800Y0067609D02*
X0197400Y0067609D01*
X0197400Y0066611D02*
X0196800Y0066611D01*
X0196800Y0065612D02*
X0197400Y0065612D01*
X0197400Y0064614D02*
X0196800Y0064614D01*
X0196800Y0063615D02*
X0197400Y0063615D01*
X0197400Y0062617D02*
X0196800Y0062617D01*
X0196800Y0061618D02*
X0188074Y0061618D01*
X0189250Y0056400D02*
X0184900Y0056400D01*
X0184900Y0052050D01*
X0186526Y0052050D01*
X0189250Y0054774D01*
X0189250Y0056400D01*
X0189250Y0055627D02*
X0194292Y0055627D01*
X0196581Y0054629D02*
X0189105Y0054629D01*
X0188106Y0053630D02*
X0198700Y0053630D01*
X0198700Y0052632D02*
X0187108Y0052632D01*
X0184900Y0052632D02*
X0184300Y0052632D01*
X0184300Y0053630D02*
X0184900Y0053630D01*
X0184900Y0054629D02*
X0184300Y0054629D01*
X0184300Y0055627D02*
X0184900Y0055627D01*
X0182092Y0052632D02*
X0177100Y0052632D01*
X0177100Y0053630D02*
X0181094Y0053630D01*
X0180095Y0054629D02*
X0177100Y0054629D01*
X0177100Y0055627D02*
X0179950Y0055627D01*
X0177167Y0051633D02*
X0198700Y0051633D01*
X0198700Y0050634D02*
X0178166Y0050634D01*
X0179164Y0049636D02*
X0198700Y0049636D01*
X0198700Y0048637D02*
X0180163Y0048637D01*
X0181161Y0047639D02*
X0198700Y0047639D01*
X0198700Y0043300D02*
X0198700Y0038501D01*
X0198107Y0038694D01*
X0197438Y0038800D01*
X0197400Y0038800D01*
X0197400Y0032000D01*
X0196800Y0032000D01*
X0196800Y0038800D01*
X0196762Y0038800D01*
X0196093Y0038694D01*
X0195449Y0038485D01*
X0194846Y0038178D01*
X0194299Y0037780D01*
X0193820Y0037301D01*
X0193422Y0036754D01*
X0193115Y0036151D01*
X0192906Y0035507D01*
X0192800Y0034838D01*
X0192800Y0032000D01*
X0196800Y0032000D01*
X0196800Y0031400D01*
X0192800Y0031400D01*
X0192800Y0028562D01*
X0192906Y0027893D01*
X0193115Y0027249D01*
X0193422Y0026646D01*
X0193820Y0026099D01*
X0194083Y0025836D01*
X0193930Y0025899D01*
X0190270Y0025899D01*
X0186889Y0024499D01*
X0184301Y0021911D01*
X0182901Y0018530D01*
X0182901Y0014870D01*
X0184301Y0011489D01*
X0185690Y0010100D01*
X0152100Y0010100D01*
X0152100Y0027225D01*
X0153305Y0026020D01*
X0155767Y0025000D01*
X0158433Y0025000D01*
X0160895Y0026020D01*
X0162780Y0027905D01*
X0163800Y0030367D01*
X0163800Y0033033D01*
X0162780Y0035495D01*
X0160895Y0037380D01*
X0158433Y0038400D01*
X0155767Y0038400D01*
X0153305Y0037380D01*
X0152100Y0036175D01*
X0152100Y0046000D01*
X0154461Y0046000D01*
X0157800Y0049339D01*
X0157800Y0052592D01*
X0159026Y0053818D01*
X0159671Y0054463D01*
X0160296Y0054144D01*
X0160999Y0053916D01*
X0161600Y0053821D01*
X0161600Y0061200D01*
X0162600Y0061200D01*
X0162600Y0062200D01*
X0166800Y0062200D01*
X0166800Y0065270D01*
X0166684Y0066001D01*
X0166456Y0066704D01*
X0166120Y0067363D01*
X0165685Y0067962D01*
X0165326Y0068321D01*
X0166526Y0068818D01*
X0169026Y0071318D01*
X0169789Y0072081D01*
X0170070Y0071800D01*
X0171800Y0071800D01*
X0171800Y0076400D01*
X0172400Y0076400D01*
X0172400Y0071800D01*
X0173700Y0071800D01*
X0173700Y0051024D01*
X0174218Y0049774D01*
X0179218Y0044774D01*
X0180174Y0043818D01*
X0181424Y0043300D01*
X0198700Y0043300D01*
X0198700Y0042646D02*
X0152100Y0042646D01*
X0152100Y0041648D02*
X0198700Y0041648D01*
X0198700Y0040649D02*
X0152100Y0040649D01*
X0152100Y0039651D02*
X0198700Y0039651D01*
X0198700Y0038652D02*
X0198235Y0038652D01*
X0197400Y0038652D02*
X0196800Y0038652D01*
X0195965Y0038652D02*
X0152100Y0038652D01*
X0152100Y0037654D02*
X0153966Y0037654D01*
X0152580Y0036655D02*
X0152100Y0036655D01*
X0148700Y0036655D02*
X0145000Y0036655D01*
X0145000Y0035657D02*
X0148700Y0035657D01*
X0148700Y0034658D02*
X0145000Y0034658D01*
X0145000Y0033660D02*
X0148700Y0033660D01*
X0148700Y0032661D02*
X0145000Y0032661D01*
X0145000Y0031663D02*
X0148700Y0031663D01*
X0148700Y0030664D02*
X0145000Y0030664D01*
X0145000Y0029666D02*
X0148700Y0029666D01*
X0148700Y0028667D02*
X0145000Y0028667D01*
X0145000Y0027669D02*
X0148700Y0027669D01*
X0148700Y0026670D02*
X0145000Y0026670D01*
X0145000Y0026123D02*
X0145000Y0037741D01*
X0146950Y0039691D01*
X0146950Y0043709D01*
X0145000Y0045659D01*
X0145000Y0047277D01*
X0144558Y0048343D01*
X0138743Y0054158D01*
X0137677Y0054600D01*
X0135564Y0054600D01*
X0135347Y0054817D01*
X0136254Y0055724D01*
X0137000Y0057525D01*
X0137000Y0065875D01*
X0136254Y0067676D01*
X0134876Y0069054D01*
X0133799Y0069500D01*
X0138011Y0069500D01*
X0140111Y0071600D01*
X0144212Y0071600D01*
X0147100Y0074488D01*
X0149840Y0071748D01*
X0149218Y0071126D01*
X0148700Y0069876D01*
X0148700Y0068147D01*
X0148515Y0067962D01*
X0148080Y0067363D01*
X0147744Y0066704D01*
X0147516Y0066001D01*
X0147400Y0065270D01*
X0147400Y0062200D01*
X0148700Y0062200D01*
X0148700Y0061200D01*
X0147400Y0061200D01*
X0147400Y0058130D01*
X0147516Y0057399D01*
X0147744Y0056696D01*
X0148080Y0056037D01*
X0148515Y0055438D01*
X0148700Y0055253D01*
X0148700Y0054664D01*
X0147600Y0053564D01*
X0147600Y0049836D01*
X0148700Y0048736D01*
X0148700Y0008900D01*
X0019172Y0008900D01*
X0021631Y0009919D01*
X0023881Y0012169D01*
X0025099Y0015109D01*
X0025099Y0018291D01*
X0023881Y0021231D01*
X0021631Y0023481D01*
X0018691Y0024699D01*
X0015509Y0024699D01*
X0012569Y0023481D01*
X0010319Y0021231D01*
X0009300Y0018772D01*
X0009300Y0053136D01*
X0010236Y0052200D01*
X0013964Y0052200D01*
X0016600Y0054836D01*
X0016600Y0058564D01*
X0014300Y0060864D01*
X0014300Y0065789D01*
X0023011Y0074500D01*
X0024224Y0075712D01*
X0025236Y0074700D01*
X0028964Y0074700D01*
X0031600Y0077336D01*
X0031600Y0081064D01*
X0030588Y0082076D01*
X0033011Y0084500D01*
X0036189Y0084500D01*
X0036689Y0084000D01*
X0036205Y0084000D01*
X0034551Y0083315D01*
X0033285Y0082049D01*
X0032600Y0080395D01*
X0032600Y0073005D01*
X0033285Y0071351D01*
X0034551Y0070085D01*
X0036205Y0069400D01*
X0037995Y0069400D01*
X0039649Y0070085D01*
X0040126Y0070562D01*
X0040958Y0069731D01*
X0039324Y0069054D01*
X0037946Y0067676D01*
X0037200Y0065875D01*
X0037200Y0057525D01*
X0037422Y0056989D01*
X0036967Y0057445D01*
X0037000Y0057525D01*
X0037000Y0065875D01*
X0036254Y0067676D01*
X0034876Y0069054D01*
X0033075Y0069800D01*
X0031125Y0069800D01*
X0029324Y0069054D01*
X0027946Y0067676D01*
X0027200Y0065875D01*
X0027200Y0057525D01*
X0027422Y0056989D01*
X0026967Y0057445D01*
X0027000Y0057525D01*
X0027000Y0065875D01*
X0026254Y0067676D01*
X0024876Y0069054D01*
X0023075Y0069800D01*
X0021125Y0069800D01*
X0019324Y0069054D01*
X0017946Y0067676D01*
X0017200Y0065875D01*
X0017200Y0057525D01*
X0017946Y0055724D01*
X0019324Y0054346D01*
X0021125Y0053600D01*
X0023075Y0053600D01*
X0024145Y0054043D01*
X0024900Y0053289D01*
X0026089Y0052100D01*
X0026026Y0052100D01*
X0024041Y0051278D01*
X0022522Y0049759D01*
X0021991Y0048476D01*
X0021919Y0048696D01*
X0021547Y0049425D01*
X0021066Y0050088D01*
X0020488Y0050666D01*
X0019825Y0051147D01*
X0019096Y0051519D01*
X0018318Y0051772D01*
X0017600Y0051886D01*
X0017600Y0047200D01*
X0016600Y0047200D01*
X0016600Y0051886D01*
X0015882Y0051772D01*
X0015104Y0051519D01*
X0014375Y0051147D01*
X0013712Y0050666D01*
X0013134Y0050088D01*
X0012653Y0049425D01*
X0012281Y0048696D01*
X0012028Y0047918D01*
X0011914Y0047200D01*
X0016600Y0047200D01*
X0016600Y0046200D01*
X0011914Y0046200D01*
X0012028Y0045482D01*
X0012281Y0044704D01*
X0012653Y0043975D01*
X0013134Y0043312D01*
X0013712Y0042734D01*
X0014375Y0042253D01*
X0015104Y0041881D01*
X0015661Y0041700D01*
X0015104Y0041519D01*
X0014375Y0041147D01*
X0013712Y0040666D01*
X0013134Y0040088D01*
X0012653Y0039425D01*
X0012281Y0038696D01*
X0012028Y0037918D01*
X0011914Y0037200D01*
X0016600Y0037200D01*
X0016600Y0041886D01*
X0016600Y0046200D01*
X0017600Y0046200D01*
X0017600Y0037200D01*
X0016600Y0037200D01*
X0016600Y0036200D01*
X0017600Y0036200D01*
X0017600Y0031514D01*
X0018318Y0031628D01*
X0019096Y0031881D01*
X0019825Y0032253D01*
X0020488Y0032734D01*
X0021066Y0033312D01*
X0021547Y0033975D01*
X0021919Y0034704D01*
X0021991Y0034924D01*
X0022522Y0033641D01*
X0024041Y0032122D01*
X0026026Y0031300D01*
X0028174Y0031300D01*
X0030159Y0032122D01*
X0031678Y0033641D01*
X0032100Y0034660D01*
X0032522Y0033641D01*
X0034041Y0032122D01*
X0036026Y0031300D01*
X0038174Y0031300D01*
X0040159Y0032122D01*
X0041678Y0033641D01*
X0042100Y0034660D01*
X0042522Y0033641D01*
X0044041Y0032122D01*
X0046026Y0031300D01*
X0048174Y0031300D01*
X0050159Y0032122D01*
X0051678Y0033641D01*
X0052100Y0034660D01*
X0052522Y0033641D01*
X0052976Y0033187D01*
X0052400Y0032611D01*
X0049033Y0029244D01*
X0048174Y0029600D01*
X0046026Y0029600D01*
X0044041Y0028778D01*
X0042522Y0027259D01*
X0041991Y0025976D01*
X0041919Y0026196D01*
X0041547Y0026925D01*
X0041066Y0027588D01*
X0040488Y0028166D01*
X0039825Y0028647D01*
X0039096Y0029019D01*
X0038318Y0029272D01*
X0037600Y0029386D01*
X0037600Y0024700D01*
X0036600Y0024700D01*
X0036600Y0029386D01*
X0035882Y0029272D01*
X0035104Y0029019D01*
X0034375Y0028647D01*
X0033712Y0028166D01*
X0033134Y0027588D01*
X0032653Y0026925D01*
X0032281Y0026196D01*
X0032028Y0025418D01*
X0031914Y0024700D01*
X0036600Y0024700D01*
X0036600Y0023700D01*
X0037600Y0023700D01*
X0037600Y0019014D01*
X0038318Y0019128D01*
X0039096Y0019381D01*
X0039825Y0019753D01*
X0040488Y0020234D01*
X0041066Y0020812D01*
X0041547Y0021475D01*
X0041919Y0022204D01*
X0041991Y0022424D01*
X0042522Y0021141D01*
X0044041Y0019622D01*
X0046026Y0018800D01*
X0048174Y0018800D01*
X0050159Y0019622D01*
X0051678Y0021141D01*
X0052100Y0022160D01*
X0052522Y0021141D01*
X0054041Y0019622D01*
X0056026Y0018800D01*
X0058174Y0018800D01*
X0060159Y0019622D01*
X0061678Y0021141D01*
X0061700Y0021195D01*
X0061700Y0019796D01*
X0062446Y0019050D01*
X0060091Y0019050D01*
X0057250Y0016209D01*
X0057250Y0012191D01*
X0060091Y0009350D01*
X0064109Y0009350D01*
X0066459Y0011700D01*
X0067597Y0011700D01*
X0068516Y0012081D01*
X0074600Y0018164D01*
X0078184Y0014581D01*
X0079103Y0014200D01*
X0085400Y0014200D01*
X0085400Y0013925D01*
X0089325Y0010000D01*
X0094875Y0010000D01*
X0098800Y0013925D01*
X0098800Y0019475D01*
X0094875Y0023400D01*
X0089325Y0023400D01*
X0085400Y0019475D01*
X0085400Y0019200D01*
X0080636Y0019200D01*
X0077100Y0022736D01*
X0077100Y0025664D01*
X0078136Y0026700D01*
X0085097Y0026700D01*
X0086016Y0027081D01*
X0086719Y0027784D01*
X0091719Y0032784D01*
X0092100Y0033703D01*
X0092100Y0035664D01*
X0098636Y0042200D01*
X0098964Y0042200D01*
X0100400Y0043636D01*
X0100400Y0043365D01*
X0101039Y0041821D01*
X0102250Y0040610D01*
X0102250Y0039691D01*
X0102900Y0039041D01*
X0102900Y0020865D01*
X0103539Y0019321D01*
X0104721Y0018139D01*
X0105400Y0017460D01*
X0105400Y0013925D01*
X0109325Y0010000D01*
X0114875Y0010000D01*
X0118800Y0013925D01*
X0118800Y0019475D01*
X0114875Y0023400D01*
X0111340Y0023400D01*
X0111300Y0023440D01*
X0111300Y0039041D01*
X0111950Y0039691D01*
X0111950Y0043709D01*
X0109109Y0046550D01*
X0108800Y0046550D01*
X0108800Y0049536D01*
X0109100Y0049836D01*
X0109100Y0053564D01*
X0106464Y0056200D01*
X0106451Y0056200D01*
X0107000Y0057525D01*
X0107000Y0065875D01*
X0106254Y0067676D01*
X0104876Y0069054D01*
X0103075Y0069800D01*
X0101125Y0069800D01*
X0099324Y0069054D01*
X0097946Y0067676D01*
X0097200Y0065875D01*
X0097200Y0057525D01*
X0097233Y0057445D01*
X0096778Y0056989D01*
X0097000Y0057525D01*
X0097000Y0065875D01*
X0096254Y0067676D01*
X0094876Y0069054D01*
X0093242Y0069731D01*
X0094074Y0070562D01*
X0094551Y0070085D01*
X0096205Y0069400D01*
X0097995Y0069400D01*
X0099649Y0070085D01*
X0100915Y0071351D01*
X0101600Y0073005D01*
X0101600Y0080395D01*
X0100915Y0082049D01*
X0099649Y0083315D01*
X0097995Y0084000D01*
X0096205Y0084000D01*
X0094551Y0083315D01*
X0093285Y0082049D01*
X0092600Y0080395D01*
X0092600Y0075311D01*
X0091600Y0074311D01*
X0091600Y0080395D01*
X0090915Y0082049D01*
X0089649Y0083315D01*
X0087995Y0084000D01*
X0086205Y0084000D01*
X0084551Y0083315D01*
X0084300Y0083064D01*
X0084300Y0085111D01*
X0083011Y0086400D01*
X0080511Y0088900D01*
X0075511Y0093900D01*
X0073689Y0093900D01*
X0053011Y0093900D01*
X0052411Y0094500D01*
X0078011Y0094500D01*
X0083011Y0099500D01*
X0084074Y0100562D01*
X0084551Y0100085D01*
X0086205Y0099400D01*
X0087995Y0099400D01*
X0088556Y0099632D01*
X0089900Y0098289D01*
X0091189Y0097000D01*
X0100511Y0097000D01*
X0102974Y0099462D01*
X0104900Y0097536D01*
X0104900Y0093289D01*
X0106189Y0092000D01*
X0109900Y0088289D01*
X0109900Y0080864D01*
X0107600Y0078564D01*
X0107600Y0074836D01*
X0109900Y0072536D01*
X0109900Y0069292D01*
X0109324Y0069054D01*
X0107946Y0067676D01*
X0107200Y0065875D01*
X0107200Y0057525D01*
X0107946Y0055724D01*
X0109324Y0054346D01*
X0111125Y0053600D01*
X0113075Y0053600D01*
X0114876Y0054346D01*
X0116254Y0055724D01*
X0117000Y0057525D01*
X0117000Y0065875D01*
X0116254Y0067676D01*
X0114876Y0069054D01*
X0114300Y0069292D01*
X0114300Y0072536D01*
X0116600Y0074836D01*
X0116600Y0078564D01*
X0114300Y0080864D01*
X0114300Y0090111D01*
X0111800Y0092611D01*
X0111800Y0096400D01*
X0112400Y0096400D01*
X0112400Y0097000D01*
X0111800Y0097000D01*
X0111800Y0101000D01*
X0111600Y0101000D01*
X0111600Y0103564D01*
X0108964Y0106200D01*
X0105236Y0106200D01*
X0104300Y0105264D01*
X0104300Y0105789D01*
X0105711Y0107200D01*
X0108964Y0107200D01*
X0111600Y0109836D01*
X0111600Y0113564D01*
X0111564Y0113600D01*
X0113075Y0113600D01*
X0114876Y0114346D01*
X0116254Y0115724D01*
X0117000Y0117525D01*
X0117000Y0125875D01*
X0116778Y0126411D01*
X0117233Y0125955D01*
X0117200Y0125875D01*
X0117200Y0117525D01*
X0117946Y0115724D01*
X0119324Y0114346D01*
X0121125Y0113600D01*
X0122636Y0113600D01*
X0122600Y0113564D01*
X0122600Y0109836D01*
X0125236Y0107200D01*
X0128964Y0107200D01*
X0131264Y0109500D01*
X0137970Y0109500D01*
X0137200Y0108730D01*
X0137200Y0107000D01*
X0141800Y0107000D01*
X0141800Y0106400D01*
X0142400Y0106400D01*
X0142400Y0107000D01*
X0147000Y0107000D01*
X0147000Y0108730D01*
X0146230Y0109500D01*
X0147688Y0109500D01*
X0147000Y0108812D01*
X0147000Y0104588D01*
X0149900Y0101688D01*
X0149900Y0095789D01*
X0151189Y0094500D01*
X0161890Y0083799D01*
X0157692Y0079600D01*
X0156412Y0079600D01*
X0154212Y0081800D01*
X0151101Y0081800D01*
X0136600Y0096301D01*
X0136600Y0098564D01*
X0133964Y0101200D01*
X0131600Y0101200D01*
X0131600Y0103564D01*
X0128964Y0106200D01*
X0125236Y0106200D01*
X0122600Y0103564D01*
X0122600Y0101000D01*
X0122400Y0101000D01*
X0122400Y0097000D01*
X0126400Y0097000D01*
X0126400Y0097200D01*
X0127600Y0097200D01*
X0127600Y0094836D01*
X0130236Y0092200D01*
X0132499Y0092200D01*
X0142899Y0081800D01*
X0139988Y0081800D01*
X0137000Y0078812D01*
X0137000Y0074711D01*
X0136189Y0073900D01*
X0135664Y0073900D01*
X0136600Y0074836D01*
X0136600Y0078564D01*
X0133964Y0081200D01*
X0130236Y0081200D01*
X0127936Y0078900D01*
X0126264Y0078900D01*
X0123964Y0081200D01*
X0120236Y0081200D01*
X0117600Y0078564D01*
X0117600Y0074836D01*
X0119900Y0072536D01*
X0119900Y0069292D01*
X0119324Y0069054D01*
X0117946Y0067676D01*
X0117200Y0065875D01*
X0117200Y0057525D01*
X0117946Y0055724D01*
X0119324Y0054346D01*
X0120426Y0053890D01*
X0120100Y0053564D01*
X0120100Y0049836D01*
X0122736Y0047200D01*
X0126464Y0047200D01*
X0128350Y0049086D01*
X0130236Y0047200D01*
X0133964Y0047200D01*
X0135564Y0048800D01*
X0135899Y0048800D01*
X0139120Y0045579D01*
X0137250Y0043709D01*
X0137250Y0039691D01*
X0139200Y0037741D01*
X0139200Y0027901D01*
X0134699Y0023400D01*
X0129325Y0023400D01*
X0125400Y0019475D01*
X0125400Y0013925D01*
X0129325Y0010000D01*
X0134875Y0010000D01*
X0138800Y0013925D01*
X0138800Y0019299D01*
X0144558Y0025057D01*
X0145000Y0026123D01*
X0144813Y0025672D02*
X0148700Y0025672D01*
X0148700Y0024673D02*
X0144174Y0024673D01*
X0143176Y0023675D02*
X0148700Y0023675D01*
X0148700Y0022676D02*
X0142177Y0022676D01*
X0141179Y0021678D02*
X0148700Y0021678D01*
X0148700Y0020679D02*
X0140180Y0020679D01*
X0139182Y0019681D02*
X0148700Y0019681D01*
X0148700Y0018682D02*
X0138800Y0018682D01*
X0138800Y0017684D02*
X0148700Y0017684D01*
X0148700Y0016685D02*
X0138800Y0016685D01*
X0138800Y0015687D02*
X0148700Y0015687D01*
X0148700Y0014688D02*
X0138800Y0014688D01*
X0138565Y0013690D02*
X0148700Y0013690D01*
X0148700Y0012691D02*
X0137566Y0012691D01*
X0136568Y0011693D02*
X0148700Y0011693D01*
X0148700Y0010694D02*
X0135569Y0010694D01*
X0128631Y0010694D02*
X0115569Y0010694D01*
X0116568Y0011693D02*
X0127632Y0011693D01*
X0126634Y0012691D02*
X0117566Y0012691D01*
X0118565Y0013690D02*
X0125635Y0013690D01*
X0125400Y0014688D02*
X0118800Y0014688D01*
X0118800Y0015687D02*
X0125400Y0015687D01*
X0125400Y0016685D02*
X0118800Y0016685D01*
X0118800Y0017684D02*
X0125400Y0017684D01*
X0125400Y0018682D02*
X0118800Y0018682D01*
X0118595Y0019681D02*
X0125605Y0019681D01*
X0126604Y0020679D02*
X0117596Y0020679D01*
X0116598Y0021678D02*
X0127602Y0021678D01*
X0128601Y0022676D02*
X0115599Y0022676D01*
X0111300Y0023675D02*
X0134973Y0023675D01*
X0135972Y0024673D02*
X0111300Y0024673D01*
X0111300Y0025672D02*
X0136971Y0025672D01*
X0137969Y0026670D02*
X0111300Y0026670D01*
X0111300Y0027669D02*
X0138968Y0027669D01*
X0139200Y0028667D02*
X0111300Y0028667D01*
X0111300Y0029666D02*
X0139200Y0029666D01*
X0139200Y0030664D02*
X0111300Y0030664D01*
X0111300Y0031663D02*
X0139200Y0031663D01*
X0139200Y0032661D02*
X0111300Y0032661D01*
X0111300Y0033660D02*
X0139200Y0033660D01*
X0139200Y0034658D02*
X0111300Y0034658D01*
X0111300Y0035657D02*
X0139200Y0035657D01*
X0139200Y0036655D02*
X0111300Y0036655D01*
X0111300Y0037654D02*
X0114570Y0037654D01*
X0115174Y0037050D02*
X0112450Y0039774D01*
X0112450Y0041400D01*
X0116800Y0041400D01*
X0117400Y0041400D01*
X0117400Y0042000D01*
X0121750Y0042000D01*
X0121750Y0043626D01*
X0119026Y0046350D01*
X0117400Y0046350D01*
X0117400Y0042000D01*
X0116800Y0042000D01*
X0116800Y0046350D01*
X0115174Y0046350D01*
X0112450Y0043626D01*
X0112450Y0042000D01*
X0116800Y0042000D01*
X0116800Y0041400D01*
X0116800Y0037050D01*
X0115174Y0037050D01*
X0116800Y0037654D02*
X0117400Y0037654D01*
X0117400Y0037050D02*
X0119026Y0037050D01*
X0121750Y0039774D01*
X0121750Y0041400D01*
X0117400Y0041400D01*
X0117400Y0037050D01*
X0117400Y0038652D02*
X0116800Y0038652D01*
X0116800Y0039651D02*
X0117400Y0039651D01*
X0117400Y0040649D02*
X0116800Y0040649D01*
X0116800Y0041648D02*
X0111950Y0041648D01*
X0111950Y0042646D02*
X0112450Y0042646D01*
X0112469Y0043645D02*
X0111950Y0043645D01*
X0111015Y0044643D02*
X0113467Y0044643D01*
X0114466Y0045642D02*
X0110017Y0045642D01*
X0108800Y0046640D02*
X0138058Y0046640D01*
X0139057Y0045642D02*
X0134734Y0045642D01*
X0134026Y0046350D02*
X0132400Y0046350D01*
X0132400Y0042000D01*
X0136750Y0042000D01*
X0136750Y0043626D01*
X0134026Y0046350D01*
X0134403Y0047639D02*
X0137060Y0047639D01*
X0136061Y0048637D02*
X0135401Y0048637D01*
X0135733Y0044643D02*
X0138185Y0044643D01*
X0137250Y0043645D02*
X0136731Y0043645D01*
X0136750Y0042646D02*
X0137250Y0042646D01*
X0137250Y0041648D02*
X0132400Y0041648D01*
X0132400Y0041400D02*
X0132400Y0042000D01*
X0131800Y0042000D01*
X0131800Y0046350D01*
X0130174Y0046350D01*
X0127450Y0043626D01*
X0127450Y0042000D01*
X0131800Y0042000D01*
X0131800Y0041400D01*
X0132400Y0041400D01*
X0136750Y0041400D01*
X0136750Y0039774D01*
X0134026Y0037050D01*
X0132400Y0037050D01*
X0132400Y0041400D01*
X0131800Y0041400D02*
X0131800Y0037050D01*
X0130174Y0037050D01*
X0127450Y0039774D01*
X0127450Y0041400D01*
X0131800Y0041400D01*
X0131800Y0041648D02*
X0117400Y0041648D01*
X0117400Y0042646D02*
X0116800Y0042646D01*
X0116800Y0043645D02*
X0117400Y0043645D01*
X0117400Y0044643D02*
X0116800Y0044643D01*
X0116800Y0045642D02*
X0117400Y0045642D01*
X0119734Y0045642D02*
X0129466Y0045642D01*
X0128467Y0044643D02*
X0120733Y0044643D01*
X0121731Y0043645D02*
X0127469Y0043645D01*
X0127450Y0042646D02*
X0121750Y0042646D01*
X0121750Y0040649D02*
X0127450Y0040649D01*
X0127573Y0039651D02*
X0121627Y0039651D01*
X0120628Y0038652D02*
X0128572Y0038652D01*
X0129570Y0037654D02*
X0119630Y0037654D01*
X0113572Y0038652D02*
X0111300Y0038652D01*
X0111910Y0039651D02*
X0112573Y0039651D01*
X0112450Y0040649D02*
X0111950Y0040649D01*
X0108800Y0047639D02*
X0122297Y0047639D01*
X0121299Y0048637D02*
X0108800Y0048637D01*
X0108900Y0049636D02*
X0120300Y0049636D01*
X0120100Y0050634D02*
X0109100Y0050634D01*
X0109100Y0051633D02*
X0120100Y0051633D01*
X0120100Y0052632D02*
X0109100Y0052632D01*
X0109034Y0053630D02*
X0111053Y0053630D01*
X0113147Y0053630D02*
X0120166Y0053630D01*
X0119042Y0054629D02*
X0115158Y0054629D01*
X0116157Y0055627D02*
X0118043Y0055627D01*
X0117573Y0056626D02*
X0116627Y0056626D01*
X0117000Y0057624D02*
X0117200Y0057624D01*
X0117200Y0058623D02*
X0117000Y0058623D01*
X0117000Y0059621D02*
X0117200Y0059621D01*
X0117200Y0060620D02*
X0117000Y0060620D01*
X0117000Y0061618D02*
X0117200Y0061618D01*
X0117200Y0062617D02*
X0117000Y0062617D01*
X0117000Y0063615D02*
X0117200Y0063615D01*
X0117200Y0064614D02*
X0117000Y0064614D01*
X0117000Y0065612D02*
X0117200Y0065612D01*
X0117505Y0066611D02*
X0116695Y0066611D01*
X0116282Y0067609D02*
X0117918Y0067609D01*
X0118878Y0068608D02*
X0115322Y0068608D01*
X0114300Y0069606D02*
X0119900Y0069606D01*
X0119900Y0070605D02*
X0114300Y0070605D01*
X0114300Y0071603D02*
X0119900Y0071603D01*
X0119834Y0072602D02*
X0114366Y0072602D01*
X0115364Y0073600D02*
X0118836Y0073600D01*
X0117837Y0074599D02*
X0116363Y0074599D01*
X0116600Y0075597D02*
X0117600Y0075597D01*
X0117600Y0076596D02*
X0116600Y0076596D01*
X0116600Y0077594D02*
X0117600Y0077594D01*
X0117629Y0078593D02*
X0116571Y0078593D01*
X0115573Y0079591D02*
X0118627Y0079591D01*
X0119626Y0080590D02*
X0114574Y0080590D01*
X0114300Y0081588D02*
X0139776Y0081588D01*
X0138777Y0080590D02*
X0134574Y0080590D01*
X0135573Y0079591D02*
X0137779Y0079591D01*
X0137000Y0078593D02*
X0136571Y0078593D01*
X0136600Y0077594D02*
X0137000Y0077594D01*
X0137000Y0076596D02*
X0136600Y0076596D01*
X0136600Y0075597D02*
X0137000Y0075597D01*
X0136888Y0074599D02*
X0136363Y0074599D01*
X0137100Y0071700D02*
X0132100Y0071700D01*
X0127100Y0066700D01*
X0127100Y0054200D01*
X0124600Y0051700D01*
X0127901Y0048637D02*
X0128799Y0048637D01*
X0129797Y0047639D02*
X0126903Y0047639D01*
X0131800Y0045642D02*
X0132400Y0045642D01*
X0132400Y0044643D02*
X0131800Y0044643D01*
X0131800Y0043645D02*
X0132400Y0043645D01*
X0132400Y0042646D02*
X0131800Y0042646D01*
X0131800Y0040649D02*
X0132400Y0040649D01*
X0132400Y0039651D02*
X0131800Y0039651D01*
X0131800Y0038652D02*
X0132400Y0038652D01*
X0132400Y0037654D02*
X0131800Y0037654D01*
X0134630Y0037654D02*
X0139200Y0037654D01*
X0138289Y0038652D02*
X0135628Y0038652D01*
X0136627Y0039651D02*
X0137290Y0039651D01*
X0137250Y0040649D02*
X0136750Y0040649D01*
X0145000Y0037654D02*
X0148700Y0037654D01*
X0148700Y0038652D02*
X0145911Y0038652D01*
X0146910Y0039651D02*
X0148700Y0039651D01*
X0148700Y0040649D02*
X0146950Y0040649D01*
X0146950Y0041648D02*
X0148700Y0041648D01*
X0148700Y0042646D02*
X0146950Y0042646D01*
X0146950Y0043645D02*
X0148700Y0043645D01*
X0148700Y0044643D02*
X0146015Y0044643D01*
X0145017Y0045642D02*
X0148700Y0045642D01*
X0148700Y0046640D02*
X0145000Y0046640D01*
X0144850Y0047639D02*
X0148700Y0047639D01*
X0148700Y0048637D02*
X0144264Y0048637D01*
X0143265Y0049636D02*
X0147800Y0049636D01*
X0147600Y0050634D02*
X0142267Y0050634D01*
X0141268Y0051633D02*
X0147600Y0051633D01*
X0147600Y0052632D02*
X0140270Y0052632D01*
X0141053Y0053630D02*
X0139271Y0053630D01*
X0139324Y0054346D02*
X0137946Y0055724D01*
X0137200Y0057525D01*
X0137200Y0065875D01*
X0137946Y0067676D01*
X0139324Y0069054D01*
X0141125Y0069800D01*
X0143075Y0069800D01*
X0144876Y0069054D01*
X0146254Y0067676D01*
X0147000Y0065875D01*
X0147000Y0057525D01*
X0146254Y0055724D01*
X0144876Y0054346D01*
X0143075Y0053600D01*
X0141125Y0053600D01*
X0139324Y0054346D01*
X0139042Y0054629D02*
X0135535Y0054629D01*
X0136157Y0055627D02*
X0138043Y0055627D01*
X0137573Y0056626D02*
X0136627Y0056626D01*
X0137000Y0057624D02*
X0137200Y0057624D01*
X0137200Y0058623D02*
X0137000Y0058623D01*
X0137000Y0059621D02*
X0137200Y0059621D01*
X0137200Y0060620D02*
X0137000Y0060620D01*
X0137000Y0061618D02*
X0137200Y0061618D01*
X0137200Y0062617D02*
X0137000Y0062617D01*
X0137000Y0063615D02*
X0137200Y0063615D01*
X0137200Y0064614D02*
X0137000Y0064614D01*
X0137000Y0065612D02*
X0137200Y0065612D01*
X0137505Y0066611D02*
X0136695Y0066611D01*
X0136282Y0067609D02*
X0137918Y0067609D01*
X0138878Y0068608D02*
X0135322Y0068608D01*
X0138117Y0069606D02*
X0140658Y0069606D01*
X0139116Y0070605D02*
X0149002Y0070605D01*
X0148700Y0069606D02*
X0143542Y0069606D01*
X0145322Y0068608D02*
X0148700Y0068608D01*
X0148259Y0067609D02*
X0146282Y0067609D01*
X0146695Y0066611D02*
X0147714Y0066611D01*
X0147454Y0065612D02*
X0147000Y0065612D01*
X0147000Y0064614D02*
X0147400Y0064614D01*
X0147400Y0063615D02*
X0147000Y0063615D01*
X0147000Y0062617D02*
X0147400Y0062617D01*
X0147000Y0061618D02*
X0148700Y0061618D01*
X0147400Y0060620D02*
X0147000Y0060620D01*
X0147000Y0059621D02*
X0147400Y0059621D01*
X0147400Y0058623D02*
X0147000Y0058623D01*
X0147000Y0057624D02*
X0147480Y0057624D01*
X0147780Y0056626D02*
X0146627Y0056626D01*
X0146157Y0055627D02*
X0148378Y0055627D01*
X0148665Y0054629D02*
X0145158Y0054629D01*
X0143147Y0053630D02*
X0147666Y0053630D01*
X0152100Y0051700D02*
X0157100Y0056700D01*
X0157100Y0066700D01*
X0162100Y0071700D01*
X0164600Y0071700D01*
X0167100Y0074200D01*
X0167100Y0081700D01*
X0152100Y0096700D01*
X0152100Y0106700D01*
X0148032Y0103556D02*
X0145885Y0103556D01*
X0146884Y0104554D02*
X0147033Y0104554D01*
X0147000Y0104670D02*
X0147000Y0106400D01*
X0142400Y0106400D01*
X0142400Y0101800D01*
X0144130Y0101800D01*
X0147000Y0104670D01*
X0147000Y0105553D02*
X0147000Y0105553D01*
X0147000Y0106551D02*
X0142400Y0106551D01*
X0141800Y0106551D02*
X0105062Y0106551D01*
X0104589Y0105553D02*
X0104300Y0105553D01*
X0102100Y0106700D02*
X0102100Y0101700D01*
X0099600Y0099200D01*
X0092100Y0099200D01*
X0087100Y0104200D01*
X0087100Y0106700D01*
X0084076Y0100560D02*
X0084071Y0100560D01*
X0083073Y0099562D02*
X0085815Y0099562D01*
X0088385Y0099562D02*
X0088627Y0099562D01*
X0089626Y0098563D02*
X0082074Y0098563D01*
X0081076Y0097565D02*
X0090624Y0097565D01*
X0101076Y0097565D02*
X0104872Y0097565D01*
X0104900Y0096566D02*
X0080077Y0096566D01*
X0079079Y0095568D02*
X0104900Y0095568D01*
X0104900Y0094569D02*
X0078080Y0094569D01*
X0077100Y0096700D02*
X0082100Y0101700D01*
X0082100Y0121700D01*
X0077100Y0116700D02*
X0072100Y0111700D01*
X0067100Y0111700D01*
X0067100Y0106700D01*
X0071600Y0106551D02*
X0072600Y0106551D01*
X0072600Y0105553D02*
X0071600Y0105553D01*
X0071600Y0104554D02*
X0072600Y0104554D01*
X0072600Y0103556D02*
X0071600Y0103556D01*
X0071415Y0102557D02*
X0072785Y0102557D01*
X0073199Y0101559D02*
X0071001Y0101559D01*
X0070124Y0100560D02*
X0074076Y0100560D01*
X0075815Y0099562D02*
X0068385Y0099562D01*
X0065815Y0099562D02*
X0052350Y0099562D01*
X0051351Y0100560D02*
X0054381Y0100560D01*
X0054299Y0100620D02*
X0054846Y0100222D01*
X0055449Y0099915D01*
X0056093Y0099706D01*
X0056762Y0099600D01*
X0056800Y0099600D01*
X0056800Y0106400D01*
X0052800Y0106400D01*
X0052800Y0103562D01*
X0052906Y0102893D01*
X0053115Y0102249D01*
X0053422Y0101646D01*
X0053820Y0101099D01*
X0054299Y0100620D01*
X0053486Y0101559D02*
X0051001Y0101559D01*
X0051415Y0102557D02*
X0053015Y0102557D01*
X0052801Y0103556D02*
X0051600Y0103556D01*
X0051600Y0104554D02*
X0052800Y0104554D01*
X0052800Y0105553D02*
X0051600Y0105553D01*
X0051600Y0106551D02*
X0056800Y0106551D01*
X0056800Y0105553D02*
X0057400Y0105553D01*
X0057400Y0104554D02*
X0056800Y0104554D01*
X0056800Y0103556D02*
X0057400Y0103556D01*
X0057400Y0102557D02*
X0056800Y0102557D01*
X0056800Y0101559D02*
X0057400Y0101559D01*
X0057400Y0100560D02*
X0056800Y0100560D01*
X0059819Y0100560D02*
X0064076Y0100560D01*
X0063199Y0101559D02*
X0060714Y0101559D01*
X0061185Y0102557D02*
X0062785Y0102557D01*
X0062600Y0103556D02*
X0061399Y0103556D01*
X0061400Y0104554D02*
X0062600Y0104554D01*
X0062600Y0105553D02*
X0061400Y0105553D01*
X0057400Y0107550D02*
X0056800Y0107550D01*
X0056800Y0108548D02*
X0057400Y0108548D01*
X0057400Y0109547D02*
X0056800Y0109547D01*
X0056800Y0110545D02*
X0057400Y0110545D01*
X0057400Y0111544D02*
X0056800Y0111544D01*
X0056800Y0112542D02*
X0057400Y0112542D01*
X0057400Y0113541D02*
X0056800Y0113541D01*
X0055621Y0113541D02*
X0051600Y0113541D01*
X0051600Y0112542D02*
X0054061Y0112542D01*
X0053315Y0111544D02*
X0051600Y0111544D01*
X0051600Y0110545D02*
X0052918Y0110545D01*
X0052800Y0109547D02*
X0051600Y0109547D01*
X0051600Y0108548D02*
X0052800Y0108548D01*
X0052800Y0107550D02*
X0051600Y0107550D01*
X0047100Y0111700D02*
X0047100Y0101700D01*
X0052100Y0096700D01*
X0077100Y0096700D01*
X0075841Y0093570D02*
X0104900Y0093570D01*
X0105617Y0092572D02*
X0076839Y0092572D01*
X0077838Y0091573D02*
X0106615Y0091573D01*
X0107614Y0090575D02*
X0078836Y0090575D01*
X0079835Y0089576D02*
X0108612Y0089576D01*
X0109611Y0088578D02*
X0080833Y0088578D01*
X0081832Y0087579D02*
X0109900Y0087579D01*
X0109900Y0086581D02*
X0082830Y0086581D01*
X0083829Y0085582D02*
X0109900Y0085582D01*
X0109900Y0084584D02*
X0084300Y0084584D01*
X0084300Y0083585D02*
X0085204Y0083585D01*
X0082100Y0084200D02*
X0082100Y0061700D01*
X0087100Y0066700D02*
X0097100Y0076700D01*
X0101600Y0076596D02*
X0107600Y0076596D01*
X0107600Y0077594D02*
X0101600Y0077594D01*
X0101600Y0078593D02*
X0107629Y0078593D01*
X0108627Y0079591D02*
X0101600Y0079591D01*
X0101519Y0080590D02*
X0109626Y0080590D01*
X0109900Y0081588D02*
X0101106Y0081588D01*
X0100377Y0082587D02*
X0109900Y0082587D01*
X0109900Y0083585D02*
X0098996Y0083585D01*
X0095204Y0083585D02*
X0088996Y0083585D01*
X0090377Y0082587D02*
X0093823Y0082587D01*
X0093094Y0081588D02*
X0091106Y0081588D01*
X0091519Y0080590D02*
X0092681Y0080590D01*
X0092600Y0079591D02*
X0091600Y0079591D01*
X0091600Y0078593D02*
X0092600Y0078593D01*
X0092600Y0077594D02*
X0091600Y0077594D01*
X0091600Y0076596D02*
X0092600Y0076596D01*
X0092600Y0075597D02*
X0091600Y0075597D01*
X0091600Y0074599D02*
X0091888Y0074599D01*
X0093542Y0069606D02*
X0095707Y0069606D01*
X0095322Y0068608D02*
X0098878Y0068608D01*
X0098493Y0069606D02*
X0100658Y0069606D01*
X0100169Y0070605D02*
X0109900Y0070605D01*
X0109900Y0071603D02*
X0101019Y0071603D01*
X0101433Y0072602D02*
X0109834Y0072602D01*
X0108836Y0073600D02*
X0101600Y0073600D01*
X0101600Y0074599D02*
X0107837Y0074599D01*
X0107600Y0075597D02*
X0101600Y0075597D01*
X0103542Y0069606D02*
X0109900Y0069606D01*
X0108878Y0068608D02*
X0105322Y0068608D01*
X0106282Y0067609D02*
X0107918Y0067609D01*
X0107505Y0066611D02*
X0106695Y0066611D01*
X0107000Y0065612D02*
X0107200Y0065612D01*
X0107200Y0064614D02*
X0107000Y0064614D01*
X0107000Y0063615D02*
X0107200Y0063615D01*
X0107200Y0062617D02*
X0107000Y0062617D01*
X0107000Y0061618D02*
X0107200Y0061618D01*
X0107200Y0060620D02*
X0107000Y0060620D01*
X0107000Y0059621D02*
X0107200Y0059621D01*
X0107200Y0058623D02*
X0107000Y0058623D01*
X0107000Y0057624D02*
X0107200Y0057624D01*
X0107573Y0056626D02*
X0106627Y0056626D01*
X0107037Y0055627D02*
X0108043Y0055627D01*
X0108035Y0054629D02*
X0109042Y0054629D01*
X0112100Y0061700D02*
X0112100Y0076700D01*
X0112100Y0089200D01*
X0107100Y0094200D01*
X0107100Y0101700D01*
X0103873Y0098563D02*
X0102074Y0098563D01*
X0102100Y0106700D02*
X0107100Y0111700D01*
X0110312Y0108548D02*
X0123888Y0108548D01*
X0124886Y0107550D02*
X0109314Y0107550D01*
X0109611Y0105553D02*
X0124589Y0105553D01*
X0123590Y0104554D02*
X0110610Y0104554D01*
X0111600Y0103556D02*
X0122600Y0103556D01*
X0122600Y0102557D02*
X0111600Y0102557D01*
X0111600Y0101559D02*
X0122600Y0101559D01*
X0121800Y0101000D02*
X0120319Y0101000D01*
X0117800Y0098481D01*
X0117800Y0097000D01*
X0121800Y0097000D01*
X0121800Y0101000D01*
X0121800Y0100560D02*
X0122400Y0100560D01*
X0122400Y0099562D02*
X0121800Y0099562D01*
X0121800Y0098563D02*
X0122400Y0098563D01*
X0122400Y0097565D02*
X0121800Y0097565D01*
X0121800Y0097000D02*
X0122400Y0097000D01*
X0122400Y0096400D01*
X0126400Y0096400D01*
X0126400Y0094919D01*
X0123881Y0092400D01*
X0122400Y0092400D01*
X0122400Y0096400D01*
X0121800Y0096400D01*
X0121800Y0092400D01*
X0120319Y0092400D01*
X0117800Y0094919D01*
X0117800Y0096400D01*
X0121800Y0096400D01*
X0121800Y0097000D01*
X0121800Y0096566D02*
X0112400Y0096566D01*
X0112400Y0096400D02*
X0116400Y0096400D01*
X0116400Y0094919D01*
X0113881Y0092400D01*
X0112400Y0092400D01*
X0112400Y0096400D01*
X0112400Y0097000D02*
X0116400Y0097000D01*
X0116400Y0098481D01*
X0113881Y0101000D01*
X0112400Y0101000D01*
X0112400Y0097000D01*
X0112400Y0097565D02*
X0111800Y0097565D01*
X0111800Y0098563D02*
X0112400Y0098563D01*
X0112400Y0099562D02*
X0111800Y0099562D01*
X0111800Y0100560D02*
X0112400Y0100560D01*
X0114321Y0100560D02*
X0119879Y0100560D01*
X0118880Y0099562D02*
X0115320Y0099562D01*
X0116318Y0098563D02*
X0117882Y0098563D01*
X0117800Y0097565D02*
X0116400Y0097565D01*
X0116400Y0095568D02*
X0117800Y0095568D01*
X0118150Y0094569D02*
X0116050Y0094569D01*
X0115052Y0093570D02*
X0119148Y0093570D01*
X0120147Y0092572D02*
X0114053Y0092572D01*
X0112838Y0091573D02*
X0133125Y0091573D01*
X0134124Y0090575D02*
X0113836Y0090575D01*
X0114300Y0089576D02*
X0135122Y0089576D01*
X0136121Y0088578D02*
X0114300Y0088578D01*
X0114300Y0087579D02*
X0137119Y0087579D01*
X0138118Y0086581D02*
X0114300Y0086581D01*
X0114300Y0085582D02*
X0139116Y0085582D01*
X0140115Y0084584D02*
X0114300Y0084584D01*
X0114300Y0083585D02*
X0141113Y0083585D01*
X0142112Y0082587D02*
X0114300Y0082587D01*
X0122100Y0076700D02*
X0132100Y0076700D01*
X0128627Y0079591D02*
X0125573Y0079591D01*
X0124574Y0080590D02*
X0129626Y0080590D01*
X0122100Y0076700D02*
X0122100Y0061700D01*
X0137100Y0071700D02*
X0142100Y0076700D01*
X0145214Y0072602D02*
X0148986Y0072602D01*
X0149695Y0071603D02*
X0144216Y0071603D01*
X0146213Y0073600D02*
X0147987Y0073600D01*
X0155423Y0080590D02*
X0158682Y0080590D01*
X0159680Y0081588D02*
X0154424Y0081588D01*
X0150314Y0082587D02*
X0160679Y0082587D01*
X0161677Y0083585D02*
X0149316Y0083585D01*
X0148317Y0084584D02*
X0161105Y0084584D01*
X0160106Y0085582D02*
X0147319Y0085582D01*
X0146320Y0086581D02*
X0159108Y0086581D01*
X0158109Y0087579D02*
X0145322Y0087579D01*
X0144323Y0088578D02*
X0157111Y0088578D01*
X0156112Y0089576D02*
X0143325Y0089576D01*
X0142326Y0090575D02*
X0155114Y0090575D01*
X0154115Y0091573D02*
X0141328Y0091573D01*
X0140329Y0092572D02*
X0153117Y0092572D01*
X0152118Y0093570D02*
X0139331Y0093570D01*
X0138332Y0094569D02*
X0151120Y0094569D01*
X0150121Y0095568D02*
X0137334Y0095568D01*
X0136600Y0096566D02*
X0149900Y0096566D01*
X0149900Y0097565D02*
X0136600Y0097565D01*
X0136600Y0098563D02*
X0149900Y0098563D01*
X0149900Y0099562D02*
X0135602Y0099562D01*
X0134604Y0100560D02*
X0149900Y0100560D01*
X0149900Y0101559D02*
X0131600Y0101559D01*
X0131600Y0102557D02*
X0139313Y0102557D01*
X0140070Y0101800D02*
X0141800Y0101800D01*
X0141800Y0106400D01*
X0137200Y0106400D01*
X0137200Y0104670D01*
X0140070Y0101800D01*
X0141800Y0102557D02*
X0142400Y0102557D01*
X0142400Y0103556D02*
X0141800Y0103556D01*
X0141800Y0104554D02*
X0142400Y0104554D01*
X0142400Y0105553D02*
X0141800Y0105553D01*
X0144887Y0102557D02*
X0149030Y0102557D01*
X0147000Y0107550D02*
X0147000Y0107550D01*
X0147000Y0108548D02*
X0147000Y0108548D01*
X0144876Y0114346D02*
X0143799Y0113900D01*
X0150401Y0113900D01*
X0149324Y0114346D01*
X0147946Y0115724D01*
X0147200Y0117525D01*
X0147200Y0125875D01*
X0147946Y0127676D01*
X0149324Y0129054D01*
X0151125Y0129800D01*
X0153075Y0129800D01*
X0154876Y0129054D01*
X0156254Y0127676D01*
X0157000Y0125875D01*
X0157000Y0117525D01*
X0156254Y0115724D01*
X0154876Y0114346D01*
X0153799Y0113900D01*
X0160401Y0113900D01*
X0159324Y0114346D01*
X0157946Y0115724D01*
X0157200Y0117525D01*
X0157200Y0125875D01*
X0157946Y0127676D01*
X0159324Y0129054D01*
X0161125Y0129800D01*
X0163075Y0129800D01*
X0163700Y0129541D01*
X0163700Y0150790D01*
X0158574Y0156600D01*
X0134700Y0156600D01*
X0134700Y0155686D01*
X0133924Y0153811D01*
X0133800Y0153688D01*
X0133800Y0149712D01*
X0133924Y0149589D01*
X0134700Y0147714D01*
X0134700Y0145686D01*
X0133924Y0143811D01*
X0132489Y0142376D01*
X0130614Y0141600D01*
X0128586Y0141600D01*
X0126711Y0142376D01*
X0125276Y0143811D01*
X0124500Y0145686D01*
X0124500Y0147714D01*
X0125276Y0149589D01*
X0125400Y0149712D01*
X0125400Y0153688D01*
X0125276Y0153811D01*
X0124500Y0155686D01*
X0124500Y0157714D01*
X0124620Y0158003D01*
X0122500Y0160123D01*
X0122500Y0159796D01*
X0121504Y0158800D01*
X0119526Y0158800D01*
X0119825Y0158647D01*
X0120488Y0158166D01*
X0121066Y0157588D01*
X0121547Y0156925D01*
X0121919Y0156196D01*
X0122172Y0155418D01*
X0122286Y0154700D01*
X0117600Y0154700D01*
X0117600Y0153700D01*
X0122286Y0153700D01*
X0122172Y0152982D01*
X0121919Y0152204D01*
X0121547Y0151475D01*
X0121066Y0150812D01*
X0120488Y0150234D01*
X0119825Y0149753D01*
X0119096Y0149381D01*
X0118876Y0149309D01*
X0120159Y0148778D01*
X0121678Y0147259D01*
X0122500Y0145274D01*
X0122500Y0143126D01*
X0121678Y0141141D01*
X0120159Y0139622D01*
X0119140Y0139200D01*
X0120159Y0138778D01*
X0121678Y0137259D01*
X0122500Y0135274D01*
X0122500Y0133126D01*
X0121678Y0131141D01*
X0120159Y0129622D01*
X0119897Y0129514D01*
X0120055Y0129357D01*
X0121125Y0129800D01*
X0123075Y0129800D01*
X0124876Y0129054D01*
X0126254Y0127676D01*
X0127000Y0125875D01*
X0127000Y0117525D01*
X0126451Y0116200D01*
X0127997Y0116200D01*
X0127744Y0116696D01*
X0127516Y0117399D01*
X0127400Y0118130D01*
X0127400Y0121200D01*
X0131600Y0121200D01*
X0131600Y0122200D01*
X0131600Y0129579D01*
X0130999Y0129484D01*
X0130296Y0129256D01*
X0129637Y0128920D01*
X0129038Y0128485D01*
X0128515Y0127962D01*
X0128080Y0127363D01*
X0127744Y0126704D01*
X0127516Y0126001D01*
X0127400Y0125270D01*
X0127400Y0122200D01*
X0131600Y0122200D01*
X0132600Y0122200D01*
X0132600Y0129579D01*
X0133201Y0129484D01*
X0133904Y0129256D01*
X0134563Y0128920D01*
X0135162Y0128485D01*
X0135685Y0127962D01*
X0136120Y0127363D01*
X0136456Y0126704D01*
X0136684Y0126001D01*
X0136800Y0125270D01*
X0136800Y0122200D01*
X0132600Y0122200D01*
X0132600Y0121200D01*
X0136800Y0121200D01*
X0136800Y0118130D01*
X0136684Y0117399D01*
X0136456Y0116696D01*
X0136120Y0116037D01*
X0135685Y0115438D01*
X0135162Y0114915D01*
X0134563Y0114480D01*
X0133904Y0114144D01*
X0133201Y0113916D01*
X0133101Y0113900D01*
X0140401Y0113900D01*
X0139324Y0114346D01*
X0137946Y0115724D01*
X0137200Y0117525D01*
X0137200Y0125875D01*
X0137946Y0127676D01*
X0139324Y0129054D01*
X0141125Y0129800D01*
X0143075Y0129800D01*
X0144876Y0129054D01*
X0146254Y0127676D01*
X0147000Y0125875D01*
X0147000Y0117525D01*
X0146254Y0115724D01*
X0144876Y0114346D01*
X0145069Y0114539D02*
X0149131Y0114539D01*
X0148133Y0115538D02*
X0146067Y0115538D01*
X0146590Y0116536D02*
X0147610Y0116536D01*
X0147200Y0117535D02*
X0147000Y0117535D01*
X0147000Y0118533D02*
X0147200Y0118533D01*
X0147200Y0119532D02*
X0147000Y0119532D01*
X0147000Y0120530D02*
X0147200Y0120530D01*
X0147200Y0121529D02*
X0147000Y0121529D01*
X0147000Y0122527D02*
X0147200Y0122527D01*
X0147200Y0123526D02*
X0147000Y0123526D01*
X0147000Y0124524D02*
X0147200Y0124524D01*
X0147200Y0125523D02*
X0147000Y0125523D01*
X0146732Y0126521D02*
X0147468Y0126521D01*
X0147881Y0127520D02*
X0146319Y0127520D01*
X0145411Y0128518D02*
X0148789Y0128518D01*
X0150442Y0129517D02*
X0143758Y0129517D01*
X0140442Y0129517D02*
X0132995Y0129517D01*
X0132600Y0129517D02*
X0131600Y0129517D01*
X0131205Y0129517D02*
X0123758Y0129517D01*
X0125411Y0128518D02*
X0129084Y0128518D01*
X0128194Y0127520D02*
X0126319Y0127520D01*
X0126732Y0126521D02*
X0127685Y0126521D01*
X0127440Y0125523D02*
X0127000Y0125523D01*
X0127000Y0124524D02*
X0127400Y0124524D01*
X0127400Y0123526D02*
X0127000Y0123526D01*
X0127000Y0122527D02*
X0127400Y0122527D01*
X0127000Y0121529D02*
X0131600Y0121529D01*
X0131600Y0122527D02*
X0132600Y0122527D01*
X0132600Y0121529D02*
X0137200Y0121529D01*
X0137200Y0122527D02*
X0136800Y0122527D01*
X0136800Y0123526D02*
X0137200Y0123526D01*
X0137200Y0124524D02*
X0136800Y0124524D01*
X0136760Y0125523D02*
X0137200Y0125523D01*
X0137468Y0126521D02*
X0136515Y0126521D01*
X0136006Y0127520D02*
X0137881Y0127520D01*
X0138789Y0128518D02*
X0135116Y0128518D01*
X0132600Y0128518D02*
X0131600Y0128518D01*
X0131600Y0127520D02*
X0132600Y0127520D01*
X0132600Y0126521D02*
X0131600Y0126521D01*
X0131600Y0125523D02*
X0132600Y0125523D01*
X0132600Y0124524D02*
X0131600Y0124524D01*
X0131600Y0123526D02*
X0132600Y0123526D01*
X0136800Y0120530D02*
X0137200Y0120530D01*
X0137200Y0119532D02*
X0136800Y0119532D01*
X0136800Y0118533D02*
X0137200Y0118533D01*
X0137200Y0117535D02*
X0136706Y0117535D01*
X0136374Y0116536D02*
X0137610Y0116536D01*
X0138133Y0115538D02*
X0135757Y0115538D01*
X0134645Y0114539D02*
X0139131Y0114539D01*
X0137200Y0108548D02*
X0130312Y0108548D01*
X0129314Y0107550D02*
X0137200Y0107550D01*
X0137200Y0105553D02*
X0129611Y0105553D01*
X0130610Y0104554D02*
X0137316Y0104554D01*
X0138315Y0103556D02*
X0131600Y0103556D01*
X0127100Y0111700D02*
X0177100Y0111700D01*
X0175300Y0117535D02*
X0185300Y0117535D01*
X0185352Y0118533D02*
X0175300Y0118533D01*
X0174829Y0119532D02*
X0186351Y0119532D01*
X0184194Y0120530D02*
X0179511Y0120530D01*
X0178881Y0119900D02*
X0181400Y0122419D01*
X0181400Y0123900D01*
X0177400Y0123900D01*
X0177400Y0119900D01*
X0178881Y0119900D01*
X0177400Y0120530D02*
X0176800Y0120530D01*
X0176800Y0121529D02*
X0177400Y0121529D01*
X0177400Y0122527D02*
X0176800Y0122527D01*
X0176800Y0123526D02*
X0177400Y0123526D01*
X0180510Y0121529D02*
X0183195Y0121529D01*
X0182450Y0122527D02*
X0181400Y0122527D01*
X0181400Y0123526D02*
X0182450Y0123526D01*
X0182450Y0124524D02*
X0181400Y0124524D01*
X0181400Y0125523D02*
X0182450Y0125523D01*
X0182845Y0126521D02*
X0180860Y0126521D01*
X0179861Y0127520D02*
X0183844Y0127520D01*
X0184226Y0128518D02*
X0179151Y0128518D01*
X0180149Y0129517D02*
X0183227Y0129517D01*
X0182229Y0130515D02*
X0181148Y0130515D01*
X0173690Y0121529D02*
X0173300Y0121529D01*
X0173831Y0120530D02*
X0174689Y0120530D01*
X0163700Y0130515D02*
X0121052Y0130515D01*
X0120442Y0129517D02*
X0119905Y0129517D01*
X0121832Y0131514D02*
X0163700Y0131514D01*
X0163700Y0132512D02*
X0132173Y0132512D01*
X0132168Y0132509D02*
X0132792Y0132962D01*
X0133338Y0133508D01*
X0133791Y0134132D01*
X0134141Y0134819D01*
X0134379Y0135553D01*
X0134482Y0136200D01*
X0130100Y0136200D01*
X0130100Y0137200D01*
X0134482Y0137200D01*
X0134379Y0137847D01*
X0134141Y0138581D01*
X0133791Y0139268D01*
X0133338Y0139892D01*
X0132792Y0140438D01*
X0132168Y0140891D01*
X0131481Y0141241D01*
X0130747Y0141479D01*
X0130100Y0141582D01*
X0130100Y0137200D01*
X0129100Y0137200D01*
X0129100Y0141582D01*
X0128453Y0141479D01*
X0127719Y0141241D01*
X0127032Y0140891D01*
X0126408Y0140438D01*
X0125862Y0139892D01*
X0125409Y0139268D01*
X0125059Y0138581D01*
X0124821Y0137847D01*
X0124718Y0137200D01*
X0129100Y0137200D01*
X0129100Y0136200D01*
X0130100Y0136200D01*
X0130100Y0131818D01*
X0130747Y0131921D01*
X0131481Y0132159D01*
X0132168Y0132509D01*
X0133340Y0133511D02*
X0163700Y0133511D01*
X0163700Y0134509D02*
X0133983Y0134509D01*
X0134365Y0135508D02*
X0163700Y0135508D01*
X0163700Y0136506D02*
X0130100Y0136506D01*
X0130100Y0135508D02*
X0129100Y0135508D01*
X0129100Y0136200D02*
X0129100Y0131818D01*
X0128453Y0131921D01*
X0127719Y0132159D01*
X0127032Y0132509D01*
X0126408Y0132962D01*
X0125862Y0133508D01*
X0125409Y0134132D01*
X0125059Y0134819D01*
X0124821Y0135553D01*
X0124718Y0136200D01*
X0129100Y0136200D01*
X0129100Y0136506D02*
X0121990Y0136506D01*
X0122403Y0135508D02*
X0124835Y0135508D01*
X0125217Y0134509D02*
X0122500Y0134509D01*
X0122500Y0133511D02*
X0125860Y0133511D01*
X0127027Y0132512D02*
X0122246Y0132512D01*
X0121432Y0137505D02*
X0124766Y0137505D01*
X0125034Y0138503D02*
X0120433Y0138503D01*
X0119869Y0139502D02*
X0125579Y0139502D01*
X0126495Y0140501D02*
X0121037Y0140501D01*
X0121826Y0141499D02*
X0128577Y0141499D01*
X0129100Y0141499D02*
X0130100Y0141499D01*
X0130623Y0141499D02*
X0163700Y0141499D01*
X0163700Y0140501D02*
X0132705Y0140501D01*
X0133621Y0139502D02*
X0163700Y0139502D01*
X0163700Y0138503D02*
X0134166Y0138503D01*
X0134434Y0137505D02*
X0163700Y0137505D01*
X0163700Y0142498D02*
X0132610Y0142498D01*
X0133609Y0143496D02*
X0163700Y0143496D01*
X0163700Y0144495D02*
X0134207Y0144495D01*
X0134620Y0145493D02*
X0163700Y0145493D01*
X0163700Y0146492D02*
X0134700Y0146492D01*
X0134700Y0147490D02*
X0163700Y0147490D01*
X0163700Y0148489D02*
X0134379Y0148489D01*
X0133966Y0149487D02*
X0163700Y0149487D01*
X0163700Y0150486D02*
X0133800Y0150486D01*
X0133800Y0151484D02*
X0163088Y0151484D01*
X0162207Y0152483D02*
X0133800Y0152483D01*
X0133800Y0153481D02*
X0161326Y0153481D01*
X0160445Y0154480D02*
X0134201Y0154480D01*
X0134614Y0155478D02*
X0159564Y0155478D01*
X0158683Y0156477D02*
X0134700Y0156477D01*
X0134518Y0159200D02*
X0134263Y0159815D01*
X0132715Y0161363D01*
X0131095Y0162034D01*
X0131481Y0162159D01*
X0132168Y0162509D01*
X0132792Y0162962D01*
X0133338Y0163508D01*
X0133791Y0164132D01*
X0134141Y0164819D01*
X0134379Y0165553D01*
X0134482Y0166200D01*
X0130100Y0166200D01*
X0130100Y0167200D01*
X0134482Y0167200D01*
X0134379Y0167847D01*
X0134141Y0168581D01*
X0133791Y0169268D01*
X0133338Y0169892D01*
X0132792Y0170438D01*
X0132168Y0170891D01*
X0131481Y0171241D01*
X0130747Y0171479D01*
X0130100Y0171582D01*
X0130100Y0167200D01*
X0129100Y0167200D01*
X0129100Y0171582D01*
X0128453Y0171479D01*
X0127719Y0171241D01*
X0127032Y0170891D01*
X0126408Y0170438D01*
X0125862Y0169892D01*
X0125409Y0169268D01*
X0125059Y0168581D01*
X0124821Y0167847D01*
X0124718Y0167200D01*
X0129100Y0167200D01*
X0129100Y0166200D01*
X0124718Y0166200D01*
X0124821Y0165553D01*
X0125059Y0164819D01*
X0125409Y0164132D01*
X0125862Y0163508D01*
X0126408Y0162962D01*
X0127032Y0162509D01*
X0127719Y0162159D01*
X0128105Y0162034D01*
X0126484Y0161363D01*
X0125711Y0160589D01*
X0122900Y0163400D01*
X0122900Y0168770D01*
X0121670Y0170000D01*
X0116300Y0170000D01*
X0109850Y0176450D01*
X0109850Y0178875D01*
X0106775Y0181950D01*
X0104350Y0181950D01*
X0097271Y0189029D01*
X0097430Y0189412D01*
X0097653Y0188975D01*
X0098134Y0188312D01*
X0098712Y0187734D01*
X0099375Y0187253D01*
X0100104Y0186881D01*
X0100882Y0186628D01*
X0101600Y0186514D01*
X0101600Y0191200D01*
X0102600Y0191200D01*
X0102600Y0186514D01*
X0103318Y0186628D01*
X0104096Y0186881D01*
X0104825Y0187253D01*
X0105488Y0187734D01*
X0106066Y0188312D01*
X0106547Y0188975D01*
X0106770Y0189412D01*
X0107183Y0188415D01*
X0108815Y0186783D01*
X0110946Y0185900D01*
X0113254Y0185900D01*
X0115385Y0186783D01*
X0117017Y0188415D01*
X0117900Y0190546D01*
X0117900Y0192854D01*
X0117017Y0194985D01*
X0115402Y0196600D01*
X0127808Y0196600D01*
X0125600Y0194392D01*
X0125600Y0192200D01*
X0131600Y0192200D01*
X0131600Y0191200D01*
X0132600Y0191200D01*
X0132600Y0192200D01*
X0138600Y0192200D01*
X0138600Y0194392D01*
X0136392Y0196600D01*
X0143523Y0196600D01*
X0145241Y0194882D01*
X0145000Y0194641D01*
X0145000Y0188759D01*
X0149159Y0184600D01*
X0155041Y0184600D01*
X0155070Y0184629D01*
X0167141Y0172557D01*
X0167794Y0171905D01*
X0166484Y0171363D01*
X0164937Y0169815D01*
X0164100Y0167794D01*
X0164100Y0165606D01*
X0164937Y0163584D01*
X0165000Y0163522D01*
X0165000Y0159878D01*
X0164937Y0159815D01*
X0164682Y0159200D01*
X0134518Y0159200D01*
X0134405Y0159472D02*
X0164795Y0159472D01*
X0165000Y0160471D02*
X0133607Y0160471D01*
X0132458Y0161469D02*
X0165000Y0161469D01*
X0165000Y0162468D02*
X0132087Y0162468D01*
X0133296Y0163466D02*
X0165000Y0163466D01*
X0164573Y0164465D02*
X0133960Y0164465D01*
X0134350Y0165463D02*
X0164159Y0165463D01*
X0164100Y0166462D02*
X0130100Y0166462D01*
X0130100Y0167460D02*
X0129100Y0167460D01*
X0129100Y0166462D02*
X0122900Y0166462D01*
X0122900Y0167460D02*
X0124759Y0167460D01*
X0125019Y0168459D02*
X0122900Y0168459D01*
X0122212Y0169457D02*
X0125547Y0169457D01*
X0126433Y0170456D02*
X0115844Y0170456D01*
X0114846Y0171454D02*
X0128376Y0171454D01*
X0129100Y0171454D02*
X0130100Y0171454D01*
X0130824Y0171454D02*
X0166706Y0171454D01*
X0167246Y0172453D02*
X0113847Y0172453D01*
X0112849Y0173451D02*
X0166247Y0173451D01*
X0165249Y0174450D02*
X0111850Y0174450D01*
X0110852Y0175448D02*
X0164250Y0175448D01*
X0163252Y0176447D02*
X0109853Y0176447D01*
X0109850Y0177445D02*
X0162253Y0177445D01*
X0161255Y0178444D02*
X0109850Y0178444D01*
X0109282Y0179442D02*
X0160256Y0179442D01*
X0159258Y0180441D02*
X0108284Y0180441D01*
X0107285Y0181439D02*
X0158259Y0181439D01*
X0157261Y0182438D02*
X0103862Y0182438D01*
X0102863Y0183437D02*
X0156262Y0183437D01*
X0155264Y0184435D02*
X0101865Y0184435D01*
X0100866Y0185434D02*
X0129174Y0185434D01*
X0129408Y0185200D02*
X0131600Y0185200D01*
X0131600Y0191200D01*
X0125600Y0191200D01*
X0125600Y0189008D01*
X0129408Y0185200D01*
X0128176Y0186432D02*
X0114538Y0186432D01*
X0116033Y0187431D02*
X0127177Y0187431D01*
X0126179Y0188429D02*
X0117023Y0188429D01*
X0117437Y0189428D02*
X0125600Y0189428D01*
X0125600Y0190426D02*
X0117850Y0190426D01*
X0117900Y0191425D02*
X0131600Y0191425D01*
X0131600Y0190426D02*
X0132600Y0190426D01*
X0132600Y0191200D02*
X0132600Y0185200D01*
X0134792Y0185200D01*
X0138600Y0189008D01*
X0138600Y0191200D01*
X0132600Y0191200D01*
X0132600Y0191425D02*
X0145000Y0191425D01*
X0145000Y0192423D02*
X0138600Y0192423D01*
X0138600Y0193422D02*
X0145000Y0193422D01*
X0145000Y0194420D02*
X0138572Y0194420D01*
X0137574Y0195419D02*
X0144704Y0195419D01*
X0143706Y0196417D02*
X0136575Y0196417D01*
X0138600Y0190426D02*
X0145000Y0190426D01*
X0145000Y0189428D02*
X0138600Y0189428D01*
X0138021Y0188429D02*
X0145330Y0188429D01*
X0146329Y0187431D02*
X0137023Y0187431D01*
X0136024Y0186432D02*
X0147327Y0186432D01*
X0148326Y0185434D02*
X0135026Y0185434D01*
X0132600Y0185434D02*
X0131600Y0185434D01*
X0131600Y0186432D02*
X0132600Y0186432D01*
X0132600Y0187431D02*
X0131600Y0187431D01*
X0131600Y0188429D02*
X0132600Y0188429D01*
X0132600Y0189428D02*
X0131600Y0189428D01*
X0125600Y0192423D02*
X0117900Y0192423D01*
X0117665Y0193422D02*
X0125600Y0193422D01*
X0125628Y0194420D02*
X0117251Y0194420D01*
X0116584Y0195419D02*
X0126626Y0195419D01*
X0127625Y0196417D02*
X0115585Y0196417D01*
X0107177Y0188429D02*
X0106151Y0188429D01*
X0105070Y0187431D02*
X0108167Y0187431D01*
X0109662Y0186432D02*
X0099868Y0186432D01*
X0099130Y0187431D02*
X0098869Y0187431D01*
X0098049Y0188429D02*
X0097871Y0188429D01*
X0101600Y0188429D02*
X0102600Y0188429D01*
X0102600Y0187431D02*
X0101600Y0187431D01*
X0101600Y0189428D02*
X0102600Y0189428D01*
X0102600Y0190426D02*
X0101600Y0190426D01*
X0092100Y0191700D02*
X0092100Y0186700D01*
X0099600Y0179200D01*
X0099600Y0174200D01*
X0102100Y0171700D01*
X0107100Y0171700D01*
X0109600Y0169200D01*
X0109600Y0161700D01*
X0104600Y0156700D01*
X0097100Y0156700D01*
X0097439Y0159472D02*
X0104261Y0159472D01*
X0105259Y0160471D02*
X0096441Y0160471D01*
X0095442Y0161469D02*
X0106258Y0161469D01*
X0107227Y0162468D02*
X0107256Y0162468D01*
X0110483Y0159472D02*
X0112024Y0159472D01*
X0111700Y0159796D02*
X0112696Y0158800D01*
X0114674Y0158800D01*
X0114375Y0158647D01*
X0113712Y0158166D01*
X0113134Y0157588D01*
X0112653Y0156925D01*
X0112281Y0156196D01*
X0112028Y0155418D01*
X0111914Y0154700D01*
X0116600Y0154700D01*
X0116600Y0153700D01*
X0111914Y0153700D01*
X0112028Y0152982D01*
X0112281Y0152204D01*
X0112653Y0151475D01*
X0113134Y0150812D01*
X0113712Y0150234D01*
X0114375Y0149753D01*
X0115104Y0149381D01*
X0115324Y0149309D01*
X0114041Y0148778D01*
X0112522Y0147259D01*
X0112166Y0146400D01*
X0110511Y0146400D01*
X0109338Y0147574D01*
X0111600Y0149836D01*
X0111600Y0153564D01*
X0108964Y0156200D01*
X0107211Y0156200D01*
X0111700Y0160689D01*
X0111700Y0159796D01*
X0111700Y0160471D02*
X0111482Y0160471D01*
X0109485Y0158474D02*
X0114136Y0158474D01*
X0113052Y0157475D02*
X0108486Y0157475D01*
X0107488Y0156477D02*
X0112424Y0156477D01*
X0112048Y0155478D02*
X0109686Y0155478D01*
X0110684Y0154480D02*
X0116600Y0154480D01*
X0117600Y0154480D02*
X0124999Y0154480D01*
X0125400Y0153481D02*
X0122251Y0153481D01*
X0122010Y0152483D02*
X0125400Y0152483D01*
X0125400Y0151484D02*
X0121552Y0151484D01*
X0120740Y0150486D02*
X0125400Y0150486D01*
X0125234Y0149487D02*
X0119304Y0149487D01*
X0120448Y0148489D02*
X0124821Y0148489D01*
X0124500Y0147490D02*
X0121447Y0147490D01*
X0121996Y0146492D02*
X0124500Y0146492D01*
X0124580Y0145493D02*
X0122409Y0145493D01*
X0122500Y0144495D02*
X0124993Y0144495D01*
X0125591Y0143496D02*
X0122500Y0143496D01*
X0122240Y0142498D02*
X0126590Y0142498D01*
X0129100Y0140501D02*
X0130100Y0140501D01*
X0130100Y0139502D02*
X0129100Y0139502D01*
X0129100Y0138503D02*
X0130100Y0138503D01*
X0130100Y0137505D02*
X0129100Y0137505D01*
X0129100Y0134509D02*
X0130100Y0134509D01*
X0130100Y0133511D02*
X0129100Y0133511D01*
X0129100Y0132512D02*
X0130100Y0132512D01*
X0122100Y0124200D02*
X0122100Y0121700D01*
X0122100Y0124200D02*
X0117100Y0129200D01*
X0114600Y0129200D01*
X0112100Y0131700D01*
X0107100Y0131700D01*
X0107100Y0139200D02*
X0112100Y0139200D01*
X0117100Y0134200D01*
X0117000Y0125523D02*
X0117200Y0125523D01*
X0117200Y0124524D02*
X0117000Y0124524D01*
X0117000Y0123526D02*
X0117200Y0123526D01*
X0117200Y0122527D02*
X0117000Y0122527D01*
X0117000Y0121529D02*
X0117200Y0121529D01*
X0117200Y0120530D02*
X0117000Y0120530D01*
X0117000Y0119532D02*
X0117200Y0119532D01*
X0117200Y0118533D02*
X0117000Y0118533D01*
X0117000Y0117535D02*
X0117200Y0117535D01*
X0117610Y0116536D02*
X0116590Y0116536D01*
X0116067Y0115538D02*
X0118133Y0115538D01*
X0119131Y0114539D02*
X0115069Y0114539D01*
X0111600Y0113541D02*
X0122600Y0113541D01*
X0122600Y0112542D02*
X0111600Y0112542D01*
X0111600Y0111544D02*
X0122600Y0111544D01*
X0122600Y0110545D02*
X0111600Y0110545D01*
X0111311Y0109547D02*
X0122889Y0109547D01*
X0126590Y0116536D02*
X0127826Y0116536D01*
X0127494Y0117535D02*
X0127000Y0117535D01*
X0127000Y0118533D02*
X0127400Y0118533D01*
X0127400Y0119532D02*
X0127000Y0119532D01*
X0127000Y0120530D02*
X0127400Y0120530D01*
X0107100Y0139200D02*
X0099600Y0146700D01*
X0099600Y0151700D01*
X0107100Y0151700D02*
X0107100Y0146700D01*
X0109600Y0144200D01*
X0117100Y0144200D01*
X0112204Y0146492D02*
X0110420Y0146492D01*
X0109421Y0147490D02*
X0112753Y0147490D01*
X0113752Y0148489D02*
X0110253Y0148489D01*
X0111251Y0149487D02*
X0114896Y0149487D01*
X0113460Y0150486D02*
X0111600Y0150486D01*
X0111600Y0151484D02*
X0112648Y0151484D01*
X0112190Y0152483D02*
X0111600Y0152483D01*
X0111600Y0153481D02*
X0111949Y0153481D01*
X0120064Y0158474D02*
X0124149Y0158474D01*
X0124500Y0157475D02*
X0121148Y0157475D01*
X0121776Y0156477D02*
X0124500Y0156477D01*
X0124586Y0155478D02*
X0122152Y0155478D01*
X0122176Y0159472D02*
X0123151Y0159472D01*
X0124831Y0161469D02*
X0126742Y0161469D01*
X0127113Y0162468D02*
X0123832Y0162468D01*
X0122900Y0163466D02*
X0125904Y0163466D01*
X0125239Y0164465D02*
X0122900Y0164465D01*
X0122900Y0165463D02*
X0124850Y0165463D01*
X0129100Y0168459D02*
X0130100Y0168459D01*
X0130100Y0169457D02*
X0129100Y0169457D01*
X0129100Y0170456D02*
X0130100Y0170456D01*
X0132767Y0170456D02*
X0165578Y0170456D01*
X0164789Y0169457D02*
X0133653Y0169457D01*
X0134181Y0168459D02*
X0164375Y0168459D01*
X0164100Y0167460D02*
X0134441Y0167460D01*
X0104600Y0166700D02*
X0102100Y0166700D01*
X0097100Y0171700D01*
X0089600Y0171700D01*
X0087100Y0174200D01*
X0087100Y0179200D01*
X0087100Y0196700D01*
X0083210Y0199413D02*
X0055157Y0199413D01*
X0052557Y0198414D02*
X0035427Y0198414D01*
X0036425Y0197416D02*
X0048623Y0197416D01*
X0049408Y0198200D02*
X0045600Y0194392D01*
X0045600Y0192200D01*
X0051600Y0192200D01*
X0051600Y0198200D01*
X0049408Y0198200D01*
X0051600Y0197416D02*
X0052600Y0197416D01*
X0052600Y0196417D02*
X0051600Y0196417D01*
X0051600Y0195419D02*
X0052600Y0195419D01*
X0052600Y0194420D02*
X0051600Y0194420D01*
X0051600Y0193422D02*
X0052600Y0193422D01*
X0052600Y0192423D02*
X0051600Y0192423D01*
X0051600Y0192200D02*
X0052600Y0192200D01*
X0052600Y0191200D01*
X0058600Y0191200D01*
X0058600Y0189008D01*
X0054792Y0185200D01*
X0052600Y0185200D01*
X0052600Y0191200D01*
X0051600Y0191200D01*
X0051600Y0185200D01*
X0049408Y0185200D01*
X0045600Y0189008D01*
X0045600Y0191200D01*
X0051600Y0191200D01*
X0051600Y0192200D01*
X0051600Y0191425D02*
X0039200Y0191425D01*
X0039200Y0192423D02*
X0045600Y0192423D01*
X0045600Y0193422D02*
X0039200Y0193422D01*
X0039200Y0194420D02*
X0045628Y0194420D01*
X0046626Y0195419D02*
X0038422Y0195419D01*
X0037424Y0196417D02*
X0047625Y0196417D01*
X0052600Y0191425D02*
X0058848Y0191425D01*
X0058600Y0190426D02*
X0059747Y0190426D01*
X0060645Y0189428D02*
X0058600Y0189428D01*
X0058021Y0188429D02*
X0061544Y0188429D01*
X0062442Y0187431D02*
X0057023Y0187431D01*
X0056024Y0186432D02*
X0063341Y0186432D01*
X0064240Y0185434D02*
X0055026Y0185434D01*
X0052600Y0185434D02*
X0051600Y0185434D01*
X0051600Y0186432D02*
X0052600Y0186432D01*
X0052600Y0187431D02*
X0051600Y0187431D01*
X0051600Y0188429D02*
X0052600Y0188429D01*
X0052600Y0189428D02*
X0051600Y0189428D01*
X0051600Y0190426D02*
X0052600Y0190426D01*
X0048176Y0186432D02*
X0036873Y0186432D01*
X0037871Y0187431D02*
X0047177Y0187431D01*
X0046179Y0188429D02*
X0038870Y0188429D01*
X0039200Y0189428D02*
X0045600Y0189428D01*
X0045600Y0190426D02*
X0039200Y0190426D01*
X0035874Y0185434D02*
X0049174Y0185434D01*
X0065138Y0184435D02*
X0028512Y0184435D01*
X0027513Y0183437D02*
X0066037Y0183437D01*
X0066936Y0182438D02*
X0026515Y0182438D01*
X0025516Y0181439D02*
X0067834Y0181439D01*
X0068733Y0180441D02*
X0024518Y0180441D01*
X0023519Y0179442D02*
X0069632Y0179442D01*
X0070530Y0178444D02*
X0022521Y0178444D01*
X0021522Y0177445D02*
X0071429Y0177445D01*
X0072100Y0176447D02*
X0020524Y0176447D01*
X0019525Y0175448D02*
X0072100Y0175448D01*
X0072100Y0174450D02*
X0018527Y0174450D01*
X0017528Y0173451D02*
X0072100Y0173451D01*
X0072100Y0172453D02*
X0016530Y0172453D01*
X0015531Y0171454D02*
X0024206Y0171454D01*
X0023078Y0170456D02*
X0014533Y0170456D01*
X0013534Y0169457D02*
X0022289Y0169457D01*
X0021875Y0168459D02*
X0012536Y0168459D01*
X0012200Y0167460D02*
X0013351Y0167460D01*
X0015849Y0167460D02*
X0021600Y0167460D01*
X0021600Y0166462D02*
X0018041Y0166462D01*
X0019039Y0165463D02*
X0021659Y0165463D01*
X0022073Y0164465D02*
X0019733Y0164465D01*
X0020146Y0163466D02*
X0022500Y0163466D01*
X0022500Y0162468D02*
X0020400Y0162468D01*
X0020400Y0161469D02*
X0022500Y0161469D01*
X0022500Y0160471D02*
X0020369Y0160471D01*
X0019955Y0159472D02*
X0022295Y0159472D01*
X0021882Y0158474D02*
X0019541Y0158474D01*
X0018578Y0157475D02*
X0021600Y0157475D01*
X0021600Y0156477D02*
X0017146Y0156477D01*
X0018176Y0155478D02*
X0021653Y0155478D01*
X0022067Y0154480D02*
X0019008Y0154480D01*
X0019489Y0153481D02*
X0022541Y0153481D01*
X0023539Y0152483D02*
X0019741Y0152483D01*
X0019672Y0150486D02*
X0023107Y0150486D01*
X0022301Y0149487D02*
X0019309Y0149487D01*
X0018694Y0148489D02*
X0021888Y0148489D01*
X0021600Y0147490D02*
X0017652Y0147490D01*
X0018011Y0146492D02*
X0021600Y0146492D01*
X0021647Y0145493D02*
X0019009Y0145493D01*
X0019720Y0144495D02*
X0022060Y0144495D01*
X0022500Y0143496D02*
X0020134Y0143496D01*
X0020400Y0142498D02*
X0022500Y0142498D01*
X0022500Y0141499D02*
X0020400Y0141499D01*
X0020381Y0140501D02*
X0022500Y0140501D01*
X0022307Y0139502D02*
X0019967Y0139502D01*
X0019554Y0138503D02*
X0021894Y0138503D01*
X0021600Y0137505D02*
X0018607Y0137505D01*
X0017218Y0136506D02*
X0021600Y0136506D01*
X0021641Y0135508D02*
X0017200Y0135508D01*
X0017200Y0134509D02*
X0022054Y0134509D01*
X0014600Y0131700D02*
X0014600Y0141700D01*
X0015100Y0151484D02*
X0024278Y0151484D01*
X0029922Y0151484D02*
X0061033Y0151484D01*
X0062115Y0152483D02*
X0030661Y0152483D01*
X0031659Y0153481D02*
X0062500Y0153481D01*
X0062067Y0154480D02*
X0032133Y0154480D01*
X0032547Y0155478D02*
X0061653Y0155478D01*
X0061600Y0156477D02*
X0032600Y0156477D01*
X0032600Y0157475D02*
X0061600Y0157475D01*
X0061882Y0158474D02*
X0032318Y0158474D01*
X0031905Y0159472D02*
X0062295Y0159472D01*
X0063093Y0160471D02*
X0031700Y0160471D01*
X0031700Y0161469D02*
X0064242Y0161469D01*
X0064613Y0162468D02*
X0031700Y0162468D01*
X0031700Y0163466D02*
X0063404Y0163466D01*
X0062739Y0164465D02*
X0032127Y0164465D01*
X0032541Y0165463D02*
X0062350Y0165463D01*
X0062259Y0167460D02*
X0032600Y0167460D01*
X0032600Y0166462D02*
X0066600Y0166462D01*
X0067100Y0166700D02*
X0052100Y0151700D01*
X0014600Y0151700D01*
X0031093Y0150486D02*
X0059951Y0150486D01*
X0058869Y0149487D02*
X0031899Y0149487D01*
X0032312Y0148489D02*
X0057788Y0148489D01*
X0056706Y0147490D02*
X0032600Y0147490D01*
X0032600Y0146492D02*
X0055624Y0146492D01*
X0054542Y0145493D02*
X0032553Y0145493D01*
X0032140Y0144495D02*
X0053461Y0144495D01*
X0052379Y0143496D02*
X0031700Y0143496D01*
X0031700Y0142498D02*
X0051297Y0142498D01*
X0050216Y0141499D02*
X0031700Y0141499D01*
X0031700Y0140501D02*
X0049134Y0140501D01*
X0048052Y0139502D02*
X0031893Y0139502D01*
X0032306Y0138503D02*
X0046970Y0138503D01*
X0045889Y0137505D02*
X0032600Y0137505D01*
X0032600Y0136506D02*
X0044807Y0136506D01*
X0043725Y0135508D02*
X0032559Y0135508D01*
X0032146Y0134509D02*
X0042644Y0134509D01*
X0049722Y0137505D02*
X0062266Y0137505D01*
X0062534Y0138503D02*
X0050804Y0138503D01*
X0051885Y0139502D02*
X0063079Y0139502D01*
X0063995Y0140501D02*
X0052967Y0140501D01*
X0054049Y0141499D02*
X0066077Y0141499D01*
X0064090Y0142498D02*
X0055131Y0142498D01*
X0056212Y0143496D02*
X0063091Y0143496D01*
X0062493Y0144495D02*
X0057294Y0144495D01*
X0058376Y0145493D02*
X0062080Y0145493D01*
X0062000Y0146492D02*
X0059457Y0146492D01*
X0060539Y0147490D02*
X0062000Y0147490D01*
X0062321Y0148489D02*
X0061621Y0148489D01*
X0062703Y0149487D02*
X0062734Y0149487D01*
X0069958Y0161469D02*
X0071850Y0161469D01*
X0072100Y0162468D02*
X0069587Y0162468D01*
X0070796Y0163466D02*
X0072100Y0163466D01*
X0072100Y0164465D02*
X0071460Y0164465D01*
X0071850Y0165463D02*
X0072100Y0165463D01*
X0072100Y0166462D02*
X0067600Y0166462D01*
X0067600Y0167460D02*
X0066600Y0167460D01*
X0066600Y0168459D02*
X0067600Y0168459D01*
X0067600Y0169457D02*
X0066600Y0169457D01*
X0066600Y0170456D02*
X0067600Y0170456D01*
X0067600Y0171454D02*
X0066600Y0171454D01*
X0065876Y0171454D02*
X0029994Y0171454D01*
X0031122Y0170456D02*
X0063933Y0170456D01*
X0063047Y0169457D02*
X0031911Y0169457D01*
X0032325Y0168459D02*
X0062519Y0168459D01*
X0068324Y0171454D02*
X0072100Y0171454D01*
X0072100Y0170456D02*
X0070267Y0170456D01*
X0071153Y0169457D02*
X0072100Y0169457D01*
X0072100Y0168459D02*
X0071681Y0168459D01*
X0071941Y0167460D02*
X0072100Y0167460D01*
X0074700Y0167460D02*
X0089950Y0167460D01*
X0089950Y0168459D02*
X0074700Y0168459D01*
X0074700Y0169457D02*
X0090781Y0169457D01*
X0090511Y0166400D02*
X0090511Y0166400D01*
X0094300Y0166462D02*
X0074700Y0166462D01*
X0082100Y0154200D02*
X0082100Y0131700D01*
X0077100Y0126700D01*
X0077100Y0116700D01*
X0072600Y0108548D02*
X0071600Y0108548D01*
X0071600Y0107550D02*
X0072600Y0107550D01*
X0057200Y0117535D02*
X0057000Y0117535D01*
X0057000Y0118533D02*
X0057200Y0118533D01*
X0057200Y0119532D02*
X0057000Y0119532D01*
X0057000Y0120530D02*
X0057200Y0120530D01*
X0057200Y0121529D02*
X0057000Y0121529D01*
X0057000Y0122527D02*
X0057200Y0122527D01*
X0057200Y0123526D02*
X0057000Y0123526D01*
X0057000Y0124524D02*
X0057200Y0124524D01*
X0057200Y0125523D02*
X0057000Y0125523D01*
X0056732Y0126521D02*
X0057468Y0126521D01*
X0057881Y0127520D02*
X0056319Y0127520D01*
X0055411Y0128518D02*
X0058789Y0128518D01*
X0060442Y0129517D02*
X0053758Y0129517D01*
X0051396Y0130515D02*
X0065304Y0130515D01*
X0064306Y0129517D02*
X0063758Y0129517D01*
X0062100Y0124200D02*
X0072100Y0134200D01*
X0074300Y0137505D02*
X0075214Y0137505D01*
X0076800Y0137505D02*
X0077400Y0137505D01*
X0077400Y0138503D02*
X0076800Y0138503D01*
X0076800Y0139502D02*
X0077400Y0139502D01*
X0077400Y0140501D02*
X0076800Y0140501D01*
X0076806Y0129517D02*
X0073758Y0129517D01*
X0075411Y0128518D02*
X0075807Y0128518D01*
X0082100Y0154200D02*
X0087100Y0159200D01*
X0094443Y0162468D02*
X0094900Y0162468D01*
X0094900Y0162050D02*
X0096526Y0162050D01*
X0099250Y0164774D01*
X0099250Y0166400D01*
X0094900Y0166400D01*
X0094900Y0162050D01*
X0094900Y0163466D02*
X0094300Y0163466D01*
X0094300Y0164465D02*
X0094900Y0164465D01*
X0094900Y0165463D02*
X0094300Y0165463D01*
X0094900Y0166462D02*
X0099227Y0166462D01*
X0099250Y0165463D02*
X0099750Y0165463D01*
X0099976Y0164465D02*
X0098941Y0164465D01*
X0097942Y0163466D02*
X0100975Y0163466D01*
X0101973Y0162468D02*
X0096944Y0162468D01*
X0083127Y0199496D02*
X0083127Y0199496D01*
X0153758Y0129517D02*
X0160442Y0129517D01*
X0158789Y0128518D02*
X0155411Y0128518D01*
X0156319Y0127520D02*
X0157881Y0127520D01*
X0157468Y0126521D02*
X0156732Y0126521D01*
X0157000Y0125523D02*
X0157200Y0125523D01*
X0157200Y0124524D02*
X0157000Y0124524D01*
X0157000Y0123526D02*
X0157200Y0123526D01*
X0157200Y0122527D02*
X0157000Y0122527D01*
X0157000Y0121529D02*
X0157200Y0121529D01*
X0157200Y0120530D02*
X0157000Y0120530D01*
X0157000Y0119532D02*
X0157200Y0119532D01*
X0157200Y0118533D02*
X0157000Y0118533D01*
X0157000Y0117535D02*
X0157200Y0117535D01*
X0157610Y0116536D02*
X0156590Y0116536D01*
X0156067Y0115538D02*
X0158133Y0115538D01*
X0159131Y0114539D02*
X0155069Y0114539D01*
X0129864Y0092572D02*
X0124053Y0092572D01*
X0125052Y0093570D02*
X0128866Y0093570D01*
X0127867Y0094569D02*
X0126050Y0094569D01*
X0126400Y0095568D02*
X0127600Y0095568D01*
X0127600Y0096566D02*
X0122400Y0096566D01*
X0122400Y0095568D02*
X0121800Y0095568D01*
X0121800Y0094569D02*
X0122400Y0094569D01*
X0122400Y0093570D02*
X0121800Y0093570D01*
X0121800Y0092572D02*
X0122400Y0092572D01*
X0112400Y0092572D02*
X0111839Y0092572D01*
X0111800Y0093570D02*
X0112400Y0093570D01*
X0112400Y0094569D02*
X0111800Y0094569D01*
X0111800Y0095568D02*
X0112400Y0095568D01*
X0097918Y0067609D02*
X0096282Y0067609D01*
X0096695Y0066611D02*
X0097505Y0066611D01*
X0097200Y0065612D02*
X0097000Y0065612D01*
X0097000Y0064614D02*
X0097200Y0064614D01*
X0097200Y0063615D02*
X0097000Y0063615D01*
X0097000Y0062617D02*
X0097200Y0062617D01*
X0097200Y0061618D02*
X0097000Y0061618D01*
X0097000Y0060620D02*
X0097200Y0060620D01*
X0097200Y0059621D02*
X0097000Y0059621D01*
X0097000Y0058623D02*
X0097200Y0058623D01*
X0097200Y0057624D02*
X0097000Y0057624D01*
X0102100Y0059200D02*
X0102100Y0061700D01*
X0102100Y0059200D02*
X0092100Y0049200D01*
X0092100Y0044200D01*
X0089600Y0041700D01*
X0087100Y0041700D01*
X0084600Y0039200D01*
X0084600Y0034200D01*
X0082100Y0031700D01*
X0064600Y0031700D01*
X0057100Y0024200D01*
X0061216Y0020679D02*
X0061700Y0020679D01*
X0061815Y0019681D02*
X0060217Y0019681D01*
X0059723Y0018682D02*
X0054194Y0018682D01*
X0054026Y0018850D02*
X0052400Y0018850D01*
X0052400Y0014500D01*
X0056750Y0014500D01*
X0056750Y0016126D01*
X0054026Y0018850D01*
X0053983Y0019681D02*
X0050217Y0019681D01*
X0050174Y0018850D02*
X0047450Y0016126D01*
X0047450Y0014500D01*
X0051800Y0014500D01*
X0051800Y0018850D01*
X0050174Y0018850D01*
X0050006Y0018682D02*
X0024937Y0018682D01*
X0025099Y0017684D02*
X0049008Y0017684D01*
X0048009Y0016685D02*
X0025099Y0016685D01*
X0025099Y0015687D02*
X0047450Y0015687D01*
X0047450Y0014688D02*
X0024925Y0014688D01*
X0024511Y0013690D02*
X0047450Y0013690D01*
X0047450Y0013900D02*
X0047450Y0012274D01*
X0050174Y0009550D01*
X0051800Y0009550D01*
X0051800Y0013900D01*
X0052400Y0013900D01*
X0052400Y0014500D01*
X0051800Y0014500D01*
X0051800Y0013900D01*
X0047450Y0013900D01*
X0047450Y0012691D02*
X0024098Y0012691D01*
X0023405Y0011693D02*
X0048031Y0011693D01*
X0049030Y0010694D02*
X0022407Y0010694D01*
X0021093Y0009696D02*
X0050028Y0009696D01*
X0051800Y0009696D02*
X0052400Y0009696D01*
X0052400Y0009550D02*
X0054026Y0009550D01*
X0056750Y0012274D01*
X0056750Y0013900D01*
X0052400Y0013900D01*
X0052400Y0009550D01*
X0052400Y0010694D02*
X0051800Y0010694D01*
X0051800Y0011693D02*
X0052400Y0011693D01*
X0052400Y0012691D02*
X0051800Y0012691D01*
X0051800Y0013690D02*
X0052400Y0013690D01*
X0052400Y0014688D02*
X0051800Y0014688D01*
X0051800Y0015687D02*
X0052400Y0015687D01*
X0052400Y0016685D02*
X0051800Y0016685D01*
X0051800Y0017684D02*
X0052400Y0017684D01*
X0052400Y0018682D02*
X0051800Y0018682D01*
X0051216Y0020679D02*
X0052984Y0020679D01*
X0052300Y0021678D02*
X0051900Y0021678D01*
X0055192Y0017684D02*
X0058725Y0017684D01*
X0057726Y0016685D02*
X0056191Y0016685D01*
X0056750Y0015687D02*
X0057250Y0015687D01*
X0057250Y0014688D02*
X0056750Y0014688D01*
X0056750Y0013690D02*
X0057250Y0013690D01*
X0057250Y0012691D02*
X0056750Y0012691D01*
X0056169Y0011693D02*
X0057749Y0011693D01*
X0058747Y0010694D02*
X0055170Y0010694D01*
X0054172Y0009696D02*
X0059746Y0009696D01*
X0064454Y0009696D02*
X0148700Y0009696D01*
X0152100Y0010694D02*
X0185096Y0010694D01*
X0184217Y0011693D02*
X0152100Y0011693D01*
X0152100Y0012691D02*
X0183803Y0012691D01*
X0183390Y0013690D02*
X0152100Y0013690D01*
X0152100Y0014688D02*
X0182976Y0014688D01*
X0182901Y0015687D02*
X0152100Y0015687D01*
X0152100Y0016685D02*
X0182901Y0016685D01*
X0182901Y0017684D02*
X0152100Y0017684D01*
X0152100Y0018682D02*
X0182964Y0018682D01*
X0183377Y0019681D02*
X0152100Y0019681D01*
X0152100Y0020679D02*
X0183791Y0020679D01*
X0184205Y0021678D02*
X0152100Y0021678D01*
X0152100Y0022676D02*
X0185067Y0022676D01*
X0186065Y0023675D02*
X0152100Y0023675D01*
X0152100Y0024673D02*
X0187310Y0024673D01*
X0189721Y0025672D02*
X0160054Y0025672D01*
X0161545Y0026670D02*
X0172430Y0026670D01*
X0172379Y0026700D02*
X0172721Y0026502D01*
X0173103Y0026400D01*
X0176714Y0026400D01*
X0176714Y0031314D01*
X0177486Y0031314D01*
X0177486Y0032086D01*
X0182400Y0032086D01*
X0182400Y0035697D01*
X0182298Y0036079D01*
X0182100Y0036421D01*
X0181821Y0036700D01*
X0181479Y0036898D01*
X0181097Y0037000D01*
X0177486Y0037000D01*
X0177486Y0032086D01*
X0176714Y0032086D01*
X0176714Y0037000D01*
X0173103Y0037000D01*
X0172721Y0036898D01*
X0172379Y0036700D01*
X0172100Y0036421D01*
X0171902Y0036079D01*
X0171800Y0035697D01*
X0171800Y0032086D01*
X0176714Y0032086D01*
X0176714Y0031314D01*
X0171800Y0031314D01*
X0171800Y0027703D01*
X0171902Y0027321D01*
X0172100Y0026979D01*
X0172379Y0026700D01*
X0171809Y0027669D02*
X0162544Y0027669D01*
X0163096Y0028667D02*
X0171800Y0028667D01*
X0171800Y0029666D02*
X0163509Y0029666D01*
X0163800Y0030664D02*
X0171800Y0030664D01*
X0171800Y0032661D02*
X0163800Y0032661D01*
X0163800Y0031663D02*
X0176714Y0031663D01*
X0177486Y0031663D02*
X0196800Y0031663D01*
X0196800Y0031400D02*
X0197400Y0031400D01*
X0197400Y0024600D01*
X0197438Y0024600D01*
X0198107Y0024706D01*
X0198700Y0024899D01*
X0198700Y0023110D01*
X0197311Y0024499D01*
X0196800Y0024710D01*
X0196800Y0031400D01*
X0196800Y0030664D02*
X0197400Y0030664D01*
X0197400Y0029666D02*
X0196800Y0029666D01*
X0196800Y0028667D02*
X0197400Y0028667D01*
X0197400Y0027669D02*
X0196800Y0027669D01*
X0196800Y0026670D02*
X0197400Y0026670D01*
X0197400Y0025672D02*
X0196800Y0025672D01*
X0196890Y0024673D02*
X0197400Y0024673D01*
X0197901Y0024673D02*
X0198700Y0024673D01*
X0198700Y0023675D02*
X0198135Y0023675D01*
X0193410Y0026670D02*
X0181770Y0026670D01*
X0181821Y0026700D02*
X0182100Y0026979D01*
X0182298Y0027321D01*
X0182400Y0027703D01*
X0182400Y0031314D01*
X0177486Y0031314D01*
X0177486Y0026400D01*
X0181097Y0026400D01*
X0181479Y0026502D01*
X0181821Y0026700D01*
X0182391Y0027669D02*
X0192979Y0027669D01*
X0192800Y0028667D02*
X0182400Y0028667D01*
X0182400Y0029666D02*
X0192800Y0029666D01*
X0192800Y0030664D02*
X0182400Y0030664D01*
X0182400Y0032661D02*
X0192800Y0032661D01*
X0192800Y0033660D02*
X0182400Y0033660D01*
X0182400Y0034658D02*
X0192800Y0034658D01*
X0192955Y0035657D02*
X0182400Y0035657D01*
X0181866Y0036655D02*
X0193372Y0036655D01*
X0194173Y0037654D02*
X0160234Y0037654D01*
X0161620Y0036655D02*
X0172334Y0036655D01*
X0171800Y0035657D02*
X0162618Y0035657D01*
X0163127Y0034658D02*
X0171800Y0034658D01*
X0171800Y0033660D02*
X0163540Y0033660D01*
X0154146Y0025672D02*
X0152100Y0025672D01*
X0152100Y0026670D02*
X0152655Y0026670D01*
X0152100Y0043645D02*
X0180591Y0043645D01*
X0179348Y0044643D02*
X0152100Y0044643D01*
X0152100Y0045642D02*
X0178350Y0045642D01*
X0177351Y0046640D02*
X0155101Y0046640D01*
X0156100Y0047639D02*
X0176353Y0047639D01*
X0175354Y0048637D02*
X0157098Y0048637D01*
X0157800Y0049636D02*
X0174356Y0049636D01*
X0173861Y0050634D02*
X0157800Y0050634D01*
X0157800Y0051633D02*
X0173700Y0051633D01*
X0173700Y0052632D02*
X0157840Y0052632D01*
X0158838Y0053630D02*
X0173700Y0053630D01*
X0173700Y0054629D02*
X0164768Y0054629D01*
X0164563Y0054480D02*
X0165162Y0054915D01*
X0165685Y0055438D01*
X0166120Y0056037D01*
X0166456Y0056696D01*
X0166684Y0057399D01*
X0166800Y0058130D01*
X0166800Y0061200D01*
X0162600Y0061200D01*
X0162600Y0053821D01*
X0163201Y0053916D01*
X0163904Y0054144D01*
X0164563Y0054480D01*
X0165822Y0055627D02*
X0173700Y0055627D01*
X0173700Y0056626D02*
X0166420Y0056626D01*
X0166720Y0057624D02*
X0173700Y0057624D01*
X0173700Y0058623D02*
X0166800Y0058623D01*
X0166800Y0059621D02*
X0173700Y0059621D01*
X0173700Y0060620D02*
X0166800Y0060620D01*
X0166800Y0062617D02*
X0173700Y0062617D01*
X0173700Y0063615D02*
X0166800Y0063615D01*
X0166800Y0064614D02*
X0173700Y0064614D01*
X0173700Y0065612D02*
X0166746Y0065612D01*
X0166486Y0066611D02*
X0173700Y0066611D01*
X0173700Y0067609D02*
X0165941Y0067609D01*
X0166019Y0068608D02*
X0173700Y0068608D01*
X0173700Y0069606D02*
X0167315Y0069606D01*
X0168313Y0070605D02*
X0173700Y0070605D01*
X0173700Y0071603D02*
X0169312Y0071603D01*
X0171800Y0072602D02*
X0172400Y0072602D01*
X0172400Y0073600D02*
X0171800Y0073600D01*
X0171800Y0074599D02*
X0172400Y0074599D01*
X0172400Y0075597D02*
X0171800Y0075597D01*
X0171800Y0077000D02*
X0171800Y0081600D01*
X0170500Y0081600D01*
X0170500Y0082376D01*
X0169982Y0083626D01*
X0169408Y0084200D01*
X0173700Y0084200D01*
X0173700Y0081600D01*
X0172400Y0081600D01*
X0172400Y0077000D01*
X0171800Y0077000D01*
X0171800Y0077594D02*
X0172400Y0077594D01*
X0172400Y0078593D02*
X0171800Y0078593D01*
X0171800Y0079591D02*
X0172400Y0079591D01*
X0172400Y0080590D02*
X0171800Y0080590D01*
X0171800Y0081588D02*
X0172400Y0081588D01*
X0173700Y0082587D02*
X0170413Y0082587D01*
X0169999Y0083585D02*
X0173700Y0083585D01*
X0177100Y0083585D02*
X0184586Y0083585D01*
X0184282Y0082587D02*
X0177100Y0082587D01*
X0178400Y0075597D02*
X0198700Y0075597D01*
X0198700Y0074599D02*
X0178400Y0074599D01*
X0188253Y0071603D02*
X0198700Y0071603D01*
X0198700Y0070605D02*
X0189251Y0070605D01*
X0196800Y0060620D02*
X0197400Y0060620D01*
X0197400Y0059621D02*
X0196800Y0059621D01*
X0196800Y0058623D02*
X0197400Y0058623D01*
X0197400Y0057624D02*
X0196800Y0057624D01*
X0196800Y0056626D02*
X0197400Y0056626D01*
X0197400Y0055627D02*
X0196800Y0055627D01*
X0196800Y0054629D02*
X0197400Y0054629D01*
X0197619Y0054629D02*
X0198700Y0054629D01*
X0197400Y0037654D02*
X0196800Y0037654D01*
X0196800Y0036655D02*
X0197400Y0036655D01*
X0197400Y0035657D02*
X0196800Y0035657D01*
X0196800Y0034658D02*
X0197400Y0034658D01*
X0197400Y0033660D02*
X0196800Y0033660D01*
X0196800Y0032661D02*
X0197400Y0032661D01*
X0177486Y0032661D02*
X0176714Y0032661D01*
X0176714Y0033660D02*
X0177486Y0033660D01*
X0177486Y0034658D02*
X0176714Y0034658D01*
X0176714Y0035657D02*
X0177486Y0035657D01*
X0177486Y0036655D02*
X0176714Y0036655D01*
X0176714Y0030664D02*
X0177486Y0030664D01*
X0177486Y0029666D02*
X0176714Y0029666D01*
X0176714Y0028667D02*
X0177486Y0028667D01*
X0177486Y0027669D02*
X0176714Y0027669D01*
X0176714Y0026670D02*
X0177486Y0026670D01*
X0162600Y0054629D02*
X0161600Y0054629D01*
X0161600Y0055627D02*
X0162600Y0055627D01*
X0162600Y0056626D02*
X0161600Y0056626D01*
X0161600Y0057624D02*
X0162600Y0057624D01*
X0162600Y0058623D02*
X0161600Y0058623D01*
X0161600Y0059621D02*
X0162600Y0059621D01*
X0162600Y0060620D02*
X0161600Y0060620D01*
X0162600Y0061618D02*
X0173700Y0061618D01*
X0191600Y0102557D02*
X0192600Y0102557D01*
X0192600Y0103556D02*
X0191600Y0103556D01*
X0191600Y0104554D02*
X0192600Y0104554D01*
X0192600Y0105553D02*
X0191600Y0105553D01*
X0197993Y0105553D02*
X0198700Y0105553D01*
X0189900Y0112542D02*
X0189300Y0112542D01*
X0192849Y0119532D02*
X0193624Y0119532D01*
X0194643Y0120530D02*
X0191851Y0120530D01*
X0102211Y0040649D02*
X0097085Y0040649D01*
X0096086Y0039651D02*
X0102290Y0039651D01*
X0102900Y0038652D02*
X0095088Y0038652D01*
X0094089Y0037654D02*
X0102900Y0037654D01*
X0102900Y0036655D02*
X0093091Y0036655D01*
X0092100Y0035657D02*
X0102900Y0035657D01*
X0102900Y0034658D02*
X0092100Y0034658D01*
X0092082Y0033660D02*
X0102900Y0033660D01*
X0102900Y0032661D02*
X0091597Y0032661D01*
X0090598Y0031663D02*
X0102900Y0031663D01*
X0102900Y0030664D02*
X0089600Y0030664D01*
X0088601Y0029666D02*
X0102900Y0029666D01*
X0102900Y0028667D02*
X0087603Y0028667D01*
X0086604Y0027669D02*
X0102900Y0027669D01*
X0102900Y0026670D02*
X0078106Y0026670D01*
X0077107Y0025672D02*
X0102900Y0025672D01*
X0102900Y0024673D02*
X0077100Y0024673D01*
X0077100Y0023675D02*
X0102900Y0023675D01*
X0102900Y0022676D02*
X0095599Y0022676D01*
X0096598Y0021678D02*
X0102900Y0021678D01*
X0102977Y0020679D02*
X0097596Y0020679D01*
X0098595Y0019681D02*
X0103390Y0019681D01*
X0104178Y0018682D02*
X0098800Y0018682D01*
X0098800Y0017684D02*
X0105177Y0017684D01*
X0105400Y0016685D02*
X0098800Y0016685D01*
X0098800Y0015687D02*
X0105400Y0015687D01*
X0105400Y0014688D02*
X0098800Y0014688D01*
X0098565Y0013690D02*
X0105635Y0013690D01*
X0106634Y0012691D02*
X0097566Y0012691D01*
X0096568Y0011693D02*
X0107632Y0011693D01*
X0108631Y0010694D02*
X0095569Y0010694D01*
X0088631Y0010694D02*
X0065453Y0010694D01*
X0066451Y0011693D02*
X0087632Y0011693D01*
X0086634Y0012691D02*
X0069127Y0012691D01*
X0070125Y0013690D02*
X0085635Y0013690D01*
X0085605Y0019681D02*
X0080155Y0019681D01*
X0079156Y0020679D02*
X0086604Y0020679D01*
X0087602Y0021678D02*
X0078158Y0021678D01*
X0077159Y0022676D02*
X0088601Y0022676D01*
X0078076Y0014688D02*
X0071124Y0014688D01*
X0072122Y0015687D02*
X0077078Y0015687D01*
X0076079Y0016685D02*
X0073121Y0016685D01*
X0074119Y0017684D02*
X0075081Y0017684D01*
X0059600Y0031700D02*
X0062100Y0034200D01*
X0062100Y0039200D01*
X0064600Y0041700D01*
X0079600Y0041700D01*
X0082100Y0044200D01*
X0087100Y0044200D01*
X0089600Y0046700D01*
X0089600Y0054200D01*
X0092100Y0056700D01*
X0092100Y0061700D01*
X0087100Y0066700D02*
X0087100Y0049200D01*
X0084600Y0046700D01*
X0077100Y0046700D01*
X0059600Y0031700D02*
X0054600Y0031700D01*
X0047100Y0024200D01*
X0042984Y0020679D02*
X0040933Y0020679D01*
X0041651Y0021678D02*
X0042300Y0021678D01*
X0043983Y0019681D02*
X0039684Y0019681D01*
X0037600Y0019681D02*
X0036600Y0019681D01*
X0036600Y0019014D02*
X0036600Y0023700D01*
X0031914Y0023700D01*
X0032028Y0022982D01*
X0032281Y0022204D01*
X0032653Y0021475D01*
X0033134Y0020812D01*
X0033712Y0020234D01*
X0034375Y0019753D01*
X0035104Y0019381D01*
X0035882Y0019128D01*
X0036600Y0019014D01*
X0036600Y0020679D02*
X0037600Y0020679D01*
X0037600Y0021678D02*
X0036600Y0021678D01*
X0036600Y0022676D02*
X0037600Y0022676D01*
X0037600Y0023675D02*
X0036600Y0023675D01*
X0036600Y0024673D02*
X0018754Y0024673D01*
X0015446Y0024673D02*
X0009300Y0024673D01*
X0009300Y0023675D02*
X0013035Y0023675D01*
X0011764Y0022676D02*
X0009300Y0022676D01*
X0009300Y0021678D02*
X0010765Y0021678D01*
X0010090Y0020679D02*
X0009300Y0020679D01*
X0009300Y0019681D02*
X0009676Y0019681D01*
X0009300Y0025672D02*
X0032111Y0025672D01*
X0032523Y0026670D02*
X0009300Y0026670D01*
X0009300Y0027669D02*
X0033215Y0027669D01*
X0034413Y0028667D02*
X0009300Y0028667D01*
X0009300Y0029666D02*
X0049455Y0029666D01*
X0050453Y0030664D02*
X0009300Y0030664D01*
X0009300Y0031663D02*
X0015775Y0031663D01*
X0015882Y0031628D02*
X0016600Y0031514D01*
X0016600Y0036200D01*
X0011914Y0036200D01*
X0012028Y0035482D01*
X0012281Y0034704D01*
X0012653Y0033975D01*
X0013134Y0033312D01*
X0013712Y0032734D01*
X0014375Y0032253D01*
X0015104Y0031881D01*
X0015882Y0031628D01*
X0016600Y0031663D02*
X0017600Y0031663D01*
X0018425Y0031663D02*
X0025150Y0031663D01*
X0023502Y0032661D02*
X0020388Y0032661D01*
X0021319Y0033660D02*
X0022514Y0033660D01*
X0022101Y0034658D02*
X0021896Y0034658D01*
X0017600Y0034658D02*
X0016600Y0034658D01*
X0016600Y0033660D02*
X0017600Y0033660D01*
X0017600Y0032661D02*
X0016600Y0032661D01*
X0013812Y0032661D02*
X0009300Y0032661D01*
X0009300Y0033660D02*
X0012881Y0033660D01*
X0012304Y0034658D02*
X0009300Y0034658D01*
X0009300Y0035657D02*
X0012000Y0035657D01*
X0011986Y0037654D02*
X0009300Y0037654D01*
X0009300Y0038652D02*
X0012267Y0038652D01*
X0012816Y0039651D02*
X0009300Y0039651D01*
X0009300Y0040649D02*
X0013695Y0040649D01*
X0013833Y0042646D02*
X0009300Y0042646D01*
X0009300Y0041648D02*
X0015501Y0041648D01*
X0016600Y0041648D02*
X0017600Y0041648D01*
X0017600Y0042646D02*
X0016600Y0042646D01*
X0016600Y0043645D02*
X0017600Y0043645D01*
X0017600Y0044643D02*
X0016600Y0044643D01*
X0016600Y0045642D02*
X0017600Y0045642D01*
X0016600Y0046640D02*
X0009300Y0046640D01*
X0009300Y0045642D02*
X0012003Y0045642D01*
X0012312Y0044643D02*
X0009300Y0044643D01*
X0009300Y0043645D02*
X0012892Y0043645D01*
X0011984Y0047639D02*
X0009300Y0047639D01*
X0009300Y0048637D02*
X0012262Y0048637D01*
X0012806Y0049636D02*
X0009300Y0049636D01*
X0009300Y0050634D02*
X0013681Y0050634D01*
X0015455Y0051633D02*
X0009300Y0051633D01*
X0009300Y0052632D02*
X0009805Y0052632D01*
X0014395Y0052632D02*
X0025557Y0052632D01*
X0024898Y0051633D02*
X0018745Y0051633D01*
X0017600Y0051633D02*
X0016600Y0051633D01*
X0016600Y0050634D02*
X0017600Y0050634D01*
X0017600Y0049636D02*
X0016600Y0049636D01*
X0016600Y0048637D02*
X0017600Y0048637D01*
X0017600Y0047639D02*
X0016600Y0047639D01*
X0020519Y0050634D02*
X0023398Y0050634D01*
X0022471Y0049636D02*
X0021394Y0049636D01*
X0021938Y0048637D02*
X0022058Y0048637D01*
X0021053Y0053630D02*
X0015394Y0053630D01*
X0016392Y0054629D02*
X0019042Y0054629D01*
X0018043Y0055627D02*
X0016600Y0055627D01*
X0016600Y0056626D02*
X0017573Y0056626D01*
X0017200Y0057624D02*
X0016600Y0057624D01*
X0016541Y0058623D02*
X0017200Y0058623D01*
X0017200Y0059621D02*
X0015543Y0059621D01*
X0014544Y0060620D02*
X0017200Y0060620D01*
X0017200Y0061618D02*
X0014300Y0061618D01*
X0014300Y0062617D02*
X0017200Y0062617D01*
X0017200Y0063615D02*
X0014300Y0063615D01*
X0014300Y0064614D02*
X0017200Y0064614D01*
X0017200Y0065612D02*
X0014300Y0065612D01*
X0015122Y0066611D02*
X0017505Y0066611D01*
X0017918Y0067609D02*
X0016120Y0067609D01*
X0017119Y0068608D02*
X0018878Y0068608D01*
X0018117Y0069606D02*
X0020658Y0069606D01*
X0019116Y0070605D02*
X0034031Y0070605D01*
X0033542Y0069606D02*
X0035707Y0069606D01*
X0035322Y0068608D02*
X0038878Y0068608D01*
X0038493Y0069606D02*
X0040658Y0069606D01*
X0037918Y0067609D02*
X0036282Y0067609D01*
X0036695Y0066611D02*
X0037505Y0066611D01*
X0037200Y0065612D02*
X0037000Y0065612D01*
X0037000Y0064614D02*
X0037200Y0064614D01*
X0037200Y0063615D02*
X0037000Y0063615D01*
X0037000Y0062617D02*
X0037200Y0062617D01*
X0037200Y0061618D02*
X0037000Y0061618D01*
X0037000Y0060620D02*
X0037200Y0060620D01*
X0037200Y0059621D02*
X0037000Y0059621D01*
X0037000Y0058623D02*
X0037200Y0058623D01*
X0037200Y0057624D02*
X0037000Y0057624D01*
X0037100Y0054200D02*
X0039600Y0054200D01*
X0042100Y0051700D01*
X0044600Y0051700D01*
X0047100Y0054200D01*
X0049600Y0054200D01*
X0052100Y0051700D01*
X0057100Y0056700D01*
X0057100Y0066700D01*
X0067100Y0076700D01*
X0071329Y0085582D02*
X0077606Y0085582D01*
X0076608Y0086581D02*
X0070330Y0086581D01*
X0069332Y0087579D02*
X0075609Y0087579D01*
X0074611Y0088578D02*
X0068333Y0088578D01*
X0047100Y0086700D02*
X0042100Y0091700D01*
X0037100Y0091700D01*
X0029600Y0099200D01*
X0027100Y0099200D01*
X0027100Y0091700D01*
X0022100Y0086700D01*
X0022100Y0076700D01*
X0012100Y0066700D01*
X0012100Y0056700D01*
X0009656Y0060620D02*
X0009300Y0060620D01*
X0009300Y0061618D02*
X0009900Y0061618D01*
X0009900Y0062617D02*
X0009300Y0062617D01*
X0009300Y0063615D02*
X0009900Y0063615D01*
X0009900Y0064614D02*
X0009300Y0064614D01*
X0009300Y0065612D02*
X0009900Y0065612D01*
X0009900Y0066611D02*
X0009300Y0066611D01*
X0009300Y0067609D02*
X0009900Y0067609D01*
X0009300Y0068608D02*
X0010896Y0068608D01*
X0011895Y0069606D02*
X0009300Y0069606D01*
X0009300Y0070605D02*
X0012893Y0070605D01*
X0013892Y0071603D02*
X0009300Y0071603D01*
X0009300Y0072602D02*
X0009834Y0072602D01*
X0014366Y0072602D02*
X0014890Y0072602D01*
X0015364Y0073600D02*
X0015889Y0073600D01*
X0016363Y0074599D02*
X0016888Y0074599D01*
X0016600Y0075597D02*
X0017886Y0075597D01*
X0018885Y0076596D02*
X0016600Y0076596D01*
X0016600Y0077594D02*
X0019883Y0077594D01*
X0019900Y0078593D02*
X0016571Y0078593D01*
X0015573Y0079591D02*
X0019900Y0079591D01*
X0024109Y0075597D02*
X0024339Y0075597D01*
X0023110Y0074599D02*
X0032600Y0074599D01*
X0032600Y0075597D02*
X0029861Y0075597D01*
X0030860Y0076596D02*
X0032600Y0076596D01*
X0032600Y0077594D02*
X0031600Y0077594D01*
X0031600Y0078593D02*
X0032600Y0078593D01*
X0032600Y0079591D02*
X0031600Y0079591D01*
X0031600Y0080590D02*
X0032681Y0080590D01*
X0033094Y0081588D02*
X0031076Y0081588D01*
X0031098Y0082587D02*
X0033823Y0082587D01*
X0035204Y0083585D02*
X0032097Y0083585D01*
X0032100Y0086700D02*
X0037100Y0086700D01*
X0047100Y0076700D01*
X0037100Y0076700D02*
X0052100Y0061700D01*
X0057100Y0046700D02*
X0052100Y0041700D01*
X0034600Y0041700D01*
X0032100Y0044200D01*
X0032100Y0051700D01*
X0029600Y0054200D01*
X0027100Y0054200D01*
X0022100Y0059200D01*
X0022100Y0061700D01*
X0027000Y0061618D02*
X0027200Y0061618D01*
X0027200Y0060620D02*
X0027000Y0060620D01*
X0027000Y0059621D02*
X0027200Y0059621D01*
X0027200Y0058623D02*
X0027000Y0058623D01*
X0027000Y0057624D02*
X0027200Y0057624D01*
X0024559Y0053630D02*
X0023147Y0053630D01*
X0027000Y0062617D02*
X0027200Y0062617D01*
X0027200Y0063615D02*
X0027000Y0063615D01*
X0027000Y0064614D02*
X0027200Y0064614D01*
X0027200Y0065612D02*
X0027000Y0065612D01*
X0026695Y0066611D02*
X0027505Y0066611D01*
X0027918Y0067609D02*
X0026282Y0067609D01*
X0025322Y0068608D02*
X0028878Y0068608D01*
X0030658Y0069606D02*
X0023542Y0069606D01*
X0021113Y0072602D02*
X0032767Y0072602D01*
X0032600Y0073600D02*
X0022112Y0073600D01*
X0020115Y0071603D02*
X0033181Y0071603D01*
X0027100Y0079200D02*
X0027100Y0081700D01*
X0032100Y0086700D01*
X0023862Y0091573D02*
X0018308Y0091573D01*
X0018900Y0090575D02*
X0022864Y0090575D01*
X0021865Y0089576D02*
X0018900Y0089576D01*
X0018900Y0088578D02*
X0020867Y0088578D01*
X0019900Y0087579D02*
X0018900Y0087579D01*
X0018062Y0086581D02*
X0019900Y0086581D01*
X0012136Y0085582D02*
X0011800Y0085582D01*
X0032100Y0061700D02*
X0032100Y0059200D01*
X0037100Y0054200D01*
X0017600Y0040649D02*
X0016600Y0040649D01*
X0016600Y0039651D02*
X0017600Y0039651D01*
X0017600Y0038652D02*
X0016600Y0038652D01*
X0016600Y0037654D02*
X0017600Y0037654D01*
X0016600Y0036655D02*
X0009300Y0036655D01*
X0016600Y0035657D02*
X0017600Y0035657D01*
X0029050Y0031663D02*
X0035150Y0031663D01*
X0033502Y0032661D02*
X0030698Y0032661D01*
X0031686Y0033660D02*
X0032514Y0033660D01*
X0032099Y0034658D02*
X0032101Y0034658D01*
X0036600Y0028667D02*
X0037600Y0028667D01*
X0037600Y0027669D02*
X0036600Y0027669D01*
X0036600Y0026670D02*
X0037600Y0026670D01*
X0037600Y0025672D02*
X0036600Y0025672D01*
X0039787Y0028667D02*
X0043930Y0028667D01*
X0042932Y0027669D02*
X0040985Y0027669D01*
X0041677Y0026670D02*
X0042278Y0026670D01*
X0045150Y0031663D02*
X0039050Y0031663D01*
X0040698Y0032661D02*
X0043502Y0032661D01*
X0042514Y0033660D02*
X0041686Y0033660D01*
X0042099Y0034658D02*
X0042101Y0034658D01*
X0049050Y0031663D02*
X0051452Y0031663D01*
X0050698Y0032661D02*
X0052450Y0032661D01*
X0052400Y0032611D02*
X0052400Y0032611D01*
X0052514Y0033660D02*
X0051686Y0033660D01*
X0052099Y0034658D02*
X0052101Y0034658D01*
X0034516Y0019681D02*
X0024524Y0019681D01*
X0024110Y0020679D02*
X0033267Y0020679D01*
X0032549Y0021678D02*
X0023435Y0021678D01*
X0022436Y0022676D02*
X0032127Y0022676D01*
X0031918Y0023675D02*
X0021165Y0023675D01*
X0098083Y0041648D02*
X0101212Y0041648D01*
X0100697Y0042646D02*
X0099410Y0042646D01*
X0041127Y0099562D02*
X0038385Y0099562D01*
X0040124Y0100560D02*
X0040129Y0100560D01*
X0038133Y0115538D02*
X0036067Y0115538D01*
X0036590Y0116536D02*
X0037610Y0116536D01*
X0037200Y0117535D02*
X0037000Y0117535D01*
X0037000Y0118533D02*
X0037200Y0118533D01*
X0037200Y0119532D02*
X0037000Y0119532D01*
X0037000Y0120530D02*
X0037200Y0120530D01*
X0037200Y0121529D02*
X0037000Y0121529D01*
X0037000Y0122527D02*
X0037200Y0122527D01*
X0037200Y0123526D02*
X0037000Y0123526D01*
X0037000Y0124524D02*
X0037200Y0124524D01*
X0037200Y0125523D02*
X0037000Y0125523D01*
X0027610Y0116536D02*
X0027006Y0116536D01*
X0026067Y0115538D02*
X0028133Y0115538D01*
X0029131Y0114539D02*
X0025069Y0114539D01*
D12*
X0157100Y0031700D03*
D13*
X0177100Y0031700D03*
D14*
X0184600Y0056700D03*
X0184600Y0066700D03*
X0142100Y0041700D03*
X0132100Y0041700D03*
X0117100Y0041700D03*
X0107100Y0041700D03*
X0062100Y0014200D03*
X0052100Y0014200D03*
X0187100Y0124200D03*
X0187100Y0134200D03*
X0104600Y0166700D03*
X0104600Y0176700D03*
X0094600Y0176700D03*
X0094600Y0166700D03*
D15*
X0097100Y0109500D02*
X0097100Y0103900D01*
X0087100Y0103900D02*
X0087100Y0109500D01*
X0077100Y0109500D02*
X0077100Y0103900D01*
X0067100Y0103900D02*
X0067100Y0109500D01*
X0057100Y0109500D02*
X0057100Y0103900D01*
X0047100Y0103900D02*
X0047100Y0109500D01*
X0037100Y0109500D02*
X0037100Y0103900D01*
X0037100Y0079500D02*
X0037100Y0073900D01*
X0047100Y0073900D02*
X0047100Y0079500D01*
X0057100Y0079500D02*
X0057100Y0073900D01*
X0067100Y0073900D02*
X0067100Y0079500D01*
X0077100Y0079500D02*
X0077100Y0073900D01*
X0087100Y0073900D02*
X0087100Y0079500D01*
X0097100Y0079500D02*
X0097100Y0073900D01*
X0197100Y0064500D02*
X0197100Y0058900D01*
X0197100Y0034500D02*
X0197100Y0028900D01*
X0197100Y0111400D02*
X0197100Y0117000D01*
X0197100Y0141400D02*
X0197100Y0147000D01*
D16*
X0192100Y0164200D03*
X0182100Y0164200D03*
X0177100Y0144200D03*
X0177100Y0124200D03*
X0169600Y0116700D03*
X0189600Y0116700D03*
X0132100Y0096700D03*
X0127100Y0101700D03*
X0122100Y0096700D03*
X0112100Y0096700D03*
X0107100Y0101700D03*
X0107100Y0111700D03*
X0107100Y0131700D03*
X0099600Y0131700D03*
X0087100Y0141700D03*
X0077100Y0141700D03*
X0087100Y0159200D03*
X0099600Y0151700D03*
X0107100Y0151700D03*
X0087100Y0179200D03*
X0067100Y0111700D03*
X0047100Y0111700D03*
X0027100Y0099200D03*
X0014600Y0089200D03*
X0012100Y0076700D03*
X0027100Y0079200D03*
X0012100Y0056700D03*
X0014600Y0109200D03*
X0077100Y0046700D03*
X0097100Y0046700D03*
X0104600Y0051700D03*
X0124600Y0051700D03*
X0132100Y0051700D03*
X0152100Y0051700D03*
X0132100Y0076700D03*
X0122100Y0076700D03*
X0112100Y0076700D03*
X0127100Y0111700D03*
D17*
X0142100Y0106700D03*
X0152100Y0106700D03*
X0162100Y0106700D03*
X0172100Y0106700D03*
X0172100Y0076700D03*
X0162100Y0076700D03*
X0152100Y0076700D03*
X0142100Y0076700D03*
D18*
X0142100Y0064900D02*
X0142100Y0058500D01*
X0132100Y0058500D02*
X0132100Y0064900D01*
X0122100Y0064900D02*
X0122100Y0058500D01*
X0112100Y0058500D02*
X0112100Y0064900D01*
X0102100Y0064900D02*
X0102100Y0058500D01*
X0092100Y0058500D02*
X0092100Y0064900D01*
X0082100Y0064900D02*
X0082100Y0058500D01*
X0072100Y0058500D02*
X0072100Y0064900D01*
X0062100Y0064900D02*
X0062100Y0058500D01*
X0052100Y0058500D02*
X0052100Y0064900D01*
X0042100Y0064900D02*
X0042100Y0058500D01*
X0032100Y0058500D02*
X0032100Y0064900D01*
X0022100Y0064900D02*
X0022100Y0058500D01*
X0022100Y0118500D02*
X0022100Y0124900D01*
X0032100Y0124900D02*
X0032100Y0118500D01*
X0042100Y0118500D02*
X0042100Y0124900D01*
X0052100Y0124900D02*
X0052100Y0118500D01*
X0062100Y0118500D02*
X0062100Y0124900D01*
X0072100Y0124900D02*
X0072100Y0118500D01*
X0082100Y0118500D02*
X0082100Y0124900D01*
X0092100Y0124900D02*
X0092100Y0118500D01*
X0102100Y0118500D02*
X0102100Y0124900D01*
X0112100Y0124900D02*
X0112100Y0118500D01*
X0122100Y0118500D02*
X0122100Y0124900D01*
X0132100Y0124900D02*
X0132100Y0118500D01*
X0142100Y0118500D02*
X0142100Y0124900D01*
X0152100Y0124900D02*
X0152100Y0118500D01*
X0162100Y0118500D02*
X0162100Y0124900D01*
X0188900Y0101700D02*
X0195300Y0101700D01*
X0195300Y0091700D02*
X0188900Y0091700D01*
X0188900Y0081700D02*
X0195300Y0081700D01*
X0162100Y0064900D02*
X0162100Y0058500D01*
X0152100Y0058500D02*
X0152100Y0064900D01*
D19*
X0132100Y0016700D03*
X0112100Y0016700D03*
X0092100Y0016700D03*
X0072100Y0191700D03*
X0052100Y0191700D03*
X0032100Y0191700D03*
X0132100Y0191700D03*
X0152100Y0191700D03*
X0172100Y0191700D03*
D20*
X0169600Y0166700D03*
X0169600Y0156700D03*
X0169600Y0146700D03*
X0169600Y0136700D03*
X0129600Y0136700D03*
X0129600Y0146700D03*
X0129600Y0156700D03*
X0129600Y0166700D03*
X0067100Y0166700D03*
X0067100Y0156700D03*
X0067100Y0146700D03*
X0067100Y0136700D03*
X0027100Y0136700D03*
X0027100Y0146700D03*
X0027100Y0156700D03*
X0027100Y0166700D03*
D21*
X0117100Y0164200D03*
X0067100Y0024200D03*
D22*
X0057100Y0024200D03*
X0047100Y0024200D03*
X0037100Y0024200D03*
X0037100Y0036700D03*
X0037100Y0046700D03*
X0027100Y0046700D03*
X0017100Y0046700D03*
X0017100Y0036700D03*
X0027100Y0036700D03*
X0047100Y0036700D03*
X0047100Y0046700D03*
X0057100Y0046700D03*
X0067100Y0046700D03*
X0067100Y0036700D03*
X0057100Y0036700D03*
X0077100Y0036700D03*
X0117100Y0134200D03*
X0117100Y0144200D03*
X0117100Y0154200D03*
X0112100Y0191700D03*
X0102100Y0191700D03*
X0092100Y0191700D03*
X0014600Y0161700D03*
X0014600Y0151700D03*
X0014600Y0141700D03*
D23*
X0099600Y0131700D02*
X0099600Y0124200D01*
X0102100Y0121700D01*
X0122100Y0106700D02*
X0112100Y0096700D01*
X0122100Y0096700D01*
X0122100Y0106700D02*
X0142100Y0106700D01*
X0132100Y0096700D02*
X0152100Y0076700D01*
X0162100Y0076700D01*
X0137100Y0051700D02*
X0142100Y0046700D01*
X0142100Y0041700D01*
X0142100Y0026700D01*
X0132100Y0016700D01*
X0132100Y0051700D02*
X0137100Y0051700D01*
X0189600Y0116700D02*
X0187100Y0124200D01*
D24*
X0177100Y0124200D01*
X0189600Y0116700D02*
X0192100Y0114200D01*
X0197100Y0114200D01*
X0189600Y0116700D02*
X0192100Y0101700D01*
X0192100Y0081700D02*
X0194600Y0081700D01*
X0197100Y0079200D01*
X0197100Y0061700D01*
X0192100Y0056700D01*
X0184600Y0056700D01*
X0172100Y0066700D02*
X0172100Y0076700D01*
X0172100Y0066700D02*
X0167100Y0061700D01*
X0162100Y0061700D01*
X0162100Y0046700D01*
X0177100Y0031700D01*
X0197100Y0031700D01*
X0132100Y0041700D02*
X0117100Y0041700D01*
X0107100Y0041700D02*
X0107100Y0021700D01*
X0112100Y0016700D01*
X0107100Y0041700D02*
X0104600Y0044200D01*
X0104600Y0051700D01*
X0169600Y0136700D02*
X0169600Y0146700D01*
X0169600Y0156700D02*
X0169600Y0166700D01*
X0132100Y0169200D02*
X0132100Y0191700D01*
X0124600Y0184200D01*
X0104600Y0184200D01*
X0102100Y0186700D01*
X0102100Y0191700D01*
X0129600Y0166700D02*
X0132100Y0169200D01*
X0129600Y0156700D02*
X0129600Y0146700D01*
X0067100Y0146700D02*
X0067100Y0156700D01*
X0067100Y0166700D02*
X0067100Y0176700D01*
X0052100Y0191700D01*
X0027100Y0166700D02*
X0027100Y0156700D01*
X0027100Y0146700D02*
X0027100Y0136700D01*
D25*
X0062100Y0124200D02*
X0062100Y0121700D01*
X0097100Y0046700D02*
X0097100Y0044200D01*
X0089600Y0036700D01*
X0089600Y0034200D01*
X0084600Y0029200D01*
X0077100Y0029200D01*
X0074600Y0026700D01*
X0074600Y0021700D01*
X0079600Y0016700D01*
X0092100Y0016700D01*
X0074600Y0021700D02*
X0067100Y0014200D01*
X0062100Y0014200D01*
X0169600Y0116700D02*
X0169600Y0124200D01*
X0187100Y0141700D01*
X0187100Y0159200D01*
X0192100Y0164200D01*
X0197100Y0171700D02*
X0197100Y0144200D01*
X0182100Y0164200D02*
X0172100Y0174200D01*
X0169600Y0174200D01*
X0152100Y0191700D01*
X0172100Y0191700D02*
X0184600Y0179200D01*
X0189600Y0179200D01*
X0197100Y0171700D01*
M02*
