%
M48
M72
T01C0.03200
T02C0.03543
T03C0.04000
T04C0.04400
T05C0.05512
T06C0.12598
%
T01
X77100Y141700
X87100Y141700
X99600Y131700
X107100Y131700
X107100Y111700
X107100Y101700
X112100Y96700
X122100Y96700
X127100Y101700
X132100Y96700
X142100Y106700
X152100Y106700
X162100Y106700
X172100Y106700
X169600Y116700
X177100Y124200
X187100Y124200
X189600Y116700
X197100Y114200
X187100Y134200
X177100Y144200
X197100Y144200
X192100Y164200
X182100Y164200
X107100Y151700
X99600Y151700
X87100Y159200
X94600Y166700
X94600Y176700
X87100Y179200
X104600Y176700
X104600Y166700
X127100Y111700
X97100Y106700
X87100Y106700
X77100Y106700
X67100Y106700
X67100Y111700
X57100Y106700
X47100Y106700
X47100Y111700
X37100Y106700
X27100Y99200
X14600Y89200
X12100Y76700
X27100Y79200
X37100Y76700
X47100Y76700
X57100Y76700
X67100Y76700
X77100Y76700
X87100Y76700
X97100Y76700
X112100Y76700
X122100Y76700
X132100Y76700
X142100Y76700
X152100Y76700
X162100Y76700
X172100Y76700
X184600Y66700
X184600Y56700
X197100Y61700
X197100Y31700
X12100Y56700
X52100Y14200
X62100Y14200
X77100Y46700
X97100Y46700
X104600Y51700
X107100Y41700
X117100Y41700
X124600Y51700
X132100Y51700
X132100Y41700
X142100Y41700
X152100Y51700
X14600Y109200
T02
X157100Y31700
X177100Y31700
T03
X14600Y161700
X14600Y151700
X14600Y141700
X22100Y121700
X32100Y121700
X42100Y121700
X52100Y121700
X62100Y121700
X72100Y121700
X82100Y121700
X92100Y121700
X102100Y121700
X112100Y121700
X122100Y121700
X132100Y121700
X142100Y121700
X152100Y121700
X162100Y121700
X192100Y101700
X192100Y91700
X192100Y81700
X162100Y61700
X152100Y61700
X142100Y61700
X132100Y61700
X122100Y61700
X112100Y61700
X102100Y61700
X92100Y61700
X82100Y61700
X72100Y61700
X62100Y61700
X52100Y61700
X42100Y61700
X32100Y61700
X22100Y61700
X17100Y46700
X27100Y46700
X27100Y36700
X17100Y36700
X77100Y36700
X67100Y36700
X57100Y36700
X57100Y46700
X67100Y46700
X47100Y46700
X47100Y36700
X37100Y36700
X37100Y46700
X37100Y24200
X47100Y24200
X57100Y24200
X67100Y24200
X117100Y134200
X117100Y144200
X117100Y154200
X117100Y164200
X112100Y191700
X102100Y191700
X92100Y191700
T04
X27100Y166700
X27100Y156700
X27100Y146700
X27100Y136700
X67100Y136700
X67100Y146700
X67100Y156700
X67100Y166700
X129600Y166700
X129600Y156700
X129600Y146700
X129600Y136700
X169600Y136700
X169600Y146700
X169600Y156700
X169600Y166700
T05
X32100Y191700
X52100Y191700
X72100Y191700
X132100Y191700
X152100Y191700
X172100Y191700
X92100Y16700
X112100Y16700
X132100Y16700
T06
X17100Y191700
X17100Y16700
X192100Y16700
X189600Y191700
M30
